<svg width="24" height="24" viewBox="0 0 24 24" fill="none" xmlns="http://www.w3.org/2000/svg">
<path d="M12.0118 8.42377L9.16747 6.65967V4.6957L10.5732 3.20968L9.40587 1.98438L8.34541 3.1054L7.28494 1.98438L6.11761 3.20968L7.52334 4.6957V6.65967L5.46818 7.91105L3.82405 6.92906L3.34725 4.90426L1.76888 5.35615L2.15525 6.8943L0.700195 7.30274L1.12767 8.97993L3.04308 8.44115L4.68721 9.42313V11.9346L3.04308 12.9166L1.12767 12.3778L0.700195 14.055L2.15525 14.4634L1.76888 15.9929L3.35547 16.4448L3.86515 14.42L5.50928 13.438L7.52334 14.6894V16.6533L6.11761 18.1393L7.28494 19.3646L8.34541 18.2436L9.40587 19.3646L10.565 18.1393L9.16747 16.6533V14.6894L12.0118 12.9426V8.42377ZM6.29024 9.42313L8.34541 8.16306L10.4006 9.42313V11.9259L8.34541 13.186L6.29024 11.9259V9.42313ZM15.744 4.59142C14.8315 4.59142 14.0999 5.36484 14.0999 6.32944V12.204C13.5737 12.6993 13.2778 13.4119 13.2778 14.1506C13.2778 15.5931 14.3794 16.7576 15.744 16.7576C17.1086 16.7576 18.2102 15.5931 18.2102 14.1506C18.2102 13.4119 17.9143 12.6993 17.3881 12.2127V6.32944C17.3881 5.36484 16.6565 4.59142 15.744 4.59142ZM15.744 5.46043C16.1961 5.46043 16.5661 5.85149 16.5661 6.32944V7.19846H14.9219V6.32944C14.9219 5.85149 15.2919 5.46043 15.744 5.46043Z" fill="#4A4A4A"/>
</svg>
