<svg width="40" height="40" viewBox="0 0 40 40" fill="none" xmlns="http://www.w3.org/2000/svg">
<path d="M24.9999 2.08329H14.9999C5.94992 2.08329 2.08325 5.94996 2.08325 15V25C2.08325 34.05 5.94992 37.9166 14.9999 37.9166H24.9999C34.0499 37.9166 37.9166 34.05 37.9166 25V15C37.9166 5.94996 34.0499 2.08329 24.9999 2.08329ZM14.9999 35.4166C7.31659 35.4166 4.58325 32.6833 4.58325 25V15C4.58325 7.31662 7.31659 4.58329 14.9999 4.58329H24.9999C32.6833 4.58329 35.4166 7.31662 35.4166 15V25C35.4166 32.6833 32.6833 35.4166 24.9999 35.4166H14.9999Z" fill="#4A4A4A"/>
<path d="M25.8833 16.3166C25.5667 16.3166 25.25 16.4333 25 16.6833L20 21.6833L15 16.6833C14.5167 16.2 13.7167 16.2 13.2333 16.6833C12.75 17.1666 12.75 17.9666 13.2333 18.45L19.1167 24.3333C19.6 24.8166 20.4 24.8166 20.8833 24.3333L26.7667 18.45C27.25 17.9666 27.25 17.1666 26.7667 16.6833C26.5167 16.4333 26.2 16.3166 25.8833 16.3166Z" fill="#4A4A4A"/>
</svg>
