<svg width="16" height="15" viewBox="0 0 16 15" fill="none" xmlns="http://www.w3.org/2000/svg">
<path d="M8.02556 3.94124C7.28707 3.94124 6.56516 4.1507 5.95113 4.54313C5.3371 4.93555 4.85852 5.49333 4.57591 6.14591C4.2933 6.7985 4.21936 7.51658 4.36343 8.20936C4.5075 8.90214 4.86312 9.5385 5.38531 10.038C5.9075 10.5374 6.57281 10.8776 7.29711 11.0154C8.02142 11.1532 8.77217 11.0825 9.45445 10.8122C10.1367 10.5418 10.7199 10.0841 11.1302 9.49678C11.5404 8.90946 11.7594 8.21897 11.7594 7.51262C11.7602 7.04341 11.6642 6.57866 11.4768 6.14502C11.2895 5.71138 11.0145 5.31737 10.6676 4.98559C10.3207 4.6538 9.90876 4.39076 9.45538 4.21155C9.00201 4.03234 8.51612 3.94048 8.02556 3.94124ZM8.02556 9.83431C7.54548 9.83431 7.07618 9.69814 6.67701 9.44303C6.27784 9.18792 5.96673 8.82533 5.78301 8.40109C5.59929 7.97686 5.55122 7.51005 5.64488 7.05968C5.73854 6.60932 5.96972 6.19564 6.30918 5.87094C6.64865 5.54625 7.08116 5.32513 7.55201 5.23555C8.02286 5.14596 8.51092 5.19194 8.95445 5.36766C9.39799 5.54339 9.77708 5.84096 10.0438 6.22276C10.3105 6.60456 10.4529 7.05344 10.4529 7.51262C10.4517 8.12801 10.1955 8.71786 9.74058 9.15301C9.28564 9.58816 8.66895 9.83314 8.02556 9.83431ZM12.7831 3.79536C12.7831 3.96006 12.7321 4.12106 12.6364 4.25801C12.5408 4.39496 12.4048 4.50171 12.2457 4.56476C12.0867 4.62781 11.9116 4.64433 11.7427 4.61223C11.5738 4.58013 11.4187 4.50085 11.2969 4.38442C11.1751 4.26799 11.0921 4.11964 11.0585 3.95811C11.0248 3.79658 11.042 3.62914 11.1078 3.47695C11.1737 3.32477 11.2852 3.19466 11.4283 3.1031C11.5715 3.01153 11.7398 2.96261 11.9119 2.96252C12.0264 2.96223 12.1398 2.98357 12.2456 3.02532C12.3514 3.06706 12.4475 3.12839 12.5285 3.20578C12.6094 3.28317 12.6736 3.37509 12.7173 3.47627C12.761 3.57745 12.7834 3.68589 12.7831 3.79536ZM15.2553 4.64234C15.279 3.5598 14.8565 2.51179 14.0791 1.72476C13.2546 0.983651 12.16 0.579944 11.0287 0.599728C9.8271 0.534303 6.22217 0.534303 5.02053 0.599728C3.8896 0.578449 2.79484 0.981116 1.9702 1.72167C1.19405 2.50949 0.771762 3.55697 0.793977 4.63925C0.725575 5.7886 0.725575 9.23665 0.793977 10.386C0.770219 11.4685 1.19273 12.5166 1.9702 13.3036C2.79504 14.0442 3.88939 14.4478 5.02053 14.4286C6.22217 14.494 9.8271 14.494 11.0287 14.4286C12.1605 14.4513 13.2562 14.0472 14.0791 13.3036C14.8539 12.515 15.276 11.468 15.2553 10.386C15.3237 9.23665 15.3237 5.79213 15.2553 4.6419V4.64234ZM13.7029 11.6185C13.5793 11.9187 13.3924 12.1914 13.1539 12.4195C12.9153 12.6477 12.6302 12.8264 12.3163 12.9446C11.3578 13.3084 9.08115 13.2244 8.02371 13.2244C6.96626 13.2244 4.68638 13.3053 3.73107 12.9446C3.41718 12.8264 3.1321 12.6477 2.89356 12.4195C2.65502 12.1914 2.46814 11.9187 2.34456 11.6185C1.96419 10.7016 2.052 8.52405 2.052 7.51262C2.052 6.50119 1.96743 4.32053 2.34456 3.40679C2.46814 3.10656 2.65502 2.83388 2.89356 2.60573C3.1321 2.37757 3.41718 2.19883 3.73107 2.08062C4.68961 1.71681 6.96626 1.8008 8.02371 1.8008C9.08115 1.8008 11.361 1.7199 12.3163 2.08062C12.6302 2.19883 12.9153 2.37757 13.1539 2.60573C13.3924 2.83388 13.5793 3.10656 13.7029 3.40679C14.0832 4.32362 13.9954 6.50119 13.9954 7.51262C13.9954 8.52405 14.0828 10.7047 13.7029 11.6185Z" fill="white"/>
</svg>
