<svg width="13" height="18" viewBox="0 0 13 18" fill="none" xmlns="http://www.w3.org/2000/svg">
<path d="M10.5221 2.39939H8.01978C7.56762 2.40083 7.58454 3.07475 8.01978 3.07079H10.5221V3.41531H8.01978C7.57014 3.41135 7.5867 4.08491 8.01978 4.08671H10.5221V4.43879H8.01978C7.57014 4.43879 7.5867 5.11199 8.01978 5.11019H10.5221V5.44571H8.01978C7.5795 5.44895 7.5867 6.12287 8.01978 6.12503H10.5221V6.46127H8.01978C7.5795 6.45983 7.5777 7.13267 8.01978 7.13267H10.5221V7.46819H8.01978C7.5795 7.46963 7.5777 8.14319 8.01978 8.13995H10.5221V8.48375H8.01978C7.5795 8.47979 7.5777 9.15263 8.01978 9.15515H10.5221V9.48995H8.01978C7.5795 9.48959 7.5867 10.1639 8.01978 10.1617H10.5221V16.699C10.5236 17.6951 12.0367 17.6771 12.041 16.699V1.40075C12.0367 0.945712 11.663 0.370432 11.0481 0.368632H8.01978C7.56762 0.368992 7.58454 1.04291 8.01978 1.04003L10.5221 1.04831V1.38311H8.01978C7.56834 1.38095 7.58526 2.05451 8.01978 2.05487H10.5221V2.39939ZM7.8477 13.9892C7.84626 12.8264 6.64098 11.5758 5.20098 12.3858V7.93835L4.26966 0.603352C4.25022 0.409312 4.0857 0.363592 3.97518 0.360352C3.86106 0.363592 3.63246 0.409312 3.60762 0.603352L2.68098 7.93835V12.3858C1.24098 11.5758 0.0745788 12.8344 0.0742188 13.9802C0.0745788 14.9998 0.859379 15.8371 1.92138 15.8346C2.9913 15.8371 3.76098 14.8986 3.76098 13.9802V9.36035H4.12098V13.9802C4.12098 15.0084 4.9173 15.7694 5.80218 15.8177C5.78742 16.3814 5.97138 17.1857 6.3177 17.5046C6.72378 17.879 7.20726 17.4002 7.0089 17.0104C6.81738 16.6475 6.62946 16.4326 6.7821 15.6402C7.42002 15.345 7.84626 14.7236 7.8477 13.9892ZM1.96242 14.904C1.71967 14.904 1.48686 14.8076 1.3152 14.6359C1.14355 14.4643 1.04712 14.2314 1.04712 13.9887C1.04712 13.7459 1.14355 13.5131 1.3152 13.3415C1.48686 13.1698 1.71967 13.0734 1.96242 13.0734C2.46138 13.0763 2.86782 13.4856 2.87142 13.9892C2.87039 14.2305 2.77447 14.4617 2.60439 14.6329C2.4343 14.8041 2.20371 14.9014 1.96242 14.904ZM5.04798 13.9892C5.04882 13.7477 5.14469 13.5162 5.31486 13.3448C5.48504 13.1735 5.71583 13.0759 5.95734 13.0734C6.19893 13.0756 6.42991 13.173 6.6001 13.3445C6.7703 13.5159 6.86597 13.7476 6.86634 13.9892C6.86597 14.2307 6.77026 14.4623 6.60003 14.6336C6.42981 14.8049 6.19883 14.9021 5.95734 14.904C5.7159 14.9018 5.48505 14.8046 5.31483 14.6333C5.1446 14.4621 5.04873 14.2307 5.04798 13.9892Z" fill="#A8ABC1"/>
</svg>
