<svg width="34" height="36" viewBox="0 0 34 36" fill="none" xmlns="http://www.w3.org/2000/svg">
<path d="M31.7333 32.4C32.2284 32.4 32.7032 32.5896 33.0533 32.9272C33.4033 33.2648 33.6 33.7226 33.6 34.2C33.6 34.6774 33.4033 35.1352 33.0533 35.4728C32.7032 35.8104 32.2284 36 31.7333 36C31.2383 36 30.7635 35.8104 30.4134 35.4728C30.0633 35.1352 29.8667 34.6774 29.8667 34.2C29.8667 33.7226 30.0633 33.2648 30.4134 32.9272C30.7635 32.5896 31.2383 32.4 31.7333 32.4ZM24.2667 32.4C24.7617 32.4 25.2365 32.5896 25.5866 32.9272C25.9367 33.2648 26.1333 33.7226 26.1333 34.2C26.1333 34.6774 25.9367 35.1352 25.5866 35.4728C25.2365 35.8104 24.7617 36 24.2667 36C23.7716 36 23.2968 35.8104 22.9467 35.4728C22.5967 35.1352 22.4 34.6774 22.4 34.2C22.4 33.7226 22.5967 33.2648 22.9467 32.9272C23.2968 32.5896 23.7716 32.4 24.2667 32.4ZM16.8 32.4C17.2951 32.4 17.7699 32.5896 18.1199 32.9272C18.47 33.2648 18.6667 33.7226 18.6667 34.2C18.6667 34.6774 18.47 35.1352 18.1199 35.4728C17.7699 35.8104 17.2951 36 16.8 36C16.3049 36 15.8301 35.8104 15.4801 35.4728C15.13 35.1352 14.9333 34.6774 14.9333 34.2C14.9333 33.7226 15.13 33.2648 15.4801 32.9272C15.8301 32.5896 16.3049 32.4 16.8 32.4ZM9.33333 32.4C9.8284 32.4 10.3032 32.5896 10.6533 32.9272C11.0033 33.2648 11.2 33.7226 11.2 34.2C11.2 34.6774 11.0033 35.1352 10.6533 35.4728C10.3032 35.8104 9.8284 36 9.33333 36C8.83826 36 8.36347 35.8104 8.0134 35.4728C7.66333 35.1352 7.46667 34.6774 7.46667 34.2C7.46667 33.7226 7.66333 33.2648 8.0134 32.9272C8.36347 32.5896 8.83826 32.4 9.33333 32.4ZM1.86667 32.4C2.36174 32.4 2.83653 32.5896 3.1866 32.9272C3.53667 33.2648 3.73333 33.7226 3.73333 34.2C3.73333 34.6774 3.53667 35.1352 3.1866 35.4728C2.83653 35.8104 2.36174 36 1.86667 36C1.3716 36 0.896802 35.8104 0.546734 35.4728C0.196666 35.1352 0 34.6774 0 34.2C0 33.7226 0.196666 33.2648 0.546734 32.9272C0.896802 32.5896 1.3716 32.4 1.86667 32.4ZM5.6 27C6.09507 27 6.56986 27.1896 6.91993 27.5272C7.27 27.8648 7.46667 28.3226 7.46667 28.8C7.46667 29.2774 7.27 29.7352 6.91993 30.0728C6.56986 30.4104 6.09507 30.6 5.6 30.6C5.10493 30.6 4.63014 30.4104 4.28007 30.0728C3.93 29.7352 3.73333 29.2774 3.73333 28.8C3.73333 28.3226 3.93 27.8648 4.28007 27.5272C4.63014 27.1896 5.10493 27 5.6 27ZM13.0667 27C13.5617 27 14.0365 27.1896 14.3866 27.5272C14.7367 27.8648 14.9333 28.3226 14.9333 28.8C14.9333 29.2774 14.7367 29.7352 14.3866 30.0728C14.0365 30.4104 13.5617 30.6 13.0667 30.6C12.5716 30.6 12.0968 30.4104 11.7467 30.0728C11.3967 29.7352 11.2 29.2774 11.2 28.8C11.2 28.3226 11.3967 27.8648 11.7467 27.5272C12.0968 27.1896 12.5716 27 13.0667 27ZM20.5333 27C21.0284 27 21.5032 27.1896 21.8533 27.5272C22.2033 27.8648 22.4 28.3226 22.4 28.8C22.4 29.2774 22.2033 29.7352 21.8533 30.0728C21.5032 30.4104 21.0284 30.6 20.5333 30.6C20.0383 30.6 19.5635 30.4104 19.2134 30.0728C18.8633 29.7352 18.6667 29.2774 18.6667 28.8C18.6667 28.3226 18.8633 27.8648 19.2134 27.5272C19.5635 27.1896 20.0383 27 20.5333 27ZM28 27C28.4951 27 28.9699 27.1896 29.3199 27.5272C29.67 27.8648 29.8667 28.3226 29.8667 28.8C29.8667 29.2774 29.67 29.7352 29.3199 30.0728C28.9699 30.4104 28.4951 30.6 28 30.6C27.5049 30.6 27.0301 30.4104 26.6801 30.0728C26.33 29.7352 26.1333 29.2774 26.1333 28.8C26.1333 28.3226 26.33 27.8648 26.6801 27.5272C27.0301 27.1896 27.5049 27 28 27ZM9.33333 21.6C9.8284 21.6 10.3032 21.7896 10.6533 22.1272C11.0033 22.4648 11.2 22.9226 11.2 23.4C11.2 23.8774 11.0033 24.3352 10.6533 24.6728C10.3032 25.0104 9.8284 25.2 9.33333 25.2C8.83826 25.2 8.36347 25.0104 8.0134 24.6728C7.66333 24.3352 7.46667 23.8774 7.46667 23.4C7.46667 22.9226 7.66333 22.4648 8.0134 22.1272C8.36347 21.7896 8.83826 21.6 9.33333 21.6ZM16.8 21.6C17.2951 21.6 17.7699 21.7896 18.1199 22.1272C18.47 22.4648 18.6667 22.9226 18.6667 23.4C18.6667 23.8774 18.47 24.3352 18.1199 24.6728C17.7699 25.0104 17.2951 25.2 16.8 25.2C16.3049 25.2 15.8301 25.0104 15.4801 24.6728C15.13 24.3352 14.9333 23.8774 14.9333 23.4C14.9333 22.9226 15.13 22.4648 15.4801 22.1272C15.8301 21.7896 16.3049 21.6 16.8 21.6ZM24.2667 21.6C24.7617 21.6 25.2365 21.7896 25.5866 22.1272C25.9367 22.4648 26.1333 22.9226 26.1333 23.4C26.1333 23.8774 25.9367 24.3352 25.5866 24.6728C25.2365 25.0104 24.7617 25.2 24.2667 25.2C23.7716 25.2 23.2968 25.0104 22.9467 24.6728C22.5967 24.3352 22.4 23.8774 22.4 23.4C22.4 22.9226 22.5967 22.4648 22.9467 22.1272C23.2968 21.7896 23.7716 21.6 24.2667 21.6ZM29.8667 18H3.73333V14.4H29.8667V18ZM27.8507 12.6H5.74933C6.53333 8.1 10.2667 4.5 14.9333 3.744V0H18.6667V3.744C23.3333 4.5 27.0667 8.1 27.8507 12.6Z" fill="#E71575"/>
</svg>
