<svg width="38" height="36" viewBox="0 0 38 36" fill="none" xmlns="http://www.w3.org/2000/svg">
<path d="M32.9651 12.8571V5.14286C32.9651 3.77889 32.469 2.47078 31.5858 1.50631C30.7026 0.541835 29.5048 0 28.2558 0H9.4186C8.16962 0 6.97179 0.541835 6.08862 1.50631C5.20546 2.47078 4.7093 3.77889 4.7093 5.14286V12.8571C3.46032 12.8571 2.26249 13.399 1.37932 14.3635C0.496157 15.3279 0 16.636 0 18V30.8571H3.13169L4.7093 36H7.06395L8.64157 30.8571H29.0328L30.6105 36H32.9651L34.5427 30.8571H37.6744V18C37.6744 16.636 37.1783 15.3279 36.2951 14.3635C35.4119 13.399 34.2141 12.8571 32.9651 12.8571ZM16.4826 12.8571H9.4186V5.14286H16.4826V12.8571ZM28.2558 12.8571H21.1919V5.14286H28.2558V12.8571Z" fill="#E71575"/>
</svg>
