<svg width="30" height="30" viewBox="0 0 30 30" fill="none" xmlns="http://www.w3.org/2000/svg">
<g clip-path="url(#clip0_378_2279)">
<path d="M25.6339 18.5167H19.25V12.6546H17.1607C17.8074 11.7462 18.1549 10.6407 18.1505 9.50568C18.1505 7.81787 17.3914 6.23197 16.1695 5.367L15.6511 5L15.1328 5.367C13.9107 6.23209 13.1519 7.81793 13.1519 9.50568C13.1475 10.6407 13.4951 11.7462 14.1419 12.6545H11.8214V18.5167H6.36607C5.47364 18.5178 4.61806 18.8912 3.98702 19.5552C3.35598 20.2192 3.00101 21.1194 3 22.0584V33.0459C3.00055 33.564 3.19639 34.0607 3.54456 34.427C3.89272 34.7934 4.36477 34.9994 4.85714 35H27.1429C27.6352 34.9994 28.1073 34.7934 28.4554 34.427C28.8036 34.0607 28.9994 33.564 29 33.0459V22.0585C28.999 21.1195 28.644 20.2192 28.013 19.5553C27.3819 18.8913 26.5264 18.5178 25.6339 18.5167ZM15.6511 7.49313C16.0568 8.02341 16.2933 8.74287 16.2933 9.50575C16.2933 10.2686 16.0568 10.9881 15.6511 11.5184C15.2455 10.9881 15.009 10.2686 15.009 9.50568C15.009 8.74275 15.2455 8.02341 15.6511 7.49313ZM13.6786 14.6086H17.3929V18.5167H13.6786V14.6086ZM4.85714 22.0585C4.8576 21.6375 5.01673 21.234 5.29961 20.9364C5.58249 20.6387 5.96602 20.4713 6.36607 20.4708H25.6339C26.034 20.4713 26.4175 20.6387 26.7004 20.9364C26.9833 21.234 27.1424 21.6375 27.1429 22.0585V23.9867L25.8893 24.5687C25.6441 24.6822 25.3792 24.7408 25.1113 24.7408C24.8435 24.7408 24.5786 24.6822 24.3334 24.5687L22.1518 23.5558L19.9696 24.5686C19.7245 24.6822 19.4595 24.7408 19.1917 24.7408C18.9238 24.7408 18.6589 24.6822 18.4137 24.5686L16.2321 23.5558L14.05 24.5686C13.8048 24.6821 13.5399 24.7407 13.272 24.7407C13.0042 24.7407 12.7392 24.6821 12.4941 24.5686L10.3125 23.5558L8.13076 24.5686C7.88559 24.6821 7.62066 24.7407 7.35279 24.7407C7.08493 24.7407 6.82 24.6821 6.57483 24.5686L4.85714 23.7713V22.0585ZM27.1429 33.0459H4.85714V25.9071L5.82506 26.3564C6.30649 26.5793 6.82671 26.6944 7.35268 26.6944C7.87865 26.6944 8.39887 26.5793 8.88029 26.3564L10.3125 25.6916L11.7448 26.3564C12.2262 26.5793 12.7464 26.6944 13.2724 26.6944C13.7983 26.6944 14.3185 26.5793 14.7999 26.3564L16.2321 25.6916L17.6643 26.3564C18.1457 26.5793 18.6659 26.6944 19.1918 26.6944C19.7178 26.6944 20.238 26.5793 20.7194 26.3564L22.1518 25.6916L23.584 26.3565C24.0654 26.5793 24.5856 26.6944 25.1115 26.6944C25.6375 26.6944 26.1576 26.5793 26.639 26.3565L27.1436 26.1223L27.144 33.0459H27.1429Z" fill="#E71575"/>
</g>
<defs>
<clipPath id="clip0_378_2279">
<rect width="28.147" height="28.147" fill="white" transform="translate(0.882446 0.874023)"/>
</clipPath>
</defs>
</svg>
