<svg width="46" height="48" viewBox="0 0 46 48" fill="none" xmlns="http://www.w3.org/2000/svg">
<path d="M20.8155 2.71535C21.4838 2.34418 22.2357 2.14941 23.0002 2.14941C23.7647 2.14941 24.5166 2.34418 25.185 2.71535L42.0937 12.1068C42.4443 12.3018 42.7364 12.5869 42.9397 12.9327C43.143 13.2784 43.2503 13.6722 43.2502 14.0733V32.6021C43.2501 33.4045 43.0353 34.1924 42.6282 34.8839C42.2211 35.5754 41.6365 36.1455 40.935 36.5351L25.185 45.2876C24.5166 45.6588 23.7647 45.8535 23.0002 45.8535C22.2357 45.8535 21.4838 45.6588 20.8155 45.2876L5.06549 36.5351C4.36429 36.1457 3.77992 35.576 3.37285 34.8849C2.96579 34.1938 2.75084 33.4064 2.75024 32.6043V14.0733C2.75023 13.6722 2.85744 13.2784 3.06078 12.9327C3.26412 12.5869 3.55619 12.3018 3.90674 12.1068L20.8177 2.71535H20.8155Z" stroke="#E71575" stroke-width="3.84279" stroke-linecap="round" stroke-linejoin="round"/>
<path d="M23.0002 24V45.375M2.75024 12.75L23.0002 24L2.75024 12.75ZM23.0002 24L43.2502 12.75L23.0002 24Z" stroke="#E71575" stroke-width="3.84279" stroke-linejoin="round"/>
<path d="M12.875 18.375L33.125 7.125" stroke="#E71575" stroke-width="3.84279" stroke-linecap="round" stroke-linejoin="round"/>
<path d="M9.50049 24.7383L16.2505 28.5003" stroke="#E71575" stroke-width="3.84279" stroke-linecap="round" stroke-linejoin="round"/>
</svg>
