<svg width="16" height="14" viewBox="0 0 16 14" fill="none" xmlns="http://www.w3.org/2000/svg">
<path d="M8.75 10H7.25C6.8375 10 6.5 9.6625 6.5 9.25H1.2575V12.25C1.2575 13.075 1.9325 13.75 2.7575 13.75H13.25C14.075 13.75 14.75 13.075 14.75 12.25V9.25H9.5C9.5 9.6625 9.1625 10 8.75 10ZM14 3.25H11C11 1.5925 9.6575 0.25 8 0.25C6.3425 0.25 5 1.5925 5 3.25H2C1.175 3.25 0.5 3.925 0.5 4.75V7C0.5 7.8325 1.1675 8.5 2 8.5H6.5V7.75C6.5 7.3375 6.8375 7 7.25 7H8.75C9.1625 7 9.5 7.3375 9.5 7.75V8.5H14C14.825 8.5 15.5 7.825 15.5 7V4.75C15.5 3.925 14.825 3.25 14 3.25ZM6.5 3.25C6.5 2.425 7.175 1.75 8 1.75C8.825 1.75 9.5 2.425 9.5 3.25H6.4925H6.5Z" fill="#A8ABC1"/>
</svg>
