<svg width="16" height="14" viewBox="0 0 16 14" fill="none" xmlns="http://www.w3.org/2000/svg">
<path d="M15.4709 6.68662C15.4709 6.06884 15.1324 5.53525 14.6343 5.24557V1.24897C14.6343 1.02021 14.4518 0.412109 13.7977 0.412109C13.6116 0.412109 13.4268 0.474332 13.2754 0.595639L11.0524 2.3742C9.93577 3.26675 8.53394 3.75851 7.10492 3.75851H2.08531C1.16113 3.75851 0.412109 4.50753 0.412109 5.43172V7.94152C0.412109 8.8657 1.16113 9.61472 2.08531 9.61472H2.96636C2.93002 9.88871 2.90936 10.1674 2.90936 10.4513C2.90936 11.4911 3.15146 12.4735 3.5776 13.3517C3.71329 13.6312 4.0095 13.7977 4.32008 13.7977H6.26204C6.94309 13.7977 7.35198 13.0176 6.93917 12.4759C6.51041 11.9133 6.25551 11.2116 6.25551 10.4513C6.25551 10.1609 6.29786 9.88165 6.3708 9.61472H7.10492C8.53394 9.61472 9.93577 10.1065 11.0521 10.999L13.2751 12.7776C13.4234 12.8962 13.6076 12.961 13.7975 12.9611C14.449 12.9611 14.6341 12.3656 14.6341 12.1245V8.12793C15.1324 7.83799 15.4709 7.3044 15.4709 6.68662ZM12.9611 10.3839L12.0971 9.69263C10.6853 8.56322 8.91198 7.94152 7.10492 7.94152V5.43172C8.91198 5.43172 10.6853 4.81002 12.0971 3.68061L12.9611 2.98936V10.3839Z" fill="#A8ABC1"/>
</svg>
