<svg width="40" height="40" viewBox="0 0 40 40" fill="none" xmlns="http://www.w3.org/2000/svg">
<path d="M35.4318 19.914C35.7831 19.8239 36.0948 19.62 36.3182 19.3342C36.5416 19.0484 36.6641 18.6967 36.6668 18.334V13.334C36.6668 12.8933 36.492 12.4705 36.1809 12.1584C35.8697 11.8463 35.4475 11.6703 35.0068 11.669V10.0007H35.0001C35.0001 6.32398 32.0101 3.33398 28.3334 3.33398H11.6668C7.99009 3.33398 5.00009 6.32398 5.00009 10.0007V11.6673C4.55806 11.6673 4.13414 11.8429 3.82158 12.1555C3.50901 12.468 3.33342 12.892 3.33342 13.334V18.334C3.33342 19.1023 3.86175 19.7206 4.57009 19.914C3.76905 21.0306 3.33724 22.3698 3.33509 23.744L3.34175 30.0057C3.34342 31.2273 4.01509 32.2873 5.00009 32.8657V35.0007C5.00009 35.4427 5.17568 35.8666 5.48824 36.1792C5.8008 36.4917 6.22473 36.6673 6.66675 36.6673H8.33342C8.77545 36.6673 9.19937 36.4917 9.51193 36.1792C9.82449 35.8666 10.0001 35.4427 10.0001 35.0007V33.334H30.0001V35.0007C30.0001 35.4427 30.1757 35.8666 30.4882 36.1792C30.8008 36.4917 31.2247 36.6673 31.6668 36.6673H33.3334C33.7754 36.6673 34.1994 36.4917 34.5119 36.1792C34.8245 35.8666 35.0001 35.4427 35.0001 35.0007V32.8773C35.2557 32.7347 35.4915 32.5593 35.7018 32.3556C36.3301 31.7257 36.6768 30.8873 36.6751 29.9973L36.6684 23.7323C36.6619 22.3621 36.2298 21.0278 35.4318 19.914ZM8.33342 30.0007H6.67509L6.66842 23.739C6.66675 22.974 6.93675 22.2557 7.40675 21.6673H32.5918C33.0634 22.2557 33.3334 22.9723 33.3351 23.7373L33.3434 30.0007H8.33342ZM18.3401 13.334V18.334H8.33342V13.334H18.3401ZM31.6668 18.334H21.6734V13.334H31.6668V18.334ZM11.6668 6.66732H28.3334C30.1718 6.66732 31.6668 8.16232 31.6668 10.0007H25.0001V8.33398H15.0001V10.0007H8.33342C8.33342 8.16232 9.82842 6.66732 11.6668 6.66732Z" fill="#E71575"/>
<path d="M10.8334 28.334C12.2141 28.334 13.3334 27.2147 13.3334 25.834C13.3334 24.4533 12.2141 23.334 10.8334 23.334C9.45271 23.334 8.33342 24.4533 8.33342 25.834C8.33342 27.2147 9.45271 28.334 10.8334 28.334Z" fill="#E71575"/>
<path d="M29.1666 28.334C30.5473 28.334 31.6666 27.2147 31.6666 25.834C31.6666 24.4533 30.5473 23.334 29.1666 23.334C27.7859 23.334 26.6666 24.4533 26.6666 25.834C26.6666 27.2147 27.7859 28.334 29.1666 28.334Z" fill="#E71575"/>
</svg>
