<svg width="32" height="32" viewBox="0 0 32 32" fill="none" xmlns="http://www.w3.org/2000/svg">
<path d="M24 5.33268H22.6667V3.99935C22.6667 3.64573 22.5262 3.30659 22.2761 3.05654C22.0261 2.80649 21.687 2.66602 21.3333 2.66602C20.9797 2.66602 20.6406 2.80649 20.3905 3.05654C20.1405 3.30659 20 3.64573 20 3.99935V5.33268H12V3.99935C12 3.64573 11.8595 3.30659 11.6095 3.05654C11.3594 2.80649 11.0203 2.66602 10.6667 2.66602C10.313 2.66602 9.97391 2.80649 9.72386 3.05654C9.47381 3.30659 9.33333 3.64573 9.33333 3.99935V5.33268H8C6.93913 5.33268 5.92172 5.75411 5.17157 6.50426C4.42143 7.2544 4 8.27182 4 9.33268V25.3327C4 26.3935 4.42143 27.411 5.17157 28.1611C5.92172 28.9113 6.93913 29.3327 8 29.3327H24C25.0609 29.3327 26.0783 28.9113 26.8284 28.1611C27.5786 27.411 28 26.3935 28 25.3327V9.33268C28 8.27182 27.5786 7.2544 26.8284 6.50426C26.0783 5.75411 25.0609 5.33268 24 5.33268ZM8 7.99935H9.33333V9.33268C9.33333 9.6863 9.47381 10.0254 9.72386 10.2755C9.97391 10.5255 10.313 10.666 10.6667 10.666C11.0203 10.666 11.3594 10.5255 11.6095 10.2755C11.8595 10.0254 12 9.6863 12 9.33268V7.99935H20V9.33268C20 9.6863 20.1405 10.0254 20.3905 10.2755C20.6406 10.5255 20.9797 10.666 21.3333 10.666C21.687 10.666 22.0261 10.5255 22.2761 10.2755C22.5262 10.0254 22.6667 9.6863 22.6667 9.33268V7.99935H24C24.3536 7.99935 24.6928 8.13982 24.9428 8.38987C25.1929 8.63992 25.3333 8.97906 25.3333 9.33268V14.666H6.66667V9.33268C6.66667 8.97906 6.80714 8.63992 7.05719 8.38987C7.30724 8.13982 7.64638 7.99935 8 7.99935ZM24 26.666H8C7.64638 26.666 7.30724 26.5255 7.05719 26.2755C6.80714 26.0254 6.66667 25.6863 6.66667 25.3327V17.3327H25.3333V25.3327C25.3333 25.6863 25.1929 26.0254 24.9428 26.2755C24.6928 26.5255 24.3536 26.666 24 26.666Z" fill="#0DB668"/>
<path d="M10.6667 22.6667C11.403 22.6667 12 22.0697 12 21.3333C12 20.597 11.403 20 10.6667 20C9.93029 20 9.33334 20.597 9.33334 21.3333C9.33334 22.0697 9.93029 22.6667 10.6667 22.6667Z" fill="#0DB668"/>
<path d="M21.3333 20H16C15.6464 20 15.3072 20.1405 15.0572 20.3905C14.8071 20.6406 14.6667 20.9797 14.6667 21.3333C14.6667 21.687 14.8071 22.0261 15.0572 22.2761C15.3072 22.5262 15.6464 22.6667 16 22.6667H21.3333C21.687 22.6667 22.0261 22.5262 22.2761 22.2761C22.5262 22.0261 22.6667 21.687 22.6667 21.3333C22.6667 20.9797 22.5262 20.6406 22.2761 20.3905C22.0261 20.1405 21.687 20 21.3333 20Z" fill="#0DB668"/>
</svg>
