<svg width="24" height="25" viewBox="0 0 24 25" fill="none" xmlns="http://www.w3.org/2000/svg">
<path d="M16.75 3.87641V2.31641C16.75 1.90641 16.41 1.56641 16 1.56641C15.59 1.56641 15.25 1.90641 15.25 2.31641V3.81641H8.74999V2.31641C8.74999 1.90641 8.40999 1.56641 7.99999 1.56641C7.58999 1.56641 7.24999 1.90641 7.24999 2.31641V3.87641C4.54999 4.12641 3.23999 5.73641 3.03999 8.12641C3.01999 8.41641 3.25999 8.65641 3.53999 8.65641H20.46C20.75 8.65641 20.99 8.40641 20.96 8.12641C20.76 5.73641 19.45 4.12641 16.75 3.87641Z" fill="#9C9C9C"/>
<path d="M19 15.3164C16.79 15.3164 15 17.1064 15 19.3164C15 20.0664 15.21 20.7764 15.58 21.3764C16.27 22.5364 17.54 23.3164 19 23.3164C20.46 23.3164 21.73 22.5364 22.42 21.3764C22.79 20.7764 23 20.0664 23 19.3164C23 17.1064 21.21 15.3164 19 15.3164ZM21.07 18.8864L18.94 20.8564C18.8 20.9864 18.61 21.0564 18.43 21.0564C18.24 21.0564 18.05 20.9864 17.9 20.8364L16.91 19.8464C16.62 19.5564 16.62 19.0764 16.91 18.7864C17.2 18.4964 17.68 18.4964 17.97 18.7864L18.45 19.2664L20.05 17.7864C20.35 17.5064 20.83 17.5264 21.11 17.8264C21.39 18.1264 21.37 18.5964 21.07 18.8864Z" fill="#9C9C9C"/>
<path d="M20 10.1565H4C3.45 10.1565 3 10.6065 3 11.1565V17.3165C3 20.3165 4.5 22.3165 8 22.3165H12.93C13.62 22.3165 14.1 21.6465 13.88 20.9965C13.68 20.4165 13.51 19.7765 13.51 19.3165C13.51 16.2865 15.98 13.8165 19.01 13.8165C19.3 13.8165 19.59 13.8365 19.87 13.8865C20.47 13.9765 21.01 13.5065 21.01 12.9065V11.1665C21 10.6065 20.55 10.1565 20 10.1565ZM9.21 18.5265C9.02 18.7065 8.76 18.8165 8.5 18.8165C8.24 18.8165 7.98 18.7065 7.79 18.5265C7.61 18.3365 7.5 18.0765 7.5 17.8165C7.5 17.5565 7.61 17.2965 7.79 17.1065C7.89 17.0165 7.99 16.9465 8.12 16.8965C8.49 16.7365 8.93 16.8265 9.21 17.1065C9.39 17.2965 9.5 17.5565 9.5 17.8165C9.5 18.0765 9.39 18.3365 9.21 18.5265ZM9.21 15.0265C9.16 15.0665 9.11 15.1065 9.06 15.1465C9 15.1865 8.94 15.2165 8.88 15.2365C8.82 15.2665 8.76 15.2865 8.7 15.2965C8.63 15.3065 8.56 15.3165 8.5 15.3165C8.24 15.3165 7.98 15.2065 7.79 15.0265C7.61 14.8365 7.5 14.5765 7.5 14.3165C7.5 14.0565 7.61 13.7965 7.79 13.6065C8.02 13.3765 8.37 13.2665 8.7 13.3365C8.76 13.3465 8.82 13.3665 8.88 13.3965C8.94 13.4165 9 13.4465 9.06 13.4865C9.11 13.5265 9.16 13.5665 9.21 13.6065C9.39 13.7965 9.5 14.0565 9.5 14.3165C9.5 14.5765 9.39 14.8365 9.21 15.0265ZM12.71 15.0265C12.52 15.2065 12.26 15.3165 12 15.3165C11.74 15.3165 11.48 15.2065 11.29 15.0265C11.11 14.8365 11 14.5765 11 14.3165C11 14.0565 11.11 13.7965 11.29 13.6065C11.67 13.2365 12.34 13.2365 12.71 13.6065C12.89 13.7965 13 14.0565 13 14.3165C13 14.5765 12.89 14.8365 12.71 15.0265Z" fill="#9C9C9C"/>
</svg>
