<svg width="28" height="28" viewBox="0 0 28 28" fill="none" xmlns="http://www.w3.org/2000/svg">
<path d="M22.625 0.207031C23.9179 0.207031 25.1579 0.720646 26.0721 1.63489C26.9864 2.54913 27.5 3.7891 27.5 5.08203V22.332C27.5 23.625 26.9864 24.8649 26.0721 25.7792C25.1579 26.6934 23.9179 27.207 22.625 27.207H5.375C4.08207 27.207 2.84209 26.6934 1.92785 25.7792C1.01361 24.8649 0.5 23.625 0.5 22.332V5.08203C0.5 3.7891 1.01361 2.54913 1.92785 1.63489C2.84209 0.720646 4.08207 0.207031 5.375 0.207031H22.625ZM22.625 2.45703H5.375C4.67881 2.45703 4.01113 2.73359 3.51884 3.22588C3.02656 3.71816 2.75 4.38584 2.75 5.08203V22.332C2.75 23.781 3.926 24.957 5.375 24.957H22.625C23.3212 24.957 23.9889 24.6805 24.4812 24.1882C24.9734 23.6959 25.25 23.0282 25.25 22.332V5.08203C25.25 4.38584 24.9734 3.71816 24.4812 3.22588C23.9889 2.73359 23.3212 2.45703 22.625 2.45703ZM7.625 15.957C8.12228 15.957 8.59919 16.1546 8.95082 16.5062C9.30246 16.8578 9.5 17.3348 9.5 17.832C9.5 18.3293 9.30246 18.8062 8.95082 19.1579C8.59919 19.5095 8.12228 19.707 7.625 19.707C7.12772 19.707 6.65081 19.5095 6.29917 19.1579C5.94754 18.8062 5.75 18.3293 5.75 17.832C5.75 17.3348 5.94754 16.8578 6.29917 16.5062C6.65081 16.1546 7.12772 15.957 7.625 15.957ZM14 15.957C14.4973 15.957 14.9742 16.1546 15.3258 16.5062C15.6775 16.8578 15.875 17.3348 15.875 17.832C15.875 18.3293 15.6775 18.8062 15.3258 19.1579C14.9742 19.5095 14.4973 19.707 14 19.707C13.5027 19.707 13.0258 19.5095 12.6742 19.1579C12.3225 18.8062 12.125 18.3293 12.125 17.832C12.125 17.3348 12.3225 16.8578 12.6742 16.5062C13.0258 16.1546 13.5027 15.957 14 15.957ZM7.625 8.45703C8.12228 8.45703 8.59919 8.65458 8.95082 9.00621C9.30246 9.35784 9.5 9.83475 9.5 10.332C9.5 10.8293 9.30246 11.3062 8.95082 11.6579C8.59919 12.0095 8.12228 12.207 7.625 12.207C7.12772 12.207 6.65081 12.0095 6.29917 11.6579C5.94754 11.3062 5.75 10.8293 5.75 10.332C5.75 9.83475 5.94754 9.35784 6.29917 9.00621C6.65081 8.65458 7.12772 8.45703 7.625 8.45703ZM14 8.45703C14.4973 8.45703 14.9742 8.65458 15.3258 9.00621C15.6775 9.35784 15.875 9.83475 15.875 10.332C15.875 10.8293 15.6775 11.3062 15.3258 11.6579C14.9742 12.0095 14.4973 12.207 14 12.207C13.5027 12.207 13.0258 12.0095 12.6742 11.6579C12.3225 11.3062 12.125 10.8293 12.125 10.332C12.125 9.83475 12.3225 9.35784 12.6742 9.00621C13.0258 8.65458 13.5027 8.45703 14 8.45703ZM20.375 8.45703C20.8723 8.45703 21.3492 8.65458 21.7008 9.00621C22.0525 9.35784 22.25 9.83475 22.25 10.332C22.25 10.8293 22.0525 11.3062 21.7008 11.6579C21.3492 12.0095 20.8723 12.207 20.375 12.207C19.8777 12.207 19.4008 12.0095 19.0492 11.6579C18.6975 11.3062 18.5 10.8293 18.5 10.332C18.5 9.83475 18.6975 9.35784 19.0492 9.00621C19.4008 8.65458 19.8777 8.45703 20.375 8.45703Z" fill="#E71575"/>
</svg>
