<svg width="28" height="28" viewBox="0 0 28 28" fill="none" xmlns="http://www.w3.org/2000/svg">
<path d="M20.7083 3.5C21.7139 3.5 22.6784 3.89948 23.3894 4.61055C24.1005 5.32163 24.5 6.28605 24.5 7.29167V20.7083C24.5 21.7139 24.1005 22.6784 23.3894 23.3894C22.6784 24.1005 21.7139 24.5 20.7083 24.5H7.29167C6.28605 24.5 5.32163 24.1005 4.61055 23.3894C3.89948 22.6784 3.5 21.7139 3.5 20.7083V7.29167C3.5 6.28605 3.89948 5.32163 4.61055 4.61055C5.32163 3.89948 6.28605 3.5 7.29167 3.5H20.7083ZM22.75 9.91667H5.25V20.7083C5.25 21.8353 6.16467 22.75 7.29167 22.75H20.7083C21.2498 22.75 21.7691 22.5349 22.152 22.152C22.5349 21.7691 22.75 21.2498 22.75 20.7083V9.91667ZM9.04167 16.9167C9.42844 16.9167 9.79937 17.0703 10.0729 17.3438C10.3464 17.6173 10.5 17.9882 10.5 18.375C10.5 18.7618 10.3464 19.1327 10.0729 19.4062C9.79937 19.6797 9.42844 19.8333 9.04167 19.8333C8.65489 19.8333 8.28396 19.6797 8.01047 19.4062C7.73698 19.1327 7.58333 18.7618 7.58333 18.375C7.58333 17.9882 7.73698 17.6173 8.01047 17.3438C8.28396 17.0703 8.65489 16.9167 9.04167 16.9167ZM14 16.9167C14.3868 16.9167 14.7577 17.0703 15.0312 17.3438C15.3047 17.6173 15.4583 17.9882 15.4583 18.375C15.4583 18.7618 15.3047 19.1327 15.0312 19.4062C14.7577 19.6797 14.3868 19.8333 14 19.8333C13.6132 19.8333 13.2423 19.6797 12.9688 19.4062C12.6953 19.1327 12.5417 18.7618 12.5417 18.375C12.5417 17.9882 12.6953 17.6173 12.9688 17.3438C13.2423 17.0703 13.6132 16.9167 14 16.9167ZM9.04167 12.25C9.42844 12.25 9.79937 12.4036 10.0729 12.6771C10.3464 12.9506 10.5 13.3216 10.5 13.7083C10.5 14.0951 10.3464 14.466 10.0729 14.7395C9.79937 15.013 9.42844 15.1667 9.04167 15.1667C8.65489 15.1667 8.28396 15.013 8.01047 14.7395C7.73698 14.466 7.58333 14.0951 7.58333 13.7083C7.58333 13.3216 7.73698 12.9506 8.01047 12.6771C8.28396 12.4036 8.65489 12.25 9.04167 12.25ZM14 12.25C14.3868 12.25 14.7577 12.4036 15.0312 12.6771C15.3047 12.9506 15.4583 13.3216 15.4583 13.7083C15.4583 14.0951 15.3047 14.466 15.0312 14.7395C14.7577 15.013 14.3868 15.1667 14 15.1667C13.6132 15.1667 13.2423 15.013 12.9688 14.7395C12.6953 14.466 12.5417 14.0951 12.5417 13.7083C12.5417 13.3216 12.6953 12.9506 12.9688 12.6771C13.2423 12.4036 13.6132 12.25 14 12.25ZM18.9583 12.25C19.3451 12.25 19.716 12.4036 19.9895 12.6771C20.263 12.9506 20.4167 13.3216 20.4167 13.7083C20.4167 14.0951 20.263 14.466 19.9895 14.7395C19.716 15.013 19.3451 15.1667 18.9583 15.1667C18.5716 15.1667 18.2006 15.013 17.9271 14.7395C17.6536 14.466 17.5 14.0951 17.5 13.7083C17.5 13.3216 17.6536 12.9506 17.9271 12.6771C18.2006 12.4036 18.5716 12.25 18.9583 12.25ZM20.7083 5.25H7.29167C6.75018 5.25 6.23088 5.4651 5.84799 5.84799C5.4651 6.23088 5.25 6.75018 5.25 7.29167V8.16667H22.75V7.29167C22.75 6.75018 22.5349 6.23088 22.152 5.84799C21.7691 5.4651 21.2498 5.25 20.7083 5.25Z" fill="#39D38C"/>
</svg>
