<svg viewBox="0 0 10 10" fill="none" xmlns="http://www.w3.org/2000/svg">
<path d="M2.67147 0C2.75889 0 2.84274 0.0368749 2.90456 0.102513C2.96637 0.16815 3.0011 0.257174 3.0011 0.35V1.0045H6.54093V0.3545C6.54093 0.261674 6.57566 0.17265 6.63747 0.107013C6.69929 0.0413749 6.78314 0.0045 6.87056 0.0045C6.95799 0.0045 7.04183 0.0413749 7.10365 0.107013C7.16547 0.17265 7.2002 0.261674 7.2002 0.3545V1.0045H8.47636C8.72607 1.0045 8.96555 1.10979 9.14216 1.29722C9.31877 1.48464 9.41806 1.73887 9.41818 2.004V9.0005C9.41806 9.26563 9.31877 9.51986 9.14216 9.70728C8.96555 9.89471 8.72607 10 8.47636 10H0.941818C0.692114 10 0.45263 9.89471 0.276019 9.70728C0.0994069 9.51986 0.000124852 9.26563 0 9.0005L0 2.004C0.000124852 1.73887 0.0994069 1.48464 0.276019 1.29722C0.45263 1.10979 0.692114 1.0045 0.941818 1.0045H2.34183V0.3495C2.34196 0.256761 2.37674 0.167865 2.43855 0.102336C2.50035 0.0368062 2.58412 -9.46317e-08 2.67147 0V0ZM0.659273 3.871V9.0005C0.659273 9.0399 0.666581 9.07891 0.68078 9.1153C0.694979 9.1517 0.715792 9.18477 0.742028 9.21263C0.768265 9.24049 0.799413 9.26259 0.833693 9.27766C0.867973 9.29274 0.904714 9.3005 0.941818 9.3005H8.47636C8.51347 9.3005 8.55021 9.29274 8.58449 9.27766C8.61877 9.26259 8.64992 9.24049 8.67615 9.21263C8.70239 9.18477 8.7232 9.1517 8.7374 9.1153C8.7516 9.07891 8.75891 9.0399 8.75891 9.0005V3.878L0.659273 3.871ZM3.13955 7.3095V8.1425H2.35455V7.3095H3.13955ZM5.10136 7.3095V8.1425H4.31682V7.3095H5.10136ZM7.06364 7.3095V8.1425H6.27863V7.3095H7.06364ZM3.13955 5.321V6.154H2.35455V5.321H3.13955ZM5.10136 5.321V6.154H4.31682V5.321H5.10136ZM7.06364 5.321V6.154H6.27863V5.321H7.06364ZM2.34183 1.704H0.941818C0.904714 1.704 0.867973 1.71176 0.833693 1.72684C0.799413 1.74191 0.768265 1.76401 0.742028 1.79187C0.715792 1.81973 0.694979 1.8528 0.68078 1.88919C0.666581 1.92559 0.659273 1.9646 0.659273 2.004V3.1715L8.75891 3.1785V2.004C8.75891 1.9646 8.7516 1.92559 8.7374 1.88919C8.7232 1.8528 8.70239 1.81973 8.67615 1.79187C8.64992 1.76401 8.61877 1.74191 8.58449 1.72684C8.55021 1.71176 8.51347 1.704 8.47636 1.704H7.2002V2.1685C7.2002 2.26133 7.16547 2.35035 7.10365 2.41599C7.04183 2.48163 6.95799 2.5185 6.87056 2.5185C6.78314 2.5185 6.69929 2.48163 6.63747 2.41599C6.57566 2.35035 6.54093 2.26133 6.54093 2.1685V1.704H3.0011V2.164C3.0011 2.25683 2.96637 2.34585 2.90456 2.41149C2.84274 2.47713 2.75889 2.514 2.67147 2.514C2.58404 2.514 2.5002 2.47713 2.43838 2.41149C2.37656 2.34585 2.34183 2.25683 2.34183 2.164V1.704V1.704Z" fill="#0F6378"/>
</svg>
