<svg width="26" height="25" viewBox="0 0 26 25" fill="none" xmlns="http://www.w3.org/2000/svg">
<path d="M5.5 0.6875C5.5 0.505164 5.42757 0.330295 5.29864 0.201364C5.1697 0.0724328 4.99484 0 4.8125 0C4.63016 0 4.4553 0.0724328 4.32636 0.201364C4.19743 0.330295 4.125 0.505164 4.125 0.6875V1.375H2.75C2.02065 1.375 1.32118 1.66473 0.805456 2.18046C0.289731 2.69618 0 3.39565 0 4.125L0 5.5H22V4.125C22 3.39565 21.7103 2.69618 21.1945 2.18046C20.6788 1.66473 19.9793 1.375 19.25 1.375H17.875V0.6875C17.875 0.505164 17.8026 0.330295 17.6736 0.201364C17.5447 0.0724328 17.3698 0 17.1875 0C17.0052 0 16.8303 0.0724328 16.7014 0.201364C16.5724 0.330295 16.5 0.505164 16.5 0.6875V1.375H5.5V0.6875ZM22 19.25V6.875H0V19.25C0 19.9793 0.289731 20.6788 0.805456 21.1945C1.32118 21.7103 2.02065 22 2.75 22H19.25C19.9793 22 20.6788 21.7103 21.1945 21.1945C21.7103 20.6788 22 19.9793 22 19.25ZM13.0625 9.625H14.4375C14.6198 9.625 14.7947 9.69743 14.9236 9.82636C15.0526 9.9553 15.125 10.1302 15.125 10.3125V11.6875C15.125 11.8698 15.0526 12.0447 14.9236 12.1736C14.7947 12.3026 14.6198 12.375 14.4375 12.375H13.0625C12.8802 12.375 12.7053 12.3026 12.5764 12.1736C12.4474 12.0447 12.375 11.8698 12.375 11.6875V10.3125C12.375 10.1302 12.4474 9.9553 12.5764 9.82636C12.7053 9.69743 12.8802 9.625 13.0625 9.625ZM17.1875 9.625H18.5625C18.7448 9.625 18.9197 9.69743 19.0486 9.82636C19.1776 9.9553 19.25 10.1302 19.25 10.3125V11.6875C19.25 11.8698 19.1776 12.0447 19.0486 12.1736C18.9197 12.3026 18.7448 12.375 18.5625 12.375H17.1875C17.0052 12.375 16.8303 12.3026 16.7014 12.1736C16.5724 12.0447 16.5 11.8698 16.5 11.6875V10.3125C16.5 10.1302 16.5724 9.9553 16.7014 9.82636C16.8303 9.69743 17.0052 9.625 17.1875 9.625ZM2.75 14.4375C2.75 14.2552 2.82243 14.0803 2.95136 13.9514C3.0803 13.8224 3.25516 13.75 3.4375 13.75H4.8125C4.99484 13.75 5.1697 13.8224 5.29864 13.9514C5.42757 14.0803 5.5 14.2552 5.5 14.4375V15.8125C5.5 15.9948 5.42757 16.1697 5.29864 16.2986C5.1697 16.4276 4.99484 16.5 4.8125 16.5H3.4375C3.25516 16.5 3.0803 16.4276 2.95136 16.2986C2.82243 16.1697 2.75 15.9948 2.75 15.8125V14.4375ZM7.5625 13.75H8.9375C9.11984 13.75 9.2947 13.8224 9.42364 13.9514C9.55257 14.0803 9.625 14.2552 9.625 14.4375V15.8125C9.625 15.9948 9.55257 16.1697 9.42364 16.2986C9.2947 16.4276 9.11984 16.5 8.9375 16.5H7.5625C7.38016 16.5 7.2053 16.4276 7.07636 16.2986C6.94743 16.1697 6.875 15.9948 6.875 15.8125V14.4375C6.875 14.2552 6.94743 14.0803 7.07636 13.9514C7.2053 13.8224 7.38016 13.75 7.5625 13.75Z" fill="#E71575"/>
<circle cx="19.5" cy="18.5" r="4.5" fill="white"/>
<path d="M25.5 18.5C25.5 16.9087 24.8679 15.3826 23.7426 14.2574C22.6174 13.1321 21.0913 12.5 19.5 12.5C17.9087 12.5 16.3826 13.1321 15.2574 14.2574C14.1321 15.3826 13.5 16.9087 13.5 18.5C13.5 20.0913 14.1321 21.6174 15.2574 22.7426C16.3826 23.8679 17.9087 24.5 19.5 24.5C21.0913 24.5 22.6174 23.8679 23.7426 22.7426C24.8679 21.6174 25.5 20.0913 25.5 18.5Z" fill="#E71575" stroke="#76F4BA"/>
</svg>
