<svg width="16" height="17" viewBox="0 0 16 17" fill="none" xmlns="http://www.w3.org/2000/svg">
<path d="M10.9379 5.3422L10.9379 5.34219L10.9355 5.33965C10.4906 4.87248 9.92124 4.50769 9.34671 4.50769C9.34248 4.50769 9.34036 4.50695 9.33927 4.5065C9.33783 4.50589 9.33638 4.50494 9.33511 4.50368C9.33489 4.50346 9.3347 4.50326 9.33452 4.50306C9.33493 4.50256 9.33543 4.50202 9.33601 4.50144C9.33837 4.49912 9.34092 4.49754 9.34292 4.49669C9.34458 4.49599 9.34564 4.49585 9.34671 4.49585C9.83484 4.49585 10.4129 4.75965 10.9661 5.33435C11.4938 5.88477 11.7667 6.5092 11.7667 6.86712C11.7667 6.86825 11.7666 6.86853 11.7665 6.86884L11.7664 6.86888C11.7661 6.86957 11.7652 6.87122 11.7632 6.8732C11.7612 6.87519 11.7588 6.87682 11.7562 6.8779C11.7539 6.87883 11.751 6.87962 11.7467 6.87962C11.7425 6.87962 11.7404 6.87888 11.7393 6.87842C11.7378 6.87782 11.7364 6.87687 11.7351 6.8756C11.7341 6.87463 11.7336 6.87382 11.7334 6.8734C11.7333 6.62489 11.6226 6.3477 11.4993 6.11717C11.3652 5.86643 11.1744 5.59414 10.9379 5.3422Z" fill="#EF5DA8" stroke="#EF5DA8"/>
<path d="M14.1533 6.87949C14.1491 6.87949 14.1469 6.87875 14.1459 6.87829C14.1444 6.87769 14.143 6.87674 14.1417 6.87547C14.1407 6.8745 14.1402 6.87369 14.14 6.87327C14.1398 4.25743 11.982 2.14879 9.3533 2.14879C9.34907 2.14879 9.34695 2.14805 9.34586 2.14759C9.34443 2.14699 9.34297 2.14604 9.3417 2.14477C9.34074 2.14382 9.34022 2.14301 9.33998 2.14259C9.34001 2.1422 9.34015 2.1414 9.34071 2.14007C9.34161 2.13793 9.34326 2.13529 9.34558 2.13292C9.34665 2.13182 9.34764 2.13103 9.3484 2.1305C9.34846 2.13046 9.34853 2.13041 9.34859 2.13037C12.0108 2.13142 14.1651 4.26466 14.1666 6.87075C14.1661 6.87152 14.1653 6.87262 14.164 6.8739C14.1616 6.87622 14.1591 6.8778 14.1571 6.87865C14.1554 6.87935 14.1544 6.87949 14.1533 6.87949Z" fill="#EF5DA8" stroke="#EF5DA8"/>
<path d="M2.03667 3.53328L2.03668 3.53329L2.03774 3.53063C2.16849 3.2031 2.3776 2.8958 2.6805 2.61417L2.68058 2.61425L2.6882 2.60686C3.03875 2.26677 3.38548 2.13037 3.72671 2.13037C3.84446 2.13037 3.95747 2.15547 4.05289 2.20061L4.05287 2.20067L4.05968 2.20377C4.15938 2.24912 4.23998 2.31252 4.30423 2.40399L4.3042 2.404L4.30758 2.4087L5.85425 4.55723L5.85424 4.55724L5.8563 4.56006C5.95795 4.6992 6.02305 4.81589 6.06491 4.91672L6.06484 4.91675L6.06818 4.92443C6.10827 5.01661 6.12004 5.08609 6.12004 5.12583C6.12004 5.18129 6.10441 5.24901 6.05463 5.3296L6.05036 5.33653L6.04631 5.34359C5.98805 5.44516 5.89297 5.56747 5.75573 5.70272L5.75567 5.70265L5.74891 5.70958L5.24498 6.22584C5.07203 6.39843 4.99337 6.61384 4.99337 6.84071C4.99337 6.94135 5.00696 7.02898 5.02872 7.11477L5.03581 7.14271L5.04606 7.16965C5.05922 7.20423 5.07243 7.23493 5.08074 7.25423C5.08157 7.25617 5.08235 7.258 5.08308 7.2597C5.09139 7.27905 5.09318 7.28382 5.09319 7.28382L5.10747 7.32602L5.12924 7.36536C5.27329 7.62563 5.50511 7.93794 5.80734 8.28996L5.80732 8.28998L5.81099 8.29416C6.11613 8.64168 6.44335 8.99785 6.79902 9.35514L6.79901 9.35515L6.8024 9.3585C6.84012 9.39567 6.87889 9.43206 6.91263 9.46373L6.91452 9.4655C6.95034 9.49913 6.98082 9.52778 7.00907 9.55561L7.00904 9.55564L7.0136 9.56002C7.07971 9.62355 7.07957 9.72004 7.01573 9.78295L5.7824 10.9985C5.71961 11.0604 5.61425 11.0673 5.53828 10.9991C5.49952 10.961 5.46147 10.9253 5.4276 10.8934L5.42598 10.8919C5.389 10.8571 5.35678 10.8267 5.32519 10.7956C4.65642 10.13 4.05367 9.43361 3.51639 8.70645C2.98858 7.9831 2.56939 7.26756 2.26694 6.56644C1.97452 5.86666 1.83337 5.2171 1.83337 4.61334C1.83337 4.22673 1.90247 3.86394 2.03667 3.53328Z" fill="#EF5DA8" stroke="#EF5DA8"/>
<path d="M14.6467 12.36C14.6467 12.5439 14.6134 12.7345 14.5467 12.9185C14.5267 12.971 14.5067 13.0236 14.48 13.0761C14.3667 13.3127 14.22 13.5361 14.0267 13.7463C13.7 14.1011 13.34 14.3574 12.9334 14.5216C12.9267 14.5216 12.92 14.5282 12.9134 14.5282C12.52 14.6859 12.0934 14.7713 11.6334 14.7713C10.9534 14.7713 10.2267 14.6136 9.46002 14.2917C8.69336 13.9697 7.92669 13.5361 7.16669 12.9907C6.90669 12.8002 6.64669 12.6096 6.40002 12.406L8.58002 10.2574C8.76669 10.3954 8.93336 10.5005 9.07336 10.5728C9.10669 10.586 9.14669 10.6057 9.19336 10.6254C9.24669 10.6451 9.30002 10.6517 9.36002 10.6517C9.47336 10.6517 9.56002 10.6122 9.63336 10.54L10.14 10.0472C10.3067 9.88292 10.4667 9.75808 10.62 9.67924C10.7734 9.58725 10.9267 9.54126 11.0934 9.54126C11.22 9.54126 11.3534 9.56754 11.5 9.62668C11.6467 9.68581 11.8 9.77122 11.9667 9.88292L14.1734 11.427C14.3467 11.5452 14.4667 11.6832 14.54 11.8475C14.6067 12.0117 14.6467 12.176 14.6467 12.36Z" fill="#EF5DA8"/>
</svg>
