<svg width="16" height="14" viewBox="0 0 16 14" fill="none" xmlns="http://www.w3.org/2000/svg">
<path d="M8 10.25C9.24264 10.25 10.25 9.24264 10.25 8C10.25 6.75736 9.24264 5.75 8 5.75C6.75736 5.75 5.75 6.75736 5.75 8C5.75 9.24264 6.75736 10.25 8 10.25Z" fill="#A8ABC1"/>
<path d="M14 1.99951H11.6225L10.6925 0.987012C10.5527 0.833557 10.3825 0.710942 10.1927 0.627001C10.0028 0.543061 9.79757 0.499639 9.59 0.499512H6.41C5.99 0.499512 5.585 0.679512 5.3 0.987012L4.3775 1.99951H2C1.175 1.99951 0.5 2.67451 0.5 3.49951V12.4995C0.5 13.3245 1.175 13.9995 2 13.9995H14C14.825 13.9995 15.5 13.3245 15.5 12.4995V3.49951C15.5 2.67451 14.825 1.99951 14 1.99951ZM8 11.7495C5.93 11.7495 4.25 10.0695 4.25 7.99951C4.25 5.92951 5.93 4.24951 8 4.24951C10.07 4.24951 11.75 5.92951 11.75 7.99951C11.75 10.0695 10.07 11.7495 8 11.7495Z" fill="#A8ABC1"/>
</svg>
