<svg width="50" height="20" viewBox="0 0 49 19" fill="none" xmlns="http://www.w3.org/2000/svg">
<path d="M5.45345 13.065C4.42212 13.065 3.52512 12.8787 2.76245 12.506C1.99979 12.1247 1.41479 11.5873 1.00745 10.894C0.60012 10.2007 0.396453 9.39467 0.396453 8.476C0.396453 7.202 0.634786 6.071 1.11145 5.083C1.59679 4.095 2.25112 3.33233 3.07445 2.795C3.89779 2.249 4.81212 1.976 5.81745 1.976C6.75345 1.976 7.46412 2.21867 7.94945 2.704C8.43479 3.18067 8.67745 3.81333 8.67745 4.602C8.67745 5.13067 8.58212 5.55533 8.39145 5.876C8.20945 6.19667 7.94512 6.357 7.59845 6.357C7.35579 6.357 7.16512 6.30067 7.02645 6.188C6.88779 6.07533 6.81845 5.91067 6.81845 5.694C6.81845 5.616 6.83579 5.473 6.87045 5.265C6.92245 5.005 6.94845 4.797 6.94845 4.641C6.94845 3.85233 6.52812 3.458 5.68745 3.458C5.11545 3.458 4.56945 3.64433 4.04945 4.017C3.52945 4.38967 3.10912 4.94 2.78845 5.668C2.46779 6.38733 2.30745 7.24533 2.30745 8.242C2.30745 9.282 2.59779 10.088 3.17845 10.66C3.75912 11.2233 4.61712 11.505 5.75245 11.505C6.31579 11.505 6.88345 11.4357 7.45545 11.297C8.03612 11.1497 8.67745 10.9287 9.37945 10.634C9.50945 10.582 9.61779 10.556 9.70445 10.556C9.84312 10.556 9.94712 10.608 10.0165 10.712C10.0858 10.816 10.1205 10.9503 10.1205 11.115C10.1205 11.6437 9.83445 12.0337 9.26245 12.285C8.64712 12.5537 8.00579 12.753 7.33845 12.883C6.67979 13.0043 6.05145 13.065 5.45345 13.065ZM14.7716 10.101C14.8843 10.101 14.9709 10.153 15.0316 10.257C15.1009 10.361 15.1356 10.504 15.1356 10.686C15.1356 11.0327 15.0533 11.3013 14.8886 11.492C14.5679 11.882 14.1129 12.2417 13.5236 12.571C12.9429 12.9003 12.3189 13.065 11.6516 13.065C10.7416 13.065 10.0353 12.818 9.53261 12.324C9.02994 11.83 8.77861 11.154 8.77861 10.296C8.77861 9.698 8.90428 9.14333 9.15561 8.632C9.40694 8.112 9.75361 7.70033 10.1956 7.397C10.6463 7.09367 11.1533 6.942 11.7166 6.942C12.2193 6.942 12.6223 7.09367 12.9256 7.397C13.2289 7.69167 13.3806 8.09467 13.3806 8.606C13.3806 9.204 13.1639 9.71967 12.7306 10.153C12.3059 10.5777 11.5823 10.9157 10.5596 11.167C10.7763 11.5657 11.1879 11.765 11.7946 11.765C12.1846 11.765 12.6266 11.6307 13.1206 11.362C13.6233 11.0847 14.0566 10.725 14.4206 10.283C14.5246 10.1617 14.6416 10.101 14.7716 10.101ZM11.4956 8.216C11.1749 8.216 10.9019 8.40233 10.6766 8.775C10.4599 9.14767 10.3516 9.59833 10.3516 10.127V10.153C10.8629 10.0317 11.2659 9.84967 11.5606 9.607C11.8553 9.36433 12.0026 9.08267 12.0026 8.762C12.0026 8.59733 11.9549 8.46733 11.8596 8.372C11.7729 8.268 11.6516 8.216 11.4956 8.216ZM19.0041 10.101C19.1168 10.101 19.2035 10.153 19.2641 10.257C19.3335 10.361 19.3681 10.504 19.3681 10.686C19.3681 11.0327 19.2858 11.3013 19.1211 11.492C18.7485 11.9513 18.3411 12.3283 17.8991 12.623C17.4658 12.9177 16.9718 13.065 16.4171 13.065C15.6545 13.065 15.0868 12.7183 14.7141 12.025C14.3501 11.3317 14.1681 10.4347 14.1681 9.334C14.1681 8.27667 14.3025 7.072 14.5711 5.72C14.8485 4.368 15.2515 3.20667 15.7801 2.236C16.3175 1.26533 16.9545 0.779999 17.6911 0.779999C18.1071 0.779999 18.4321 0.974999 18.6661 1.365C18.9088 1.74633 19.0301 2.29667 19.0301 3.016C19.0301 4.04733 18.7441 5.24333 18.1721 6.604C17.6001 7.96467 16.8245 9.31233 15.8451 10.647C15.9058 11.0023 16.0055 11.258 16.1441 11.414C16.2828 11.5613 16.4648 11.635 16.6901 11.635C17.0455 11.635 17.3575 11.5353 17.6261 11.336C17.8948 11.128 18.2371 10.777 18.6531 10.283C18.7571 10.1617 18.8741 10.101 19.0041 10.101ZM17.4051 2.067C17.2058 2.067 16.9805 2.42667 16.7291 3.146C16.4778 3.86533 16.2568 4.758 16.0661 5.824C15.8755 6.89 15.7715 7.91267 15.7541 8.892C16.3695 7.878 16.8591 6.864 17.2231 5.85C17.5871 4.82733 17.7691 3.89567 17.7691 3.055C17.7691 2.39633 17.6478 2.067 17.4051 2.067ZM24.1154 10.101C24.228 10.101 24.3147 10.153 24.3754 10.257C24.4447 10.361 24.4794 10.504 24.4794 10.686C24.4794 11.0327 24.397 11.3013 24.2324 11.492C23.9117 11.882 23.4567 12.2417 22.8674 12.571C22.2867 12.9003 21.6627 13.065 20.9954 13.065C20.0854 13.065 19.379 12.818 18.8764 12.324C18.3737 11.83 18.1224 11.154 18.1224 10.296C18.1224 9.698 18.248 9.14333 18.4994 8.632C18.7507 8.112 19.0974 7.70033 19.5394 7.397C19.99 7.09367 20.497 6.942 21.0604 6.942C21.563 6.942 21.966 7.09367 22.2694 7.397C22.5727 7.69167 22.7244 8.09467 22.7244 8.606C22.7244 9.204 22.5077 9.71967 22.0744 10.153C21.6497 10.5777 20.926 10.9157 19.9034 11.167C20.12 11.5657 20.5317 11.765 21.1384 11.765C21.5284 11.765 21.9704 11.6307 22.4644 11.362C22.967 11.0847 23.4004 10.725 23.7644 10.283C23.8684 10.1617 23.9854 10.101 24.1154 10.101ZM20.8394 8.216C20.5187 8.216 20.2457 8.40233 20.0204 8.775C19.8037 9.14767 19.6954 9.59833 19.6954 10.127V10.153C20.2067 10.0317 20.6097 9.84967 20.9044 9.607C21.199 9.36433 21.3464 9.08267 21.3464 8.762C21.3464 8.59733 21.2987 8.46733 21.2034 8.372C21.1167 8.268 20.9954 8.216 20.8394 8.216ZM30.3369 9.009C30.4495 9.009 30.5362 9.06533 30.5969 9.178C30.6575 9.29067 30.6879 9.43367 30.6879 9.607C30.6879 9.82367 30.6575 9.99267 30.5969 10.114C30.5362 10.2267 30.4409 10.3047 30.3109 10.348C29.7909 10.53 29.2189 10.634 28.5949 10.66C28.4215 11.3793 28.0922 11.96 27.6069 12.402C27.1302 12.844 26.6015 13.065 26.0209 13.065C25.1455 13.065 24.5085 12.7313 24.1099 12.064C23.7112 11.3967 23.5119 10.4303 23.5119 9.165C23.5119 8.047 23.6505 6.83367 23.9279 5.525C24.2052 4.20767 24.6082 3.08967 25.1369 2.171C25.6742 1.24367 26.3112 0.779999 27.0479 0.779999C27.4465 0.779999 27.7672 0.953333 28.0099 1.3C28.2525 1.638 28.3739 2.08 28.3739 2.626C28.3739 3.33667 28.2395 4.043 27.9709 4.745C27.7022 5.447 27.2559 6.18367 26.6319 6.955C27.2125 6.99833 27.6849 7.241 28.0489 7.683C28.4129 8.11633 28.6295 8.65367 28.6989 9.295C29.1062 9.269 29.5915 9.18233 30.1549 9.035C30.2069 9.01767 30.2675 9.009 30.3369 9.009ZM26.7489 2.067C26.5755 2.067 26.3849 2.327 26.1769 2.847C25.9775 3.35833 25.7912 4.056 25.6179 4.94C25.4445 5.824 25.3145 6.79033 25.2279 7.839C25.7999 6.79033 26.2549 5.86733 26.5929 5.07C26.9395 4.264 27.1129 3.549 27.1129 2.925C27.1129 2.64767 27.0782 2.43533 27.0089 2.288C26.9482 2.14067 26.8615 2.067 26.7489 2.067ZM26.0729 11.687C26.3415 11.687 26.5799 11.5743 26.7879 11.349C26.9959 11.1237 27.1345 10.7987 27.2039 10.374C26.9352 10.192 26.7272 9.95367 26.5799 9.659C26.4412 9.36433 26.3719 9.05233 26.3719 8.723C26.3719 8.60167 26.3892 8.437 26.4239 8.229H26.3849C26.0295 8.229 25.7305 8.40667 25.4879 8.762C25.2539 9.10867 25.1369 9.57667 25.1369 10.166C25.1369 10.66 25.2279 11.037 25.4099 11.297C25.6005 11.557 25.8215 11.687 26.0729 11.687ZM30.4884 13.065C30.1591 13.065 29.9251 12.8917 29.7864 12.545C29.6564 12.1983 29.5914 11.6437 29.5914 10.881C29.5914 9.75433 29.7517 8.684 30.0724 7.67C30.1504 7.41867 30.2761 7.23667 30.4494 7.124C30.6314 7.00267 30.8827 6.942 31.2034 6.942C31.3767 6.942 31.4981 6.96367 31.5674 7.007C31.6367 7.05033 31.6714 7.13267 31.6714 7.254C31.6714 7.39267 31.6064 7.70467 31.4764 8.19C31.3897 8.53667 31.3204 8.84 31.2684 9.1C31.2164 9.36 31.1731 9.68067 31.1384 10.062C31.4244 9.31667 31.7451 8.71 32.1004 8.242C32.4557 7.774 32.8024 7.44033 33.1404 7.241C33.4871 7.04167 33.8034 6.942 34.0894 6.942C34.6527 6.942 34.9344 7.22367 34.9344 7.787C34.9344 7.89967 34.8954 8.17267 34.8174 8.606C34.7481 8.95267 34.7134 9.16933 34.7134 9.256C34.7134 9.55933 34.8217 9.711 35.0384 9.711C35.2811 9.711 35.5931 9.52033 35.9744 9.139C36.0871 9.02633 36.2041 8.97 36.3254 8.97C36.4381 8.97 36.5247 9.022 36.5854 9.126C36.6547 9.22133 36.6894 9.35133 36.6894 9.516C36.6894 9.83667 36.6027 10.088 36.4294 10.27C36.1867 10.5213 35.9007 10.738 35.5714 10.92C35.2507 11.0933 34.9084 11.18 34.5444 11.18C34.0851 11.18 33.7341 11.063 33.4914 10.829C33.2574 10.595 33.1404 10.2787 33.1404 9.88C33.1404 9.75 33.1534 9.62 33.1794 9.49C33.1967 9.31667 33.2054 9.19967 33.2054 9.139C33.2054 9.00033 33.1577 8.931 33.0624 8.931C32.9324 8.931 32.7591 9.07833 32.5424 9.373C32.3344 9.659 32.1264 10.0403 31.9184 10.517C31.7104 10.9937 31.5414 11.4963 31.4114 12.025C31.3161 12.4323 31.2034 12.7097 31.0734 12.857C30.9521 12.9957 30.7571 13.065 30.4884 13.065ZM37.1844 6.084C36.8204 6.084 36.5474 6.00167 36.3654 5.837C36.1834 5.66367 36.0924 5.42533 36.0924 5.122C36.0924 4.81867 36.2094 4.56733 36.4434 4.368C36.6861 4.16 36.9851 4.056 37.3404 4.056C37.6611 4.056 37.9211 4.134 38.1204 4.29C38.3198 4.446 38.4194 4.667 38.4194 4.953C38.4194 5.29967 38.3068 5.577 38.0814 5.785C37.8561 5.98433 37.5571 6.084 37.1844 6.084ZM37.0804 13.065C36.5171 13.065 36.1054 12.8657 35.8454 12.467C35.5941 12.0683 35.4684 11.5397 35.4684 10.881C35.4684 10.491 35.5161 9.99267 35.6114 9.386C35.7154 8.77067 35.8454 8.19867 36.0014 7.67C36.0794 7.39267 36.1834 7.202 36.3134 7.098C36.4434 6.994 36.6514 6.942 36.9374 6.942C37.3794 6.942 37.6004 7.08933 37.6004 7.384C37.6004 7.60067 37.5181 8.10333 37.3534 8.892C37.1454 9.84533 37.0414 10.491 37.0414 10.829C37.0414 11.089 37.0761 11.2883 37.1454 11.427C37.2148 11.5657 37.3318 11.635 37.4964 11.635C37.6524 11.635 37.8474 11.5267 38.0814 11.31C38.3154 11.0933 38.6274 10.751 39.0174 10.283C39.1214 10.1617 39.2384 10.101 39.3684 10.101C39.4811 10.101 39.5678 10.153 39.6284 10.257C39.6978 10.361 39.7324 10.504 39.7324 10.686C39.7324 11.0327 39.6501 11.3013 39.4854 11.492C38.6274 12.5407 37.8258 13.065 37.0804 13.065ZM44.4786 10.101C44.5913 10.101 44.678 10.153 44.7386 10.257C44.808 10.361 44.8426 10.504 44.8426 10.686C44.8426 11.0327 44.7603 11.3013 44.5956 11.492C44.223 11.9513 43.8156 12.3283 43.3736 12.623C42.9316 12.9177 42.4246 13.065 41.8526 13.065C40.0846 13.065 39.2006 11.8213 39.2006 9.334C39.2006 8.95267 39.2136 8.567 39.2396 8.177H38.7326C38.4726 8.177 38.295 8.12933 38.1996 8.034C38.113 7.93867 38.0696 7.787 38.0696 7.579C38.0696 7.09367 38.2646 6.851 38.6546 6.851H39.3956C39.543 5.89767 39.7683 5.02667 40.0716 4.238C40.375 3.44933 40.739 2.821 41.1636 2.353C41.597 1.885 42.0606 1.651 42.5546 1.651C42.9186 1.651 43.2046 1.81133 43.4126 2.132C43.6206 2.45267 43.7246 2.85567 43.7246 3.341C43.7246 4.68433 43.1613 5.85433 42.0346 6.851H43.4906C43.6293 6.851 43.729 6.88133 43.7896 6.942C43.8503 7.00267 43.8806 7.11533 43.8806 7.28C43.8806 7.878 43.391 8.177 42.4116 8.177H40.8256C40.8083 8.61033 40.7996 8.94833 40.7996 9.191C40.7996 10.0923 40.9036 10.725 41.1116 11.089C41.3283 11.453 41.6663 11.635 42.1256 11.635C42.4983 11.635 42.8276 11.5223 43.1136 11.297C43.3996 11.0717 43.7376 10.7337 44.1276 10.283C44.2316 10.1617 44.3486 10.101 44.4786 10.101ZM42.2036 2.899C42.0736 2.899 41.9263 3.06367 41.7616 3.393C41.6056 3.71367 41.454 4.16433 41.3066 4.745C41.168 5.317 41.051 5.954 40.9556 6.656C41.467 6.214 41.8483 5.72 42.0996 5.174C42.3596 4.61933 42.4896 4.11667 42.4896 3.666C42.4896 3.15467 42.3943 2.899 42.2036 2.899ZM48.3342 6.942C48.5335 6.942 48.6722 6.968 48.7502 7.02C48.8282 7.072 48.8672 7.15867 48.8672 7.28C48.8672 7.488 48.7545 8.229 48.5292 9.503C48.3298 10.725 48.2128 11.4487 48.1782 11.674C47.8575 13.9013 47.4155 15.665 46.8522 16.965C46.2888 18.265 45.5392 18.915 44.6032 18.915C44.1612 18.915 43.8015 18.7763 43.5242 18.499C43.2468 18.2303 43.1082 17.875 43.1082 17.433C43.1082 17.0257 43.1992 16.6097 43.3812 16.185C43.5718 15.7603 43.9185 15.2707 44.4212 14.716C44.9325 14.17 45.6518 13.5417 46.5792 12.831L46.6182 12.532C46.6788 12.2113 46.7482 11.752 46.8262 11.154C46.6528 11.778 46.4102 12.2547 46.0982 12.584C45.7862 12.9047 45.4568 13.065 45.1102 13.065C44.7202 13.065 44.3995 12.8873 44.1482 12.532C43.9055 12.168 43.7842 11.7173 43.7842 11.18C43.7842 10.53 43.8275 9.93633 43.9142 9.399C44.0008 8.853 44.1438 8.27667 44.3432 7.67C44.4298 7.41 44.5512 7.22367 44.7072 7.111C44.8632 6.99833 45.1102 6.942 45.4482 6.942C45.6388 6.942 45.7688 6.97233 45.8382 7.033C45.9162 7.09367 45.9552 7.18467 45.9552 7.306C45.9552 7.37533 45.9075 7.60933 45.8122 8.008C45.7255 8.32867 45.6562 8.619 45.6042 8.879C45.5348 9.23433 45.4742 9.57667 45.4222 9.906C45.3702 10.2267 45.3442 10.491 45.3442 10.699C45.3442 11.0283 45.4352 11.193 45.6172 11.193C45.7472 11.193 45.9075 11.063 46.0982 10.803C46.2975 10.543 46.5055 10.1487 46.7222 9.62C46.9475 9.09133 47.1642 8.44133 47.3722 7.67C47.4415 7.41 47.5455 7.22367 47.6842 7.111C47.8315 6.99833 48.0482 6.942 48.3342 6.942ZM44.7462 17.654C44.9628 17.654 45.2055 17.4027 45.4742 16.9C45.7428 16.3973 46.0115 15.561 46.2802 14.391C45.6128 14.9543 45.1275 15.4657 44.8242 15.925C44.5295 16.393 44.3822 16.8003 44.3822 17.147C44.3822 17.2943 44.4082 17.4157 44.4602 17.511C44.5208 17.6063 44.6162 17.654 44.7462 17.654Z" fill="#444444"/>
</svg>
