<svg width="28" height="28" viewBox="0 0 28 28" fill="none" xmlns="http://www.w3.org/2000/svg">
<path d="M14.2754 21.3299H3.44416C3.06115 21.3299 2.69382 21.1778 2.42299 20.907C2.15215 20.6361 2 20.2688 2 19.8858V5.44416C2 5.06115 2.15215 4.69382 2.42299 4.42299C2.69382 4.15215 3.06115 4 3.44416 4H23.6624C24.0454 4 24.4128 4.15215 24.6836 4.42299C24.9544 4.69382 25.1066 5.06115 25.1066 5.44416V12.9321C24.1446 11.7069 22.7453 10.9022 21.2025 10.6868C19.6598 10.4714 18.0936 10.8623 16.8329 11.7772C15.5721 12.6921 14.715 14.06 14.4414 15.5935C14.1678 17.127 14.4991 18.7069 15.3657 20.0013L14.6942 20.8245L14.2754 21.3299ZM5.61041 8.33249V9.48782H17.8858V8.33249H5.61041ZM5.61041 12.3761H13.5533V11.2208H5.61041V12.3761ZM5.61041 17.4307H12.8312V16.2754H5.61041V17.4307Z" fill="#8796A0"/>
<path d="M24.9835 16.7002C24.9854 15.9388 24.7983 15.1889 24.439 14.5177C24.0796 13.8464 23.5593 13.2749 22.9246 12.8543C22.29 12.4337 21.5608 12.1773 20.8026 12.108C20.0444 12.0387 19.2809 12.1586 18.5805 12.4571C17.8801 12.7556 17.2647 13.2233 16.7896 13.8183C16.3145 14.4132 15.9945 15.1168 15.8583 15.8659C15.7222 16.615 15.7741 17.3861 16.0094 18.1102C16.2447 18.8343 16.6561 19.4886 17.2067 20.0145L15.8058 21.7259L16.4557 24.3326L19.0985 21.1121C19.9351 21.3595 20.8253 21.3595 21.6619 21.1121L24.3047 24.3326L24.9546 21.7259L23.5538 20.0145C24.0042 19.5878 24.3633 19.074 24.6091 18.5042C24.8548 17.9345 24.9822 17.3207 24.9835 16.7002ZM17.2283 16.7002C17.2197 16.0743 17.3975 15.46 17.7389 14.9354C18.0804 14.4109 18.5702 13.9997 19.1459 13.7542C19.7217 13.5087 20.3575 13.44 20.9724 13.5568C21.5874 13.6736 22.1537 13.9707 22.5993 14.4102C23.045 14.8498 23.3498 15.4119 23.4751 16.0252C23.6004 16.6384 23.5405 17.2751 23.303 17.8542C23.0655 18.4333 22.6612 18.9287 22.1413 19.2774C21.6215 19.6261 21.0098 19.8123 20.3838 19.8124C19.5545 19.8143 18.7581 19.4882 18.1683 18.9052C17.5785 18.3221 17.2432 17.5295 17.2355 16.7002H17.2283Z" fill="#8796A0"/>
</svg>
