<svg width="48" height="47" viewBox="0 0 48 47" fill="none" xmlns="http://www.w3.org/2000/svg">
<path d="M31.8373 15.1443C34.2095 15.109 36.5589 15.6109 38.7095 16.6124C40.8602 17.6139 42.7564 19.089 44.256 20.9273C45.7557 22.7656 46.82 24.9194 47.3692 27.2273C47.9184 29.5353 47.9383 31.9376 47.4273 34.2543C46.9691 36.2679 46.731 38.3253 46.7173 40.3903V44.3833C46.7173 44.6772 46.6006 44.959 46.3928 45.1668C46.185 45.3746 45.9032 45.4913 45.6093 45.4913H41.6163C39.5513 45.505 37.4939 45.7431 35.4803 46.2013C33.3349 46.676 31.1138 46.6954 28.9603 46.2585C26.8069 45.8215 24.7691 44.9378 22.9783 43.6644C21.1876 42.391 19.6839 40.7562 18.5642 38.8656C17.4444 36.9749 16.7336 34.8705 16.4776 32.6882C16.2216 30.5058 16.4261 28.294 17.078 26.1956C17.7298 24.0972 18.8144 22.1588 20.2618 20.5056C21.7092 18.8524 23.4873 17.521 25.4811 16.5976C27.4749 15.6741 29.6403 15.179 31.8373 15.1443Z" fill="url(#paint0_linear_378_1363)"/>
<path d="M31.8373 15.1443C34.2095 15.109 36.5589 15.6109 38.7095 16.6124C40.8602 17.6139 42.7564 19.089 44.256 20.9273C45.7557 22.7656 46.82 24.9194 47.3692 27.2273C47.9184 29.5353 47.9383 31.9376 47.4273 34.2543C46.9691 36.2679 46.731 38.3253 46.7173 40.3903V44.3833C46.7173 44.6772 46.6006 44.959 46.3928 45.1668C46.185 45.3746 45.9032 45.4913 45.6093 45.4913H41.6163C39.5513 45.505 37.4939 45.7431 35.4803 46.2013C33.3349 46.676 31.1138 46.6954 28.9603 46.2585C26.8069 45.8215 24.7691 44.9378 22.9783 43.6644C21.1876 42.391 19.6839 40.7562 18.5642 38.8656C17.4444 36.9749 16.7336 34.8705 16.4776 32.6882C16.2216 30.5058 16.4261 28.294 17.078 26.1956C17.7298 24.0972 18.8144 22.1588 20.2618 20.5056C21.7092 18.8524 23.4873 17.521 25.4811 16.5976C27.4749 15.6741 29.6403 15.179 31.8373 15.1443Z" fill="url(#paint1_linear_378_1363)"/>
<path d="M19.6335 0.805826C16.7437 0.762885 13.8816 1.37437 11.2616 2.59448C8.64158 3.81459 6.33161 5.61171 4.50468 7.85121C2.67775 10.0907 1.38123 12.7146 0.712209 15.5262C0.0431916 18.3379 0.0190254 21.2645 0.641521 24.0868C1.19947 26.5398 1.48917 29.0462 1.50552 31.5618V36.4268C1.50552 36.7849 1.64775 37.1282 1.90093 37.3814C2.02629 37.5068 2.17511 37.6062 2.3389 37.6741C2.50269 37.7419 2.67824 37.7768 2.85552 37.7768H7.72052C10.2352 37.7937 12.7405 38.0838 15.1925 38.6418C17.806 39.2197 20.5116 39.2432 23.1347 38.7107C25.7578 38.1782 28.2401 37.1016 30.4213 35.5504C32.6026 33.9992 34.4344 32.0078 35.7984 29.7049C37.1624 27.4019 38.0284 24.8385 38.3404 22.1802C38.6524 19.5218 38.4036 16.8276 37.6099 14.2714C36.8162 11.7152 35.4954 9.35377 33.7326 7.33963C31.9698 5.32549 29.8043 3.70336 27.3758 2.57794C24.9473 1.45252 22.3098 0.848827 19.6335 0.805826Z" fill="url(#paint2_linear_378_1363)"/>
<path d="M12.4833 18.9209C12.2115 18.6322 11.8846 18.401 11.5218 18.241C11.159 18.0811 10.7678 17.9956 10.3714 17.9896C9.97491 17.9836 9.58131 18.0573 9.21388 18.2063C8.84644 18.3552 8.51265 18.5765 8.23229 18.8568C7.95194 19.1372 7.73071 19.471 7.58175 19.8384C7.43278 20.2058 7.35911 20.5994 7.36508 20.9959C7.37105 21.3923 7.45655 21.7835 7.61652 22.1463C7.77648 22.5091 8.00765 22.8361 8.29633 23.1078L14.6963 29.5078C14.9681 29.7965 15.2951 30.0277 15.6579 30.1877C16.0207 30.3476 16.4119 30.4331 16.8083 30.4391C17.2047 30.4451 17.5983 30.3714 17.9658 30.2224C18.3332 30.0735 18.667 29.8522 18.9474 29.5719C19.2277 29.2915 19.4489 28.9577 19.5979 28.5903C19.7469 28.2229 19.8205 27.8293 19.8146 27.4328C19.8086 27.0364 19.7231 26.6452 19.5631 26.2824C19.4032 25.9196 19.172 25.5926 18.8833 25.3208L12.4833 18.9209Z" fill="url(#paint3_linear_378_1363)"/>
<path d="M10.3244 23.9144C11.9619 23.9144 13.2894 22.5869 13.2894 20.9494C13.2894 19.3119 11.9619 17.9844 10.3244 17.9844C8.68685 17.9844 7.35938 19.3119 7.35938 20.9494C7.35938 22.5869 8.68685 23.9144 10.3244 23.9144Z" fill="white"/>
<path d="M20.8686 18.9209C20.5968 18.6322 20.2698 18.401 19.907 18.241C19.5443 18.0811 19.153 17.9956 18.7566 17.9896C18.3602 17.9836 17.9666 18.0573 17.5991 18.2063C17.2317 18.3552 16.8979 18.5765 16.6175 18.8568C16.3372 19.1372 16.116 19.471 15.967 19.8384C15.818 20.2058 15.7444 20.5994 15.7503 20.9959C15.7563 21.3923 15.8418 21.7835 16.0018 22.1463C16.1617 22.5091 16.3929 22.8361 16.6816 23.1078L23.0816 29.5078C23.3534 29.7965 23.6803 30.0277 24.0431 30.1877C24.4059 30.3476 24.7971 30.4331 25.1936 30.4391C25.59 30.4451 25.9836 30.3714 26.351 30.2224C26.7185 30.0735 27.0523 29.8522 27.3326 29.5719C27.613 29.2915 27.8342 28.9577 27.9832 28.5903C28.1321 28.2229 28.2058 27.8293 28.1998 27.4328C28.1939 27.0364 28.1084 26.6452 27.9484 26.2824C27.7884 25.9196 27.5573 25.5926 27.2686 25.3208L20.8686 18.9209Z" fill="url(#paint4_linear_378_1363)"/>
<path d="M18.7105 23.9144C20.348 23.9144 21.6755 22.5869 21.6755 20.9494C21.6755 19.3119 20.348 17.9844 18.7105 17.9844C17.073 17.9844 15.7455 19.3119 15.7455 20.9494C15.7455 22.5869 17.073 23.9144 18.7105 23.9144Z" fill="white"/>
<path d="M29.2563 18.9209C28.9845 18.6322 28.6575 18.401 28.2947 18.241C27.932 18.0811 27.5408 17.9956 27.1443 17.9896C26.7479 17.9836 26.3543 18.0573 25.9868 18.2063C25.6194 18.3552 25.2856 18.5765 25.0052 18.8568C24.7249 19.1372 24.5037 19.471 24.3547 19.8384C24.2057 20.2058 24.1321 20.5994 24.138 20.9959C24.144 21.3923 24.2295 21.7835 24.3895 22.1463C24.5494 22.5091 24.7806 22.8361 25.0693 23.1078L31.4693 29.5078C31.7411 29.7965 32.068 30.0277 32.4308 30.1877C32.7936 30.3476 33.1848 30.4331 33.5812 30.4391C33.9777 30.4451 34.3713 30.3714 34.7387 30.2224C35.1062 30.0735 35.4399 29.8522 35.7203 29.5719C36.0007 29.2915 36.2219 28.9577 36.3708 28.5903C36.5198 28.2229 36.5935 27.8293 36.5875 27.4328C36.5816 27.0364 36.4961 26.6452 36.3361 26.2824C36.1761 25.9196 35.945 25.5926 35.6563 25.3208L29.2563 18.9209Z" fill="url(#paint5_linear_378_1363)"/>
<path d="M27.0963 23.9144C28.7339 23.9144 30.0613 22.5869 30.0613 20.9494C30.0613 19.3119 28.7339 17.9844 27.0963 17.9844C25.4588 17.9844 24.1313 19.3119 24.1313 20.9494C24.1313 22.5869 25.4588 23.9144 27.0963 23.9144Z" fill="white"/>
<defs>
<linearGradient id="paint0_linear_378_1363" x1="28.7838" y1="20.0456" x2="51.759" y2="-2.95803" gradientUnits="userSpaceOnUse">
<stop stop-color="#A7F3CE"/>
<stop offset="1" stop-color="#61DB99"/>
</linearGradient>
<linearGradient id="paint1_linear_378_1363" x1="36.2945" y1="12.5025" x2="26.5513" y2="22.2759" gradientUnits="userSpaceOnUse">
<stop stop-color="#61DB99" stop-opacity="0"/>
<stop offset="1" stop-color="#009E74"/>
</linearGradient>
<linearGradient id="paint2_linear_378_1363" x1="12.2881" y1="30.8228" x2="36.5254" y2="6.55386" gradientUnits="userSpaceOnUse">
<stop stop-color="#62E1FB"/>
<stop offset="1" stop-color="#00A2F3"/>
</linearGradient>
<linearGradient id="paint3_linear_378_1363" x1="16.8393" y1="20.1805" x2="4.06544" y2="32.9419" gradientUnits="userSpaceOnUse">
<stop stop-color="#00A2F3" stop-opacity="0"/>
<stop offset="1" stop-color="#0075CD"/>
</linearGradient>
<linearGradient id="paint4_linear_378_1363" x1="25.1872" y1="20.1805" x2="12.4258" y2="32.9419" gradientUnits="userSpaceOnUse">
<stop stop-color="#00A2F3" stop-opacity="0"/>
<stop offset="1" stop-color="#0075CD"/>
</linearGradient>
<linearGradient id="paint5_linear_378_1363" x1="33.55" y1="20.1805" x2="20.7761" y2="32.9419" gradientUnits="userSpaceOnUse">
<stop stop-color="#00A2F3" stop-opacity="0"/>
<stop offset="1" stop-color="#0075CD"/>
</linearGradient>
</defs>
</svg>
