<svg width="32" height="30" viewBox="0 0 32 30" fill="none" xmlns="http://www.w3.org/2000/svg">
<path d="M9.28 18.5206V8.60059H3.2C1.44 8.60059 0 10.0406 0 11.8006V21.4006C0 23.1606 1.44 24.6006 3.2 24.6006H4.8V29.4006L9.6 24.6006H17.6C19.36 24.6006 20.8 23.1606 20.8 21.4006V18.4886C20.6948 18.5112 20.5876 18.5224 20.48 18.5222H9.28V18.5206V18.5206ZM28.8 0.600586H14.4C12.64 0.600586 11.2 2.04059 11.2 3.80059V16.6006H22.4L27.2 21.4006V16.6006H28.8C30.56 16.6006 32 15.1622 32 13.4006V3.80059C32 2.04059 30.56 0.600586 28.8 0.600586Z" fill="#8796A0"/>
</svg>
