<svg width="18" height="18" viewBox="0 0 18 18" fill="none" xmlns="http://www.w3.org/2000/svg">
<path d="M15.5644 15.6422H1.94556V6.0831H15.5644V15.6422ZM15.5644 1.73803H14.5917V0H12.6461V1.73803H4.86389V0H2.91833V1.73803H1.94556C0.865772 1.73803 0 2.52014 0 3.47605V15.6422C0 16.1032 0.204978 16.5453 0.56984 16.8712C0.934702 17.1972 1.42956 17.3803 1.94556 17.3803H15.5644C16.0804 17.3803 16.5753 17.1972 16.9402 16.8712C17.305 16.5453 17.51 16.1032 17.51 15.6422V3.47605C17.51 3.0151 17.305 2.57303 16.9402 2.24708C16.5753 1.92114 16.0804 1.73803 15.5644 1.73803ZM13.1617 8.74228L12.1305 7.82112L7.38338 12.0619L5.32109 10.2196L4.28995 11.1408L7.38338 13.9042L13.1617 8.74228Z" fill="#4A4A4A"/>
</svg>
