<svg width="40" height="40" viewBox="0 0 40 40" fill="none" xmlns="http://www.w3.org/2000/svg">
<circle cx="20" cy="20" r="20" fill="#27AA5E"/>
<path d="M29.471 11.9399C29.6075 11.8006 29.7704 11.69 29.9502 11.6144C30.1299 11.5389 30.323 11.5 30.518 11.5C30.713 11.5 30.906 11.5389 31.0858 11.6144C31.2656 11.69 31.4285 11.8006 31.565 11.9399C32.137 12.5179 32.145 13.4519 31.585 14.0399L19.759 28.0199C19.6247 28.1673 19.4618 28.2858 19.2801 28.3681C19.0985 28.4504 18.902 28.4948 18.7026 28.4985C18.5032 28.5023 18.3052 28.4653 18.1206 28.3899C17.936 28.3145 17.7687 28.2022 17.629 28.0599L10.433 20.7679C10.1555 20.4848 10 20.1043 10 19.7079C10 19.3115 10.1555 18.9309 10.433 18.6479C10.5695 18.5086 10.7324 18.398 10.9122 18.3224C11.0919 18.2469 11.285 18.208 11.48 18.208C11.675 18.208 11.868 18.2469 12.0478 18.3224C12.2276 18.398 12.3905 18.5086 12.527 18.6479L18.631 24.8339L29.431 11.9839C29.4434 11.9684 29.4568 11.9537 29.471 11.9399Z" fill="white"/>
</svg>
