<svg width="26" height="26" viewBox="0 0 26 26" fill="none" xmlns="http://www.w3.org/2000/svg">
<path d="M20.696 6.45114C20.8069 6.33799 20.9392 6.24809 21.0853 6.18673C21.2314 6.12536 21.3882 6.09375 21.5467 6.09375C21.7051 6.09375 21.8619 6.12536 22.008 6.18673C22.1541 6.24809 22.2864 6.33799 22.3973 6.45114C22.8621 6.92077 22.8686 7.67964 22.4136 8.15739L12.805 19.5161C12.6959 19.6359 12.5635 19.7322 12.4159 19.7991C12.2683 19.866 12.1087 19.902 11.9467 19.9051C11.7847 19.9081 11.6237 19.8781 11.4738 19.8168C11.3238 19.7555 11.1879 19.6643 11.0743 19.5486L5.22759 13.6239C5.0021 13.3939 4.87579 13.0847 4.87579 12.7626C4.87579 12.4406 5.0021 12.1314 5.22759 11.9014C5.33849 11.7882 5.47085 11.6983 5.61692 11.637C5.763 11.5756 5.91984 11.544 6.07828 11.544C6.23672 11.544 6.39357 11.5756 6.53964 11.637C6.68571 11.6983 6.81807 11.7882 6.92897 11.9014L11.8885 16.9275L20.6635 6.48689C20.6736 6.47433 20.6844 6.4624 20.696 6.45114Z" fill="black"/>
</svg>
