<svg width="20" height="20" viewBox="0 0 20 20" fill="none" xmlns="http://www.w3.org/2000/svg">
<path fill-rule="evenodd" clip-rule="evenodd" d="M10 0.833008C4.9375 0.833008 0.833328 4.93717 0.833328 9.99967C0.833328 15.0622 4.9375 19.1663 10 19.1663C15.0625 19.1663 19.1667 15.0622 19.1667 9.99967C19.1667 4.93717 15.0625 0.833008 10 0.833008ZM13.9733 8.44968C14.0465 8.36604 14.1022 8.26862 14.1372 8.16315C14.1721 8.05767 14.1856 7.94627 14.1769 7.8355C14.1682 7.72472 14.1374 7.61681 14.0863 7.51812C14.0353 7.41942 13.965 7.33193 13.8796 7.26079C13.7943 7.18966 13.6955 7.13631 13.5892 7.10389C13.483 7.07148 13.3713 7.06064 13.2607 7.07203C13.1502 7.08342 13.0431 7.1168 12.9456 7.1702C12.8482 7.22361 12.7624 7.29596 12.6933 7.38301L9.11 11.6822L7.25583 9.82718C7.09866 9.67538 6.88816 9.59138 6.66966 9.59328C6.45116 9.59518 6.24215 9.68282 6.08765 9.83733C5.93314 9.99183 5.8455 10.2008 5.8436 10.4193C5.8417 10.6378 5.9257 10.8483 6.0775 11.0055L8.5775 13.5055C8.65938 13.5873 8.75741 13.6512 8.86534 13.6931C8.97328 13.7349 9.08874 13.7538 9.20439 13.7485C9.32003 13.7433 9.43331 13.714 9.537 13.6625C9.6407 13.6111 9.73254 13.5386 9.80666 13.4497L13.9733 8.44968Z" fill="#E71575"/>
</svg>
