<svg width="24" height="26" viewBox="0 0 24 26" fill="none" xmlns="http://www.w3.org/2000/svg">
<path d="M6.16665 0C5.85723 0 5.56048 0.122916 5.34169 0.341709C5.1229 0.560501 4.99998 0.857247 4.99998 1.16667C4.99998 1.47609 5.1229 1.77283 5.34169 1.99162C5.56048 2.21042 5.85723 2.33333 6.16665 2.33333H15.5C15.8094 2.33333 16.1061 2.21042 16.3249 1.99162C16.5437 1.77283 16.6666 1.47609 16.6666 1.16667C16.6666 0.857247 16.5437 0.560501 16.3249 0.341709C16.1061 0.122916 15.8094 0 15.5 0L6.16665 0ZM0.333313 15.1667C0.333313 12.3819 1.43956 9.71118 3.40869 7.74204C5.37782 5.77291 8.04854 4.66667 10.8333 4.66667C13.6181 4.66667 16.2888 5.77291 18.2579 7.74204C20.2271 9.71118 21.3333 12.3819 21.3333 15.1667C21.3333 17.9514 20.2271 20.6222 18.2579 22.5913C16.2888 24.5604 13.6181 25.6667 10.8333 25.6667C8.04854 25.6667 5.37782 24.5604 3.40869 22.5913C1.43956 20.6222 0.333313 17.9514 0.333313 15.1667ZM9.66665 17.5C9.66665 17.8094 9.78956 18.1062 10.0084 18.325C10.2271 18.5437 10.5239 18.6667 10.8333 18.6667C11.1427 18.6667 11.4395 18.5437 11.6583 18.325C11.8771 18.1062 12 17.8094 12 17.5V10.5C12 10.1906 11.8771 9.89383 11.6583 9.67504C11.4395 9.45625 11.1427 9.33333 10.8333 9.33333C10.5239 9.33333 10.2271 9.45625 10.0084 9.67504C9.78956 9.89383 9.66665 10.1906 9.66665 10.5V17.5ZM23.326 8.99033C23.1075 9.20936 22.811 9.33265 22.5016 9.33308C22.1923 9.33352 21.8954 9.21107 21.6763 8.99267L19.3383 6.664C19.2267 6.55653 19.1377 6.42792 19.0764 6.28568C19.015 6.14343 18.9826 5.99039 18.9811 5.83549C18.9795 5.68058 19.0088 5.52692 19.0673 5.38347C19.1257 5.24001 19.2122 5.10963 19.3215 4.99994C19.4309 4.89025 19.5611 4.80344 19.7044 4.74457C19.8476 4.68571 20.0012 4.65597 20.1561 4.6571C20.311 4.65822 20.4642 4.69018 20.6066 4.75111C20.749 4.81205 20.8779 4.90073 20.9856 5.012L23.3236 7.34067C23.5427 7.55914 23.666 7.85566 23.6664 8.16502C23.6668 8.47437 23.5444 8.77124 23.326 8.99033Z" fill="#E71575"/>
</svg>
