<svg width="18" height="14" viewBox="0 0 18 14" fill="none" xmlns="http://www.w3.org/2000/svg">
<path d="M5.14769 11.2745C4.92741 11.2749 4.7147 11.1941 4.55009 11.0477L-0.00390625 6.99954L4.80299 2.72634C4.98217 2.57307 5.21433 2.49622 5.44957 2.51234C5.68481 2.52846 5.90432 2.63625 6.06091 2.81253C6.2175 2.98882 6.29866 3.21951 6.28693 3.45501C6.2752 3.6905 6.17153 3.91199 5.99819 4.07184L2.70509 6.99954L5.74529 9.70134C5.88188 9.82253 5.97837 9.9824 6.02195 10.1597C6.06554 10.3371 6.05415 10.5234 5.98931 10.6941C5.92447 10.8648 5.80923 11.0118 5.65891 11.1154C5.50859 11.2191 5.33029 11.2746 5.14769 11.2745ZM13.1982 11.2727L18.0051 6.99954L13.4511 2.95134C13.2727 2.79285 13.0386 2.71172 12.8004 2.72582C12.5621 2.73991 12.3392 2.84807 12.1807 3.02649C12.0223 3.20492 11.9411 3.43899 11.9552 3.67723C11.9693 3.91547 12.0775 4.13835 12.2559 4.29684L15.2961 6.99954L12.003 9.92634C11.8245 10.0848 11.7162 10.3078 11.702 10.5461C11.6878 10.7844 11.7689 11.0186 11.9274 11.1971C12.0859 11.3757 12.3088 11.484 12.5471 11.4981C12.7855 11.5123 13.0197 11.4312 13.1982 11.2727ZM8.98799 12.548L10.788 1.74804C10.811 1.63001 10.8101 1.50856 10.7854 1.39087C10.7607 1.27318 10.7127 1.16164 10.6441 1.06282C10.5756 0.964013 10.488 0.87994 10.3864 0.81557C10.2848 0.751201 10.1714 0.70784 10.0527 0.688051C9.93412 0.668262 9.81274 0.672444 9.69577 0.700352C9.5788 0.72826 9.46861 0.779326 9.3717 0.850535C9.27479 0.921745 9.19314 1.01165 9.13157 1.11495C9.06999 1.21824 9.02974 1.33283 9.01319 1.45194L7.21319 12.2519C7.19018 12.37 7.19105 12.4914 7.21576 12.6091C7.24046 12.7268 7.2885 12.8383 7.35704 12.9372C7.42558 13.036 7.51323 13.12 7.61481 13.1844C7.71639 13.2488 7.82983 13.2921 7.94845 13.3119C8.06707 13.3317 8.18845 13.3275 8.30542 13.2996C8.42239 13.2717 8.53258 13.2207 8.62949 13.1494C8.72639 13.0782 8.80805 12.9883 8.86962 12.885C8.9312 12.7817 8.97145 12.6672 8.98799 12.548Z" fill="#A8ABC1"/>
</svg>
