<svg width="16" height="14" viewBox="0 0 16 14" fill="none" xmlns="http://www.w3.org/2000/svg">
<path d="M10.9336 0.25C9.81297 0.25 8.79734 0.439 8.00359 0.795062C7.21047 1.15112 6.55859 1.73106 6.55859 2.5V4.75C6.55859 4.82256 6.58547 4.89288 6.59797 4.96094C5.97236 4.81786 5.32907 4.74698 4.68359 4.75C3.56297 4.75 2.54734 4.939 1.75359 5.29506C0.960469 5.65112 0.308594 6.23106 0.308594 7V11.5C0.308594 12.2689 0.960469 12.8489 1.75422 13.2049C2.54734 13.561 3.56297 13.75 4.68359 13.75C5.80422 13.75 6.81984 13.561 7.61359 13.2049C8.40609 12.8489 9.05859 12.2689 9.05859 11.5V11.2716C9.67 11.4204 10.3003 11.4971 10.9336 11.5C12.0542 11.5 13.0698 11.311 13.8636 10.9549C14.6561 10.5989 15.3086 10.0189 15.3086 9.25V2.5C15.3086 1.73106 14.6567 1.15112 13.863 0.795062C13.0705 0.439 12.0548 0.25 10.9336 0.25ZM10.9336 1.375C11.8855 1.375 12.733 1.5595 13.2967 1.81431C13.8611 2.06913 14.0586 2.33744 14.0586 2.5C14.0586 2.66313 13.8611 2.93087 13.2967 3.18569C12.7336 3.4405 11.8855 3.625 10.9336 3.625C9.98172 3.625 9.13422 3.4405 8.57047 3.18569C8.00609 2.93087 7.80859 2.66256 7.80859 2.5C7.80859 2.33687 8.00609 2.06913 8.57047 1.81431C9.13359 1.5595 9.98172 1.375 10.9336 1.375ZM7.80859 4.09975C7.87422 4.13238 7.93547 4.17456 8.00422 4.20494C8.79734 4.561 9.81297 4.75 10.9336 4.75C12.0542 4.75 13.0698 4.561 13.8636 4.20494C13.9317 4.17456 13.993 4.13238 14.0586 4.09975V4.75C14.0586 4.91313 13.8611 5.18087 13.2967 5.43569C12.733 5.6905 11.8855 5.875 10.9336 5.875C9.98172 5.875 9.13422 5.6905 8.57047 5.43569C8.00609 5.18087 7.80859 4.91256 7.80859 4.75V4.09975ZM4.68359 5.875C5.63547 5.875 6.48297 6.0595 7.04672 6.31431C7.61109 6.56913 7.80859 6.83744 7.80859 7C7.80859 7.16313 7.61109 7.43087 7.04672 7.68569C6.48297 7.9405 5.63547 8.125 4.68359 8.125C3.73172 8.125 2.88422 7.9405 2.32047 7.68569C1.75609 7.43087 1.55859 7.16256 1.55859 7C1.55859 6.83687 1.75609 6.56913 2.32047 6.31431C2.88359 6.0595 3.73172 5.875 4.68359 5.875ZM14.0586 6.34975V7C14.0586 7.16313 13.8611 7.43087 13.2967 7.68569C12.733 7.9405 11.8855 8.125 10.9336 8.125C10.2969 8.12811 9.66384 8.03903 9.05859 7.86119V7C9.05859 6.92744 9.03172 6.85712 9.01922 6.78906C9.60047 6.92519 10.2448 7 10.9336 7C12.0542 7 13.0698 6.811 13.8636 6.45494C13.9317 6.42456 13.993 6.38237 14.0586 6.34975ZM1.55859 8.59975C1.62422 8.63237 1.68547 8.67456 1.75422 8.70494C2.54734 9.061 3.56297 9.25 4.68359 9.25C5.80422 9.25 6.81984 9.061 7.61359 8.70494C7.68172 8.67456 7.74297 8.63237 7.80859 8.59975V9.25C7.80859 9.41313 7.61109 9.68087 7.04672 9.93569C6.48297 10.1905 5.63547 10.375 4.68359 10.375C3.73172 10.375 2.88422 10.1905 2.32047 9.93569C1.75609 9.68087 1.55859 9.41256 1.55859 9.25V8.59975ZM14.0586 8.59975V9.25C14.0586 9.41313 13.8611 9.68087 13.2967 9.93569C12.733 10.1905 11.8855 10.375 10.9336 10.375C10.223 10.375 9.58109 10.285 9.05859 10.1286V9.03906C9.63234 9.17519 10.2573 9.25 10.9336 9.25C12.0542 9.25 13.0698 9.061 13.8636 8.70494C13.9317 8.67456 13.993 8.63237 14.0586 8.59975ZM1.55859 10.8497C1.62422 10.8824 1.68547 10.9246 1.75422 10.9549C2.54734 11.311 3.56297 11.5 4.68359 11.5C5.80422 11.5 6.81984 11.311 7.61359 10.9549C7.68172 10.9246 7.74297 10.8824 7.80859 10.8497V11.5C7.80859 11.6631 7.61109 11.9309 7.04672 12.1857C6.48297 12.4405 5.63547 12.625 4.68359 12.625C3.73172 12.625 2.88422 12.4405 2.32047 12.1857C1.75609 11.9309 1.55859 11.6626 1.55859 11.5V10.8497Z" fill="#E71575"/>
</svg>
