<svg width="18" height="18" viewBox="0 0 18 18" fill="none" xmlns="http://www.w3.org/2000/svg">
<path d="M0 17.3803H15.759V15.4491H0V17.3803ZM15.759 4.82785H14.008V1.93114H15.759V4.82785ZM15.759 0H1.751V9.65571C1.751 10.68 2.11996 11.6624 2.77671 12.3868C3.43346 13.1111 4.32421 13.518 5.253 13.518H10.506C11.4348 13.518 12.3255 13.1111 12.9823 12.3868C13.639 11.6624 14.008 10.68 14.008 9.65571V6.759H15.759C16.2234 6.759 16.6688 6.55554 16.9971 6.19338C17.3255 5.83122 17.51 5.34002 17.51 4.82785V1.93114C17.51 0.859358 16.722 0 15.759 0Z" fill="#4A4A4A"/>
</svg>
