<svg width="134" height="64" viewBox="0 0 134 64" fill="none" xmlns="http://www.w3.org/2000/svg">
<path d="M12.7996 42.24C10.9436 42.24 8.84763 42.08 6.51163 41.76C5.23163 41.6 4.35163 41.264 3.87163 40.752C3.39163 40.24 3.18363 39.408 3.24763 38.256C3.47163 35.088 3.99963 31.184 4.83163 26.544C5.66363 21.872 6.67163 17.376 7.85563 13.056C8.07963 12.256 8.52763 11.696 9.19963 11.376C9.87163 11.056 10.7516 10.896 11.8396 10.896C13.7916 10.896 14.7676 11.44 14.7676 12.528C14.7676 12.976 14.6716 13.488 14.4796 14.064C13.6476 16.624 12.8156 20.064 11.9836 24.384C11.1516 28.672 10.5596 32.768 10.2076 36.672C11.1676 36.768 12.2556 36.816 13.4716 36.816C19.0716 36.816 23.2476 35.12 25.9996 31.728C28.7836 28.336 30.1756 23.808 30.1756 18.144C30.1756 14.336 29.0876 11.392 26.9116 9.312C24.7356 7.232 21.6636 6.192 17.6956 6.192C15.1356 6.192 12.5916 6.592 10.0636 7.392C7.56763 8.192 5.31163 9.248 3.29563 10.56C2.87963 10.848 2.43163 10.992 1.95163 10.992C1.40763 10.992 0.975625 10.768 0.655625 10.32C0.335625 9.84 0.175625 9.264 0.175625 8.592C0.175625 7.824 0.303625 7.2 0.559625 6.72C0.815625 6.208 1.24763 5.744 1.85563 5.328C4.06363 3.824 6.65563 2.688 9.63163 1.92C12.6076 1.12 15.4716 0.719999 18.2236 0.719999C22.1276 0.719999 25.5036 1.408 28.3516 2.784C31.1996 4.128 33.3916 6.112 34.9276 8.736C36.4636 11.36 37.2316 14.528 37.2316 18.24C37.2316 23.072 36.2716 27.296 34.3516 30.912C32.4316 34.496 29.6316 37.28 25.9516 39.264C22.2716 41.248 17.8876 42.24 12.7996 42.24ZM61.8526 31.296C62.2686 31.296 62.5886 31.488 62.8126 31.872C63.0686 32.256 63.1966 32.784 63.1966 33.456C63.1966 34.736 62.8926 35.728 62.2846 36.432C61.1006 37.872 59.4206 39.2 57.2446 40.416C55.1006 41.632 52.7966 42.24 50.3326 42.24C46.9726 42.24 44.3646 41.328 42.5086 39.504C40.6526 37.68 39.7246 35.184 39.7246 32.016C39.7246 29.808 40.1886 27.76 41.1166 25.872C42.0446 23.952 43.3246 22.432 44.9566 21.312C46.6206 20.192 48.4926 19.632 50.5726 19.632C52.4286 19.632 53.9166 20.192 55.0366 21.312C56.1566 22.4 56.7166 23.888 56.7166 25.776C56.7166 27.984 55.9166 29.888 54.3166 31.488C52.7486 33.056 50.0766 34.304 46.3006 35.232C47.1006 36.704 48.6206 37.44 50.8606 37.44C52.3006 37.44 53.9326 36.944 55.7566 35.952C57.6126 34.928 59.2126 33.6 60.5566 31.968C60.9406 31.52 61.3726 31.296 61.8526 31.296ZM49.7566 24.336C48.5726 24.336 47.5646 25.024 46.7326 26.4C45.9326 27.776 45.5326 29.44 45.5326 31.392V31.488C47.4206 31.04 48.9086 30.368 49.9966 29.472C51.0846 28.576 51.6286 27.536 51.6286 26.352C51.6286 25.744 51.4526 25.264 51.1006 24.912C50.7806 24.528 50.3326 24.336 49.7566 24.336ZM68.2164 43.296C66.5524 43.296 65.2724 42.912 64.3764 42.144C63.5124 41.376 63.0804 40.512 63.0804 39.552C63.0804 38.72 63.3844 38 63.9924 37.392C64.6004 36.784 65.4964 36.48 66.6804 36.48C67.0964 36.48 67.5764 36.528 68.1204 36.624C68.6964 36.688 69.1284 36.736 69.4164 36.768C69.3844 35.936 69.1924 35.152 68.8404 34.416C68.5204 33.68 68.1044 32.976 67.5924 32.304C67.0804 31.6 66.6004 30.992 66.1524 30.48C65.1604 32.368 64.1684 33.936 63.1764 35.184C62.2164 36.432 61.1604 37.616 60.0084 38.736C59.4324 39.312 58.8244 39.6 58.1844 39.6C57.6724 39.6 57.2564 39.424 56.9364 39.072C56.6164 38.688 56.4564 38.224 56.4564 37.68C56.4564 37.04 56.6804 36.448 57.1284 35.904L57.7524 35.136C59.5124 32.96 60.8404 31.168 61.7364 29.76C62.2804 28.832 62.9204 27.6 63.6564 26.064C64.3924 24.496 65.1124 22.88 65.8164 21.216C66.4244 19.808 67.6884 19.104 69.6084 19.104C70.5044 19.104 71.1284 19.184 71.4804 19.344C71.8324 19.504 72.0084 19.76 72.0084 20.112C72.0084 20.304 71.9444 20.608 71.8164 21.024C71.6884 21.44 71.5124 21.856 71.2884 22.272C70.7124 23.424 70.4244 24.4 70.4244 25.2C70.4244 25.68 70.5844 26.208 70.9044 26.784C71.2564 27.36 71.7844 28.08 72.4884 28.944C73.5124 30.288 74.2804 31.44 74.7924 32.4C75.3364 33.328 75.6084 34.352 75.6084 35.472C75.6084 35.792 75.5764 36.24 75.5124 36.816C77.0804 36.208 78.9204 34.592 81.0324 31.968C81.4164 31.52 81.8484 31.296 82.3284 31.296C82.7444 31.296 83.0644 31.488 83.2884 31.872C83.5444 32.256 83.6724 32.784 83.6724 33.456C83.6724 34.672 83.3684 35.664 82.7604 36.432C81.1604 38.416 79.6244 39.776 78.1524 40.512C76.7124 41.216 74.9204 41.6 72.7764 41.664C71.4964 42.752 69.9764 43.296 68.2164 43.296ZM86.0608 16.464C84.7168 16.464 83.7088 16.16 83.0368 15.552C82.3648 14.912 82.0288 14.032 82.0288 12.912C82.0288 11.792 82.4608 10.864 83.3248 10.128C84.2208 9.36 85.3248 8.976 86.6368 8.976C87.8208 8.976 88.7808 9.264 89.5168 9.84C90.2528 10.416 90.6208 11.232 90.6208 12.288C90.6208 13.568 90.2048 14.592 89.3728 15.36C88.5408 16.096 87.4368 16.464 86.0608 16.464ZM85.6768 42.24C83.5968 42.24 82.0768 41.504 81.1168 40.032C80.1888 38.56 79.7248 36.608 79.7248 34.176C79.7248 32.736 79.9008 30.896 80.2528 28.656C80.6368 26.384 81.1168 24.272 81.6928 22.32C81.9808 21.296 82.3648 20.592 82.8448 20.208C83.3248 19.824 84.0928 19.632 85.1488 19.632C86.7808 19.632 87.5968 20.176 87.5968 21.264C87.5968 22.064 87.2928 23.92 86.6848 26.832C85.9168 30.352 85.5328 32.736 85.5328 33.984C85.5328 34.944 85.6608 35.68 85.9168 36.192C86.1728 36.704 86.6048 36.96 87.2128 36.96C87.7888 36.96 88.5088 36.56 89.3728 35.76C90.2368 34.96 91.3888 33.696 92.8288 31.968C93.2128 31.52 93.6448 31.296 94.1248 31.296C94.5408 31.296 94.8608 31.488 95.0848 31.872C95.3408 32.256 95.4688 32.784 95.4688 33.456C95.4688 34.736 95.1648 35.728 94.5568 36.432C91.3888 40.304 88.4288 42.24 85.6768 42.24ZM116.161 31.392C116.577 31.392 116.897 31.6 117.121 32.016C117.377 32.4 117.505 32.896 117.505 33.504C117.505 34.24 117.393 34.816 117.169 35.232C116.945 35.648 116.593 36.016 116.113 36.336C113.361 38.192 111.345 39.568 110.065 40.464L106.993 42.528C105.777 49.152 104.177 54.352 102.193 58.128C100.241 61.936 97.7453 63.84 94.7053 63.84C93.0733 63.84 91.7453 63.328 90.7213 62.304C89.6973 61.312 89.1852 60 89.1852 58.368C89.1852 56.096 90.0813 53.648 91.8733 51.024C93.6653 48.432 97.0253 45.232 101.953 41.424L102.241 39.552C101.697 40.416 100.977 41.088 100.081 41.568C99.2173 42.016 98.3533 42.24 97.4893 42.24C95.5053 42.24 93.9213 41.52 92.7373 40.08C91.5533 38.64 90.9613 36.752 90.9613 34.416C90.9613 31.856 91.5533 29.44 92.7373 27.168C93.9213 24.864 95.4893 23.024 97.4413 21.648C99.4253 20.24 101.521 19.536 103.729 19.536C104.433 19.536 104.897 19.68 105.121 19.968C105.377 20.224 105.585 20.704 105.745 21.408C106.353 21.28 107.057 21.216 107.857 21.216C108.657 21.216 109.217 21.344 109.537 21.6C109.889 21.824 110.065 22.288 110.065 22.992C110.065 23.376 110.049 23.68 110.017 23.904C109.889 24.896 109.489 27.408 108.817 31.44C108.689 32.208 108.545 33.056 108.385 33.984C108.257 34.88 108.113 35.84 107.953 36.864C110.417 34.944 112.785 33.248 115.057 31.776C115.473 31.52 115.841 31.392 116.161 31.392ZM99.2173 37.392C99.9533 37.392 100.657 36.944 101.329 36.048C102.001 35.152 102.481 33.872 102.769 32.208L104.305 24C102.993 24.032 101.777 24.544 100.657 25.536C99.5373 26.496 98.6413 27.776 97.9693 29.376C97.2973 30.976 96.9613 32.672 96.9613 34.464C96.9613 35.456 97.1533 36.192 97.5373 36.672C97.9533 37.152 98.5133 37.392 99.2173 37.392ZM95.2333 59.184C96.0333 59.184 96.9293 58.224 97.9213 56.304C98.9453 54.384 99.9213 51.328 100.849 47.136C98.3853 49.248 96.6093 51.152 95.5213 52.848C94.4333 54.544 93.8893 56.032 93.8893 57.312C93.8893 57.856 93.9853 58.304 94.1773 58.656C94.4013 59.008 94.7533 59.184 95.2333 59.184ZM117.446 42.24C116.23 42.24 115.366 41.6 114.854 40.32C114.374 39.04 114.134 36.992 114.134 34.176C114.134 30.016 114.726 26.064 115.91 22.32C116.198 21.392 116.662 20.72 117.302 20.304C117.974 19.856 118.902 19.632 120.086 19.632C120.726 19.632 121.174 19.712 121.43 19.872C121.686 20.032 121.814 20.336 121.814 20.784C121.814 21.296 121.574 22.448 121.094 24.24C120.774 25.52 120.518 26.64 120.326 27.6C120.134 28.56 119.974 29.744 119.846 31.152C120.902 28.4 122.086 26.16 123.398 24.432C124.71 22.704 125.99 21.472 127.238 20.736C128.518 20 129.686 19.632 130.742 19.632C131.766 19.632 132.534 19.904 133.046 20.448C133.59 20.96 133.862 21.728 133.862 22.752C133.862 23.584 133.686 25.152 133.334 27.456C133.014 29.408 132.758 31.264 132.566 33.024C132.374 34.752 132.278 36.688 132.278 38.832C132.278 40.048 132.022 40.928 131.51 41.472C131.03 41.984 130.23 42.24 129.11 42.24C128.054 42.24 127.286 41.968 126.806 41.424C126.326 40.88 126.086 40.064 126.086 38.976C126.086 37.696 126.31 35.584 126.758 32.64C127.142 30.08 127.334 28.448 127.334 27.744C127.334 27.232 127.158 26.976 126.806 26.976C126.39 26.976 125.798 27.52 125.03 28.608C124.294 29.664 123.526 31.072 122.726 32.832C121.958 34.592 121.334 36.448 120.854 38.4C120.502 39.904 120.086 40.928 119.606 41.472C119.158 41.984 118.438 42.24 117.446 42.24Z" fill="white"/>
</svg>
