<svg width="30" height="22" viewBox="0 0 30 22" fill="none" xmlns="http://www.w3.org/2000/svg">
<path d="M20.3594 2.36652L21.9631 7.53438C22.1389 8.10089 22.6552 8.51187 23.2673 8.51187H28.4572C28.4848 8.51187 28.4954 8.51881 28.5031 8.52507C28.5154 8.53503 28.5334 8.55699 28.5446 8.59294C28.5557 8.62875 28.5551 8.66324 28.548 8.6889C28.5421 8.70997 28.5306 8.73141 28.5015 8.75353L24.3028 11.9474C23.8261 12.3101 23.6398 12.9372 23.8144 13.4996L25.4181 18.6675C25.4327 18.7144 25.4279 18.745 25.421 18.7652C25.4127 18.7893 25.3964 18.8119 25.3751 18.8281C25.3537 18.8444 25.3364 18.8476 25.3292 18.8478L25.329 18.8478C25.3265 18.848 25.3136 18.8488 25.2864 18.8281L21.0877 15.6342C20.6034 15.2658 19.9406 15.2658 19.4563 15.6342L15.2576 18.8281C15.2304 18.8488 15.2175 18.848 15.215 18.8478L15.2147 18.8478C15.2075 18.8476 15.1903 18.8444 15.1689 18.8281C15.1476 18.8119 15.1312 18.7893 15.123 18.7652C15.1161 18.745 15.1113 18.7144 15.1258 18.6675L16.7296 13.4996C16.9041 12.9372 16.7179 12.3101 16.2411 11.9474L12.0424 8.75353C12.0133 8.73142 12.0019 8.70997 11.996 8.6889C11.9888 8.66324 11.9883 8.62875 11.9994 8.59294C12.0105 8.55699 12.0286 8.53503 12.0409 8.52506C12.0486 8.51881 12.0591 8.51187 12.0868 8.51187H17.2766C17.8887 8.51187 18.405 8.10089 18.5808 7.53438L20.1846 2.36652C20.199 2.31995 20.2176 2.3047 20.2252 2.29928C20.2363 2.29141 20.2523 2.28545 20.272 2.28545C20.2916 2.28545 20.3077 2.29141 20.3187 2.29928C20.3263 2.3047 20.3449 2.31995 20.3594 2.36652Z" fill="white" stroke="black" stroke-width="1.27403" stroke-linejoin="round"/>
<path d="M12.5654 1.45566C12.184 0.281877 10.5234 0.281881 10.142 1.45566L8.28011 7.186C8.22325 7.36097 8.0602 7.47944 7.87622 7.47944H1.85098C0.616797 7.47944 0.103652 9.05875 1.10213 9.78418L5.97664 13.3257C6.12549 13.4339 6.18777 13.6256 6.13092 13.8005L4.26902 19.5309C3.88763 20.7046 5.23107 21.6807 6.22955 20.9553L11.1041 17.4137C11.2529 17.3056 11.4545 17.3056 11.6033 17.4137L16.4778 20.9553C17.4763 21.6807 18.8197 20.7046 18.4384 19.5309L16.5765 13.8005C16.5196 13.6256 16.5819 13.4339 16.7307 13.3257L21.6052 9.78418C22.6037 9.05875 22.0906 7.47944 20.8564 7.47944H14.8311C14.6472 7.47944 14.4841 7.36097 14.4273 7.186L12.5654 1.45566Z" fill="white" stroke="white" stroke-width="0.849353" stroke-linejoin="round"/>
<path d="M11.1517 1.78374C11.2153 1.58811 11.4921 1.58811 11.5556 1.78374L13.4175 7.51408C13.6165 8.12649 14.1872 8.54113 14.8311 8.54113H20.8564C21.0621 8.54113 21.1476 8.80435 20.9812 8.92526L16.1067 12.4668C15.5857 12.8453 15.3677 13.5162 15.5667 14.1286L17.4286 19.8589C17.4922 20.0546 17.2683 20.2173 17.1019 20.0964L12.2273 16.5548C11.7064 16.1763 11.001 16.1763 10.48 16.5548L5.6055 20.0963C5.43908 20.2173 5.21518 20.0546 5.27874 19.8589L7.14064 14.1286C7.33963 13.5162 7.12164 12.8453 6.60069 12.4668L1.72617 8.92526C1.55976 8.80435 1.64529 8.54113 1.85098 8.54113H7.87622C8.52015 8.54113 9.09085 8.12649 9.28984 7.51408L11.1517 1.78374Z" fill="white" stroke="black" stroke-width="1.27403" stroke-linejoin="round"/>
</svg>
