<svg width="50" height="50" viewBox="0 0 50 50" fill="none" xmlns="http://www.w3.org/2000/svg">
<path d="M40 5H32.5V7.5H17.5V5H10V42.5H17.5V40H32.5V42.5H40V5ZM15 7.5V10H12.5V7.5H15ZM37.5 7.5V10H35V7.5H37.5ZM32.5 10V22.5H17.5V10H32.5ZM15 12.5V15H12.5V12.5H15ZM37.5 12.5V15H35V12.5H37.5ZM15 17.5V20H12.5V17.5H15ZM37.5 17.5V20H35V17.5H37.5ZM15 22.5V25H12.5V22.5H15ZM37.5 22.5V25H35V22.5H37.5ZM32.5 25V37.5H17.5V25H32.5ZM15 27.5V30H12.5V27.5H15ZM37.5 27.5V30H35V27.5H37.5ZM15 32.5V35H12.5V32.5H15ZM37.5 32.5V35H35V32.5H37.5ZM15 37.5V40H12.5V37.5H15ZM37.5 37.5V40H35V37.5H37.5Z" fill="black" fill-opacity="0.8"/>
</svg>
