<svg width="15" height="15" viewBox="0 0 15 15" fill="none" xmlns="http://www.w3.org/2000/svg">
<path d="M13.1158 0.456909H1.67272C1.25888 0.456909 0.861976 0.614121 0.569341 0.893959C0.276706 1.1738 0.112305 1.55334 0.112305 1.94909L0.112305 12.8917C0.112305 13.2875 0.276706 13.667 0.569341 13.9469C0.861976 14.2267 1.25888 14.3839 1.67272 14.3839H6.13437V9.64919H4.08848V7.42042H6.13668V5.72177C6.13668 3.78967 7.33878 2.72237 9.18169 2.72237C9.78577 2.73043 10.3884 2.78067 10.9848 2.87269V4.76765H9.96768C9.79447 4.74572 9.61831 4.7613 9.45225 4.81326C9.28618 4.86521 9.13445 4.9522 9.00829 5.0678C8.88212 5.18339 8.78475 5.32463 8.72337 5.48107C8.66199 5.63751 8.63818 5.80514 8.65369 5.97157V7.42042H10.8896L10.5322 9.64919H8.65416V14.3839H13.1158C13.5296 14.3839 13.9265 14.2267 14.2192 13.9469C14.5118 13.667 14.6762 13.2875 14.6762 12.8917V1.94909C14.6762 1.55334 14.5118 1.1738 14.2192 0.893959C13.9265 0.614121 13.5296 0.456909 13.1158 0.456909V0.456909Z" fill="white"/>
</svg>
