<svg width="25" height="25" viewBox="0 0 25 25" fill="none" xmlns="http://www.w3.org/2000/svg">
<path d="M22.2213 0.0351562H3.42925C2.74962 0.0351562 2.09782 0.312151 1.61725 0.805205C1.13668 1.29826 0.866699 1.96698 0.866699 2.66427L0.866699 21.9444C0.866699 22.6417 1.13668 23.3104 1.61725 23.8035C2.09782 24.2965 2.74962 24.5735 3.42925 24.5735H10.7562V16.2313H7.39646V12.3043H10.76V9.31143C10.76 5.90722 12.7342 4.02673 15.7606 4.02673C16.7526 4.04093 17.7423 4.12946 18.7218 4.29159V7.63036H17.0514C16.7669 7.59171 16.4776 7.61918 16.2049 7.71071C15.9322 7.80225 15.683 7.95552 15.4759 8.15919C15.2687 8.36286 15.1088 8.61172 15.008 8.88735C14.9072 9.16298 14.8681 9.45834 14.8935 9.75157V12.3043H18.5654L17.9785 16.2313H14.8943V24.5735H22.2213C22.9009 24.5735 23.5527 24.2965 24.0333 23.8035C24.5139 23.3104 24.7838 22.6417 24.7838 21.9444V2.66427C24.7838 1.96698 24.5139 1.29826 24.0333 0.805205C23.5527 0.312151 22.9009 0.0351563 22.2213 0.0351562Z" fill="white"/>
</svg>
