<svg width="14" height="14" viewBox="0 0 14 14" fill="none" xmlns="http://www.w3.org/2000/svg">
<path d="M12.25 3.9375V12.25C12.25 12.7141 12.0656 13.1592 11.7374 13.4874C11.4092 13.8156 10.9641 14 10.5 14H3.5C3.03587 14 2.59075 13.8156 2.26256 13.4874C1.93437 13.1592 1.75 12.7141 1.75 12.25V1.75C1.75 1.28587 1.93437 0.840752 2.26256 0.512563C2.59075 0.184374 3.03587 0 3.5 0L8.3125 0L12.25 3.9375ZM9.625 3.9375C9.2769 3.9375 8.94306 3.79922 8.69692 3.55308C8.45078 3.30694 8.3125 2.9731 8.3125 2.625V0.875H3.5C3.26794 0.875 3.04538 0.967187 2.88128 1.13128C2.71719 1.29538 2.625 1.51794 2.625 1.75V12.25C2.625 12.4821 2.71719 12.7046 2.88128 12.8687C3.04538 13.0328 3.26794 13.125 3.5 13.125H10.5C10.7321 13.125 10.9546 13.0328 11.1187 12.8687C11.2828 12.7046 11.375 12.4821 11.375 12.25V3.9375H9.625Z" fill="white"/>
<path d="M6.94452 5.00981C6.9503 4.99204 6.95845 4.98401 6.96526 4.97936C6.97356 4.97371 6.98565 4.9695 7 4.9695C7.01435 4.9695 7.02644 4.97371 7.03474 4.97936C7.04155 4.98401 7.0497 4.99204 7.05548 5.00981L7.4984 6.37299C7.56869 6.5893 7.77026 6.73576 7.99771 6.73576H9.43104C9.44972 6.73576 9.45989 6.74103 9.46641 6.74607C9.47435 6.75222 9.48209 6.76242 9.48652 6.77607C9.49095 6.78971 9.49069 6.80251 9.48788 6.81215C9.48557 6.82006 9.48044 6.8303 9.46533 6.84128L8.30574 7.68378C8.12173 7.81746 8.04474 8.05443 8.11502 8.27074L8.55794 9.63392C8.56372 9.65169 8.56184 9.66299 8.55906 9.67075C8.55567 9.6802 8.54836 9.69071 8.53675 9.69914C8.52514 9.70758 8.51289 9.71128 8.50285 9.71159C8.49461 9.71183 8.48329 9.71012 8.46818 9.69914L7.30859 8.85665C7.12458 8.72296 6.87542 8.72296 6.69141 8.85665L5.53182 9.69914C5.51671 9.71013 5.50538 9.71183 5.49715 9.71159C5.48711 9.71128 5.47486 9.70758 5.46325 9.69914C5.45164 9.69071 5.44433 9.6802 5.44094 9.67075C5.43816 9.66299 5.43628 9.65169 5.44206 9.63392L5.88498 8.27074C5.95526 8.05443 5.87827 7.81746 5.69426 7.68378L4.53467 6.84128C4.51956 6.8303 4.51443 6.82006 4.51212 6.81215C4.50931 6.80251 4.50905 6.78971 4.51348 6.77607C4.51792 6.76242 4.52565 6.75222 4.53359 6.74607C4.54011 6.74103 4.55028 6.73576 4.56896 6.73576H6.00229C6.22974 6.73576 6.43131 6.5893 6.5016 6.37299L6.94452 5.00981Z" stroke="white" stroke-width="0.466667" stroke-linejoin="round"/>
</svg>
