<svg width="12" height="12" viewBox="0 0 12 12" fill="none" xmlns="http://www.w3.org/2000/svg">
<path d="M9.01001 6.165L8.40001 5.555C8.25501 5.43 8.17001 5.245 8.16501 5.04C8.15501 4.815 8.24501 4.59 8.41001 4.425L9.01001 3.825C9.53001 3.305 9.72501 2.805 9.56001 2.41C9.40001 2.02 8.90501 1.805 8.17501 1.805H2.95001V1.375C2.95001 1.17 2.78001 1 2.57501 1C2.37001 1 2.20001 1.17 2.20001 1.375V10.625C2.20001 10.83 2.37001 11 2.57501 11C2.78001 11 2.95001 10.83 2.95001 10.625V8.185H8.17501C8.89501 8.185 9.38001 7.965 9.54501 7.57C9.71001 7.175 9.52001 6.68 9.01001 6.165Z" fill="#1C1C25"/>
</svg>
