<svg width="12" height="12" viewBox="0 0 12 12" fill="none" xmlns="http://www.w3.org/2000/svg">
<path d="M1.28613 2.8923C1.28613 2.46606 1.45546 2.05728 1.75685 1.75588C2.05825 1.45448 2.46703 1.28516 2.89328 1.28516H9.10756C9.5338 1.28516 9.94259 1.45448 10.244 1.75588C10.5454 2.05728 10.7147 2.46606 10.7147 2.8923V6.21373C10.5157 6.06406 10.3 5.93807 10.0718 5.8383V2.8923C10.0718 2.63655 9.97025 2.39128 9.78941 2.21045C9.60858 2.02961 9.36331 1.92801 9.10756 1.92801H2.89328C2.63753 1.92801 2.39226 2.02961 2.21142 2.21045C2.03058 2.39128 1.92899 2.63655 1.92899 2.8923V9.10659C1.92899 9.36233 2.03058 9.6076 2.21142 9.78844C2.39226 9.96928 2.63753 10.0709 2.89328 10.0709H5.83928C5.93956 10.3002 6.06599 10.5157 6.21428 10.7137H2.89328C2.46703 10.7137 2.05825 10.5444 1.75685 10.243C1.45546 9.94161 1.28613 9.53283 1.28613 9.10659V2.8923ZM9.10756 5.57087C9.19281 5.57087 9.27457 5.53701 9.33485 5.47673C9.39513 5.41645 9.42899 5.33469 9.42899 5.24944C9.42899 5.16419 9.39513 5.08244 9.33485 5.02216C9.27457 4.96188 9.19281 4.92801 9.10756 4.92801H5.89328C5.80803 4.92801 5.72627 4.96188 5.66599 5.02216C5.60571 5.08244 5.57185 5.16419 5.57185 5.24944C5.57185 5.33469 5.60571 5.41645 5.66599 5.47673C5.72627 5.53701 5.80803 5.57087 5.89328 5.57087H9.10756ZM2.57185 3.10658C2.57185 3.02134 2.60571 2.93958 2.66599 2.8793C2.72627 2.81902 2.80803 2.78516 2.89328 2.78516H9.10756C9.19281 2.78516 9.27457 2.81902 9.33485 2.8793C9.39513 2.93958 9.42899 3.02134 9.42899 3.10658C9.42899 3.19183 9.39513 3.27359 9.33485 3.33387C9.27457 3.39415 9.19281 3.42801 9.10756 3.42801H2.89328C2.80803 3.42801 2.72627 3.39415 2.66599 3.33387C2.60571 3.27359 2.57185 3.19183 2.57185 3.10658ZM3.64328 4.28516C3.35912 4.28516 3.08659 4.39804 2.88566 4.59897C2.68473 4.7999 2.57185 5.07242 2.57185 5.35659C2.57185 5.64075 2.68473 5.91327 2.88566 6.1142C3.08659 6.31513 3.35912 6.42801 3.64328 6.42801C3.92744 6.42801 4.19996 6.31513 4.40089 6.1142C4.60182 5.91327 4.7147 5.64075 4.7147 5.35659C4.7147 5.07242 4.60182 4.7999 4.40089 4.59897C4.19996 4.39804 3.92744 4.28516 3.64328 4.28516ZM3.2147 5.35659C3.2147 5.24292 3.25986 5.13391 3.34023 5.05354C3.4206 4.97317 3.52961 4.92801 3.64328 4.92801C3.75694 4.92801 3.86595 4.97317 3.94632 5.05354C4.02669 5.13391 4.07185 5.24292 4.07185 5.35659C4.07185 5.47025 4.02669 5.57926 3.94632 5.65963C3.86595 5.74 3.75694 5.78516 3.64328 5.78516C3.52961 5.78516 3.4206 5.74 3.34023 5.65963C3.25986 5.57926 3.2147 5.47025 3.2147 5.35659ZM2.57185 8.35659C2.57185 8.07242 2.68473 7.7999 2.88566 7.59897C3.08659 7.39804 3.35912 7.28516 3.64328 7.28516C3.92744 7.28516 4.19996 7.39804 4.40089 7.59897C4.60182 7.7999 4.7147 8.07242 4.7147 8.35659C4.7147 8.64075 4.60182 8.91327 4.40089 9.1142C4.19996 9.31513 3.92744 9.42801 3.64328 9.42801C3.35912 9.42801 3.08659 9.31513 2.88566 9.1142C2.68473 8.91327 2.57185 8.64075 2.57185 8.35659ZM3.64328 7.92801C3.52961 7.92801 3.4206 7.97317 3.34023 8.05354C3.25986 8.13391 3.2147 8.24292 3.2147 8.35659C3.2147 8.47025 3.25986 8.57926 3.34023 8.65963C3.4206 8.74 3.52961 8.78516 3.64328 8.78516C3.75694 8.78516 3.86595 8.74 3.94632 8.65963C4.02669 8.57926 4.07185 8.47025 4.07185 8.35659C4.07185 8.24292 4.02669 8.13391 3.94632 8.05354C3.86595 7.97317 3.75694 7.92801 3.64328 7.92801ZM11.5718 8.78516C11.5718 9.52397 11.2784 10.2325 10.7559 10.755C10.2335 11.2774 9.52495 11.5709 8.78613 11.5709C8.04732 11.5709 7.33876 11.2774 6.81634 10.755C6.29391 10.2325 6.00042 9.52397 6.00042 8.78516C6.00042 8.04634 6.29391 7.33778 6.81634 6.81536C7.33876 6.29294 8.04732 5.99944 8.78613 5.99944C9.52495 5.99944 10.2335 6.29294 10.7559 6.81536C11.2784 7.33778 11.5718 8.04634 11.5718 8.78516ZM9.00042 7.07087C9.00042 7.01404 8.97784 6.95953 8.93766 6.91935C8.89747 6.87916 8.84297 6.85659 8.78613 6.85659C8.7293 6.85659 8.6748 6.87916 8.63461 6.91935C8.59442 6.95953 8.57185 7.01404 8.57185 7.07087V8.57087H7.07185C7.01502 8.57087 6.96051 8.59345 6.92032 8.63363C6.88014 8.67382 6.85756 8.72832 6.85756 8.78516C6.85756 8.84199 6.88014 8.89649 6.92032 8.93668C6.96051 8.97687 7.01502 8.99944 7.07185 8.99944H8.57185V10.4994C8.57185 10.5563 8.59442 10.6108 8.63461 10.651C8.6748 10.6912 8.7293 10.7137 8.78613 10.7137C8.84297 10.7137 8.89747 10.6912 8.93766 10.651C8.97784 10.6108 9.00042 10.5563 9.00042 10.4994V8.99944H10.5004C10.5573 8.99944 10.6118 8.97687 10.6519 8.93668C10.6921 8.89649 10.7147 8.84199 10.7147 8.78516C10.7147 8.72832 10.6921 8.67382 10.6519 8.63363C10.6118 8.59345 10.5573 8.57087 10.5004 8.57087H9.00042V7.07087Z" fill="#9D9FA2"/>
</svg>
