<svg width="26" height="30" viewBox="0 0 26 30" fill="none" xmlns="http://www.w3.org/2000/svg">
<path d="M20.2186 1.66602C21.5202 2.89136 22.5569 4.37038 23.2648 6.01184C23.9727 7.65331 24.3368 9.42241 24.3346 11.21C24.3346 18.4573 18.4593 24.3327 11.212 24.3327C9.42436 24.3349 7.65526 23.9708 6.0138 23.2629C4.37233 22.555 2.89331 21.5183 1.66797 20.2167" stroke="white" stroke-width="2.66667" stroke-linecap="round" stroke-linejoin="round"/>
<path fill-rule="evenodd" clip-rule="evenodd" d="M11.0013 20.3327C16.156 20.3327 20.3346 16.154 20.3346 10.9993C20.3346 5.84468 16.156 1.66602 11.0013 1.66602C5.84664 1.66602 1.66797 5.84468 1.66797 10.9993C1.66797 16.154 5.84664 20.3327 11.0013 20.3327Z" fill="white" stroke="white" stroke-width="2.66667" stroke-linecap="round" stroke-linejoin="round"/>
<path d="M7.00098 28.333H15.001M11.001 24.333V28.333V24.333Z" stroke="#8796A0" stroke-width="2.66667" stroke-linecap="round" stroke-linejoin="round"/>
</svg>
