<svg width="20" height="22" viewBox="0 0 20 22" fill="none" xmlns="http://www.w3.org/2000/svg">
<path d="M7.98453 10.6505C10.3459 10.1972 12.6823 9.62404 14.9845 8.93332V1.98518C14.9845 1.98518 8.48453 0 5.48453 0C4.14903 0.00373132 2.86052 0.489664 1.85945 1.36711C0.858391 2.24456 0.213173 3.45358 0.0442086 4.76854C-0.124756 6.08351 0.194078 7.41457 0.94121 8.51333C1.68834 9.6121 2.81273 10.4035 4.10453 10.7398L4.98453 16.8741H5.98453C6.02452 17.3472 6.1779 17.8039 6.43187 18.2062C6.68585 18.6085 7.03305 18.9447 7.44453 19.1868C7.90847 19.4606 8.29374 19.8481 8.56341 20.3122C8.83308 20.7762 8.97809 21.3013 8.98453 21.837H9.98453C9.97999 21.1532 9.80278 20.4815 9.4691 19.8832C9.13543 19.285 8.65595 18.7794 8.07453 18.4126C7.37453 17.8666 6.98453 17.4994 6.98453 16.8741H7.98453V10.6505ZM1.98453 5.45925C1.98453 4.53787 2.35328 3.65423 3.00966 3.00271C3.66604 2.3512 4.55627 1.98518 5.48453 1.98518C8.02955 2.22354 10.5429 2.72249 12.9845 3.47407V7.44443C10.5429 8.19602 8.02955 8.69497 5.48453 8.93332C4.55627 8.93332 3.66604 8.5673 3.00966 7.91579C2.35328 7.26428 1.98453 6.38063 1.98453 5.45925ZM19.9845 6.94814C19.2086 6.96744 18.4417 6.77885 17.7645 6.40221C17.2237 6.09412 16.6079 5.9396 15.9845 5.95555V4.96296C16.7605 4.94366 17.5274 5.13224 18.2045 5.50888C18.7454 5.81698 19.3612 5.9715 19.9845 5.95555V6.94814ZM19.9845 3.97037C19.3612 3.98632 18.7454 3.83179 18.2045 3.5237C17.5274 3.14706 16.7605 2.95848 15.9845 2.97777V3.97037C16.6079 3.95441 17.2237 4.10894 17.7645 4.41703C18.4417 4.79367 19.2086 4.98225 19.9845 4.96296V3.97037ZM19.9845 7.94073C19.3612 7.95668 18.7454 7.80216 18.2045 7.49406C17.5274 7.11743 16.7605 6.92884 15.9845 6.94814V7.94073C16.6079 7.92478 17.2237 8.0793 17.7645 8.3874C18.4417 8.76403 19.2086 8.95262 19.9845 8.93332V7.94073ZM6.98453 5.45925C6.98453 5.75373 6.89656 6.04159 6.73174 6.28643C6.56691 6.53128 6.33265 6.72211 6.05856 6.8348C5.78447 6.94749 5.48287 6.97698 5.1919 6.91953C4.90092 6.86208 4.63365 6.72028 4.42387 6.51205C4.21409 6.30383 4.07123 6.03854 4.01335 5.74972C3.95548 5.4609 3.98518 5.16154 4.09871 4.88948C4.21224 4.61742 4.4045 4.38489 4.65118 4.22129C4.89785 4.05769 5.18786 3.97037 5.48453 3.97037C5.88236 3.97037 6.26389 4.12723 6.54519 4.40645C6.8265 4.68567 6.98453 5.06437 6.98453 5.45925Z" fill="#4A4A4A"/>
</svg>
