<svg width="23" height="20" viewBox="0 0 23 20" fill="none" xmlns="http://www.w3.org/2000/svg">
<g clip-path="url(#clip0_378_2433)">
<path d="M20.625 1.25H1.875C0.839844 1.25 0 2.08984 0 3.125V3.75H22.5V3.125C22.5 2.08984 21.6602 1.25 20.625 1.25ZM0 16.875C0 17.9102 0.839844 18.75 1.875 18.75H20.625C21.6602 18.75 22.5 17.9102 22.5 16.875V5H0V16.875ZM13.75 7.8125C13.75 7.64062 13.8906 7.5 14.0625 7.5H19.6875C19.8594 7.5 20 7.64062 20 7.8125V8.4375C20 8.60938 19.8594 8.75 19.6875 8.75H14.0625C13.8906 8.75 13.75 8.60938 13.75 8.4375V7.8125ZM13.75 10.3125C13.75 10.1406 13.8906 10 14.0625 10H19.6875C19.8594 10 20 10.1406 20 10.3125V10.9375C20 11.1094 19.8594 11.25 19.6875 11.25H14.0625C13.8906 11.25 13.75 11.1094 13.75 10.9375V10.3125ZM13.75 12.8125C13.75 12.6406 13.8906 12.5 14.0625 12.5H19.6875C19.8594 12.5 20 12.6406 20 12.8125V13.4375C20 13.6094 19.8594 13.75 19.6875 13.75H14.0625C13.8906 13.75 13.75 13.6094 13.75 13.4375V12.8125ZM6.875 7.5C8.25391 7.5 9.375 8.62109 9.375 10C9.375 11.3789 8.25391 12.5 6.875 12.5C5.49609 12.5 4.375 11.3789 4.375 10C4.375 8.62109 5.49609 7.5 6.875 7.5ZM2.62109 15.4766C2.94922 14.4727 3.89062 13.75 5 13.75H5.32031C5.80078 13.9492 6.32422 14.0625 6.875 14.0625C7.42578 14.0625 7.95312 13.9492 8.42969 13.75H8.75C9.85938 13.75 10.8008 14.4727 11.1289 15.4766C11.2539 15.8633 10.9258 16.25 10.5195 16.25H3.23047C2.82422 16.25 2.49609 15.8594 2.62109 15.4766Z" fill="#686868"/>
</g>
<defs>
<clipPath id="clip0_378_2433">
<rect width="22.5" height="20" fill="white"/>
</clipPath>
</defs>
</svg>
