<svg width="24" height="25" viewBox="0 0 24 25" fill="none" xmlns="http://www.w3.org/2000/svg">
<path d="M16.19 2.31641H7.81C4.17 2.31641 2 4.48641 2 8.12641V16.4964C2 20.1464 4.17 22.3164 7.81 22.3164H16.18C19.82 22.3164 21.99 20.1464 21.99 16.5064V8.12641C22 4.48641 19.83 2.31641 16.19 2.31641ZM12 16.1964C9.86 16.1964 8.12 14.4564 8.12 12.3164C8.12 10.1764 9.86 8.43641 12 8.43641C14.14 8.43641 15.88 10.1764 15.88 12.3164C15.88 14.4564 14.14 16.1964 12 16.1964ZM17.92 7.19641C17.87 7.31641 17.8 7.42641 17.71 7.52641C17.61 7.61641 17.5 7.68641 17.38 7.73641C17.26 7.78641 17.13 7.81641 17 7.81641C16.73 7.81641 16.48 7.71641 16.29 7.52641C16.2 7.42641 16.13 7.31641 16.08 7.19641C16.03 7.07641 16 6.94641 16 6.81641C16 6.68641 16.03 6.55641 16.08 6.43641C16.13 6.30641 16.2 6.20641 16.29 6.10641C16.52 5.87641 16.87 5.76641 17.19 5.83641C17.26 5.84641 17.32 5.86641 17.38 5.89641C17.44 5.91641 17.5 5.94641 17.56 5.98641C17.61 6.01641 17.66 6.06641 17.71 6.10641C17.8 6.20641 17.87 6.30641 17.92 6.43641C17.97 6.55641 18 6.68641 18 6.81641C18 6.94641 17.97 7.07641 17.92 7.19641Z" fill="#9C9C9C"/>
</svg>
