<svg width="16" height="15" viewBox="0 0 16 15" fill="none" xmlns="http://www.w3.org/2000/svg">
<path d="M8.02556 3.84358C7.28707 3.84358 6.56516 4.05304 5.95113 4.44547C5.3371 4.8379 4.85852 5.39567 4.57591 6.04826C4.2933 6.70084 4.21936 7.41893 4.36343 8.11171C4.5075 8.80449 4.86312 9.44085 5.38531 9.94031C5.9075 10.4398 6.57281 10.7799 7.29711 10.9177C8.02142 11.0555 8.77217 10.9848 9.45445 10.7145C10.1367 10.4442 10.7199 9.98643 11.1302 9.39912C11.5404 8.81181 11.7594 8.12132 11.7594 7.41497C11.7602 6.94575 11.6642 6.481 11.4768 6.04736C11.2895 5.61372 11.0145 5.21971 10.6676 4.88793C10.3207 4.55615 9.90876 4.29311 9.45538 4.1139C9.00201 3.93469 8.51612 3.84283 8.02556 3.84358ZM8.02556 9.73665C7.54548 9.73665 7.07618 9.60049 6.67701 9.34538C6.27784 9.09027 5.96673 8.72767 5.78301 8.30344C5.59929 7.8792 5.55122 7.41239 5.64488 6.96203C5.73854 6.51166 5.96972 6.09798 6.30918 5.77329C6.64865 5.44859 7.08116 5.22747 7.55201 5.13789C8.02286 5.04831 8.51092 5.09428 8.95445 5.27001C9.39799 5.44573 9.77708 5.74331 10.0438 6.12511C10.3105 6.50691 10.4529 6.95578 10.4529 7.41497C10.4517 8.03036 10.1955 8.62021 9.74058 9.05536C9.28564 9.4905 8.66895 9.73548 8.02556 9.73665ZM12.7831 3.6977C12.7831 3.86241 12.7321 4.02341 12.6364 4.16036C12.5408 4.29731 12.4048 4.40405 12.2457 4.4671C12.0867 4.53015 11.9116 4.54667 11.7427 4.51457C11.5738 4.48247 11.4187 4.40319 11.2969 4.28676C11.1751 4.17033 11.0921 4.02198 11.0585 3.86045C11.0248 3.69893 11.042 3.53149 11.1078 3.3793C11.1737 3.22711 11.2852 3.09701 11.4283 3.00544C11.5715 2.91387 11.7398 2.86496 11.9119 2.86487C12.0264 2.86458 12.1398 2.88592 12.2456 2.92766C12.3514 2.96941 12.4475 3.03074 12.5285 3.10812C12.6094 3.18551 12.6736 3.27744 12.7173 3.37861C12.761 3.47979 12.7834 3.58823 12.7831 3.6977ZM15.2553 4.54469C15.279 3.46215 14.8565 2.41413 14.0791 1.62711C13.2546 0.885994 12.16 0.482287 11.0287 0.502071C9.8271 0.436647 6.22217 0.436647 5.02053 0.502071C3.8896 0.480793 2.79484 0.88346 1.9702 1.62401C1.19405 2.41184 0.771762 3.45931 0.793977 4.54159C0.725575 5.69094 0.725575 9.13899 0.793977 10.2883C0.770219 11.3709 1.19273 12.4189 1.9702 13.2059C2.79504 13.9465 3.88939 14.3501 5.02053 14.331C6.22217 14.3964 9.8271 14.3964 11.0287 14.331C12.1605 14.3537 13.2562 13.9496 14.0791 13.2059C14.8539 12.4173 15.276 11.3704 15.2553 10.2883C15.3237 9.13899 15.3237 5.69448 15.2553 4.54424V4.54469ZM13.7029 11.5208C13.5793 11.821 13.3924 12.0937 13.1539 12.3219C12.9153 12.55 12.6302 12.7288 12.3163 12.847C11.3578 13.2108 9.08115 13.1268 8.02371 13.1268C6.96626 13.1268 4.68638 13.2077 3.73107 12.847C3.41718 12.7288 3.1321 12.55 2.89356 12.3219C2.65502 12.0937 2.46814 11.821 2.34456 11.5208C1.96419 10.604 2.052 8.42639 2.052 7.41497C2.052 6.40354 1.96743 4.22287 2.34456 3.30914C2.46814 3.00891 2.65502 2.73623 2.89356 2.50807C3.1321 2.27992 3.41718 2.10117 3.73107 1.98296C4.68961 1.61915 6.96626 1.70314 8.02371 1.70314C9.08115 1.70314 11.361 1.62224 12.3163 1.98296C12.6302 2.10117 12.9153 2.27992 13.1539 2.50807C13.3924 2.73623 13.5793 3.00891 13.7029 3.30914C14.0832 4.22596 13.9954 6.40354 13.9954 7.41497C13.9954 8.42639 14.0828 10.6071 13.7029 11.5208Z" fill="white"/>
</svg>
