<svg width="27" height="26" viewBox="0 0 27 26" fill="none" xmlns="http://www.w3.org/2000/svg">
<g clip-path="url(#clip0_378_1791)">
<path d="M22.0812 2.12305H10.7573V5.66177H12.1728V3.53853H22.0812C22.5058 3.53853 22.7889 3.82163 22.7889 4.24628V12.0315C22.7889 12.4561 22.5058 12.7392 22.0812 12.7392H12.8805V17.6934H9.12946L6.51081 19.7459V17.6934H4.38757C3.96293 17.6934 3.67983 17.4103 3.67983 16.9857V9.20048C3.67983 8.77584 3.96293 8.49274 4.38757 8.49274H13.5882V7.07725H4.38757C3.18441 7.07725 2.26434 7.99732 2.26434 9.20048V16.9857C2.26434 18.1888 3.18441 19.1089 4.38757 19.1089H5.09532V22.7184L9.5541 19.1089H14.296V14.1547H22.0812C23.2843 14.1547 24.2044 13.2346 24.2044 12.0315V4.24628C24.2044 3.04311 23.2843 2.12305 22.0812 2.12305Z" fill="#4B4B4B"/>
<path d="M5.23679 16.2071H6.93537L7.36002 15.0747H9.55402L9.97867 16.2071H11.6773L9.27092 9.9082H7.57234L5.23679 16.2071ZM8.42163 11.6776L9.12938 13.8716H7.71389L8.42163 11.6776Z" fill="#4B4B4B"/>
<path d="M15.0038 12.0313C15.7823 12.0313 16.8439 11.819 17.8347 11.3235C18.8256 11.819 19.958 12.0313 20.6657 12.0313V10.6158C20.6657 10.6158 19.958 10.6158 19.1794 10.3327C20.0287 9.4834 20.6657 8.20946 20.6657 6.36932V5.66158H18.5425V4.24609H17.127V5.66158H15.0038V7.07707H19.1794C19.0379 8.35101 18.4717 9.12953 17.8347 9.62495C17.4101 9.27107 16.9854 8.77565 16.7023 8.13868H15.2161C15.4992 9.05875 15.9238 9.76649 16.49 10.3327C15.7823 10.6158 15.1453 10.6158 15.0038 10.6158V12.0313Z" fill="#4B4B4B"/>
</g>
<defs>
<clipPath id="clip0_378_1791">
<rect width="25.4788" height="25.4788" fill="white" transform="translate(0.848877)"/>
</clipPath>
</defs>
</svg>
