<svg width="22" height="22" viewBox="0 0 22 22" fill="none" xmlns="http://www.w3.org/2000/svg">
<path d="M6.72244 10.083L6.11133 11.9775H7.33355L6.72244 10.083Z" fill="#70757A"/>
<path d="M18.5164 1.83301H8.73861V4.88856H11.1831V6.11079H3.23861C2.19972 6.11079 1.40527 6.90523 1.40527 7.94412V14.6663C1.40527 15.7052 2.19972 16.4997 3.23861 16.4997H3.84972V19.6163L7.69972 16.4997H11.7942V12.2219H18.5164C19.5553 12.2219 20.3497 11.4275 20.3497 10.3886V3.66634C20.3497 2.62745 19.5553 1.83301 18.5164 1.83301ZM8.00527 13.9941L7.69972 13.0163H5.80527L5.43861 13.9941H3.97194L5.98861 8.55523H7.45527L9.47194 13.9941H8.00527ZM17.2942 9.16634V10.3886C16.4997 10.3886 15.6442 10.1441 14.9108 9.77745C14.1775 10.1441 13.3219 10.3275 12.4664 10.3886L12.4053 9.16634C12.8331 9.16634 13.2608 9.10523 13.6886 8.98301C13.1386 8.43301 12.7719 7.76079 12.5886 7.02745H13.8719C14.0553 7.57745 14.4219 8.00523 14.8497 8.3719C15.5219 7.8219 15.9497 7.02745 16.0108 6.11079H12.3442V4.88856H14.1775V3.66634H15.3997V4.88856H17.4164L17.4775 5.49967C17.5386 6.78301 17.0497 8.06634 16.1331 8.98301C16.5608 9.10523 16.9275 9.16634 17.2942 9.16634Z" fill="#70757A"/>
</svg>
