<svg width="24" height="20" viewBox="0 0 24 20" fill="none" xmlns="http://www.w3.org/2000/svg">
<path d="M21.625 0.375H2.375C1.91087 0.375 1.46575 0.559374 1.13756 0.887563C0.809374 1.21575 0.625 1.66087 0.625 2.125V17.875C0.625 18.3391 0.809374 18.7842 1.13756 19.1124C1.46575 19.4406 1.91087 19.625 2.375 19.625H3.84063C4.00631 19.6255 4.16864 19.5783 4.30826 19.4891C4.44788 19.3999 4.55891 19.2724 4.62812 19.1219C5.05625 18.2259 5.72922 17.4694 6.56923 16.9398C7.40924 16.4102 8.38198 16.1291 9.375 16.1291C10.368 16.1291 11.3408 16.4102 12.1808 16.9398C13.0208 17.4694 13.6937 18.2259 14.1219 19.1219C14.1911 19.2724 14.3021 19.3999 14.4417 19.4891C14.5814 19.5783 14.7437 19.6255 14.9094 19.625H21.625C22.0891 19.625 22.5342 19.4406 22.8624 19.1124C23.1906 18.7842 23.375 18.3391 23.375 17.875V2.125C23.375 1.66087 23.1906 1.21575 22.8624 0.887563C22.5342 0.559374 22.0891 0.375 21.625 0.375ZM9.375 14.375C8.68277 14.375 8.00608 14.1697 7.4305 13.7851C6.85493 13.4006 6.40633 12.8539 6.14142 12.2144C5.87651 11.5749 5.8072 10.8711 5.94225 10.1922C6.0773 9.51325 6.41064 8.88961 6.90013 8.40013C7.38961 7.91064 8.01325 7.5773 8.69218 7.44225C9.37112 7.3072 10.0749 7.37651 10.7144 7.64142C11.3539 7.90633 11.9006 8.35493 12.2851 8.9305C12.6697 9.50608 12.875 10.1828 12.875 10.875C12.8721 11.8024 12.5024 12.6909 11.8467 13.3467C11.1909 14.0024 10.3024 14.3721 9.375 14.375ZM21.625 17.875H15.4344C15.0553 17.2175 14.5713 16.6264 14.0016 16.125H19C19.2321 16.125 19.4546 16.0328 19.6187 15.8687C19.7828 15.7046 19.875 15.4821 19.875 15.25V4.75C19.875 4.51794 19.7828 4.29538 19.6187 4.13128C19.4546 3.96719 19.2321 3.875 19 3.875H5C4.76794 3.875 4.54538 3.96719 4.38128 4.13128C4.21719 4.29538 4.125 4.51794 4.125 4.75V15.25C4.12611 15.4431 4.19108 15.6305 4.30979 15.7828C4.42849 15.9351 4.59426 16.0439 4.78125 16.0922C4.19772 16.6016 3.70249 17.204 3.31562 17.875H2.375V2.125H21.625V17.875Z" fill="#E71575"/>
</svg>
