<svg width="24" height="24" viewBox="0 0 24 24" fill="none" xmlns="http://www.w3.org/2000/svg">
<path d="M19.507 14.49C20.161 13.2619 20.5021 11.8914 20.5 10.5C20.5 5.8055 16.6945 2 12 2C7.30554 2 3.50004 5.8055 3.50004 10.5C3.4966 12.5051 4.20539 14.4463 5.50004 15.9775L5.51004 15.99C5.51354 15.993 5.51654 15.997 5.51904 16H5.50004L10.544 21.355C10.731 21.5535 10.9566 21.7116 11.207 21.8197C11.4573 21.9278 11.7271 21.9836 11.9998 21.9836C12.2725 21.9836 12.5423 21.9278 12.7926 21.8197C13.043 21.7116 13.2686 21.5535 13.4555 21.355L18.5 16H18.481L18.489 15.9905L18.49 15.9895C18.526 15.9465 18.562 15.9035 18.5975 15.8595C18.9444 15.4333 19.2491 14.9744 19.5075 14.4895L19.507 14.49ZM12.002 13.75C11.2064 13.75 10.4433 13.4339 9.88072 12.8713C9.31811 12.3087 9.00204 11.5456 9.00204 10.75C9.00204 9.95435 9.31811 9.19129 9.88072 8.62868C10.4433 8.06607 11.2064 7.75 12.002 7.75C12.7977 7.75 13.5608 8.06607 14.1234 8.62868C14.686 9.19129 15.002 9.95435 15.002 10.75C15.002 11.5456 14.686 12.3087 14.1234 12.8713C13.5608 13.4339 12.7977 13.75 12.002 13.75Z" fill="#33CD86"/>
</svg>
