<svg width="110" height="49" viewBox="0 0 110 49" fill="none" xmlns="http://www.w3.org/2000/svg">
<path d="M13.9369 23.7645C13.9369 22.3484 14.2296 21.089 14.8151 19.9861C15.4142 18.8696 16.2584 18.005 17.3476 17.3923C18.4369 16.766 19.6895 16.4528 21.1056 16.4528C22.9029 16.4528 24.4142 16.9362 25.6396 17.9029C26.865 18.856 27.6547 20.1563 28.0088 21.8038H23.6994C23.4407 21.2592 23.0799 20.8439 22.6169 20.558C22.1676 20.272 21.6434 20.1291 21.0443 20.1291C20.1184 20.1291 19.3764 20.4626 18.8181 21.1298C18.2735 21.7834 18.0012 22.6616 18.0012 23.7645C18.0012 24.881 18.2735 25.7728 18.8181 26.44C19.3764 27.0935 20.1184 27.4203 21.0443 27.4203C21.6434 27.4203 22.1676 27.2773 22.6169 26.9914C23.0799 26.7055 23.4407 26.2902 23.6994 25.7456H28.0088C27.6547 27.3931 26.865 28.7002 25.6396 29.6669C24.4142 30.62 22.9029 31.0965 21.1056 31.0965C19.6895 31.0965 18.4369 30.7902 17.3476 30.1775C16.2584 29.5512 15.4142 28.6866 14.8151 27.5837C14.2296 26.4672 13.9369 25.1941 13.9369 23.7645Z" fill="white"/>
<path d="M35.2349 31.1374C34.0912 31.1374 33.0632 30.8991 32.1509 30.4226C31.2523 29.946 30.5443 29.2652 30.0269 28.3802C29.5095 27.4952 29.2508 26.4536 29.2508 25.2554C29.2508 24.0708 29.5095 23.036 30.0269 22.151C30.5579 21.266 31.2727 20.5852 32.1713 20.1086C33.0836 19.6321 34.1116 19.3938 35.2553 19.3938C36.399 19.3938 37.4202 19.6321 38.3188 20.1086C39.2311 20.5852 39.9459 21.266 40.4633 22.151C40.9943 23.036 41.2598 24.0708 41.2598 25.2554C41.2598 26.44 40.9943 27.4816 40.4633 28.3802C39.9459 29.2652 39.2311 29.946 38.3188 30.4226C37.4066 30.8991 36.3786 31.1374 35.2349 31.1374ZM35.2349 27.6654C35.7931 27.6654 36.2561 27.4611 36.6237 27.0527C37.0049 26.6306 37.1955 26.0315 37.1955 25.2554C37.1955 24.4793 37.0049 23.887 36.6237 23.4785C36.2561 23.0701 35.7999 22.8658 35.2553 22.8658C34.7107 22.8658 34.2545 23.0701 33.8869 23.4785C33.5193 23.887 33.3355 24.4793 33.3355 25.2554C33.3355 26.0451 33.5125 26.6442 33.8665 27.0527C34.2205 27.4611 34.6766 27.6654 35.2349 27.6654Z" fill="white"/>
<path d="M54.6116 19.5368V30.9944H50.5882V29.3605C50.2478 29.8779 49.778 30.3 49.1789 30.6268C48.5798 30.94 47.8923 31.0965 47.1162 31.0965C45.7818 31.0965 44.7266 30.6608 43.9505 29.7894C43.188 28.9044 42.8068 27.7062 42.8068 26.1949V19.5368H46.7894V25.6843C46.7894 26.3378 46.9596 26.8552 47.3 27.2365C47.654 27.6041 48.1169 27.7879 48.6888 27.7879C49.2743 27.7879 49.7372 27.6041 50.0776 27.2365C50.418 26.8552 50.5882 26.3378 50.5882 25.6843V19.5368H54.6116Z" fill="white"/>
<path d="M64.3853 19.4347C65.706 19.4347 66.7544 19.8772 67.5305 20.7622C68.3066 21.6336 68.6947 22.8182 68.6947 24.3159V30.9944H64.6916V24.8469C64.6916 24.1934 64.5214 23.6828 64.181 23.3151C63.8406 22.9339 63.3845 22.7433 62.8127 22.7433C62.2136 22.7433 61.7438 22.9339 61.4034 23.3151C61.063 23.6828 60.8928 24.1934 60.8928 24.8469V30.9944H56.8898V19.5368H60.8928V21.1707C61.2468 20.6533 61.7234 20.238 62.3225 19.9248C62.9216 19.598 63.6092 19.4347 64.3853 19.4347Z" fill="white"/>
<path d="M77.6514 27.5837V30.9944H75.9154C72.988 30.9944 71.5243 29.5443 71.5243 26.6442V22.8658H70.115V19.5368H71.5243V16.7592H75.5477V19.5368H77.6309V22.8658H75.5477V26.7055C75.5477 27.0186 75.6158 27.2433 75.752 27.3794C75.9017 27.5156 76.1468 27.5837 76.4872 27.5837H77.6514Z" fill="white"/>
<path d="M83.4904 21.5587C83.9398 20.9052 84.4844 20.3878 85.1243 20.0065C85.7643 19.6253 86.4519 19.4347 87.1871 19.4347V23.7032H86.0638C85.1924 23.7032 84.5457 23.8734 84.1236 24.2138C83.7015 24.5542 83.4904 25.1465 83.4904 25.9906V30.9944H79.4874V19.5368H83.4904V21.5587Z" fill="white"/>
<path d="M100.958 19.5368L93.6872 36.4475H89.337L92.0738 30.5043L87.3763 19.5368H91.8287L94.2387 26.0315L96.567 19.5368H100.958Z" fill="white"/>
<path fill-rule="evenodd" clip-rule="evenodd" d="M2.47595 14.2252C6.95954 12.3614 7.00057 12.3711 7.16563 15.3386C7.29202 17.6096 7.14535 18.1224 5.99415 19.4321L4.67837 20.9294L8.2343 20.8974C10.1901 20.88 11.7902 20.7016 11.7902 20.5019C11.7902 20.3022 11.2597 19.7811 10.6112 19.3444C9.57461 18.6464 9.43219 18.2058 9.43219 15.6978C9.43219 12.3489 9.55716 12.2989 13.6536 14.0095C15.1868 14.6498 16.5393 15.0735 16.6587 14.9508C17.2958 14.296 16.0951 12.8505 13.2876 10.8918L10.1396 8.69645L10.2589 5.55979C10.3542 3.05571 10.1924 2.17932 9.45435 1.21181L8.53047 -3.72879e-07L7.4585 1.09402C6.5266 2.04456 6.40068 2.61557 6.49642 5.45654L6.6063 8.72504L3.30315 11.0551C1.13846 12.5815 -4.07276e-07 13.707 -3.80494e-07 14.3197C-3.40661e-07 15.231 0.0622519 15.2286 2.47595 14.2252Z" fill="white"/>
<path fill-rule="evenodd" clip-rule="evenodd" d="M6.19885 34.0165V19.925H9.74107V34.0165C9.74107 39.274 13.9132 43.583 19.1681 43.7525L23.5959 43.8953C29.096 44.0727 33.651 39.6622 33.651 34.1593V30.1089H37.1933V34.1593C37.1933 41.6633 30.9818 47.6776 23.4817 47.4357L19.0539 47.2929C11.8882 47.0617 6.19885 41.1859 6.19885 34.0165Z" fill="white"/>
<path d="M54.9792 48.3556C54.3252 48.3556 53.5916 48.2231 52.7785 47.9579C51.9653 47.6928 51.1257 47.3746 50.2596 47.0034C49.4111 46.6322 48.5803 46.2786 47.7672 45.9428C47.3252 46.4201 46.848 46.7913 46.3354 47.0564C45.8227 47.3216 45.2748 47.4541 44.6914 47.4541C44.0728 47.4541 43.5425 47.3127 43.1005 47.0299C42.6409 46.7648 42.2963 46.4377 42.0665 46.0489C41.819 45.66 41.6953 45.3064 41.6953 44.9883C41.6953 44.6347 41.8543 44.3254 42.1725 44.0602C42.4907 43.7951 43.0563 43.6625 43.8695 43.6625C44.3467 43.6625 44.8682 43.7155 45.4338 43.8216C46.0172 43.91 46.6093 44.0337 47.2103 44.1928C47.6169 43.4857 47.9881 42.6549 48.324 41.7004C48.6775 40.7459 49.0222 39.7472 49.358 38.7042C49.6939 37.6436 50.0298 36.6096 50.3656 35.602C49.4818 35.3015 48.8012 34.8861 48.324 34.3558C47.8467 33.8078 47.6081 33.2599 47.6081 32.7119C47.6081 32.3583 47.6964 32.0137 47.8732 31.6778C48.05 31.3243 48.3063 31.0326 48.6421 30.8028C48.978 30.5553 49.3757 30.4316 49.8353 30.4316C49.6055 30.7144 49.4553 31.0326 49.3846 31.3861C49.3315 31.7397 49.305 32.0225 49.305 32.2346C49.305 32.8179 49.4376 33.3129 49.7027 33.7194C49.9679 34.126 50.2949 34.4442 50.6838 34.674C51.0196 33.6664 51.3732 32.703 51.7444 31.7839C52.1333 30.847 52.5575 30.025 53.0171 29.318C53.4944 28.5932 54.0158 28.0187 54.5815 27.5945C55.1648 27.1703 55.8188 26.9582 56.5436 26.9582C56.9501 26.9582 57.3744 27.0465 57.8163 27.2233C58.2759 27.3824 58.6648 27.6652 58.9829 28.0718C59.3188 28.4783 59.4867 29.0617 59.4867 29.8218C59.4867 30.4228 59.3541 31.068 59.089 31.7573C58.8415 32.4467 58.4438 33.1096 57.8958 33.746C57.3479 34.3646 56.6408 34.8861 55.7746 35.3103C54.9262 35.7169 53.8921 35.9379 52.6724 35.9732C52.637 35.9732 52.5929 35.9732 52.5398 35.9732C52.5045 35.9732 52.4691 35.9732 52.4338 35.9732C52.0979 36.9984 51.7444 38.0325 51.3732 39.0754C51.002 40.1184 50.6042 41.1171 50.18 42.0716C49.7558 43.0262 49.2962 43.8746 48.8012 44.617C49.4906 44.8115 50.2507 45.0324 51.0815 45.2799C51.93 45.5274 52.7696 45.7395 53.6004 45.9163C54.4489 46.0754 55.1913 46.1549 55.8277 46.1549C56.2519 46.1549 56.6408 46.1107 56.9943 46.0223C57.3655 45.9163 57.7544 45.766 58.161 45.5716C57.8074 46.5615 57.3655 47.2685 56.8352 47.6928C56.3226 48.1347 55.7039 48.3556 54.9792 48.3556ZM44.4263 46.4731C44.8859 46.4731 45.2571 46.367 45.5399 46.1549C45.8227 45.9605 46.1056 45.713 46.3884 45.4125C45.8404 45.2181 45.3278 45.059 44.8505 44.9352C44.3733 44.7938 43.9579 44.7231 43.6043 44.7231C43.2685 44.7231 43.0298 44.785 42.8884 44.9087C42.7293 45.0324 42.6498 45.1827 42.6498 45.3595C42.6498 45.6423 42.8266 45.8986 43.1801 46.1284C43.5336 46.3582 43.949 46.4731 44.4263 46.4731ZM52.7254 35.0982C53.5032 35.0452 54.1926 34.7977 54.7936 34.3558C55.3946 33.9139 55.9072 33.3836 56.3315 32.7649C56.7557 32.1462 57.0739 31.5187 57.286 30.8824C57.5158 30.2283 57.6307 29.6627 57.6307 29.1854C57.6307 28.7258 57.5423 28.4165 57.3655 28.2574C57.1888 28.0806 56.9855 27.9922 56.7557 27.9922C56.2431 27.9922 55.757 28.3192 55.2974 28.9733C54.8378 29.6273 54.3959 30.4935 53.9716 31.5717C53.5651 32.6323 53.1497 33.8078 52.7254 35.0982Z" fill="#E71575"/>
<path d="M60.989 46.8973C60.1935 46.8973 59.6455 46.6322 59.345 46.1019C59.0622 45.5893 58.9208 45.0236 58.9208 44.4049C58.9208 43.8393 59.0092 43.2648 59.1859 42.6815C59.3627 42.0805 59.6013 41.5236 59.9018 41.011C60.22 40.4984 60.5647 40.0918 60.9359 39.7913C61.3248 39.4732 61.7137 39.3141 62.1026 39.3141C62.2263 39.3141 62.3677 39.3406 62.5268 39.3936C62.7036 39.429 62.8273 39.4908 62.898 39.5792C62.6859 39.8444 62.4649 40.1714 62.2352 40.5603C62.023 40.9492 61.8198 41.3646 61.6253 41.8065C61.4485 42.2307 61.3071 42.6638 61.2011 43.1057C61.095 43.5476 61.042 43.9542 61.042 44.3254C61.042 44.6789 61.1039 44.9706 61.2276 45.2004C61.369 45.4302 61.6076 45.5451 61.9435 45.5451C62.2793 45.5451 62.6771 45.3595 63.1367 44.9883C63.6139 44.5994 64.0647 44.1575 64.4889 43.6625C63.9233 43.1499 63.5167 42.5931 63.2692 41.9921C63.0218 41.3734 62.898 40.631 62.898 39.7648C62.898 39.3936 62.9864 38.9694 63.1632 38.4921C63.3576 38.0148 63.6581 37.5995 64.0647 37.2459C64.4889 36.8924 65.0546 36.7156 65.7616 36.7156C66.5217 36.7156 67.052 36.9277 67.3525 37.352C67.6707 37.7762 67.8298 38.28 67.8298 38.8633C67.8298 39.5174 67.653 40.2509 67.2995 41.0641C66.9636 41.8772 66.5571 42.6461 66.0798 43.3709C66.2919 43.4769 66.5394 43.5299 66.8222 43.5299C67.0874 43.5299 67.4056 43.4681 67.7768 43.3443C68.148 43.2206 68.5103 43.0173 68.8639 42.7345C69.2174 42.434 69.5002 42.0363 69.7123 41.5413L70.1896 41.886C69.8007 42.7875 69.2793 43.4504 68.6252 43.8746C67.9889 44.2812 67.3614 44.4845 66.7427 44.4845C66.5129 44.4845 66.2831 44.4668 66.0533 44.4314C65.8235 44.3784 65.6114 44.3165 65.4169 44.2458C64.8159 44.9529 64.1265 45.5716 63.3488 46.1019C62.571 46.6322 61.7844 46.8973 60.989 46.8973ZM65.1783 42.814C65.6025 42.1954 65.9649 41.5325 66.2654 40.8254C66.5659 40.1184 66.7162 39.4643 66.7162 38.8633C66.7162 38.4568 66.6543 38.1651 66.5306 37.9883C66.4068 37.7939 66.2212 37.6967 65.9737 37.6967C65.6379 37.6967 65.2932 37.9353 64.9397 38.4126C64.5861 38.8898 64.4094 39.4908 64.4094 40.2156C64.4094 40.5868 64.4712 41.0375 64.595 41.5678C64.7364 42.0981 64.9308 42.5135 65.1783 42.814Z" fill="#E71575"/>
<path d="M77.5096 47.0564C76.9616 47.0564 76.4843 46.8797 76.0778 46.5261C75.6712 46.1726 75.3442 45.7307 75.0967 45.2004C74.8492 44.6701 74.6636 44.1309 74.5399 43.583C74.4162 43.0173 74.3543 42.5312 74.3543 42.1247C74.6018 42.0716 74.9111 41.9921 75.2823 41.886C75.6535 41.78 76.0336 41.6385 76.4225 41.4618C76.8113 41.2673 77.1295 41.0375 77.377 40.7724C77.6421 40.4896 77.7747 40.1537 77.7747 39.7648C77.7747 39.4467 77.6687 39.1903 77.4565 38.9959C77.2621 38.8015 76.9793 38.7042 76.6081 38.7042C76.1131 38.7042 75.6447 38.8722 75.2028 39.208C74.7609 39.5262 74.3455 39.9504 73.9566 40.4807C73.5854 41.011 73.2407 41.5855 72.9225 42.2042C72.622 42.8229 72.348 43.4239 72.1005 44.0072C71.8707 44.5905 71.6763 45.0943 71.5172 45.5186C71.3228 46.0489 71.1372 46.4024 70.9604 46.5792C70.7836 46.7736 70.5273 46.8708 70.1915 46.8708C70.0677 46.8708 69.9175 46.8355 69.7407 46.7648C69.5816 46.694 69.4402 46.5173 69.3165 46.2345C69.2104 45.9516 69.1574 45.5009 69.1574 44.8822C69.1574 43.8039 69.3076 42.6196 69.6081 41.3292C69.9086 40.0388 70.3064 38.7308 70.8013 37.405C71.3139 36.0616 71.8707 34.78 72.4717 33.5604C73.0728 32.3407 73.6826 31.2447 74.3013 30.2725C74.92 29.3003 75.4944 28.5314 76.0247 27.9657C76.5727 27.4001 77.0235 27.1172 77.377 27.1172C77.6775 27.1172 77.925 27.3028 78.1194 27.6741C78.3315 28.0276 78.4376 28.4872 78.4376 29.0528C78.4376 29.6538 78.305 30.3255 78.0399 31.068C77.7747 31.7927 77.3947 32.5351 76.8997 33.2952C76.4225 34.0376 75.848 34.7447 75.1763 35.4164C74.5046 36.0881 73.7621 36.6626 72.949 37.1399C72.4541 38.2888 72.074 39.429 71.8089 40.5603C71.5437 41.6739 71.3758 42.6638 71.3051 43.5299C71.6233 42.8052 71.9856 42.0628 72.3922 41.3027C72.7988 40.5426 73.2495 39.8355 73.7445 39.1815C74.2394 38.5098 74.7697 37.9707 75.3354 37.5641C75.9187 37.1575 76.5374 36.9543 77.1914 36.9543C77.8985 36.9543 78.5171 37.2017 79.0474 37.6967C79.5777 38.1916 79.8429 38.8103 79.8429 39.5527C79.8429 40.083 79.7015 40.5426 79.4186 40.9315C79.1358 41.3204 78.7823 41.6474 78.358 41.9125C77.9515 42.16 77.5361 42.3456 77.1118 42.4693C76.6876 42.5931 76.3252 42.6638 76.0247 42.6815C76.0778 42.9113 76.1485 43.2029 76.2369 43.5565C76.3429 43.91 76.4755 44.2547 76.6346 44.5905C76.7937 44.9264 76.9969 45.2092 77.2444 45.439C77.4919 45.6688 77.7836 45.7837 78.1194 45.7837C78.5613 45.7837 79.0121 45.5804 79.4717 45.1739C79.9489 44.7673 80.4085 44.2282 80.8504 43.5565C81.31 42.8847 81.7166 42.1423 82.0701 41.3292L82.4413 41.78C82.1408 42.6638 81.7254 43.5123 81.1951 44.3254C80.6825 45.1385 80.108 45.7925 79.4717 46.2875C78.8353 46.8001 78.1813 47.0564 77.5096 47.0564ZM73.7179 35.3368C74.1952 34.9126 74.699 34.3912 75.2293 33.7725C75.7596 33.1361 76.2103 32.4644 76.5816 31.7573C76.9704 31.0326 77.1737 30.3432 77.1914 29.6892C77.1914 29.6715 77.1914 29.6627 77.1914 29.6627C77.1914 29.645 77.1914 29.6273 77.1914 29.6096C77.0146 29.6803 76.7318 29.9897 76.3429 30.5377C75.9717 31.068 75.5563 31.7485 75.0967 32.5793C74.6371 33.4101 74.1775 34.3293 73.7179 35.3368Z" fill="#E71575"/>
<path d="M82.8368 47.295C82.2535 47.295 81.7497 47.1006 81.3254 46.7117C80.8835 46.3228 80.6626 45.7395 80.6626 44.9617C80.6626 44.3431 80.804 43.6714 81.0868 42.9466C81.3696 42.2219 81.7585 41.506 82.2535 40.7989C82.7484 40.0918 83.314 39.4555 83.9504 38.8898C84.5868 38.3065 85.2673 37.8381 85.992 37.4846C86.7168 37.131 87.4415 36.9543 88.1663 36.9543C88.9264 36.9543 89.5716 37.1487 90.1018 37.5376C90.6321 37.9265 90.8973 38.4391 90.8973 39.0754C90.8973 39.5527 90.7294 39.8974 90.3935 40.1095C90.0577 40.3216 89.6599 40.3835 89.2003 40.2951C89.2357 40.136 89.2622 39.9769 89.2799 39.8179C89.3152 39.6588 89.3329 39.4908 89.3329 39.3141C89.3329 38.9605 89.2622 38.6424 89.1208 38.3595C88.9794 38.0767 88.6789 37.9353 88.2193 37.9353C87.7243 37.9353 87.2206 38.1032 86.7079 38.4391C86.1953 38.7749 85.7004 39.2169 85.2231 39.7648C84.7635 40.2951 84.3481 40.8873 83.9769 41.5413C83.6057 42.1777 83.314 42.8052 83.1019 43.4239C82.8898 44.0426 82.7837 44.5994 82.7837 45.0943C82.7837 45.66 82.987 45.9428 83.3936 45.9428C83.8001 45.9428 84.2509 45.7484 84.7458 45.3595C85.2408 44.9529 85.7357 44.4491 86.2307 43.8481C86.7433 43.2471 87.2294 42.6373 87.689 42.0186C88.1486 41.3822 88.5463 40.8431 88.8822 40.4012C88.9352 40.3128 89.0059 40.2686 89.0943 40.2686C89.165 40.2863 89.2976 40.3305 89.492 40.4012C89.7041 40.4542 89.8986 40.5426 90.0753 40.6663C90.2521 40.7901 90.3405 40.9492 90.3405 41.1436C90.3405 41.3204 90.2609 41.5502 90.1018 41.833C89.9604 42.0981 89.7837 42.3986 89.5716 42.7345C89.3771 43.0527 89.2003 43.3797 89.0413 43.7155C88.8998 44.0337 88.8291 44.3431 88.8291 44.6436C88.8291 44.8734 88.891 45.0943 89.0147 45.3064C89.1385 45.5009 89.3418 45.5981 89.6246 45.5981C90.0488 45.5981 90.641 45.2888 91.4011 44.6701C92.1788 44.0337 92.9655 42.9643 93.7609 41.4618L94.2647 41.9656C93.8404 42.9201 93.3278 43.7686 92.7268 44.511C92.1435 45.2357 91.5248 45.8014 90.8708 46.2079C90.2167 46.6322 89.5539 46.8443 88.8822 46.8443C88.1574 46.8443 87.6183 46.6145 87.2648 46.1549C86.9112 45.6953 86.7168 45.2004 86.6814 44.6701C86.6814 44.6347 86.6814 44.6082 86.6814 44.5905C86.6814 44.5729 86.6814 44.5552 86.6814 44.5375C85.9744 45.386 85.3203 46.0577 84.7193 46.5526C84.136 47.0476 83.5085 47.295 82.8368 47.295Z" fill="#E71575"/>
<path d="M95.4137 46.8443C94.5829 46.8443 93.9996 46.5703 93.6637 46.0223C93.3456 45.4567 93.1865 44.7938 93.1865 44.0337C93.1865 43.1676 93.3456 42.1512 93.6637 40.9845C93.9819 39.8179 94.3973 38.5982 94.9099 37.3255C95.4402 36.0351 96.0147 34.78 96.6334 33.5604C97.2698 32.323 97.9061 31.2094 98.5425 30.2195C99.1788 29.2296 99.7622 28.443 100.292 27.8597C100.84 27.2587 101.282 26.9582 101.618 26.9582C101.848 26.9582 102.042 27.0819 102.202 27.3294C102.361 27.5592 102.484 27.842 102.573 28.1778C102.679 28.496 102.732 28.7965 102.732 29.0793C102.732 29.5566 102.608 30.1841 102.361 30.9619C102.131 31.722 101.795 32.5616 101.353 33.4808C100.929 34.4 100.416 35.3457 99.8152 36.3179C99.2319 37.2724 98.5778 38.1828 97.8531 39.0489C97.146 39.9151 96.3859 40.6663 95.5728 41.3027C95.5021 41.7446 95.4314 42.1865 95.3607 42.6284C95.3077 43.0527 95.2812 43.4416 95.2812 43.7951C95.2812 44.4314 95.3872 44.8999 95.5993 45.2004C95.8115 45.4832 96.0854 45.6246 96.4213 45.6246C96.8632 45.6246 97.314 45.4213 97.7736 45.0148C98.2508 44.5905 98.7016 44.0602 99.1258 43.4239C99.5677 42.7698 99.9478 42.0981 100.266 41.4088L100.902 41.7534C100.142 43.3267 99.2937 44.5729 98.3569 45.492C97.42 46.3935 96.439 46.8443 95.4137 46.8443ZM96.0501 39.6588C96.6511 39.0047 97.2167 38.2977 97.747 37.5376C98.295 36.7598 98.79 35.9732 99.2319 35.1778C99.6915 34.3823 100.089 33.6134 100.425 32.871C100.761 32.1286 101.017 31.4657 101.194 30.8824C101.388 30.2813 101.494 29.8041 101.512 29.4505C101.512 29.4329 101.512 29.424 101.512 29.424C101.512 29.4064 101.512 29.3887 101.512 29.371C101.371 29.371 101.141 29.5743 100.823 29.9808C100.522 30.3697 100.16 30.9089 99.7357 31.5983C99.3114 32.2876 98.8695 33.0742 98.4099 33.9581C97.968 34.8419 97.5349 35.7788 97.1107 36.7687C96.7041 37.7409 96.3506 38.7042 96.0501 39.6588Z" fill="#E71575"/>
<path d="M102.735 47.4011C101.851 47.4011 101.135 47.2155 100.587 46.8443C100.057 46.4908 99.6769 46.04 99.4471 45.492C99.2173 44.9264 99.1024 44.3519 99.1024 43.7686C99.1024 43.256 99.1731 42.8582 99.3145 42.5754C99.4559 42.2926 99.6327 42.0893 99.8448 41.9656C100.057 41.8242 100.251 41.7181 100.428 41.6474C100.623 41.5767 100.764 41.4971 100.852 41.4088C101.294 40.9492 101.745 40.4189 102.205 39.8179C102.682 39.1992 103.088 38.5186 103.424 37.7762V37.5111C103.424 36.804 103.539 36.3091 103.769 36.0262C104.016 35.7257 104.299 35.5755 104.617 35.5755C104.83 35.5755 104.98 35.6285 105.068 35.7346C105.174 35.8406 105.236 35.9644 105.254 36.1058C105.254 36.2118 105.227 36.3356 105.174 36.477C105.139 36.6184 105.121 36.8128 105.121 37.0603C105.121 37.5906 105.245 38.2005 105.492 38.8898C105.758 39.5616 106.014 40.2775 106.261 41.0375C106.527 41.7976 106.659 42.5754 106.659 43.3709C106.659 43.583 106.65 43.7774 106.633 43.9542C106.615 44.1309 106.588 44.2989 106.553 44.458C107.101 44.3165 107.64 44.016 108.17 43.5565C108.701 43.0792 109.205 42.381 109.682 41.4618L110 41.7004C109.664 42.708 109.178 43.5211 108.542 44.1398C107.905 44.7408 107.163 45.112 106.314 45.2534C106.032 45.9781 105.563 46.5173 104.909 46.8708C104.273 47.2243 103.548 47.4011 102.735 47.4011ZM102.549 46.2345C102.903 46.2345 103.23 46.1461 103.53 45.9693C103.831 45.7925 104.07 45.5362 104.246 45.2004C103.522 45.0413 102.868 44.7585 102.284 44.3519C101.701 43.9453 101.25 43.5299 100.932 43.1057C100.684 43.1587 100.561 43.3974 100.561 43.8216C100.561 44.4049 100.729 44.9529 101.065 45.4655C101.4 45.9781 101.895 46.2345 102.549 46.2345ZM104.458 44.4049C104.494 44.2812 104.511 44.1398 104.511 43.9807C104.529 43.8039 104.538 43.6714 104.538 43.583C104.52 42.7875 104.414 42.0009 104.22 41.2231C104.025 40.4454 103.831 39.6499 103.636 38.8368C103.318 39.3848 102.947 39.9769 102.523 40.6133C102.099 41.2497 101.701 41.7623 101.33 42.1512C101.612 42.6284 102.028 43.0792 102.576 43.5034C103.124 43.9277 103.751 44.2282 104.458 44.4049Z" fill="#E71575"/>
</svg>
