<svg width="20" height="20" viewBox="0 0 20 20" fill="none" xmlns="http://www.w3.org/2000/svg">
<path d="M17.9167 7.07333V14.0625C17.9167 15.2708 16.9375 16.25 15.7292 16.25H4.27083C3.69067 16.25 3.13427 16.0195 2.72403 15.6093C2.3138 15.1991 2.08333 14.6427 2.08333 14.0625V7.07333L9.74916 11.29C9.90541 11.3758 10.095 11.3758 10.2508 11.29L17.9167 7.07292V7.07333ZM15.7292 3.75C16.3002 3.75005 16.8486 3.9734 17.2572 4.37232C17.6657 4.77125 17.9021 5.31413 17.9158 5.885L9.99999 10.2392L2.08416 5.88458L2.08499 5.84708C2.10833 5.28302 2.34883 4.74983 2.75621 4.35899C3.16358 3.96815 3.70629 3.74995 4.27083 3.75H15.7292Z" fill="white"/>
</svg>
