<svg width="25" height="20" viewBox="0 0 25 20" fill="none" xmlns="http://www.w3.org/2000/svg">
<path d="M15.4844 3.40313L16.9336 4.37109C17.5504 4.78138 18.2748 5.00018 19.0156 5H22.8125C24.0195 5 25 5.98047 25 7.1875V10.5078C25 12.6602 23.5352 14.5352 21.4492 15.0586L17.2305 16.1133C15.8672 16.957 14.2422 17.5 12.5 17.5C10.7578 17.5 9.13281 16.957 7.76953 16.1133L3.55078 15.0586C1.46406 14.5352 0 12.6602 0 10.5078V7.1875C0 5.98047 0.979297 5 2.1875 5H5.98437C6.72656 5 7.44922 4.78125 8.06641 4.37109L9.51563 3.40313C10.3984 2.81445 11.4375 2.5 12.5 2.5C13.5625 2.5 14.6016 2.81445 15.4844 3.40313ZM5.16797 13.5273C4.27344 12.1562 3.75 10.5117 3.75 8.75V6.875H2.1875C2.01484 6.875 1.875 7.01562 1.875 7.1875V10.5078C1.875 11.8008 2.75352 12.9258 4.00391 13.2383L5.16797 13.5273V13.5273ZM23.125 10.5078V7.1875C23.125 7.01562 22.9844 6.875 22.8125 6.875H21.25V8.75C21.25 10.5117 20.7266 12.1562 19.832 13.5273L20.9961 13.2383C22.2461 12.9258 23.125 11.8008 23.125 10.5078ZM8.125 8.75H16.875C17.2188 8.75 17.5 8.46875 17.5 8.125C17.5 7.78125 17.2188 7.5 16.875 7.5H8.125C7.78125 7.5 7.5 7.78125 7.5 8.125C7.5 8.46875 7.78125 8.75 8.125 8.75ZM8.125 10C7.78125 10 7.5 10.2812 7.5 10.625C7.5 10.9688 7.78125 11.25 8.125 11.25H16.875C17.2188 11.25 17.5 10.9688 17.5 10.625C17.5 10.2812 17.2188 10 16.875 10H8.125ZM9.375 13.75H15.625C15.9688 13.75 16.25 13.4688 16.25 13.125C16.25 12.7812 15.9688 12.5 15.625 12.5H9.375C9.03125 12.5 8.75 12.7812 8.75 13.125C8.75 13.4688 9.03125 13.75 9.375 13.75Z" fill="#686868"/>
</svg>
