<svg width="26" height="26" viewBox="0 0 26 26" fill="none" xmlns="http://www.w3.org/2000/svg">
<path d="M12.7393 23.6708C16.8361 23.6708 20.1706 20.3363 20.1706 16.2395C20.1706 12.1427 16.8361 8.80817 12.7393 8.80817C8.64146 8.80817 5.30798 12.1427 5.30798 16.2395C5.30798 20.3363 8.64146 23.6708 12.7393 23.6708ZM12.7393 10.9314C15.6662 10.9314 18.0474 13.3126 18.0474 16.2395C18.0474 19.1664 15.6662 21.5476 12.7393 21.5476C9.81242 21.5476 7.43121 19.1664 7.43121 16.2395C7.43121 13.3126 9.81242 10.9314 12.7393 10.9314ZM11.6777 2.43848H7.43121V8.29647C8.70163 7.44635 10.1583 6.91505 11.6777 6.74757V2.43848ZM18.0474 2.43848H13.8009V6.74757C15.3203 6.91505 16.777 7.44635 18.0474 8.29647V2.43848Z" fill="black" fill-opacity="0.8"/>
<path d="M10.6362 17.1006L10.1393 19.9946L12.7392 18.6283L15.3391 19.9946L14.8423 17.1006L16.9464 15.0496L14.0397 14.627L12.7392 11.9932L11.4387 14.627L8.53204 15.0496L10.6362 17.1006Z" fill="black" fill-opacity="0.8"/>
</svg>
