<svg width="31" height="29" viewBox="0 0 31 29" fill="none" xmlns="http://www.w3.org/2000/svg">
<path d="M18.4187 23.7785C23.6013 23.7785 26.1932 23.7785 27.8026 22.1102C29.4133 20.4434 29.4133 17.7589 29.4133 12.3912C29.4133 7.0235 29.4133 4.33895 27.8026 2.67214C26.1932 1.00391 23.6013 1.00391 18.4187 1.00391H12.9214C7.73878 1.00391 5.1468 1.00391 3.53747 2.67214C1.92676 4.33895 1.92676 7.0235 1.92676 12.3912C1.92676 17.7589 1.92676 20.4434 3.53747 22.1102C4.4349 23.0411 5.63744 23.4525 7.42406 23.6333" stroke="#E71575" stroke-width="2" stroke-linecap="round" stroke-linejoin="round"/>
<path d="M15.6699 12.3916V12.4058" stroke="#E71575" stroke-width="2" stroke-linecap="round"/>
<path d="M10.1729 12.3916V12.4058" stroke="#E71575" stroke-width="2" stroke-linecap="round"/>
<path d="M21.1675 12.3916V12.4058" stroke="#E71575" stroke-width="2" stroke-linecap="round"/>
<path d="M18.4189 23.7787C16.7202 23.7787 14.8484 24.4904 13.1401 25.4085C10.3942 26.8845 9.02121 27.6233 8.34504 27.1522C7.66887 26.6824 7.79669 25.2234 8.05369 22.3069L8.11141 21.6436" stroke="#E71575" stroke-width="2" stroke-linecap="round"/>
</svg>
