<svg width="40" height="38" viewBox="0 0 40 38" fill="none" xmlns="http://www.w3.org/2000/svg">
<path d="M35.5556 0.0527344H4.44444C1.99333 0.0527344 0 1.83604 0 4.02888V27.8858C0 30.0786 1.99333 31.8619 4.44444 31.8619H10.8852C11.8693 31.8619 12.8188 32.2247 13.5522 32.8808L17.333 36.2632C18.8515 37.6217 21.1485 37.6217 22.667 36.2632L26.4478 32.8808C27.1812 32.2247 28.1307 31.8619 29.1148 31.8619H35.5556C38.0067 31.8619 40 30.0786 40 27.8858V4.02888C40 1.83604 38.0067 0.0527344 35.5556 0.0527344ZM35.5556 23.8858C35.5556 26.0949 33.7647 27.8858 31.5556 27.8858H27.2748C26.2907 27.8858 25.3412 28.2485 24.6078 28.9047L22.667 30.641C21.1485 31.9995 18.8515 31.9995 17.333 30.641L15.3922 28.9047C14.6588 28.2485 13.7093 27.8858 12.7252 27.8858H8.44444C6.23531 27.8858 4.44444 26.0949 4.44444 23.8858V8.02888C4.44444 5.81974 6.23531 4.02888 8.44444 4.02888H31.5556C33.7647 4.02888 35.5556 5.81975 35.5556 8.02888V23.8858Z" fill="#777777"/>
</svg>
