<svg width="24" height="30" viewBox="0 0 24 30" fill="none" xmlns="http://www.w3.org/2000/svg">
<path d="M12 21.666C17.5227 21.666 22 17.1887 22 11.666C22 6.14335 17.5227 1.66602 12 1.66602C6.47733 1.66602 2 6.14335 2 11.666C2 17.1887 6.47733 21.666 12 21.666Z" fill="#8796A0" stroke="#8796A0" stroke-width="2.66667" stroke-linejoin="round"/>
<path d="M12 15.666C12.5253 15.666 13.0454 15.5626 13.5307 15.3615C14.016 15.1605 14.457 14.8659 14.8284 14.4944C15.1999 14.123 15.4945 13.6821 15.6955 13.1967C15.8965 12.7114 16 12.1913 16 11.666C16 11.1407 15.8965 10.6206 15.6955 10.1353C15.4945 9.64998 15.1999 9.20902 14.8284 8.83759C14.457 8.46615 14.016 8.17152 13.5307 7.9705C13.0454 7.76948 12.5253 7.66602 12 7.66602C10.9391 7.66602 9.92172 8.08744 9.17157 8.83759C8.42143 9.58773 8 10.6051 8 11.666C8 12.7269 8.42143 13.7443 9.17157 14.4944C9.92172 15.2446 10.9391 15.666 12 15.666V15.666Z" fill="white" stroke="white" stroke-width="2.66667" stroke-linejoin="round"/>
<path d="M8.91299 21.666L6.66699 28.3327H17.3337L15.0697 21.666H8.91299Z" stroke="#8796A0" stroke-width="2.66667" stroke-linecap="round" stroke-linejoin="round"/>
<path d="M4 28.333H20" stroke="#8796A0" stroke-width="2.66667" stroke-linecap="round" stroke-linejoin="round"/>
</svg>
