<svg width="14" height="14" viewBox="0 0 14 14" fill="none" xmlns="http://www.w3.org/2000/svg">
<path d="M12.25 9.33268V2.33268H1.74999V9.33268H12.25ZM12.25 1.16602C12.5594 1.16602 12.8562 1.28893 13.075 1.50772C13.2937 1.72652 13.4167 2.02326 13.4167 2.33268V9.33268C13.4167 9.6421 13.2937 9.93885 13.075 10.1576C12.8562 10.3764 12.5594 10.4993 12.25 10.4993H8.16666V11.666H9.33333V12.8327H4.66666V11.666H5.83333V10.4993H1.74999C1.44058 10.4993 1.14383 10.3764 0.925037 10.1576C0.706245 9.93885 0.583328 9.6421 0.583328 9.33268V2.33268C0.583328 1.68518 1.10249 1.16602 1.74999 1.16602H12.25ZM2.91666 3.49935H8.16666V6.41602H2.91666V3.49935ZM8.75 3.49935H11.0833V4.66602H8.75V3.49935ZM11.0833 5.24935V8.16602H8.75V5.24935H11.0833ZM2.91666 6.99935H5.25V8.16602H2.91666V6.99935ZM5.83333 6.99935H8.16666V8.16602H5.83333V6.99935Z" fill="white"/>
</svg>
