<svg width="14" height="14" viewBox="0 0 14 14" fill="none" xmlns="http://www.w3.org/2000/svg">
<path d="M11.5039 8.11335L10.8721 7.7117C10.9143 7.48116 10.9375 7.24378 10.9375 7.00111C10.9375 6.75843 10.9144 6.52136 10.8723 6.29082L11.5039 5.88917C11.6457 5.79879 11.7069 5.59127 11.6389 5.42809L11.3926 4.8337C11.325 4.67021 11.135 4.56645 10.9709 4.60301L10.2406 4.76541C9.96894 4.37267 9.62855 4.03228 9.23582 3.76065L9.39838 3.03015C9.43478 2.86603 9.33118 2.67609 9.16784 2.60858L8.5733 2.36218C8.40981 2.29404 8.20214 2.35502 8.11192 2.4972L7.71027 3.12877C7.47597 3.08557 7.23824 3.06371 6.99999 3.06344C6.75716 3.06344 6.51994 3.08661 6.28956 3.12862L5.88791 2.49705C5.79753 2.35486 5.59017 2.29389 5.42668 2.36171L4.83245 2.60811C4.66896 2.67563 4.56504 2.86572 4.60175 3.02999L4.76416 3.76034C4.37144 4.03188 4.0311 4.37223 3.75956 4.76494L3.02907 4.60254C2.86495 4.56583 2.67502 4.66974 2.60735 4.83292L2.3611 5.42731C2.29328 5.59081 2.35426 5.79848 2.49612 5.8887L3.12784 6.29036C3.08478 6.52472 3.06297 6.7625 3.06267 7.00079C3.06267 7.24362 3.08584 7.48069 3.12784 7.71108L2.49612 8.11273C2.3541 8.20311 2.29328 8.41063 2.3611 8.57428L2.60735 9.16867C2.67517 9.33185 2.86495 9.43592 3.02907 9.39905L3.75956 9.23649C4.03118 9.62918 4.37151 9.96957 4.76416 10.2412L4.6016 10.9718C4.56489 11.1359 4.66896 11.3258 4.83214 11.3933L5.42652 11.6397C5.59017 11.7072 5.79753 11.6466 5.88791 11.5045L6.28956 10.873C6.52009 10.9151 6.75732 10.9382 6.99999 10.9382C7.24266 10.9382 7.47957 10.9151 7.71027 10.873L8.11192 11.5045C8.20214 11.6466 8.40981 11.7072 8.57314 11.6397L9.16738 11.3936C9.33118 11.3258 9.43478 11.1359 9.39807 10.9718L9.23567 10.2412C9.62843 9.96966 9.96883 9.62926 10.2404 9.23649L10.9708 9.39905C11.1349 9.43576 11.3248 9.33169 11.3925 9.16867L11.6387 8.57428C11.7069 8.41094 11.6457 8.20342 11.5039 8.11335ZM5.99555 9.89171L5.67417 9.7587C5.04856 9.45692 4.54377 8.95191 4.24226 8.32616L4.10973 8.00633C3.99634 7.68329 3.93813 7.34347 3.93752 7.00111C3.93752 6.64752 4.00052 6.30949 4.11066 5.99339L4.24164 5.67714C4.54315 5.05101 5.04812 4.54566 5.67401 4.24366L5.99571 4.11035C6.31841 3.99714 6.65785 3.93903 6.99983 3.93846C7.35139 3.93846 7.68787 4.00068 8.0024 4.10988L8.32721 4.24444C8.95114 4.54575 9.45481 5.04926 9.75632 5.6731L9.8915 5.99977C10.0004 6.314 10.0625 6.64985 10.0625 7.00111C10.0625 7.35236 10.0005 7.68837 9.8915 8.0026L9.75632 8.32927C9.45485 8.95314 8.95117 9.45666 8.32721 9.75793L8.0024 9.89248C7.68015 10.0053 7.34126 10.0632 6.99983 10.0639C6.65781 10.063 6.31835 10.0048 5.99555 9.89171Z" fill="white"/>
<path d="M9.33332 6.99935C9.33332 5.71073 8.28877 4.66602 6.99999 4.66602C5.71152 4.66602 4.66666 5.71073 4.66666 6.99935C4.66666 8.28797 5.71152 9.33268 6.99999 9.33268C8.28877 9.33268 9.33332 8.28797 9.33332 6.99935ZM5.83332 6.99935C5.83332 6.68993 5.95624 6.39318 6.17503 6.17439C6.39382 5.9556 6.69057 5.83268 6.99999 5.83268C7.30941 5.83268 7.60616 5.9556 7.82495 6.17439C8.04374 6.39318 8.16666 6.68993 8.16666 6.99935C8.16666 7.30877 8.04374 7.60551 7.82495 7.82431C7.60616 8.0431 7.30941 8.16602 6.99999 8.16602C6.69057 8.16602 6.39382 8.0431 6.17503 7.82431C5.95624 7.60551 5.83332 7.30877 5.83332 6.99935Z" fill="white"/>
<path d="M10.8937 1.91927L11.0726 1.74027L10.8281 1.67523C10.4694 1.57987 10.092 1.58049 9.73365 1.67704C9.37531 1.77359 9.04864 1.96266 8.78638 2.22531C8.52413 2.48796 8.33549 2.81495 8.23938 3.17351C8.15056 3.50486 8.14364 3.85241 8.21863 4.18631L4.23302 8.23028C3.94314 8.15792 3.64089 8.14769 3.34617 8.20068C3.02245 8.25889 2.71675 8.39178 2.45332 8.58879C2.1899 8.78581 1.976 9.04153 1.8286 9.33566C1.68121 9.62979 1.60436 9.95423 1.60417 10.2832L1.60417 10.2835C1.60459 10.5867 1.67014 10.8862 1.79637 11.1618C1.9226 11.4373 2.10657 11.6826 2.33582 11.8808C2.56507 12.0791 2.83424 12.2257 3.12509 12.3108C3.41594 12.3959 3.72168 12.4174 4.0216 12.374C4.32151 12.3306 4.60858 12.2231 4.86336 12.059C5.11814 11.8949 5.33468 11.6779 5.49831 11.4228C5.66194 11.1676 5.76883 10.8803 5.81176 10.5802C5.85051 10.3093 5.8363 10.0337 5.77023 9.7687L9.81252 5.78155C10.1464 5.85696 10.4941 5.85034 10.8255 5.76168C11.1843 5.66573 11.5115 5.47707 11.7743 5.21464C12.0372 4.9522 12.2264 4.62523 12.323 4.26653C12.4196 3.90784 12.4201 3.53004 12.3246 3.17106L12.2596 2.92645L12.0806 3.10542L10.7306 4.45529L9.74787 4.25172L9.54439 3.26914L10.8937 1.91927ZM4.4841 11.0057L4.45765 11.0227L4.44059 11.0492L4.29285 11.2784L4.02054 11.2918L3.98906 11.2933L3.96103 11.3077L3.71862 11.4323L3.47622 11.3077L3.44819 11.2933L3.41671 11.2918L3.1444 11.2784L2.99665 11.0492L2.9796 11.0227L2.95315 11.0057L2.72405 10.8579L2.71067 10.5854L2.70912 10.5539L2.69473 10.5259L2.57015 10.2833L2.69473 10.0408L2.70912 10.0127L2.71067 9.98129L2.72405 9.70881L2.95315 9.561L2.9796 9.54393L2.99665 9.51747L3.1444 9.2883L3.41671 9.27491L3.44819 9.27337L3.47622 9.25896L3.71862 9.13436L3.96103 9.25896L3.98906 9.27337L4.02054 9.27491L4.29285 9.2883L4.44059 9.51747L4.45765 9.54393L4.4841 9.561L4.71319 9.70881L4.72658 9.98129L4.72813 10.0127L4.74251 10.0408L4.8671 10.2833L4.74251 10.5259L4.7264 10.5573L4.7264 10.5896L4.7132 10.8579L4.4841 11.0057Z" fill="white" stroke="#6D6866" stroke-width="0.291667"/>
</svg>
