<svg width="28" height="28" viewBox="0 0 28 28" fill="none" xmlns="http://www.w3.org/2000/svg">
<path d="M11.2498 3.37993C11.384 3.54306 11.4663 3.7427 11.4859 3.95305C11.5055 4.1634 11.4616 4.3748 11.3598 4.55993C10.5647 6.01977 10.1495 7.65612 10.1523 9.31845C10.1523 14.8485 14.6605 19.3265 20.2167 19.3265C20.9415 19.3265 21.647 19.2508 22.325 19.1064C22.5329 19.0614 22.7494 19.0786 22.9475 19.1559C23.1456 19.2332 23.3166 19.3671 23.439 19.541C23.5683 19.7218 23.6342 19.9402 23.6265 20.1623C23.6188 20.3844 23.5379 20.5977 23.3964 20.7691C22.3177 22.0941 20.957 23.1617 19.4133 23.8941C17.8697 24.6264 16.182 25.005 14.4735 25.0023C8.13339 25.0023 2.99805 19.8944 2.99805 13.6011C2.99805 8.8646 5.90542 4.80199 10.045 3.08012C10.2513 2.99297 10.4802 2.97508 10.6974 3.02915C10.9147 3.08321 11.1085 3.2063 11.2498 3.37993ZM9.67922 4.80061C8.08746 5.65443 6.75677 6.92357 5.82858 8.47314C4.90039 10.0227 4.40937 11.7948 4.40772 13.6011C4.40772 19.1298 8.91731 23.6077 14.4735 23.6077C15.804 23.61 17.1218 23.3484 18.3505 22.8381C19.5792 22.3277 20.6946 21.5787 21.6319 20.6344C21.1684 20.6921 20.6967 20.721 20.2167 20.721C13.8766 20.721 8.74264 15.6132 8.74264 9.31982C8.74264 7.71486 9.07546 6.18691 9.67922 4.80061Z" fill="#39D38C"/>
<path d="M17.8436 7.32736C17.8634 7.2678 17.9014 7.21598 17.9522 7.17924C18.0031 7.14251 18.0642 7.12274 18.127 7.12274C18.1897 7.12274 18.2508 7.14251 18.3017 7.17924C18.3526 7.21598 18.3905 7.2678 18.4103 7.32736L18.9425 8.92545C19.1804 9.63785 19.7388 10.1962 20.4512 10.4341L22.0493 10.9664C22.1089 10.9861 22.1607 11.0241 22.1974 11.075C22.2341 11.1258 22.2539 11.187 22.2539 11.2497C22.2539 11.3124 22.2341 11.3736 22.1974 11.4244C22.1607 11.4753 22.1089 11.5133 22.0493 11.533L20.4512 12.0652C20.0999 12.1823 19.7806 12.3796 19.5187 12.6415C19.2569 12.9033 19.0596 13.2226 18.9425 13.5739L18.4103 15.172C18.3905 15.2316 18.3526 15.2834 18.3017 15.3202C18.2508 15.3569 18.1897 15.3767 18.127 15.3767C18.0642 15.3767 18.0031 15.3569 17.9522 15.3202C17.9014 15.2834 17.8634 15.2316 17.8436 15.172L17.3114 13.5739C17.1944 13.2226 16.9971 12.9033 16.7352 12.6415C16.4733 12.3796 16.1541 12.1823 15.8027 12.0652L14.2046 11.533C14.1451 11.5133 14.0932 11.4753 14.0565 11.4244C14.0198 11.3736 14 11.3124 14 11.2497C14 11.187 14.0198 11.1258 14.0565 11.075C14.0932 11.0241 14.1451 10.9861 14.2046 10.9664L15.8027 10.4341C16.1541 10.3171 16.4733 10.1198 16.7352 9.85794C16.9971 9.59607 17.1944 9.2768 17.3114 8.92545L17.8436 7.32736ZM22.0644 3.13409C22.078 3.09493 22.1034 3.06098 22.1372 3.03695C22.171 3.01291 22.2114 3 22.2528 3C22.2943 3 22.3347 3.01291 22.3685 3.03695C22.4022 3.06098 22.4277 3.09493 22.4413 3.13409L22.7961 4.19857C22.9542 4.67442 23.3269 5.04713 23.8028 5.20529L24.8673 5.56011C24.9064 5.57369 24.9404 5.59913 24.9644 5.6329C24.9885 5.66666 25.0014 5.70708 25.0014 5.74853C25.0014 5.78997 24.9885 5.83039 24.9644 5.86416C24.9404 5.89792 24.9064 5.92336 24.8673 5.93694L23.8028 6.29177C23.5683 6.36978 23.3552 6.50138 23.1804 6.67614C23.0057 6.85089 22.8741 7.06398 22.7961 7.29848L22.4413 8.36296C22.4277 8.40212 22.4022 8.43607 22.3685 8.46011C22.3347 8.48414 22.2943 8.49705 22.2528 8.49705C22.2114 8.49705 22.171 8.48414 22.1372 8.46011C22.1034 8.43607 22.078 8.40212 22.0644 8.36296L21.7096 7.29848C21.6316 7.06398 21.5 6.85089 21.3252 6.67614C21.1505 6.50138 20.9374 6.36978 20.7029 6.29177L19.6384 5.93694C19.5992 5.92336 19.5653 5.89792 19.5413 5.86416C19.5172 5.83039 19.5043 5.78997 19.5043 5.74853C19.5043 5.70708 19.5172 5.66666 19.5413 5.6329C19.5653 5.59913 19.5992 5.57369 19.6384 5.56011L20.7029 5.20529C21.1787 5.04713 21.5514 4.67442 21.7096 4.19857L22.0644 3.13547V3.13409Z" fill="#39D38C"/>
</svg>
