<svg width="13" height="14" viewBox="0 0 13 14" fill="none" xmlns="http://www.w3.org/2000/svg">
<path d="M12.2506 9.24994V0.999945C12.25 0.887291 12.2242 0.776202 12.1748 0.674926C12.1255 0.57365 12.054 0.48479 11.9656 0.414945C11.8784 0.344461 11.7766 0.2944 11.6676 0.268442C11.5586 0.242484 11.4451 0.241289 11.3356 0.264945L4.58557 1.76495C4.41893 1.80252 4.27012 1.89586 4.16374 2.02951C4.05736 2.16317 3.9998 2.32913 4.00057 2.49995V8.75495C3.48856 8.51323 2.91199 8.44405 2.35734 8.55779C1.80269 8.67152 1.29988 8.96203 0.92432 9.38574C0.548764 9.80945 0.320722 10.3435 0.274402 10.9078C0.228081 11.4721 0.365982 12.0362 0.667415 12.5155C0.968848 12.9947 1.41756 13.3634 1.94624 13.566C2.47492 13.7687 3.05505 13.7944 3.59962 13.6395C4.14418 13.4845 4.62381 13.1571 4.96655 12.7064C5.3093 12.2558 5.49667 11.7061 5.50057 11.1399C5.50832 11.0101 5.50832 10.8798 5.50057 10.7499V3.09995L10.7506 1.93745V7.25495C10.2383 7.01309 9.66135 6.94396 9.10642 7.05795C8.5515 7.17193 8.04853 7.46288 7.67306 7.88709C7.29759 8.31131 7.06988 8.84588 7.02414 9.41055C6.97839 9.97521 7.11707 10.5395 7.41936 11.0186C7.72164 11.4977 8.17121 11.8658 8.70055 12.0677C9.22989 12.2695 9.81042 12.2941 10.355 12.1379C10.8995 11.9817 11.3787 11.653 11.7205 11.2012C12.0623 10.7494 12.2483 10.199 12.2506 9.63245C12.2577 9.50504 12.2577 9.37735 12.2506 9.24994Z" fill="#A8ABC1"/>
</svg>
