<svg width="24" height="24" viewBox="0 0 24 24" fill="none" xmlns="http://www.w3.org/2000/svg">
<path d="M19.09 12.59C18.93 12.59 18.77 12.54 18.63 12.43C14.6 9.31999 9.38999 9.31999 5.35999 12.43C5.02999 12.68 4.55999 12.62 4.30999 12.3C4.05999 11.97 4.11999 11.5 4.43999 11.25C9.02999 7.69999 14.96 7.69999 19.54 11.25C19.87 11.5 19.93 11.97 19.67 12.3C19.54 12.49 19.32 12.59 19.09 12.59Z" fill="#224F9C"/>
<path d="M22 9.10999C21.84 9.10999 21.68 9.05999 21.54 8.94999C15.74 4.46999 8.25001 4.46999 2.46001 8.94999C2.13001 9.19999 1.66001 9.13999 1.41001 8.81999C1.15001 8.49999 1.21001 8.01999 1.54001 7.76999C7.89001 2.85999 16.1 2.85999 22.46 7.76999C22.79 8.01999 22.85 8.48999 22.59 8.81999C22.45 9.00999 22.22 9.10999 22 9.10999Z" fill="#224F9C"/>
<path d="M17.21 16.24C17.05 16.24 16.89 16.19 16.75 16.08C13.87 13.85 10.14 13.85 7.25001 16.08C6.92001 16.33 6.45001 16.27 6.20001 15.95C5.95001 15.62 6.01001 15.15 6.33001 14.9C9.77001 12.24 14.22 12.24 17.66 14.9C17.99 15.15 18.05 15.62 17.79 15.95C17.65 16.14 17.43 16.24 17.21 16.24Z" fill="#224F9C"/>
<path d="M14.6 19.9C14.44 19.9 14.28 19.85 14.14 19.74C12.84 18.73 11.15 18.73 9.84998 19.74C9.51998 19.99 9.04998 19.93 8.79998 19.61C8.54998 19.28 8.60998 18.81 8.92998 18.56C10.79 17.12 13.19 17.12 15.05 18.56C15.38 18.81 15.44 19.28 15.18 19.61C15.05 19.79 14.83 19.9 14.6 19.9Z" fill="#224F9C"/>
</svg>
