<svg width="29" height="27" viewBox="0 0 29 27" fill="none" xmlns="http://www.w3.org/2000/svg">
<path d="M10.1797 16.5625H16.1115V18.4166H10.1797V16.5625ZM10.1797 12.8543H18.6536V14.7084H10.1797V12.8543ZM10.1797 9.1462H18.6536V11.0003H10.1797V9.1462ZM20.3484 5.43806H16.8063C16.4504 4.36269 15.5183 3.58398 14.4167 3.58398C13.3151 3.58398 12.383 4.36269 12.027 5.43806H8.48496C8.36633 5.43806 8.25617 5.44733 8.14601 5.47514C7.87612 5.53708 7.62405 5.66986 7.41148 5.86203C7.19891 6.05421 7.03223 6.30002 6.92577 6.57831C6.84103 6.79153 6.79018 7.03256 6.79018 7.29213V20.2706C6.79018 20.5209 6.84103 20.7712 6.92577 20.9937C7.01051 21.2162 7.13761 21.4109 7.29014 21.587C7.51894 21.8373 7.81552 22.0227 8.14601 22.0969C8.25617 22.1154 8.36633 22.1247 8.48496 22.1247H20.3484C21.2805 22.1247 22.0432 21.2904 22.0432 20.2706V7.29213C22.0432 6.27239 21.2805 5.43806 20.3484 5.43806ZM14.4167 5.2063C14.7641 5.2063 15.0522 5.52149 15.0522 5.90157C15.0522 6.28166 14.7641 6.59685 14.4167 6.59685C14.0693 6.59685 13.7811 6.28166 13.7811 5.90157C13.7811 5.52149 14.0693 5.2063 14.4167 5.2063ZM20.3484 20.2706H8.48496V7.29213H20.3484V20.2706Z" fill="black" fill-opacity="0.7"/>
</svg>
