<svg width="16" height="16" viewBox="0 0 16 16" fill="none" xmlns="http://www.w3.org/2000/svg">
<path d="M13.6553 2.80986C12.9034 2.06318 12.0098 1.47422 11.0271 1.07754C10.0445 0.680868 8.99244 0.484465 7.93284 0.499864C5.94371 0.494891 4.03408 1.2803 2.62404 2.6833C1.214 4.08631 0.419059 5.99199 0.414086 7.98111C0.409113 9.97024 1.19452 11.8799 2.59753 13.2899C4.00053 14.6999 5.90621 15.4949 7.89534 15.4999C8.32396 15.5072 8.74286 15.3719 9.0863 15.1153C9.42973 14.8588 9.67825 14.4954 9.79284 14.0824C9.86588 13.7841 9.86512 13.4724 9.79063 13.1745C9.71615 12.8765 9.57017 12.6012 9.36534 12.3724C9.31798 12.3185 9.28707 12.2521 9.27629 12.1812C9.26552 12.1102 9.27532 12.0377 9.30453 11.9722C9.33375 11.9066 9.38115 11.8508 9.44111 11.8114C9.50108 11.772 9.57109 11.7507 9.64284 11.7499H10.8803C12.045 11.7553 13.1687 11.3199 14.0257 10.5311C14.8826 9.74233 15.4094 8.65854 15.5003 7.49736C15.5282 6.63157 15.379 5.76921 15.0617 4.96316C14.7445 4.15711 14.2659 3.42436 13.6553 2.80986ZM4.13034 10.0549C3.94619 10.18 3.72905 10.2477 3.50641 10.2494C3.28376 10.251 3.06563 10.1866 2.87963 10.0642C2.69363 9.94186 2.54812 9.76705 2.46154 9.56192C2.37495 9.3568 2.35117 9.1306 2.39322 8.91196C2.43526 8.69331 2.54124 8.49206 2.69773 8.33369C2.85423 8.17531 3.05419 8.06693 3.27232 8.02227C3.49044 7.97761 3.71691 7.99868 3.92305 8.08281C4.1292 8.16694 4.30574 8.31034 4.43034 8.49486C4.51383 8.61674 4.57232 8.75396 4.60244 8.89859C4.63256 9.04322 4.6337 9.19238 4.6058 9.33745C4.5779 9.48253 4.52152 9.62063 4.43991 9.74377C4.35829 9.86691 4.25307 9.97265 4.13034 10.0549ZM5.22534 5.93736C5.11862 6.135 4.9552 6.29618 4.75609 6.40013C4.55699 6.50408 4.33133 6.54606 4.10816 6.52065C3.88499 6.49525 3.67454 6.40362 3.5039 6.25757C3.33326 6.11153 3.21024 5.91774 3.15068 5.70117C3.09113 5.48461 3.09776 5.25517 3.16973 5.0424C3.2417 4.82964 3.37571 4.64329 3.5545 4.50734C3.73329 4.37139 3.94869 4.29208 4.17295 4.27961C4.39721 4.26714 4.62007 4.32208 4.81284 4.43736C5.06157 4.58612 5.2433 4.82513 5.32015 5.10457C5.39699 5.38402 5.36303 5.68234 5.22534 5.93736ZM7.25034 4.24986C7.02783 4.24986 6.81033 4.18388 6.62532 4.06027C6.44031 3.93665 6.29612 3.76095 6.21097 3.55538C6.12582 3.34982 6.10354 3.12362 6.14695 2.90539C6.19036 2.68716 6.29751 2.4867 6.45484 2.32937C6.61217 2.17203 6.81263 2.06489 7.03086 2.02148C7.24909 1.97807 7.47529 2.00035 7.68085 2.0855C7.88642 2.17065 8.06212 2.31484 8.18574 2.49985C8.30936 2.68485 8.37534 2.90236 8.37534 3.12486C8.37534 3.42323 8.25681 3.70938 8.04583 3.92036C7.83485 4.13134 7.5487 4.24986 7.25034 4.24986ZM11.5628 4.84986C11.3701 4.96515 11.1472 5.02009 10.9229 5.00762C10.6987 4.99515 10.4833 4.91583 10.3045 4.77989C10.1257 4.64394 9.9917 4.45759 9.91973 4.24482C9.84776 4.03206 9.84113 3.80262 9.90068 3.58605C9.96024 3.36948 10.0833 3.1757 10.2539 3.02965C10.4245 2.88361 10.635 2.79198 10.8582 2.76657C11.0813 2.74117 11.307 2.78314 11.5061 2.8871C11.7052 2.99105 11.8686 3.15222 11.9753 3.34986C12.113 3.60489 12.147 3.90321 12.0701 4.18265C11.9933 4.4621 11.8116 4.70111 11.5628 4.84986Z" fill="#A8ABC1"/>
</svg>
