<svg width="24" height="23" viewBox="0 0 24 23" fill="none" xmlns="http://www.w3.org/2000/svg">
<path d="M12.5659 13.5998C13.007 13.5998 13.2275 13.2848 13.2931 12.7768C13.3456 12.0759 13.553 11.707 14.4049 11.1229C15.2883 10.4994 15.7819 9.69212 15.7819 8.51601C15.7819 6.77677 14.5742 5.59277 12.8127 5.59277C11.4738 5.59277 10.4605 6.23859 10.0562 7.28607C9.93364 7.57215 9.87196 7.88059 9.87502 8.19179C9.87502 8.70765 10.1415 9.03187 10.5904 9.03187C10.9474 9.03187 11.1876 8.83891 11.3307 8.36243C11.5381 7.58535 12.0199 7.16137 12.7405 7.16137C13.5412 7.16137 14.0925 7.7468 14.0925 8.58426C14.0925 9.32327 13.8195 9.74594 13.0135 10.3235C12.201 10.8919 11.798 11.5232 11.798 12.4762V12.6219C11.798 13.1837 12.0711 13.5998 12.5659 13.5998Z" fill="#E71575"/>
<path d="M15.4836 4.29759L14.2747 3.05846L15.2132 2.14225L16.0297 2.97839L17.1979 2.96395C17.7036 2.95797 18.2054 3.05316 18.6738 3.24392C19.1421 3.43469 19.5676 3.71718 19.9252 4.07478C20.2828 4.43238 20.5653 4.85788 20.7561 5.32625C20.9468 5.79462 21.042 6.2964 21.036 6.80209L21.0229 7.97033L21.8578 8.78679C22.2193 9.14011 22.5066 9.56214 22.7028 10.0281C22.899 10.494 23 10.9945 23 11.5C23 12.0055 22.899 12.506 22.7028 12.9719C22.5066 13.4379 22.2193 13.8599 21.8578 14.2132L21.0216 15.0297L21.036 16.1979C21.042 16.7036 20.9468 17.2054 20.7561 17.6738C20.5653 18.1421 20.2828 18.5676 19.9252 18.9252C19.5676 19.2828 19.1421 19.5653 18.6738 19.7561C18.2054 19.9468 17.7036 20.042 17.1979 20.036L16.0297 20.0229L15.2132 20.8578C14.8599 21.2193 14.4379 21.5066 13.9719 21.7028C13.506 21.899 13.0055 22 12.5 22C11.9945 22 11.494 21.899 11.0281 21.7028C10.5621 21.5066 10.1401 21.2193 9.78679 20.8578L8.97033 20.0216L7.80209 20.036C7.2964 20.042 6.79462 19.9468 6.32625 19.7561C5.85788 19.5653 5.43238 19.2828 5.07478 18.9252C4.71718 18.5676 4.43469 18.1421 4.24392 17.6738C4.05316 17.2054 3.95797 16.7036 3.96395 16.1979L3.97708 15.0297L3.14225 14.2132C2.78067 13.8599 2.49336 13.4379 2.2972 12.9719C2.10105 12.506 2 12.0055 2 11.5C2 10.9945 2.10105 10.494 2.2972 10.0281C2.49336 9.56214 2.78067 9.14011 3.14225 8.78679L3.97839 7.97033L3.96395 6.80209C3.95797 6.2964 4.05316 5.79462 4.24392 5.32625C4.43469 4.85788 4.71718 4.43238 5.07478 4.07478C5.43238 3.71718 5.85788 3.43469 6.32625 3.24392C6.79462 3.05316 7.2964 2.95797 7.80209 2.96395L8.97033 2.97708L9.78679 2.14225C10.1401 1.78067 10.5621 1.49336 11.0281 1.2972C11.494 1.10105 11.9945 1 12.5 1C13.0055 1 13.506 1.10105 13.9719 1.2972C14.4379 1.49336 14.8599 1.78067 15.2132 2.14225L14.2747 3.05846C14.0436 2.82191 13.7676 2.63394 13.4628 2.5056C13.158 2.37727 12.8307 2.31116 12.5 2.31116C12.1693 2.31116 11.842 2.37727 11.5372 2.5056C11.2324 2.63394 10.9564 2.82191 10.7253 3.05846L9.5177 4.29759L7.78503 4.27659C7.45448 4.27289 7.12652 4.33529 6.82043 4.46013C6.51433 4.58496 6.23628 4.76971 6.00259 5.00352C5.7689 5.23733 5.5843 5.51549 5.45962 5.82164C5.33495 6.1278 5.27272 6.45579 5.27659 6.78634L5.29759 8.51639L4.05846 9.72532C3.82191 9.9564 3.63394 10.2324 3.5056 10.5372C3.37727 10.842 3.31116 11.1693 3.31116 11.5C3.31116 11.8307 3.37727 12.158 3.5056 12.4628C3.63394 12.7676 3.82191 13.0436 4.05846 13.2747L5.29759 14.4823L5.27659 16.215C5.27289 16.5455 5.33529 16.8735 5.46013 17.1796C5.58496 17.4857 5.76971 17.7637 6.00352 17.9974C6.23733 18.2311 6.51549 18.4157 6.82164 18.5404C7.1278 18.6651 7.45579 18.7273 7.78634 18.7234L9.51639 18.7024L10.7253 19.9415C10.9564 20.1781 11.2324 20.3661 11.5372 20.4944C11.842 20.6227 12.1693 20.6888 12.5 20.6888C12.8307 20.6888 13.158 20.6227 13.4628 20.4944C13.7676 20.3661 14.0436 20.1781 14.2747 19.9415L15.4823 18.7024L17.215 18.7234C17.5455 18.7271 17.8735 18.6647 18.1796 18.5399C18.4857 18.415 18.7637 18.2303 18.9974 17.9965C19.2311 17.7627 19.4157 17.4845 19.5404 17.1784C19.6651 16.8722 19.7273 16.5442 19.7234 16.2137L19.7024 14.4836L20.9415 13.2747C21.1781 13.0436 21.3661 12.7676 21.4944 12.4628C21.6227 12.158 21.6888 11.8307 21.6888 11.5C21.6888 11.1693 21.6227 10.842 21.4944 10.5372C21.3661 10.2324 21.1781 9.9564 20.9415 9.72532L19.7024 8.5177L19.7234 6.78503C19.7271 6.45448 19.6647 6.12652 19.5399 5.82043C19.415 5.51433 19.2303 5.23628 18.9965 5.00259C18.7627 4.7689 18.4845 4.5843 18.1784 4.45962C17.8722 4.33495 17.5442 4.27272 17.2137 4.27659L15.4836 4.29759Z" fill="#E71575"/>
<path d="M11.1891 15.4386C11.1891 15.0905 11.3274 14.7566 11.5735 14.5104C11.8197 14.2643 12.1536 14.126 12.5017 14.126C12.8498 14.126 13.1837 14.2643 13.4299 14.5104C13.676 14.7566 13.8143 15.0905 13.8143 15.4386C13.8143 15.7867 13.676 16.1206 13.4299 16.3668C13.1837 16.6129 12.8498 16.7512 12.5017 16.7512C12.1536 16.7512 11.8197 16.6129 11.5735 16.3668C11.3274 16.1206 11.1891 15.7867 11.1891 15.4386Z" fill="#E71575"/>
</svg>
