<svg width="16" height="17" viewBox="0 0 16 17" fill="none" xmlns="http://www.w3.org/2000/svg">
<path d="M11.7035 4.92036C11.6457 4.91532 11.5877 4.91532 11.5299 4.92036C10.7766 4.8797 10.1934 4.26805 10.1934 3.52922C10.1934 2.76638 10.8238 2.13037 11.62 2.13037C12.4113 2.13037 13.0458 2.76116 13.0467 3.52762C13.041 4.26878 12.4557 4.87974 11.7035 4.92036Z" fill="#EF5DA8" stroke="#EF5DA8"/>
<path d="M13.5848 9.55736L13.5846 9.55752C13.1111 9.86999 12.4696 10.0452 11.8066 10.0631C11.9261 9.64803 11.9886 9.21232 11.9933 8.76459L11.9933 8.76459V8.7593C11.9933 8.28715 11.9252 7.82673 11.7913 7.39274C12.4612 7.40886 13.1021 7.58414 13.5796 7.8965L13.5796 7.8965L13.5812 7.89754C14.0043 8.17198 14.1437 8.48244 14.1442 8.72491C14.1446 8.96792 14.0057 9.27995 13.5848 9.55736Z" fill="#EF5DA8" stroke="#EF5DA8"/>
<path d="M4.29327 5.4215C4.33994 5.41493 4.38661 5.41493 4.43327 5.4215C5.46661 5.38865 6.28661 4.55421 6.28661 3.52922C6.28661 2.47796 5.42661 1.63037 4.35994 1.63037C3.29994 1.63037 2.43994 2.47796 2.43994 3.52922C2.43994 4.55421 3.25994 5.38865 4.29327 5.4215Z" fill="#EF5DA8"/>
<path d="M4.36662 8.75943C4.36662 9.39676 4.50662 10.0012 4.75996 10.5466C3.81996 10.6451 2.83996 10.448 2.11996 9.98153C1.06662 9.29163 1.06662 8.16809 2.11996 7.4782C2.83329 7.00512 3.83996 6.81458 4.78662 6.91971C4.51329 7.47162 4.36662 8.09582 4.36662 8.75943Z" fill="#EF5DA8"/>
<path d="M8.07995 10.7436C8.02662 10.737 7.96662 10.737 7.90662 10.7436C6.67995 10.7042 5.69995 9.71206 5.69995 8.48996C5.70662 7.24158 6.72662 6.22974 7.99995 6.22974C9.26662 6.22974 10.2933 7.24158 10.2933 8.48996C10.2866 9.71206 9.31328 10.7042 8.07995 10.7436Z" fill="#EF5DA8"/>
<path d="M5.91333 12.1038C4.90666 12.7674 4.90666 13.8581 5.91333 14.5152C7.05999 15.2708 8.93999 15.2708 10.0867 14.5152C11.0933 13.8515 11.0933 12.7609 10.0867 12.1038C8.94666 11.3482 7.06666 11.3482 5.91333 12.1038Z" fill="#EF5DA8"/>
</svg>
