<svg width="32" height="32" viewBox="0 0 32 32" fill="none" xmlns="http://www.w3.org/2000/svg">
<path d="M22.2919 26.338L21.4386 19.506C21.3176 18.5383 20.8473 17.6481 20.1161 17.0028C19.3849 16.3575 18.4431 16.0016 17.4679 16.002H14.5292C13.5545 16.0022 12.6133 16.3584 11.8827 17.0037C11.152 17.6489 10.6821 18.5387 10.5612 19.506L9.70656 26.338C9.65965 26.7133 9.69314 27.0943 9.80479 27.4558C9.91645 27.8172 10.1037 28.1507 10.3542 28.4342C10.6046 28.7177 10.9125 28.9446 11.2574 29.1C11.6023 29.2554 11.9763 29.3356 12.3546 29.3353H19.6452C20.0234 29.3354 20.3972 29.255 20.742 29.0996C21.0867 28.9441 21.3944 28.7171 21.6447 28.4337C21.895 28.1502 22.0822 27.8168 22.1937 27.4554C22.3053 27.0941 22.3388 26.7132 22.2919 26.338V26.338Z" stroke="#0DB668" stroke-width="2.66667" stroke-linecap="round" stroke-linejoin="round"/>
<path d="M15.9999 10.668C18.2091 10.668 19.9999 8.87711 19.9999 6.66797C19.9999 4.45883 18.2091 2.66797 15.9999 2.66797C13.7908 2.66797 11.9999 4.45883 11.9999 6.66797C11.9999 8.87711 13.7908 10.668 15.9999 10.668Z" stroke="#0DB668" stroke-width="2.66667"/>
<path d="M5.33329 14.6673C6.80605 14.6673 7.99996 13.4734 7.99996 12.0007C7.99996 10.5279 6.80605 9.33398 5.33329 9.33398C3.86053 9.33398 2.66663 10.5279 2.66663 12.0007C2.66663 13.4734 3.86053 14.6673 5.33329 14.6673Z" stroke="#0DB668" stroke-width="2.66667"/>
<path d="M26.6666 14.6673C28.1394 14.6673 29.3333 13.4734 29.3333 12.0007C29.3333 10.5279 28.1394 9.33398 26.6666 9.33398C25.1938 9.33398 23.9999 10.5279 23.9999 12.0007C23.9999 13.4734 25.1938 14.6673 26.6666 14.6673Z" stroke="#0DB668" stroke-width="2.66667"/>
<path d="M5.33323 18.668H4.92523C4.29398 18.6679 3.68317 18.8918 3.20147 19.2997C2.71977 19.7077 2.39841 20.2733 2.29457 20.896L1.85057 23.5626C1.78685 23.9447 1.80713 24.3361 1.90999 24.7095C2.01286 25.0829 2.19584 25.4294 2.4462 25.725C2.69657 26.0205 3.00832 26.258 3.35976 26.4208C3.7112 26.5837 4.0939 26.668 4.48123 26.668H9.33323M26.6666 18.668H27.0746C27.7058 18.6679 28.3166 18.8918 28.7983 19.2997C29.28 19.7077 29.6014 20.2733 29.7052 20.896L30.1492 23.5626C30.213 23.9447 30.1927 24.3361 30.0898 24.7095C29.9869 25.0829 29.804 25.4294 29.5536 25.725C29.3032 26.0205 28.9915 26.258 28.64 26.4208C28.2886 26.5837 27.9059 26.668 27.5186 26.668H22.6666" stroke="#0DB668" stroke-width="2.66667" stroke-linecap="round" stroke-linejoin="round"/>
</svg>
