<svg width="34" height="34" viewBox="0 0 34 34" fill="none" xmlns="http://www.w3.org/2000/svg">
<mask id="mask0_403_613" style="mask-type:alpha" maskUnits="userSpaceOnUse" x="2" y="1" width="30" height="32">
<path d="M17 14.1668C20.1297 14.1668 22.6667 11.6298 22.6667 8.50016C22.6667 5.37055 20.1297 2.8335 17 2.8335C13.8704 2.8335 11.3334 5.37055 11.3334 8.50016C11.3334 11.6298 13.8704 14.1668 17 14.1668Z" fill="#555555" stroke="white" stroke-width="2.83333" stroke-linecap="round" stroke-linejoin="round"/>
<path d="M29.75 31.1665C29.75 24.125 24.0415 18.4165 17 18.4165C9.95846 18.4165 4.25 24.125 4.25 31.1665" stroke="white" stroke-width="2.83333" stroke-linecap="round" stroke-linejoin="round"/>
<path d="M17 31.1665L19.8333 27.6248L17 18.4165L14.1666 27.6248L17 31.1665Z" fill="#555555" stroke="white" stroke-width="2.83333" stroke-linecap="round" stroke-linejoin="round"/>
</mask>
<g mask="url(#mask0_403_613)">
<path d="M0 0H34V34H0V0Z" fill="#1682BD"/>
</g>
</svg>
