<svg width="18" height="18" viewBox="0 0 18 18" fill="none" xmlns="http://www.w3.org/2000/svg">
<g clip-path="url(#clip0_378_3207)">
<path d="M4.5 18.0004C4.5 18.0004 3.375 18.0004 3.375 16.8754C3.375 15.7504 4.5 12.3754 9 12.3754C13.5 12.3754 14.625 15.7504 14.625 16.8754C14.625 18.0004 13.5 18.0004 13.5 18.0004H4.5ZM9 11.3066C9.74592 11.3066 10.4613 11.0103 10.9887 10.4829C11.5162 9.95543 11.8125 9.24006 11.8125 8.49414C11.8125 7.74822 11.5162 7.03285 10.9887 6.5054C10.4613 5.97796 9.74592 5.68164 9 5.68164C8.25408 5.68164 7.53871 5.97796 7.01126 6.5054C6.48382 7.03285 6.1875 7.74822 6.1875 8.49414C6.1875 9.24006 6.48382 9.95543 7.01126 10.4829C7.53871 11.0103 8.25408 11.3066 9 11.3066Z" fill="#393939"/>
<path d="M2.25 1.125C1.65326 1.125 1.08097 1.36205 0.65901 1.78401C0.237053 2.20597 0 2.77826 0 3.375L0 14.0625C0 14.5101 0.17779 14.9393 0.494257 15.2557C0.810725 15.5722 1.23995 15.75 1.6875 15.75H2.42213C2.65735 14.9233 3.0662 14.1562 3.62138 13.5H1.125V3.375C1.125 3.07663 1.24353 2.79048 1.4545 2.5795C1.66548 2.36853 1.95163 2.25 2.25 2.25H15.75C16.0484 2.25 16.3345 2.36853 16.5455 2.5795C16.7565 2.79048 16.875 3.07663 16.875 3.375V13.5H14.3786C15.0019 14.2358 15.3799 15.0446 15.5779 15.75H16.3125C16.7601 15.75 17.1893 15.5722 17.5057 15.2557C17.8222 14.9393 18 14.5101 18 14.0625V3.375C18 2.77826 17.7629 2.20597 17.341 1.78401C16.919 1.36205 16.3467 1.125 15.75 1.125H2.25Z" fill="#393939"/>
</g>
<defs>
<clipPath id="clip0_378_3207">
<rect width="18" height="18" fill="white"/>
</clipPath>
</defs>
</svg>
