<svg width="32" height="32" viewBox="0 0 32 32" fill="none" xmlns="http://www.w3.org/2000/svg">
<path d="M6 8C6 7.20435 6.31607 6.44129 6.87868 5.87868C7.44129 5.31607 8.20435 5 9 5H25C25.7956 5 26.5587 5.31607 27.1213 5.87868C27.6839 6.44129 28 7.20435 28 8V18C28 18.7956 27.6839 19.5587 27.1213 20.1213C26.5587 20.6839 25.7956 21 25 21H17V19H25C25.2652 19 25.5196 18.8946 25.7071 18.7071C25.8946 18.5196 26 18.2652 26 18V8C26 7.73478 25.8946 7.48043 25.7071 7.29289C25.5196 7.10536 25.2652 7 25 7H9C8.73478 7 8.48043 7.10536 8.29289 7.29289C8.10536 7.48043 8 7.73478 8 8H7C6.654 8 6.32 8.044 6 8.126V8ZM29 25H17V23H29C29.2652 23 29.5196 23.1054 29.7071 23.2929C29.8946 23.4804 30 23.7348 30 24C30 24.2652 29.8946 24.5196 29.7071 24.7071C29.5196 24.8946 29.2652 25 29 25ZM9 25C9.26522 25 9.51957 24.8946 9.70711 24.7071C9.89464 24.5196 10 24.2652 10 24C10 23.7348 9.89464 23.4804 9.70711 23.2929C9.51957 23.1054 9.26522 23 9 23C8.73478 23 8.48043 23.1054 8.29289 23.2929C8.10536 23.4804 8 23.7348 8 24C8 24.2652 8.10536 24.5196 8.29289 24.7071C8.48043 24.8946 8.73478 25 9 25ZM3 13C3 12.2044 3.31607 11.4413 3.87868 10.8787C4.44129 10.3161 5.20435 10 6 10H12C12.7956 10 13.5587 10.3161 14.1213 10.8787C14.6839 11.4413 15 12.2044 15 13V25C15 25.7956 14.6839 26.5587 14.1213 27.1213C13.5587 27.6839 12.7956 28 12 28H6C5.20435 28 4.44129 27.6839 3.87868 27.1213C3.31607 26.5587 3 25.7956 3 25V13ZM6 12C5.73478 12 5.48043 12.1054 5.29289 12.2929C5.10536 12.4804 5 12.7348 5 13V25C5 25.2652 5.10536 25.5196 5.29289 25.7071C5.48043 25.8946 5.73478 26 6 26H12C12.2652 26 12.5196 25.8946 12.7071 25.7071C12.8946 25.5196 13 25.2652 13 25V13C13 12.7348 12.8946 12.4804 12.7071 12.2929C12.5196 12.1054 12.2652 12 12 12H6Z" fill="#0DB668"/>
</svg>
