<svg width="18" height="18" viewBox="0 0 18 18" fill="none" xmlns="http://www.w3.org/2000/svg">
<path d="M1.45898 10.8616C2.67739 10.3184 3.8885 9.77531 5.1069 9.53633V3.6198C5.1069 3.04361 5.3375 2.49102 5.74797 2.08359C6.15844 1.67616 6.71516 1.44727 7.29565 1.44727C8.25141 1.44727 9.06124 2.04833 9.36037 2.89562H7.29565C7.10215 2.89562 6.91658 2.97192 6.77976 3.10773C6.64293 3.24354 6.56607 3.42774 6.56607 3.6198V4.34398H10.214V3.6198C10.214 3.04361 10.4446 2.49102 10.8551 2.08359C11.2655 1.67616 11.8222 1.44727 12.4027 1.44727C13.3585 1.44727 14.1683 2.04833 14.4675 2.89562H12.4027C12.2092 2.89562 12.0237 2.97192 11.8868 3.10773C11.75 3.24354 11.6732 3.42774 11.6732 3.6198V10.8181C13.1323 10.5864 14.5915 9.41322 16.0507 9.41322V10.8616C14.431 10.8616 12.8113 12.3099 11.1843 12.3099C9.56466 12.3099 7.94498 10.8616 6.32531 10.8616C4.69833 10.8616 3.07866 11.5858 1.45898 12.3099V10.8616ZM10.214 5.79233H6.56607V7.24069H10.214V5.79233ZM10.214 8.68905H6.56607V9.41322C7.78447 9.52909 8.99558 10.3619 10.214 10.7095V8.68905ZM1.45898 13.7583C3.07866 13.0341 4.69833 12.3099 6.32531 12.3099C7.94498 12.3099 9.56466 13.7583 11.1843 13.7583C12.8113 13.7583 14.431 12.3099 16.0507 12.3099V13.7583C14.431 13.7583 12.8113 15.2066 11.1843 15.2066C9.56466 15.2066 7.94498 13.7583 6.32531 13.7583C4.69833 13.7583 3.07866 14.4825 1.45898 15.2066V13.7583Z" fill="#4A4A4A"/>
</svg>
