<svg width="16" height="11" viewBox="0 0 16 11" fill="none" xmlns="http://www.w3.org/2000/svg">
<path d="M0.316406 10L1.54004 7.08105H1.15723C1.05241 7.08105 0.952148 7.08105 0.856445 7.08105C0.760742 7.0765 0.674154 7.07422 0.59668 7.07422L0.986328 6.41113C1.13216 6.42025 1.27344 6.4248 1.41016 6.4248C1.54688 6.4248 1.68132 6.4248 1.81348 6.4248L3.10547 3.3623C3.3151 2.86556 3.56348 2.42122 3.85059 2.0293C4.1377 1.63281 4.44987 1.29785 4.78711 1.02441C5.12891 0.750977 5.48665 0.54362 5.86035 0.402344C6.23861 0.25651 6.62142 0.183594 7.00879 0.183594C7.24577 0.183594 7.4873 0.222331 7.7334 0.299805C7.97949 0.377279 8.20052 0.495768 8.39648 0.655273C8.59701 0.814779 8.75879 1.0153 8.88184 1.25684C9.00944 1.49382 9.07324 1.77637 9.07324 2.10449C9.07324 2.4873 8.99577 2.861 8.84082 3.22559C8.68587 3.59017 8.4694 3.9388 8.19141 4.27148C7.91797 4.60417 7.59212 4.91862 7.21387 5.21484C6.83561 5.50651 6.42546 5.77539 5.9834 6.02148C5.66895 6.19922 5.35449 6.34961 5.04004 6.47266C4.73014 6.59115 4.4248 6.68913 4.12402 6.7666C3.82324 6.84408 3.53158 6.9056 3.24902 6.95117C2.96647 6.99674 2.69531 7.02865 2.43555 7.04688L1.19824 10H0.316406ZM2.69531 6.41113C3.06901 6.39746 3.41081 6.3724 3.7207 6.33594C4.03516 6.29492 4.32227 6.24707 4.58203 6.19238C4.84635 6.13314 5.09017 6.0625 5.31348 5.98047C5.53678 5.89844 5.74642 5.80501 5.94238 5.7002C6.30241 5.50879 6.62142 5.26725 6.89941 4.97559C7.17741 4.67936 7.40983 4.36263 7.59668 4.02539C7.78353 3.68815 7.9248 3.34408 8.02051 2.99316C8.11621 2.64225 8.16406 2.31185 8.16406 2.00195C8.16406 1.71029 8.12533 1.46419 8.04785 1.26367C7.97493 1.06315 7.87695 0.901367 7.75391 0.77832C7.63542 0.655273 7.4987 0.568685 7.34375 0.518555C7.1888 0.463867 7.03158 0.436523 6.87207 0.436523C6.69434 0.436523 6.48698 0.484375 6.25 0.580078C6.01302 0.675781 5.76465 0.837565 5.50488 1.06543C5.24512 1.28874 4.98307 1.58724 4.71875 1.96094C4.45443 2.33464 4.20605 2.80176 3.97363 3.3623L2.69531 6.41113ZM9.36719 8.83789C9.34896 8.88346 9.33301 8.92904 9.31934 8.97461C9.30566 9.01562 9.29883 9.05208 9.29883 9.08398C9.29883 9.13867 9.31022 9.17513 9.33301 9.19336C9.36035 9.21159 9.39453 9.2207 9.43555 9.2207C9.49935 9.2207 9.57682 9.1888 9.66797 9.125C9.75911 9.0612 9.85482 8.96777 9.95508 8.84473L11.2061 7.2998L11.377 7.43652L9.86621 9.30273C9.75684 9.43945 9.6543 9.55339 9.55859 9.64453C9.46745 9.73568 9.38086 9.80859 9.29883 9.86328C9.2168 9.91341 9.13477 9.94987 9.05273 9.97266C8.9707 9.99544 8.88639 10.0068 8.7998 10.0068C8.66309 10.0068 8.55143 9.9681 8.46484 9.89062C8.38281 9.80859 8.3418 9.70605 8.3418 9.58301C8.3418 9.46908 8.36914 9.33464 8.42383 9.17969C8.47852 9.02474 8.55371 8.83561 8.64941 8.6123L9.60645 6.3291C9.62923 6.27441 9.65202 6.21745 9.6748 6.1582C9.69759 6.09896 9.7181 6.04199 9.73633 5.9873C9.75456 5.93262 9.76823 5.88477 9.77734 5.84375C9.79102 5.79818 9.79785 5.764 9.79785 5.74121C9.79785 5.71842 9.78874 5.70247 9.77051 5.69336C9.75684 5.67969 9.73861 5.67285 9.71582 5.67285C9.65658 5.67285 9.59277 5.67057 9.52441 5.66602C9.45605 5.66146 9.3877 5.65007 9.31934 5.63184C9.24186 5.74121 9.15299 5.86426 9.05273 6.00098C8.95247 6.1377 8.83626 6.29264 8.7041 6.46582C8.5765 6.63444 8.43294 6.82357 8.27344 7.0332C8.10938 7.24284 7.92708 7.47526 7.72656 7.73047L7.55566 7.59375C7.90202 7.15169 8.20052 6.76888 8.45117 6.44531C8.70182 6.11719 8.91829 5.82324 9.10059 5.56348C8.99577 5.5179 8.9069 5.45638 8.83398 5.37891C8.76562 5.29688 8.73145 5.18978 8.73145 5.05762C8.73145 5.00749 8.74512 4.93685 8.77246 4.8457C8.80436 4.75456 8.84766 4.66569 8.90234 4.5791C8.96159 4.49251 9.03451 4.41732 9.12109 4.35352C9.20768 4.28971 9.30794 4.25781 9.42188 4.25781C9.51302 4.25781 9.59733 4.28516 9.6748 4.33984C9.75684 4.38997 9.79785 4.46973 9.79785 4.5791C9.79785 4.65658 9.77051 4.75684 9.71582 4.87988C9.66113 5.00293 9.56087 5.15104 9.41504 5.32422C9.4834 5.35612 9.54948 5.37435 9.61328 5.37891C9.67708 5.38346 9.74316 5.38574 9.81152 5.38574C9.89811 5.38574 9.97559 5.38346 10.0439 5.37891C10.1169 5.36979 10.1852 5.36523 10.249 5.36523C10.3766 5.36523 10.4655 5.39714 10.5156 5.46094C10.5658 5.52474 10.5908 5.59766 10.5908 5.67969C10.5908 5.76628 10.5703 5.87109 10.5293 5.99414C10.4928 6.11719 10.4564 6.22428 10.4199 6.31543L9.36719 8.83789ZM15.8887 7.52539C15.7428 7.71224 15.6061 7.86947 15.4785 7.99707C15.3509 8.12467 15.2256 8.22949 15.1025 8.31152C14.9795 8.39355 14.8587 8.45508 14.7402 8.49609C14.6263 8.53711 14.5101 8.56445 14.3916 8.57812C14.2549 8.77865 14.1022 8.96777 13.9336 9.14551C13.7695 9.31868 13.5941 9.47135 13.4072 9.60352C13.2249 9.73112 13.0312 9.83366 12.8262 9.91113C12.6211 9.98405 12.4137 10.0205 12.2041 10.0205C12.0355 10.0205 11.8714 9.99316 11.7119 9.93848C11.5524 9.87923 11.4111 9.79264 11.2881 9.67871C11.1605 9.56022 11.0602 9.41439 10.9873 9.24121C10.9098 9.06348 10.8711 8.85612 10.8711 8.61914C10.8711 8.25 10.9372 7.88542 11.0693 7.52539C11.2015 7.16081 11.3861 6.82129 11.623 6.50684C11.86 6.19238 12.1449 5.90983 12.4775 5.65918C12.8102 5.40853 13.1771 5.20801 13.5781 5.05762L13.6396 5.15332C13.2887 5.45866 12.9857 5.78451 12.7305 6.13086C12.4798 6.47721 12.2725 6.82585 12.1084 7.17676C11.9443 7.52311 11.8236 7.86035 11.7461 8.18848C11.6641 8.5166 11.623 8.8151 11.623 9.08398C11.623 9.17057 11.6322 9.25488 11.6504 9.33691C11.6686 9.41439 11.6982 9.48503 11.7393 9.54883C11.7757 9.60807 11.8213 9.65592 11.876 9.69238C11.9307 9.72884 11.9967 9.74707 12.0742 9.74707C12.1745 9.74707 12.2839 9.71289 12.4023 9.64453C12.5254 9.57617 12.6507 9.48503 12.7783 9.37109C12.9059 9.2526 13.0335 9.11361 13.1611 8.9541C13.2933 8.7946 13.4209 8.6237 13.5439 8.44141C13.3252 8.32292 13.168 8.1543 13.0723 7.93555C12.9766 7.71224 12.9287 7.4707 12.9287 7.21094C12.9287 6.9694 12.972 6.7347 13.0586 6.50684C13.1452 6.27441 13.2568 6.06934 13.3936 5.8916C13.5303 5.71387 13.6807 5.57259 13.8447 5.46777C14.0088 5.3584 14.1683 5.30371 14.3232 5.30371C14.4053 5.30371 14.4941 5.32194 14.5898 5.3584C14.6855 5.39486 14.7744 5.45638 14.8564 5.54297C14.9385 5.62956 15.0068 5.74577 15.0615 5.8916C15.1162 6.03743 15.1436 6.21973 15.1436 6.43848C15.1436 6.73014 15.0911 7.04004 14.9863 7.36816C14.8815 7.69173 14.738 8.01074 14.5557 8.3252C14.6377 8.30697 14.7197 8.27734 14.8018 8.23633C14.8883 8.19531 14.9772 8.13835 15.0684 8.06543C15.1641 7.99251 15.2643 7.90137 15.3691 7.79199C15.4785 7.67806 15.597 7.54134 15.7246 7.38184L15.8887 7.52539ZM13.1816 7.19043C13.1816 7.43652 13.2204 7.65072 13.2979 7.83301C13.3799 8.0153 13.5052 8.15202 13.6738 8.24316C13.7969 8.0472 13.9108 7.8444 14.0156 7.63477C14.1204 7.42513 14.2116 7.22005 14.2891 7.01953C14.3665 6.81445 14.4281 6.62077 14.4736 6.43848C14.5192 6.25163 14.542 6.08529 14.542 5.93945C14.542 5.86654 14.5306 5.80729 14.5078 5.76172C14.485 5.71615 14.4554 5.68197 14.4189 5.65918C14.387 5.63184 14.3506 5.61361 14.3096 5.60449C14.2731 5.59538 14.2412 5.59082 14.2139 5.59082C14.1273 5.59082 14.0247 5.63639 13.9062 5.72754C13.7878 5.81413 13.6738 5.93262 13.5645 6.08301C13.4596 6.22884 13.3685 6.39974 13.291 6.5957C13.2181 6.78711 13.1816 6.98535 13.1816 7.19043Z" fill="#9D9FA2"/>
</svg>
