<svg width="101" height="42" viewBox="0 0 101 42" fill="none" xmlns="http://www.w3.org/2000/svg">
<path d="M50.9922 29.2734L54.3438 19.625H55.9766L51.7656 31H50.6016L50.9922 29.2734ZM47.8594 19.625L51.1797 29.2734L51.5938 31H50.4297L46.2266 19.625H47.8594ZM60.4531 31.1562C59.8646 31.1562 59.3307 31.0573 58.8516 30.8594C58.3776 30.6562 57.9688 30.3724 57.625 30.0078C57.2865 29.6432 57.026 29.2109 56.8438 28.7109C56.6615 28.2109 56.5703 27.6641 56.5703 27.0703V26.7422C56.5703 26.0547 56.6719 25.4427 56.875 24.9062C57.0781 24.3646 57.3542 23.9062 57.7031 23.5312C58.0521 23.1562 58.4479 22.8724 58.8906 22.6797C59.3333 22.487 59.7917 22.3906 60.2656 22.3906C60.8698 22.3906 61.3906 22.4948 61.8281 22.7031C62.2708 22.9115 62.6328 23.2031 62.9141 23.5781C63.1953 23.9479 63.4036 24.3854 63.5391 24.8906C63.6745 25.3906 63.7422 25.9375 63.7422 26.5312V27.1797H57.4297V26H62.2969V25.8906C62.276 25.5156 62.1979 25.151 62.0625 24.7969C61.9323 24.4427 61.724 24.151 61.4375 23.9219C61.151 23.6927 60.7604 23.5781 60.2656 23.5781C59.9375 23.5781 59.6354 23.6484 59.3594 23.7891C59.0833 23.9245 58.8464 24.1276 58.6484 24.3984C58.4505 24.6693 58.2969 25 58.1875 25.3906C58.0781 25.7812 58.0234 26.2318 58.0234 26.7422V27.0703C58.0234 27.4714 58.0781 27.849 58.1875 28.2031C58.3021 28.5521 58.4661 28.8594 58.6797 29.125C58.8984 29.3906 59.1615 29.599 59.4688 29.75C59.7812 29.901 60.1354 29.9766 60.5312 29.9766C61.0417 29.9766 61.474 29.8724 61.8281 29.6641C62.1823 29.4557 62.4922 29.1771 62.7578 28.8281L63.6328 29.5234C63.4505 29.7995 63.2188 30.0625 62.9375 30.3125C62.6562 30.5625 62.3099 30.7656 61.8984 30.9219C61.4922 31.0781 61.0104 31.1562 60.4531 31.1562ZM66.875 23.875V31H65.4297V22.5469H66.8359L66.875 23.875ZM69.5156 22.5L69.5078 23.8438C69.388 23.8177 69.2734 23.8021 69.1641 23.7969C69.0599 23.7865 68.9401 23.7812 68.8047 23.7812C68.4714 23.7812 68.1771 23.8333 67.9219 23.9375C67.6667 24.0417 67.4505 24.1875 67.2734 24.375C67.0964 24.5625 66.9557 24.7865 66.8516 25.0469C66.7526 25.3021 66.6875 25.5833 66.6562 25.8906L66.25 26.125C66.25 25.6146 66.2995 25.1354 66.3984 24.6875C66.5026 24.2396 66.6615 23.8438 66.875 23.5C67.0885 23.151 67.3594 22.8802 67.6875 22.6875C68.0208 22.4896 68.4167 22.3906 68.875 22.3906C68.9792 22.3906 69.099 22.4036 69.2344 22.4297C69.3698 22.4505 69.4635 22.474 69.5156 22.5ZM72.4219 22.5469V31H70.9688V22.5469H72.4219ZM70.8594 20.3047C70.8594 20.0703 70.9297 19.8724 71.0703 19.7109C71.2161 19.5495 71.4297 19.4688 71.7109 19.4688C71.987 19.4688 72.1979 19.5495 72.3438 19.7109C72.4948 19.8724 72.5703 20.0703 72.5703 20.3047C72.5703 20.5286 72.4948 20.7214 72.3438 20.8828C72.1979 21.0391 71.987 21.1172 71.7109 21.1172C71.4297 21.1172 71.2161 21.0391 71.0703 20.8828C70.9297 20.7214 70.8594 20.5286 70.8594 20.3047ZM76.6719 31H75.2266V21.8125C75.2266 21.1719 75.3516 20.6302 75.6016 20.1875C75.8516 19.7448 76.2083 19.4089 76.6719 19.1797C77.1354 18.9505 77.6849 18.8359 78.3203 18.8359C78.6953 18.8359 79.0625 18.8828 79.4219 18.9766C79.7812 19.0651 80.151 19.1771 80.5312 19.3125L80.2891 20.5312C80.0495 20.4375 79.7708 20.349 79.4531 20.2656C79.1406 20.1771 78.7969 20.1328 78.4219 20.1328C77.8021 20.1328 77.3542 20.2734 77.0781 20.5547C76.8073 20.8307 76.6719 21.25 76.6719 21.8125V31ZM78.3984 22.5469V23.6562H73.8906V22.5469H78.3984ZM81.2422 22.5469V31H79.7969V22.5469H81.2422ZM87.125 31.1562C86.5365 31.1562 86.0026 31.0573 85.5234 30.8594C85.0495 30.6562 84.6406 30.3724 84.2969 30.0078C83.9583 29.6432 83.6979 29.2109 83.5156 28.7109C83.3333 28.2109 83.2422 27.6641 83.2422 27.0703V26.7422C83.2422 26.0547 83.3438 25.4427 83.5469 24.9062C83.75 24.3646 84.026 23.9062 84.375 23.5312C84.724 23.1562 85.1198 22.8724 85.5625 22.6797C86.0052 22.487 86.4635 22.3906 86.9375 22.3906C87.5417 22.3906 88.0625 22.4948 88.5 22.7031C88.9427 22.9115 89.3047 23.2031 89.5859 23.5781C89.8672 23.9479 90.0755 24.3854 90.2109 24.8906C90.3464 25.3906 90.4141 25.9375 90.4141 26.5312V27.1797H84.1016V26H88.9688V25.8906C88.9479 25.5156 88.8698 25.151 88.7344 24.7969C88.6042 24.4427 88.3958 24.151 88.1094 23.9219C87.8229 23.6927 87.4323 23.5781 86.9375 23.5781C86.6094 23.5781 86.3073 23.6484 86.0312 23.7891C85.7552 23.9245 85.5182 24.1276 85.3203 24.3984C85.1224 24.6693 84.9688 25 84.8594 25.3906C84.75 25.7812 84.6953 26.2318 84.6953 26.7422V27.0703C84.6953 27.4714 84.75 27.849 84.8594 28.2031C84.974 28.5521 85.138 28.8594 85.3516 29.125C85.5703 29.3906 85.8333 29.599 86.1406 29.75C86.4531 29.901 86.8073 29.9766 87.2031 29.9766C87.7135 29.9766 88.1458 29.8724 88.5 29.6641C88.8542 29.4557 89.1641 29.1771 89.4297 28.8281L90.3047 29.5234C90.1224 29.7995 89.8906 30.0625 89.6094 30.3125C89.3281 30.5625 88.9818 30.7656 88.5703 30.9219C88.1641 31.0781 87.6823 31.1562 87.125 31.1562ZM97.4297 29.3594V19H98.8828V31H97.5547L97.4297 29.3594ZM91.7422 26.8672V26.7031C91.7422 26.0573 91.8203 25.4714 91.9766 24.9453C92.138 24.4141 92.3646 23.9583 92.6562 23.5781C92.9531 23.1979 93.3047 22.9062 93.7109 22.7031C94.1224 22.4948 94.5807 22.3906 95.0859 22.3906C95.6172 22.3906 96.0807 22.4844 96.4766 22.6719C96.8776 22.8542 97.2161 23.1224 97.4922 23.4766C97.7734 23.8255 97.9948 24.2474 98.1562 24.7422C98.3177 25.237 98.4297 25.7969 98.4922 26.4219V27.1406C98.4349 27.7604 98.3229 28.3177 98.1562 28.8125C97.9948 29.3073 97.7734 29.7292 97.4922 30.0781C97.2161 30.4271 96.8776 30.6953 96.4766 30.8828C96.0755 31.0651 95.6068 31.1562 95.0703 31.1562C94.5755 31.1562 94.1224 31.0495 93.7109 30.8359C93.3047 30.6224 92.9531 30.3229 92.6562 29.9375C92.3646 29.5521 92.138 29.099 91.9766 28.5781C91.8203 28.0521 91.7422 27.4818 91.7422 26.8672ZM93.1953 26.7031V26.8672C93.1953 27.2891 93.237 27.6849 93.3203 28.0547C93.4089 28.4245 93.5443 28.75 93.7266 29.0312C93.9089 29.3125 94.1406 29.5339 94.4219 29.6953C94.7031 29.8516 95.0391 29.9297 95.4297 29.9297C95.9089 29.9297 96.3021 29.8281 96.6094 29.625C96.9219 29.4219 97.1719 29.1536 97.3594 28.8203C97.5469 28.487 97.6927 28.125 97.7969 27.7344V25.8516C97.7344 25.5651 97.6432 25.2891 97.5234 25.0234C97.4089 24.7526 97.2578 24.513 97.0703 24.3047C96.888 24.0911 96.6615 23.9219 96.3906 23.7969C96.125 23.6719 95.8099 23.6094 95.4453 23.6094C95.0495 23.6094 94.7083 23.6927 94.4219 23.8594C94.1406 24.0208 93.9089 24.2448 93.7266 24.5312C93.5443 24.8125 93.4089 25.1406 93.3203 25.5156C93.237 25.8854 93.1953 26.2812 93.1953 26.7031Z" fill="#202124"/>
<path d="M19.752 16.696C19.752 18.056 19.4 19.304 18.696 20.44C17.992 21.576 16.968 22.504 15.624 23.224C14.28 23.944 12.68 24.368 10.824 24.496L9.792 30.28C9.392 32.504 8.304 33.616 6.528 33.616C5.552 33.616 4.648 33.328 3.816 32.752C3 32.176 2.344 31.296 1.848 30.112C1.352 28.928 1.104 27.472 1.104 25.744C1.104 22.496 1.624 19.744 2.664 17.488C3.72 15.216 5.128 13.52 6.888 12.4C8.664 11.264 10.616 10.696 12.744 10.696C14.248 10.696 15.52 10.96 16.56 11.488C17.616 12.016 18.408 12.736 18.936 13.648C19.48 14.544 19.752 15.56 19.752 16.696ZM11.256 22.024C14.536 21.608 16.176 19.904 16.176 16.912C16.176 15.856 15.824 15 15.12 14.344C14.432 13.672 13.36 13.336 11.904 13.336C10.256 13.336 8.816 13.856 7.584 14.896C6.368 15.936 5.424 17.384 4.752 19.24C4.096 21.08 3.768 23.184 3.768 25.552C3.768 26.544 3.864 27.424 4.056 28.192C4.264 28.96 4.52 29.56 4.824 29.992C5.144 30.408 5.448 30.616 5.736 30.616C6.136 30.616 6.44 30.064 6.648 28.96L7.44 24.424C6.816 24.328 6.544 24.288 6.624 24.304C6.144 24.224 5.832 24.08 5.688 23.872C5.544 23.648 5.472 23.368 5.472 23.032C5.472 22.68 5.568 22.4 5.76 22.192C5.968 21.984 6.248 21.88 6.6 21.88C6.76 21.88 6.88 21.888 6.96 21.904C7.344 21.968 7.64 22.008 7.848 22.024C8.056 20.776 8.352 19.104 8.736 17.008C8.832 16.464 9.048 16.08 9.384 15.856C9.736 15.616 10.144 15.496 10.608 15.496C11.136 15.496 11.512 15.6 11.736 15.808C11.976 16 12.096 16.312 12.096 16.744C12.096 17 12.08 17.208 12.048 17.368L11.256 22.024ZM20.7388 31.12C20.1308 31.12 19.6988 30.8 19.4428 30.16C19.2028 29.52 19.0828 28.496 19.0828 27.088C19.0828 25.008 19.3788 23.032 19.9708 21.16C20.1148 20.696 20.3468 20.36 20.6668 20.152C21.0028 19.928 21.4668 19.816 22.0588 19.816C22.3788 19.816 22.6028 19.856 22.7308 19.936C22.8588 20.016 22.9228 20.168 22.9228 20.392C22.9228 20.648 22.8028 21.224 22.5628 22.12C22.4028 22.76 22.2748 23.32 22.1788 23.8C22.0828 24.28 22.0028 24.872 21.9388 25.576C22.4668 24.2 23.0588 23.08 23.7148 22.216C24.3708 21.352 25.0108 20.736 25.6348 20.368C26.2748 20 26.8588 19.816 27.3868 19.816C28.4268 19.816 28.9468 20.336 28.9468 21.376C28.9468 21.584 28.8748 22.088 28.7308 22.888C28.6028 23.528 28.5388 23.928 28.5388 24.088C28.5388 24.648 28.7388 24.928 29.1388 24.928C29.5868 24.928 30.1628 24.576 30.8668 23.872C31.0748 23.664 31.2908 23.56 31.5148 23.56C31.7228 23.56 31.8828 23.656 31.9948 23.848C32.1228 24.024 32.1868 24.264 32.1868 24.568C32.1868 25.16 32.0268 25.624 31.7068 25.96C31.2588 26.424 30.7308 26.824 30.1228 27.16C29.5308 27.48 28.8988 27.64 28.2268 27.64C27.3788 27.64 26.7308 27.424 26.2828 26.992C25.8508 26.56 25.6348 25.976 25.6348 25.24C25.6348 25 25.6588 24.76 25.7068 24.52C25.7388 24.2 25.7548 23.984 25.7548 23.872C25.7548 23.616 25.6668 23.488 25.4908 23.488C25.2508 23.488 24.9308 23.76 24.5308 24.304C24.1468 24.832 23.7628 25.536 23.3788 26.416C22.9948 27.296 22.6828 28.224 22.4428 29.2C22.2668 29.952 22.0588 30.464 21.8188 30.736C21.5948 30.992 21.2348 31.12 20.7388 31.12ZM34.0127 31.12C33.0687 31.12 32.2607 30.888 31.5887 30.424C30.9327 29.944 30.4367 29.32 30.1007 28.552C29.7647 27.784 29.5967 26.96 29.5967 26.08C29.5967 24.864 29.8207 23.784 30.2687 22.84C30.7327 21.88 31.3567 21.136 32.1407 20.608C32.9247 20.064 33.8047 19.792 34.7807 19.792C35.7247 19.792 36.5327 20.032 37.2047 20.512C37.8767 20.976 38.3807 21.592 38.7167 22.36C39.0527 23.128 39.2207 23.952 39.2207 24.832C39.2207 26.048 38.9887 27.136 38.5247 28.096C38.0607 29.04 37.4287 29.784 36.6287 30.328C35.8447 30.856 34.9727 31.12 34.0127 31.12ZM34.2767 28.528C34.8207 28.528 35.2767 28.232 35.6447 27.64C36.0287 27.048 36.2207 26.184 36.2207 25.048C36.2207 24.168 36.0607 23.504 35.7407 23.056C35.4207 22.608 35.0367 22.384 34.5887 22.384C34.0127 22.384 33.5327 22.68 33.1487 23.272C32.7807 23.848 32.5967 24.712 32.5967 25.864C32.5967 26.776 32.7567 27.448 33.0767 27.88C33.3967 28.312 33.7967 28.528 34.2767 28.528Z" fill="#202124"/>
</svg>
