<svg width="36" height="36" viewBox="0 0 36 36" fill="none" xmlns="http://www.w3.org/2000/svg">
<path d="M13.7394 17.43C13.6944 17.43 13.6644 17.43 13.6194 17.43C13.5444 17.415 13.4394 17.415 13.3494 17.43C8.99942 17.295 5.71442 13.875 5.71442 9.66C5.71442 5.37 9.20942 1.875 13.4994 1.875C17.7894 1.875 21.2844 5.37 21.2844 9.66C21.2694 13.875 17.9694 17.295 13.7844 17.43C13.7694 17.43 13.7544 17.43 13.7394 17.43ZM13.4994 4.125C10.4544 4.125 7.96442 6.615 7.96442 9.66C7.96442 12.66 10.3044 15.075 13.2894 15.18C13.3794 15.165 13.5744 15.165 13.7694 15.18C16.7094 15.045 19.0194 12.63 19.0344 9.66C19.0344 6.615 16.5444 4.125 13.4994 4.125Z" fill="#E71575"/>
<path d="M24.8094 17.625C24.7644 17.625 24.7194 17.625 24.6744 17.61C24.0594 17.67 23.4294 17.235 23.3694 16.62C23.3094 16.005 23.6844 15.45 24.2994 15.375C24.4794 15.36 24.6744 15.36 24.8394 15.36C27.0294 15.24 28.7394 13.44 28.7394 11.235C28.7394 8.955 26.8944 7.11 24.6144 7.11C23.9994 7.125 23.4894 6.615 23.4894 6C23.4894 5.385 23.9994 4.875 24.6144 4.875C28.1244 4.875 30.9894 7.74 30.9894 11.25C30.9894 14.7 28.2894 17.49 24.8544 17.625C24.8394 17.625 24.8244 17.625 24.8094 17.625Z" fill="#E71575"/>
<path d="M13.7544 33.825C10.8144 33.825 7.85941 33.075 5.62441 31.575C3.53941 30.195 2.39941 28.305 2.39941 26.25C2.39941 24.195 3.53941 22.29 5.62441 20.895C10.1244 17.91 17.4144 17.91 21.8844 20.895C23.9544 22.275 25.1094 24.165 25.1094 26.22C25.1094 28.275 23.9694 30.18 21.8844 31.575C19.6344 33.075 16.6944 33.825 13.7544 33.825ZM6.86941 22.785C5.42941 23.745 4.64941 24.975 4.64941 26.265C4.64941 27.54 5.44441 28.77 6.86941 29.715C10.6044 32.22 16.9044 32.22 20.6394 29.715C22.0794 28.755 22.8594 27.525 22.8594 26.235C22.8594 24.96 22.0644 23.73 20.6394 22.785C16.9044 20.295 10.6044 20.295 6.86941 22.785Z" fill="#E71575"/>
<path d="M27.5094 31.125C26.9844 31.125 26.5194 30.765 26.4144 30.225C26.2944 29.61 26.6844 29.025 27.2844 28.89C28.2294 28.695 29.0994 28.32 29.7744 27.795C30.6294 27.15 31.0944 26.34 31.0944 25.485C31.0944 24.63 30.6294 23.82 29.7894 23.19C29.1294 22.68 28.3044 22.32 27.3294 22.095C26.7294 21.96 26.3394 21.36 26.4744 20.745C26.6094 20.145 27.2094 19.755 27.8244 19.89C29.1144 20.175 30.2394 20.685 31.1544 21.39C32.5494 22.44 33.3444 23.925 33.3444 25.485C33.3444 27.045 32.5344 28.53 31.1394 29.595C30.2094 30.315 29.0394 30.84 27.7494 31.095C27.6594 31.125 27.5844 31.125 27.5094 31.125Z" fill="#E71575"/>
</svg>
