<svg width="19" height="20" viewBox="0 0 19 20" fill="none" xmlns="http://www.w3.org/2000/svg">
<path d="M9.16462 0.833984C4.09659 0.833984 0 4.93148 0 10.0007C0 15.0698 4.09659 19.1673 9.16462 19.1673C14.2327 19.1673 18.3292 15.0698 18.3292 10.0007C18.3292 4.93148 14.2327 0.833984 9.16462 0.833984ZM13.1054 13.9423C13.0206 14.0273 12.9199 14.0947 12.809 14.1407C12.6982 14.1867 12.5793 14.2104 12.4593 14.2104C12.3393 14.2104 12.2204 14.1867 12.1096 14.1407C11.9987 14.0947 11.898 14.0273 11.8132 13.9423L9.16462 11.2932L6.51605 13.9423C6.34469 14.1137 6.11228 14.21 5.86994 14.21C5.6276 14.21 5.39519 14.1137 5.22383 13.9423C5.05248 13.7709 4.95621 13.5385 4.95621 13.2961C4.95621 13.176 4.97984 13.0572 5.02576 12.9463C5.07168 12.8354 5.13899 12.7347 5.22383 12.6498L7.87241 10.0007L5.22383 7.35148C5.05248 7.18009 4.95621 6.94762 4.95621 6.70523C4.95621 6.46284 5.05248 6.23038 5.22383 6.05898C5.39519 5.88759 5.6276 5.7913 5.86994 5.7913C6.11228 5.7913 6.34469 5.88759 6.51605 6.05898L9.16462 8.70815L11.8132 6.05898C11.898 5.97412 11.9988 5.9068 12.1096 5.86087C12.2205 5.81494 12.3393 5.7913 12.4593 5.7913C12.5793 5.7913 12.6981 5.81494 12.809 5.86087C12.9198 5.9068 13.0206 5.97412 13.1054 6.05898C13.1903 6.14385 13.2576 6.2446 13.3035 6.35549C13.3494 6.46637 13.373 6.58521 13.373 6.70523C13.373 6.82525 13.3494 6.9441 13.3035 7.05498C13.2576 7.16587 13.1903 7.26662 13.1054 7.35148L10.4568 10.0007L13.1054 12.6498C13.4537 12.9982 13.4537 13.5848 13.1054 13.9423Z" fill="#E61D51"/>
</svg>
