<svg width="32" height="30" viewBox="0 0 32 30" fill="none" xmlns="http://www.w3.org/2000/svg">
<path d="M22.2919 25.3367L21.4386 18.5047C21.3177 17.537 20.8474 16.6468 20.1162 16.0016C19.385 15.3563 18.4432 15.0004 17.4679 15.0007H14.5293C13.5545 15.001 12.6134 15.3572 11.8827 16.0024C11.1521 16.6477 10.6822 17.5375 10.5613 18.5047L9.70662 25.3367C9.65971 25.7121 9.6932 26.0931 9.80485 26.4545C9.91651 26.8159 10.1038 27.1495 10.3542 27.433C10.6047 27.7164 10.9126 27.9434 11.2575 28.0988C11.6023 28.2541 11.9763 28.3343 12.3546 28.3341H19.6453C20.0234 28.3341 20.3973 28.2538 20.742 28.0984C21.0868 27.9429 21.3945 27.7159 21.6448 27.4325C21.8951 27.149 22.0822 26.8155 22.1938 26.4542C22.3054 26.0929 22.3388 25.712 22.2919 25.3367V25.3367Z" stroke="#EF5DA8" stroke-width="2.66667" stroke-linecap="round" stroke-linejoin="round"/>
<path d="M16 9.66736C18.2091 9.66736 20 7.8765 20 5.66736C20 3.45822 18.2091 1.66736 16 1.66736C13.7909 1.66736 12 3.45822 12 5.66736C12 7.8765 13.7909 9.66736 16 9.66736Z" stroke="#EF5DA8" stroke-width="2.66667"/>
<path d="M5.33329 13.6673C6.80605 13.6673 7.99996 12.4734 7.99996 11.0007C7.99996 9.52789 6.80605 8.33398 5.33329 8.33398C3.86053 8.33398 2.66663 9.52789 2.66663 11.0007C2.66663 12.4734 3.86053 13.6673 5.33329 13.6673Z" stroke="#EF5DA8" stroke-width="2.66667"/>
<path d="M26.6667 13.6673C28.1394 13.6673 29.3333 12.4734 29.3333 11.0007C29.3333 9.52789 28.1394 8.33398 26.6667 8.33398C25.1939 8.33398 24 9.52789 24 11.0007C24 12.4734 25.1939 13.6673 26.6667 13.6673Z" stroke="#EF5DA8" stroke-width="2.66667"/>
<path d="M5.33326 17.6674H4.92526C4.29401 17.6673 3.6832 17.8911 3.2015 18.2991C2.7198 18.7071 2.39844 19.2727 2.2946 19.8954L1.8506 22.562C1.78688 22.9441 1.80716 23.3354 1.91002 23.7089C2.01289 24.0823 2.19587 24.4288 2.44623 24.7244C2.6966 25.0199 3.00835 25.2574 3.35979 25.4202C3.71123 25.5831 4.09393 25.6674 4.48126 25.6674H9.33326M26.6666 17.6674H27.0746C27.7058 17.6673 28.3167 17.8911 28.7984 18.2991C29.2801 18.7071 29.6014 19.2727 29.7053 19.8954L30.1493 22.562C30.213 22.9441 30.1927 23.3354 30.0898 23.7089C29.987 24.0823 29.804 24.4288 29.5536 24.7244C29.3033 25.0199 28.9915 25.2574 28.6401 25.4202C28.2886 25.5831 27.9059 25.6674 27.5186 25.6674H22.6666" stroke="#EF5DA8" stroke-width="2.66667" stroke-linecap="round" stroke-linejoin="round"/>
</svg>
