<svg width="32" height="32" viewBox="0 0 32 32" fill="none" xmlns="http://www.w3.org/2000/svg">
<path d="M24 5.33329H22.6667V3.99996C22.6667 3.64634 22.5262 3.3072 22.2761 3.05715C22.0261 2.8071 21.687 2.66663 21.3333 2.66663C20.9797 2.66663 20.6406 2.8071 20.3905 3.05715C20.1405 3.3072 20 3.64634 20 3.99996V5.33329H12V3.99996C12 3.64634 11.8595 3.3072 11.6095 3.05715C11.3594 2.8071 11.0203 2.66663 10.6667 2.66663C10.313 2.66663 9.97391 2.8071 9.72386 3.05715C9.47381 3.3072 9.33333 3.64634 9.33333 3.99996V5.33329H8C6.93913 5.33329 5.92172 5.75472 5.17157 6.50487C4.42143 7.25501 4 8.27243 4 9.33329V25.3333C4 26.3942 4.42143 27.4116 5.17157 28.1617C5.92172 28.9119 6.93913 29.3333 8 29.3333H24C25.0609 29.3333 26.0783 28.9119 26.8284 28.1617C27.5786 27.4116 28 26.3942 28 25.3333V9.33329C28 8.27243 27.5786 7.25501 26.8284 6.50487C26.0783 5.75472 25.0609 5.33329 24 5.33329V5.33329ZM8 7.99996H9.33333V9.33329C9.33333 9.68691 9.47381 10.0261 9.72386 10.2761C9.97391 10.5261 10.313 10.6666 10.6667 10.6666C11.0203 10.6666 11.3594 10.5261 11.6095 10.2761C11.8595 10.0261 12 9.68691 12 9.33329V7.99996H20V9.33329C20 9.68691 20.1405 10.0261 20.3905 10.2761C20.6406 10.5261 20.9797 10.6666 21.3333 10.6666C21.687 10.6666 22.0261 10.5261 22.2761 10.2761C22.5262 10.0261 22.6667 9.68691 22.6667 9.33329V7.99996H24C24.3536 7.99996 24.6928 8.14044 24.9428 8.39048C25.1929 8.64053 25.3333 8.97967 25.3333 9.33329V14.6666H6.66667V9.33329C6.66667 8.97967 6.80714 8.64053 7.05719 8.39048C7.30724 8.14044 7.64638 7.99996 8 7.99996V7.99996ZM24 26.6666H8C7.64638 26.6666 7.30724 26.5261 7.05719 26.2761C6.80714 26.0261 6.66667 25.6869 6.66667 25.3333V17.3333H25.3333V25.3333C25.3333 25.6869 25.1929 26.0261 24.9428 26.2761C24.6928 26.5261 24.3536 26.6666 24 26.6666Z" fill="#EF5DA8"/>
<path d="M10.6667 22.6667C11.4031 22.6667 12 22.0697 12 21.3333C12 20.597 11.4031 20 10.6667 20C9.93033 20 9.33337 20.597 9.33337 21.3333C9.33337 22.0697 9.93033 22.6667 10.6667 22.6667Z" fill="#EF5DA8"/>
<path d="M21.3333 20H16C15.6463 20 15.3072 20.1405 15.0572 20.3905C14.8071 20.6406 14.6666 20.9797 14.6666 21.3333C14.6666 21.687 14.8071 22.0261 15.0572 22.2761C15.3072 22.5262 15.6463 22.6667 16 22.6667H21.3333C21.6869 22.6667 22.0261 22.5262 22.2761 22.2761C22.5262 22.0261 22.6666 21.687 22.6666 21.3333C22.6666 20.9797 22.5262 20.6406 22.2761 20.3905C22.0261 20.1405 21.6869 20 21.3333 20Z" fill="#EF5DA8"/>
</svg>
