<svg width="28" height="28" viewBox="0 0 28 28" fill="none" xmlns="http://www.w3.org/2000/svg">
<path d="M5.56135 3.6762C10.7987 -0.615801 18.5387 -0.317134 23.428 4.5722C28.6347 9.77887 28.6347 18.2215 23.428 23.4282C18.2213 28.6349 9.77868 28.6349 4.57202 23.4282C2.97419 21.8325 1.80812 19.857 1.1833 17.687C0.558477 15.5171 0.49541 13.2239 1.00002 11.0229L1.10269 10.6055L3.68135 11.2855C3.04208 13.7152 3.28094 16.2926 4.35586 18.5634C5.43077 20.8342 7.27273 22.6527 9.55713 23.6984C11.8415 24.7442 14.4217 24.95 16.843 24.2796C19.2643 23.6093 21.3713 22.1058 22.7926 20.0341C24.2139 17.9624 24.8583 15.4555 24.6123 12.9552C24.3663 10.4549 23.2457 8.12169 21.4478 6.36674C19.65 4.61179 17.2904 3.54775 14.7849 3.36215C12.2794 3.17655 9.7888 3.8813 7.75202 5.3522L7.45735 5.57353L8.81335 6.92953L2.68535 8.34287L4.09869 2.21487L5.56002 3.6762H5.56135ZM15.3334 6.0002V8.66687H18.6667V11.3335H11.3334C11.1668 11.3332 11.0061 11.3953 10.883 11.5075C10.7599 11.6198 10.6832 11.774 10.6682 11.94C10.6531 12.1059 10.7007 12.2714 10.8016 12.404C10.9025 12.5365 11.0494 12.6265 11.2134 12.6562L11.3334 12.6669H16.6667C17.5507 12.6669 18.3986 13.0181 19.0237 13.6432C19.6488 14.2683 20 15.1161 20 16.0002C20 16.8843 19.6488 17.7321 19.0237 18.3572C18.3986 18.9823 17.5507 19.3335 16.6667 19.3335H15.3334V22.0002H12.6667V19.3335H9.33335V16.6669H16.6667C16.8333 16.6672 16.994 16.6051 17.1171 16.4929C17.2402 16.3806 17.3168 16.2264 17.3319 16.0604C17.3469 15.8945 17.2993 15.729 17.1984 15.5964C17.0975 15.4639 16.9506 15.3739 16.7867 15.3442L16.6667 15.3335H11.3334C10.4493 15.3335 9.60145 14.9823 8.97633 14.3572C8.35121 13.7321 8.00002 12.8843 8.00002 12.0002C8.00002 11.1161 8.35121 10.2683 8.97633 9.64318C9.60145 9.01806 10.4493 8.66687 11.3334 8.66687H12.6667V6.0002H15.3334Z" fill="#EF5DA8"/>
</svg>
