<svg width="16" height="16" viewBox="0 0 16 16" fill="none" xmlns="http://www.w3.org/2000/svg">
<path d="M8.23926 9.60986H6.86963C6.87321 9.2876 6.89827 9.01009 6.94482 8.77734C6.99495 8.54102 7.0791 8.32796 7.19727 8.13818C7.31901 7.94841 7.48014 7.76042 7.68066 7.57422C7.84896 7.42383 7.99577 7.2806 8.12109 7.14453C8.24642 7.00846 8.34489 6.86882 8.4165 6.72559C8.48812 6.57878 8.52393 6.41585 8.52393 6.23682C8.52393 6.02913 8.4917 5.85726 8.42725 5.72119C8.36637 5.58154 8.27327 5.47591 8.14795 5.4043C8.0262 5.33268 7.87223 5.29688 7.68604 5.29688C7.53206 5.29688 7.38883 5.33089 7.25635 5.39893C7.12386 5.46338 7.01465 5.56364 6.92871 5.69971C6.84635 5.83577 6.80339 6.01481 6.7998 6.23682H5.24219C5.25293 5.74626 5.36572 5.34163 5.58057 5.02295C5.79899 4.70068 6.09082 4.46257 6.45605 4.30859C6.82129 4.15104 7.23128 4.07227 7.68604 4.07227C8.18734 4.07227 8.61702 4.15462 8.9751 4.31934C9.33317 4.48047 9.6071 4.71859 9.79688 5.03369C9.98665 5.34521 10.0815 5.72477 10.0815 6.17236C10.0815 6.48389 10.0207 6.76139 9.89893 7.00488C9.77718 7.24479 9.61784 7.46859 9.4209 7.67627C9.22396 7.88395 9.00732 8.0988 8.771 8.3208C8.56689 8.50342 8.42725 8.69499 8.35205 8.89551C8.28044 9.09603 8.24284 9.33415 8.23926 9.60986ZM6.7085 11.2695C6.7085 11.0404 6.78727 10.8506 6.94482 10.7002C7.10238 10.5462 7.31364 10.4692 7.57861 10.4692C7.84001 10.4692 8.04948 10.5462 8.20703 10.7002C8.36816 10.8506 8.44873 11.0404 8.44873 11.2695C8.44873 11.4915 8.36816 11.6795 8.20703 11.8335C8.04948 11.9875 7.84001 12.0645 7.57861 12.0645C7.31364 12.0645 7.10238 11.9875 6.94482 11.8335C6.78727 11.6795 6.7085 11.4915 6.7085 11.2695Z" fill="#8796A0"/>
<circle cx="8" cy="8" r="7.5" stroke="#e71575"/>
</svg>
