<svg width="10" height="11" viewBox="0 0 10 11" fill="none" xmlns="http://www.w3.org/2000/svg">
<path d="M5 0.30957C2.243 0.30957 0 2.51866 0 5.23399C0 7.94931 2.243 10.1584 5 10.1584C7.757 10.1584 10 7.94931 10 5.23399C10 2.51866 7.757 0.30957 5 0.30957ZM5.5 8.18864H4.5V7.20376H5.5V8.18864ZM5.988 5.78306C5.89 5.86087 5.7955 5.93523 5.7205 6.00909C5.5165 6.20952 5.5005 6.39172 5.5 6.3996V6.46509H4.5V6.38285C4.5 6.32475 4.5145 5.80325 5.013 5.31229C5.1105 5.21626 5.2315 5.11876 5.3585 5.01731C5.7255 4.72431 5.9665 4.51059 5.9665 4.21611C5.96069 3.96734 5.85625 3.73069 5.67553 3.55679C5.49481 3.38289 5.25216 3.28556 4.99951 3.28563C4.74685 3.28569 4.50425 3.38315 4.32362 3.55713C4.14299 3.73112 4.03868 3.96783 4.033 4.2166H3.033C3.033 3.1485 3.9155 2.27934 5 2.27934C6.0845 2.27934 6.967 3.1485 6.967 4.2166C6.967 5.00303 6.3775 5.47233 5.988 5.78306Z" fill="#404145"/>
</svg>
