<svg width="32" height="32" viewBox="0 0 32 32" fill="none" xmlns="http://www.w3.org/2000/svg">
<g clip-path="url(#clip0_407_3172)">
<path d="M20.59 19.998L15 14.408V4.99805H17V13.578L22 18.588L20.59 19.998Z" fill="#E71575"/>
<path d="M16 -0.00195312C14.135 -0.0016889 12.2889 0.372825 10.5712 1.09941C8.85354 1.82599 7.29911 2.88987 6 4.22805V-0.00195312H4V7.99805H12V5.99805H7.08C8.95603 3.91334 11.503 2.55157 14.2785 2.14925C17.0541 1.74693 19.8828 2.32946 22.2736 3.79569C24.6643 5.26191 26.466 7.51919 27.3657 10.1755C28.2654 12.8318 28.2063 15.7194 27.1987 18.3366C26.191 20.9539 24.2985 23.1356 21.8497 24.5027C19.401 25.8699 16.5507 26.3362 13.794 25.8206C11.0372 25.3051 8.54814 23.8402 6.759 21.6805C4.96985 19.5208 3.99367 16.8026 4 13.998H2C2 16.767 2.82109 19.4737 4.35943 21.776C5.89777 24.0783 8.08427 25.8727 10.6424 26.9324C13.2006 27.992 16.0155 28.2692 18.7313 27.729C21.447 27.1888 23.9416 25.8555 25.8995 23.8975C27.8574 21.9396 29.1908 19.445 29.731 16.7293C30.2712 14.0136 29.9939 11.1986 28.9343 8.64048C27.8747 6.08231 26.0803 3.89581 23.778 2.35747C21.4757 0.819133 18.7689 -0.00195313 16 -0.00195312V-0.00195312Z" fill="#E71575"/>
</g>
<defs>
<clipPath id="clip0_407_3172">
<rect width="32" height="32" fill="white" transform="translate(0 -0.00195312)"/>
</clipPath>
</defs>
</svg>
