<svg width="32" height="32" viewBox="0 0 32 32" fill="none" xmlns="http://www.w3.org/2000/svg">
<path d="M7.56135 5.67559C12.7987 1.38359 20.5387 1.68226 25.428 6.57159C30.6347 11.7783 30.6347 20.2209 25.428 25.4276C20.2213 30.6343 11.7787 30.6343 6.57202 25.4276C4.97419 23.8319 3.80812 21.8564 3.1833 19.6864C2.55848 17.5164 2.49541 15.2233 3.00002 13.0223L3.10269 12.6049L5.68135 13.2849C5.04208 15.7146 5.28094 18.292 6.35586 20.5628C7.43077 22.8336 9.27273 24.6521 11.5571 25.6978C13.8415 26.7436 16.4217 26.9494 18.843 26.279C21.2643 25.6087 23.3713 24.1052 24.7926 22.0335C26.2139 19.9618 26.8583 17.4549 26.6123 14.9546C26.3663 12.4543 25.2457 10.1211 23.4478 8.36613C21.65 6.61118 19.2904 5.54714 16.7849 5.36154C14.2794 5.17594 11.7888 5.88069 9.75202 7.35159L9.45735 7.57292L10.8134 8.92892L4.68535 10.3423L6.09869 4.21426L7.56002 5.67559H7.56135ZM17.3334 7.99959V10.6663H20.6667V13.3329H13.3334C13.1668 13.3326 13.0061 13.3947 12.883 13.5069C12.7599 13.6192 12.6832 13.7734 12.6682 13.9394C12.6531 14.1053 12.7007 14.2708 12.8016 14.4034C12.9025 14.5359 13.0494 14.6259 13.2134 14.6556L13.3334 14.6663H18.6667C19.5507 14.6663 20.3986 15.0174 21.0237 15.6426C21.6488 16.2677 22 17.1155 22 17.9996C22 18.8836 21.6488 19.7315 21.0237 20.3566C20.3986 20.9817 19.5507 21.3329 18.6667 21.3329H17.3334V23.9996H14.6667V21.3329H11.3334V18.6663H18.6667C18.8333 18.6666 18.994 18.6045 19.1171 18.4922C19.2402 18.38 19.3168 18.2257 19.3319 18.0598C19.3469 17.8939 19.2993 17.7284 19.1984 17.5958C19.0975 17.4633 18.9506 17.3733 18.7867 17.3436L18.6667 17.3329H13.3334C12.4493 17.3329 11.6014 16.9817 10.9763 16.3566C10.3512 15.7315 10 14.8836 10 13.9996C10 13.1155 10.3512 12.2677 10.9763 11.6426C11.6014 11.0174 12.4493 10.6663 13.3334 10.6663H14.6667V7.99959H17.3334Z" fill="#0DB668"/>
</svg>
