<svg width="17" height="17" viewBox="0 0 17 17" fill="none" xmlns="http://www.w3.org/2000/svg">
<path d="M6.14082 3.41011C4.34289 5.42733 3.10901 8.32543 2.99444 8.5985L1.00261 7.74405C0.429744 7.4974 0.28873 6.74865 0.729399 6.30821L3.38223 3.65676C3.79646 3.24274 4.39577 3.05776 4.97745 3.17227L6.14082 3.41011V3.41011ZM7.45401 12.3599C7.71841 12.6241 8.1062 12.6946 8.44111 12.536C9.46346 12.0604 11.658 10.9416 13.0769 9.52343C17.1223 5.48018 17.1575 2.18568 16.9196 0.776273C16.8884 0.603148 16.805 0.443698 16.6805 0.319312C16.5561 0.194925 16.3965 0.111552 16.2233 0.0803764C14.8132 -0.157462 11.517 -0.122227 7.47164 3.92102C6.05268 5.33924 4.9422 7.53263 4.45746 8.55446C4.29882 8.88919 4.37814 9.28559 4.63373 9.54104L7.45401 12.3599V12.3599ZM13.5969 10.8624C11.5787 12.6594 8.67907 13.8926 8.40586 14.0071L9.26075 15.9979C9.50753 16.5705 10.2567 16.7114 10.6973 16.271L13.3502 13.6195C13.7644 13.2055 13.9495 12.6065 13.8349 12.0251L13.5969 10.8624ZM5.92048 13.1527C6.00594 13.5793 5.9847 14.0204 5.85862 14.4368C5.73255 14.8533 5.50555 15.2322 5.19778 15.5398C4.51915 16.2181 2.41276 16.7202 1.04668 16.9845C0.438558 17.099 -0.0990587 16.5617 0.0155153 15.9539C0.279917 14.5885 0.773466 12.4832 1.46091 11.8049C1.76876 11.4973 2.14785 11.2704 2.5645 11.1444C2.98116 11.0184 3.4225 10.9972 3.84934 11.0826C4.8805 11.2764 5.72659 12.122 5.92048 13.1527V13.1527ZM9.49871 5.74444C9.49871 4.77548 10.2919 3.98268 11.2614 3.98268C12.2309 3.98268 13.0241 4.77548 13.0241 5.74444C13.0241 6.71341 12.2309 7.50621 11.2614 7.50621C10.2919 7.50621 9.49871 6.71341 9.49871 5.74444Z" fill="currentcolor"/>
</svg>
