<svg width="22" height="22" viewBox="0 0 22 22" fill="none" xmlns="http://www.w3.org/2000/svg">
<path d="M11 1.83398C5.93084 1.83398 1.83334 5.93148 1.83334 11.0007C1.83334 16.0698 5.93084 20.1673 11 20.1673C16.0692 20.1673 20.1667 16.0698 20.1667 11.0007C20.1667 5.93148 16.0692 1.83398 11 1.83398ZM14.9417 14.9423C14.8569 15.0273 14.7561 15.0947 14.6452 15.1407C14.5344 15.1867 14.4155 15.2104 14.2954 15.2104C14.1754 15.2104 14.0565 15.1867 13.9456 15.1407C13.8347 15.0947 13.734 15.0273 13.6492 14.9423L11 12.2932L8.35084 14.9423C8.17945 15.1137 7.94698 15.21 7.70459 15.21C7.4622 15.21 7.22974 15.1137 7.05834 14.9423C6.88695 14.7709 6.79066 14.5385 6.79066 14.2961C6.79066 14.176 6.8143 14.0572 6.86023 13.9463C6.90616 13.8354 6.97348 13.7347 7.05834 13.6498L9.70751 11.0007L7.05834 8.35148C6.88695 8.18009 6.79066 7.94762 6.79066 7.70523C6.79066 7.46284 6.88695 7.23038 7.05834 7.05898C7.22974 6.88759 7.4622 6.7913 7.70459 6.7913C7.94698 6.7913 8.17945 6.88759 8.35084 7.05898L11 9.70815L13.6492 7.05898C13.734 6.97412 13.8348 6.9068 13.9457 6.86087C14.0566 6.81494 14.1754 6.7913 14.2954 6.7913C14.4154 6.7913 14.5343 6.81494 14.6452 6.86087C14.7561 6.9068 14.8568 6.97412 14.9417 7.05898C15.0265 7.14385 15.0939 7.2446 15.1398 7.35549C15.1857 7.46637 15.2094 7.58521 15.2094 7.70523C15.2094 7.82525 15.1857 7.9441 15.1398 8.05498C15.0939 8.16587 15.0265 8.26662 14.9417 8.35148L12.2925 11.0007L14.9417 13.6498C15.29 13.9982 15.29 14.5848 14.9417 14.9423Z" fill="#FF6464"/>
</svg>
