<svg width="39" height="38" viewBox="0 0 39 38" fill="none" xmlns="http://www.w3.org/2000/svg">
<path d="M29.2463 24.9639C28.8239 24.5555 28.2593 24.3273 27.6718 24.3273H27.0318C26.8706 24.3273 26.7154 24.2662 26.5974 24.1565C26.3436 23.9202 26.3263 23.5254 26.5456 23.2568C28.5435 20.8112 29.7313 17.7302 29.7313 14.3968C29.7313 6.47445 23.076 0.0527344 14.8656 0.0527344C6.65523 0.0527344 0 6.47445 0 14.3968C0 22.3191 6.65523 28.7408 14.8656 28.7408C18.3303 28.7408 21.5317 27.5881 24.0698 25.6502C24.3403 25.4437 24.7237 25.4603 24.9643 25.7011C25.0879 25.8246 25.1572 25.9922 25.1572 26.1669V26.754C25.1572 27.3185 25.387 27.8586 25.7936 28.2502L34.9478 37.0655C35.8656 37.9494 37.3183 37.9487 38.2353 37.0639C39.1999 36.1332 39.2006 34.5883 38.237 33.6566L29.2463 24.9639ZM14.8656 24.3273C9.17096 24.3273 4.57404 19.8916 4.57404 14.3968C4.57404 8.9019 9.17096 4.46628 14.8656 4.46628C20.5603 4.46628 25.1572 8.9019 25.1572 14.3968C25.1572 19.8916 20.5603 24.3273 14.8656 24.3273Z" fill="#D90765"/>
</svg>
