<svg width="14" height="14" viewBox="0 0 14 14" fill="none" xmlns="http://www.w3.org/2000/svg">
<path d="M1.75 4.66699H8.75M12.25 4.66699H11.0833M1.75 8.75033H2.91667M12.25 8.75033H5.25" stroke="#70757A" stroke-width="1.16667" stroke-linecap="round"/>
<path d="M9.91667 5.83333C10.561 5.83333 11.0833 5.311 11.0833 4.66667C11.0833 4.02233 10.561 3.5 9.91667 3.5C9.27233 3.5 8.75 4.02233 8.75 4.66667C8.75 5.311 9.27233 5.83333 9.91667 5.83333Z" stroke="#70757A" stroke-width="1.16667" stroke-linecap="round"/>
<path d="M4.08366 9.91634C4.72799 9.91634 5.25033 9.39401 5.25033 8.74967C5.25033 8.10534 4.72799 7.58301 4.08366 7.58301C3.43933 7.58301 2.91699 8.10534 2.91699 8.74967C2.91699 9.39401 3.43933 9.91634 4.08366 9.91634Z" stroke="#70757A" stroke-width="1.16667" stroke-linecap="round"/>
</svg>
