<svg width="28" height="30" viewBox="0 0 28 30" fill="none" xmlns="http://www.w3.org/2000/svg">
<path d="M23.625 2.25016C22.6859 2.25092 21.7855 2.62429 21.1215 3.28832C20.4575 3.95235 20.0841 4.85275 20.0833 5.79183C20.0833 6.29758 20.1938 6.77783 20.3865 7.21558L17.6169 10.3308C16.6761 9.6814 15.5599 9.33356 14.4167 9.3335C13.3683 9.3335 12.3993 9.6395 11.5564 10.1353L8.33492 6.91525L8.30234 6.94783C8.58 6.384 8.75 5.75641 8.75 5.0835C8.75 4.24293 8.50074 3.42123 8.03375 2.72232C7.56675 2.02342 6.90299 1.47868 6.12641 1.15701C5.34982 0.835338 4.49529 0.751173 3.67087 0.915161C2.84645 1.07915 2.08917 1.48392 1.4948 2.07829C0.900425 2.67267 0.495652 3.42994 0.331664 4.25436C0.167677 5.07878 0.251841 5.93332 0.573514 6.7099C0.895186 7.48649 1.43992 8.15025 2.13883 8.61724C2.83774 9.08424 3.65943 9.3335 4.5 9.3335C5.17292 9.3335 5.79909 9.1635 6.36434 8.88583L6.33175 8.91841L9.55325 12.1385C9.03282 13.0027 8.75531 13.9914 8.75 15.0002C8.75 16.4126 9.28834 17.6904 10.1454 18.6849L6.49467 22.3342C6.08549 22.1705 5.64907 22.0854 5.20834 22.0835C3.25617 22.0835 1.66667 23.6716 1.66667 25.6252C1.66667 27.5787 3.25617 29.1668 5.20834 29.1668C7.1605 29.1668 8.75 27.5787 8.75 25.6252C8.75 25.1704 8.6565 24.7383 8.49925 24.3374L12.5198 20.3169C13.1162 20.5294 13.748 20.6668 14.4167 20.6668C17.5418 20.6668 20.0833 18.1253 20.0833 15.0002C20.0833 14.0992 19.8524 13.2591 19.477 12.5012L22.4761 9.12525C22.8388 9.24991 23.2213 9.3335 23.625 9.3335C25.5786 9.3335 27.1667 7.74541 27.1667 5.79183C27.1667 3.83825 25.5786 2.25016 23.625 2.25016ZM14.4167 17.8335C12.8541 17.8335 11.5833 16.5627 11.5833 15.0002C11.5833 13.4376 12.8541 12.1668 14.4167 12.1668C15.9793 12.1668 17.25 13.4376 17.25 15.0002C17.25 16.5627 15.9793 17.8335 14.4167 17.8335Z" fill="#4B4B4B"/>
</svg>
