<svg width="31" height="31" viewBox="0 0 31 31" fill="none" xmlns="http://www.w3.org/2000/svg">
<path d="M23.8734 14.8791C22.701 14.8698 21.553 15.2144 20.5795 15.8679C19.606 16.5213 18.8522 17.4533 18.4168 18.5419C17.9813 19.6305 17.8844 20.8252 18.1387 21.9698C18.393 23.1144 18.9866 24.1556 19.8421 24.9575L18.0646 27.1289L18.8892 30.4365L22.2425 26.3501C23.304 26.664 24.4336 26.664 25.4951 26.3501L28.8485 30.4365L29.6731 27.1289L27.8956 24.9575C28.751 24.1556 29.3447 23.1144 29.599 21.9698C29.8533 20.8252 29.7563 19.6305 29.3209 18.5419C28.8854 17.4533 28.1317 16.5213 27.1582 15.8679C26.1847 15.2144 25.0367 14.8698 23.8643 14.8791H23.8734ZM23.8734 24.6643C23.0948 24.6535 22.3368 24.4127 21.6947 23.9722C21.0526 23.5318 20.555 22.9113 20.2645 22.1889C19.9741 21.4664 19.9037 20.6742 20.0622 19.9119C20.2207 19.1495 20.6011 18.451 21.1555 17.9043C21.7099 17.3575 22.4135 16.9868 23.178 16.8388C23.9425 16.6909 24.7336 16.7722 25.452 17.0726C26.1704 17.3731 26.7839 17.8792 27.2154 18.5273C27.6469 19.1755 27.8772 19.9367 27.8773 20.7154C27.8676 21.7692 27.4409 22.7764 26.6906 23.5164C25.9402 24.2565 24.9273 24.6692 23.8734 24.6643Z" fill="#E71575"/>
<path d="M26.201 11.4615C24.3785 11.4615 22.6307 10.7375 21.342 9.44882C20.0533 8.16014 19.3293 6.41231 19.3293 4.58984H2.37931C1.89332 4.58984 1.42723 4.7829 1.08358 5.12655C0.739934 5.4702 0.546875 5.93629 0.546875 6.42228V24.7466C0.546875 25.2326 0.739934 25.6987 1.08358 26.0424C1.42723 26.386 1.89332 26.5791 2.37931 26.5791H16.1226L16.6448 25.9377L17.4969 24.8932C16.3588 23.2508 15.9094 21.2279 16.2449 19.2581C16.5804 17.2883 17.6742 15.5283 19.2918 14.3553C20.9094 13.1822 22.9221 12.6895 24.8987 12.9826C26.8752 13.2757 28.6583 14.3314 29.8658 15.9235V10.4261C28.767 11.1115 27.496 11.4705 26.201 11.4615ZM14.2901 21.6315H5.12796V20.1655H14.2901V21.6315ZM15.2064 15.218H5.12796V13.752H15.2064V15.218ZM20.7037 11.5531H5.12796V10.0871H20.7037V11.5531Z" fill="#E71575"/>
<path d="M26.2012 9.17194C28.7313 9.17194 30.7823 7.12092 30.7823 4.59085C30.7823 2.06079 28.7313 0.00976562 26.2012 0.00976562C23.6711 0.00976562 21.6201 2.06079 21.6201 4.59085C21.6201 7.12092 23.6711 9.17194 26.2012 9.17194Z" fill="#E71575"/>
</svg>
