<svg width="18" height="22" viewBox="0 0 18 22" fill="none" xmlns="http://www.w3.org/2000/svg">
<path d="M9.08211 4.90588L9 4.78776L8.91789 4.90588L7.53789 6.89106L7.3429 7.17156L7.65837 7.04048C8.0757 6.86708 8.51261 6.78014 9 6.78014C9.48784 6.78014 9.93437 6.86724 10.3409 7.04016L10.6602 7.176L10.4621 6.89106L9.08211 4.90588ZM3.99176 7.73189L3.84949 7.74365L3.90915 7.87334L4.90915 10.0471L5.03385 10.3182L5.09768 10.0267C5.19603 9.57766 5.34275 9.15177 5.58576 8.74653L5.58577 8.74654L5.58666 8.74499C5.81919 8.34108 6.13057 8.01174 6.4671 7.70717L6.68605 7.50902L6.39176 7.53337L3.99176 7.73189ZM3.90978 13.5256L3.84749 13.6559L3.99135 13.6683L6.39135 13.8768L6.70457 13.904L6.46461 13.7008C6.13318 13.4202 5.83087 13.0719 5.58693 12.6557C5.3622 12.2481 5.20617 11.8119 5.12829 11.3964L5.07188 11.0954L4.93978 11.3717L3.90978 13.5256ZM14.0908 7.87334L14.1502 7.74422L14.0087 7.73192L11.6087 7.52348L11.3131 7.49781L11.5328 7.69715C11.8785 8.01091 12.1804 8.34042 12.4133 8.74499C12.6477 9.15212 12.8043 9.57908 12.9023 10.0267L12.9662 10.3182L13.0908 10.0471L14.0908 7.87334ZM14.0082 13.6684L14.1528 13.6564L14.0902 13.5256L13.0602 11.3717L12.9281 11.0954L12.8717 11.3964C12.7936 11.8134 12.6472 12.2488 12.4138 12.6545C12.1696 13.0615 11.867 13.4102 11.5354 13.6909L11.2971 13.8926L11.6082 13.8669L14.0082 13.6684ZM8.91836 16.4851L9.00059 16.6014L9.08204 16.4846L10.452 14.5192L10.6301 14.2637L10.3366 14.3678C9.92486 14.5138 9.48628 14.6102 9 14.6102C8.51356 14.6102 8.06475 14.5137 7.64272 14.3676L7.34867 14.2657L7.52836 14.5198L8.91836 16.4851ZM0.1 4.03555L9 0.109299L17.9 4.03555V9.92591C17.9 15.3839 14.0998 20.4852 8.99999 21.7341C3.90018 20.4852 0.1 15.3839 0.1 9.92591V4.03555ZM11.99 10.7001C11.99 9.05606 10.6545 7.73155 9 7.73155C7.35547 7.73155 6.01 9.06598 6.01 10.7001C6.01 12.3341 7.34525 13.6687 9 13.6687C10.6545 13.6687 11.99 12.3442 11.99 10.7001Z" fill="#EFD86D" stroke="black" stroke-width="0.2"/>
</svg>
