<svg width="16" height="20" viewBox="0 0 16 20" fill="none" xmlns="http://www.w3.org/2000/svg">
<path d="M6.95 10.7004L5.575 9.30039C5.375 9.10039 5.13767 9.00039 4.863 9.00039C4.58767 9.00039 4.35 9.10039 4.15 9.30039C3.95 9.50039 3.846 9.73772 3.838 10.0124C3.82933 10.2877 3.925 10.5254 4.125 10.7254L6.25 12.8504C6.45 13.0504 6.68333 13.1504 6.95 13.1504C7.21667 13.1504 7.45 13.0504 7.65 12.8504L11.9 8.60039C12.1 8.40039 12.2 8.16272 12.2 7.88739C12.2 7.61272 12.1 7.37539 11.9 7.17539C11.7 6.97539 11.4627 6.87539 11.188 6.87539C10.9127 6.87539 10.675 6.97539 10.475 7.17539L6.95 10.7004ZM8 19.9254H7.75C7.66667 19.9254 7.59167 19.9087 7.525 19.8754C5.34167 19.1921 3.54167 17.8377 2.125 15.8124C0.708333 13.7877 0 11.5504 0 9.10039V4.37539C0 3.95872 0.121 3.58372 0.363 3.25039C0.604333 2.91706 0.916667 2.67539 1.3 2.52539L7.3 0.275391C7.53333 0.192057 7.76667 0.150391 8 0.150391C8.23333 0.150391 8.46667 0.192057 8.7 0.275391L14.7 2.52539C15.0833 2.67539 15.396 2.91706 15.638 3.25039C15.8793 3.58372 16 3.95872 16 4.37539V9.10039C16 11.5504 15.2917 13.7877 13.875 15.8124C12.4583 17.8377 10.6583 19.1921 8.475 19.8754C8.39167 19.9087 8.23333 19.9254 8 19.9254Z" fill="#1875FF"/>
</svg>
