<svg width="32" height="32" viewBox="0 0 32 32" fill="none" xmlns="http://www.w3.org/2000/svg">
<path d="M16 30C12.287 30 8.72601 28.525 6.1005 25.8995C3.475 23.274 2 19.713 2 16C2 12.287 3.475 8.72601 6.1005 6.1005C8.72601 3.475 12.287 2 16 2C19.713 2 23.274 3.475 25.8995 6.1005C28.525 8.72601 30 12.287 30 16C30 19.713 28.525 23.274 25.8995 25.8995C23.274 28.525 19.713 30 16 30ZM16 32C20.2435 32 24.3131 30.3143 27.3137 27.3137C30.3143 24.3131 32 20.2435 32 16C32 11.7565 30.3143 7.68687 27.3137 4.68629C24.3131 1.68571 20.2435 0 16 0C11.7565 0 7.68687 1.68571 4.68629 4.68629C1.68571 7.68687 0 11.7565 0 16C0 20.2435 1.68571 24.3131 4.68629 27.3137C7.68687 30.3143 11.7565 32 16 32Z" fill="#0DB668"/>
<path d="M8.56996 19.134C8.79964 19.0014 9.07258 18.9655 9.32875 19.0341C9.58493 19.1027 9.80334 19.2703 9.93596 19.5C10.5502 20.5647 11.4341 21.4487 12.4986 22.0632C13.5632 22.6776 14.7708 23.0007 16 23C17.2291 23.0007 18.4367 22.6776 19.5013 22.0632C20.5659 21.4487 21.4497 20.5647 22.064 19.5C22.1291 19.3854 22.2164 19.2847 22.3206 19.2039C22.4248 19.1231 22.544 19.0637 22.6713 19.0292C22.7985 18.9946 22.9314 18.9856 23.0622 19.0026C23.1929 19.0196 23.3191 19.0623 23.4333 19.1282C23.5475 19.1942 23.6475 19.2821 23.7276 19.3868C23.8078 19.4916 23.8663 19.6112 23.9001 19.7387C23.9338 19.8662 23.9419 19.9991 23.9241 20.1297C23.9062 20.2604 23.8627 20.3862 23.796 20.5C23.0062 21.8687 21.8699 23.0052 20.5013 23.7952C19.1327 24.5852 17.5802 25.0007 16 25C14.4197 25.0007 12.8672 24.5852 11.4986 23.7952C10.1301 23.0052 8.99371 21.8687 8.20396 20.5C8.07135 20.2703 8.03542 19.9974 8.10406 19.7412C8.1727 19.485 8.34028 19.2666 8.56996 19.134ZM14 13C14 14.656 13.104 16 12 16C10.896 16 9.99996 14.656 9.99996 13C9.99996 11.344 10.896 10 12 10C13.104 10 14 11.344 14 13ZM22 13C22 14.656 21.104 16 20 16C18.896 16 18 14.656 18 13C18 11.344 18.896 10 20 10C21.104 10 22 11.344 22 13Z" fill="#0DB668"/>
</svg>
