<svg width="16" height="15" viewBox="0 0 16 15" fill="none" xmlns="http://www.w3.org/2000/svg">
<path d="M13.8546 0.456909H2.41149C1.99768 0.457026 1.60085 0.614276 1.30825 0.894088C1.01564 1.1739 0.851197 1.55338 0.851074 1.94909L0.851074 12.8917C0.851197 13.2875 1.01564 13.6669 1.30825 13.9468C1.60085 14.2266 1.99768 14.3838 2.41149 14.3839H13.8546C14.2684 14.3838 14.6652 14.2266 14.9578 13.9468C15.2504 13.6669 15.4149 13.2875 15.415 12.8917V1.94909C15.4149 1.55338 15.2504 1.1739 14.9578 0.894088C14.6652 0.614276 14.2684 0.457026 13.8546 0.456909ZM13.6433 10.2461C13.5295 10.4981 13.0547 10.6811 12.1869 10.812C12.1291 10.9736 12.0828 11.1387 12.0482 11.3063C12.0344 11.3619 12.0002 11.411 11.9519 11.4446C11.9036 11.4782 11.8442 11.4943 11.7846 11.4898H11.7782C11.5766 11.4898 11.3621 11.4013 10.9395 11.4013C10.4915 11.3854 10.0548 11.5383 9.7235 11.8271C9.27962 12.1946 8.71139 12.3957 8.12425 12.393C7.54577 12.386 6.98807 12.1858 6.54765 11.8271C6.2162 11.5377 5.77927 11.3842 5.33075 11.3996C5.04965 11.418 4.76972 11.4502 4.49205 11.496C4.43125 11.5004 4.37076 11.4841 4.32134 11.4499C4.27191 11.4158 4.23673 11.366 4.22204 11.3094C4.18731 11.1408 4.14097 10.9747 4.08334 10.812C3.63486 10.7465 2.62695 10.579 2.60383 10.1488C2.60075 10.0946 2.6186 10.0413 2.65398 9.99889C2.68936 9.9565 2.7398 9.92802 2.7957 9.91888C4.30064 9.68279 4.97705 8.20608 5.00618 8.14374C5.00618 8.14065 5.00942 8.13755 5.01266 8.13446C5.05041 8.07721 5.07464 8.01278 5.08366 7.94566C5.09268 7.87854 5.08628 7.81034 5.0649 7.74583C4.9544 7.50044 4.48281 7.41335 4.28492 7.33553C3.77125 7.14276 3.69959 6.91905 3.73011 6.76651C3.75471 6.70067 3.79268 6.64013 3.84183 6.58837C3.89098 6.53661 3.95035 6.49465 4.01652 6.4649C4.08268 6.43515 4.15435 6.41821 4.22739 6.41503C4.30043 6.41186 4.3734 6.42252 4.44212 6.44641C4.59957 6.5254 4.77311 6.57066 4.9507 6.57905C5.02491 6.58124 5.09855 6.56606 5.16523 6.53484C5.11899 5.79206 5.01265 4.73184 5.28868 4.13806C5.52091 3.63032 5.90428 3.19917 6.391 2.89837C6.87773 2.59756 7.44628 2.4404 8.02577 2.44648L8.24353 2.44339C8.82389 2.43307 9.39433 2.58807 9.88231 2.88866C10.3703 3.18925 10.7537 3.62185 10.9839 4.13143C11.2613 4.72521 11.1531 5.78234 11.1073 6.52821C11.1644 6.55668 11.2278 6.57183 11.2922 6.57242C11.4591 6.55849 11.6215 6.51342 11.7703 6.43978C11.9122 6.38542 12.0705 6.38542 12.2123 6.43978C12.3013 6.46138 12.3812 6.50835 12.4416 6.57445C12.502 6.64055 12.5399 6.72265 12.5503 6.80984C12.5535 7.01189 12.3654 7.18609 11.9913 7.3258C11.9451 7.34437 11.8905 7.35985 11.8318 7.37886C11.6205 7.44429 11.2987 7.54068 11.2141 7.73654C11.1935 7.80113 11.1874 7.86918 11.1963 7.93618C11.2052 8.00318 11.229 8.0676 11.2659 8.12517C11.2691 8.12827 11.2691 8.13136 11.2724 8.13446C11.3015 8.1968 11.9779 9.67306 13.4828 9.9096C13.5184 9.91873 13.5515 9.93529 13.5796 9.95807C13.6077 9.98086 13.6302 10.0093 13.6454 10.0414C13.6607 10.0735 13.6683 10.1084 13.6678 10.1436C13.6672 10.1788 13.6586 10.2135 13.6424 10.2452L13.6433 10.2461Z" fill="white"/>
</svg>
