<svg width="25" height="25" viewBox="0 0 25 25" fill="none" xmlns="http://www.w3.org/2000/svg">
<path d="M22.1602 0.0351562H3.36821C2.68865 0.0353627 2.03697 0.312424 1.55644 0.805433C1.07591 1.29844 0.805865 1.96705 0.805664 2.66427L0.805664 21.9444C0.805865 22.6416 1.07591 23.3102 1.55644 23.8032C2.03697 24.2962 2.68865 24.5733 3.36821 24.5735H22.1602C22.8398 24.5733 23.4915 24.2962 23.972 23.8032C24.4526 23.3102 24.7226 22.6416 24.7228 21.9444V2.66427C24.7226 1.96705 24.4526 1.29844 23.972 0.805433C23.4915 0.312424 22.8398 0.0353627 22.1602 0.0351562ZM21.8133 17.2829C21.6265 17.7269 20.8467 18.0494 19.4215 18.28C19.3267 18.5648 19.2506 18.8557 19.1938 19.1509C19.1711 19.2489 19.115 19.3354 19.0356 19.3946C18.9562 19.4539 18.8588 19.4821 18.761 19.4742H18.7504C18.4193 19.4742 18.067 19.3184 17.373 19.3184C16.6373 19.2903 15.9202 19.5597 15.3761 20.0686C14.6472 20.7161 13.714 21.0704 12.7498 21.0657C11.7998 21.0533 10.884 20.7006 10.1607 20.0686C9.61637 19.5587 8.89885 19.2883 8.16227 19.3153C7.70065 19.3478 7.24094 19.4045 6.78495 19.4851C6.68509 19.4929 6.58577 19.4642 6.50459 19.404C6.42342 19.3438 6.36565 19.2561 6.34153 19.1564C6.28449 18.8594 6.20839 18.5667 6.11375 18.28C5.37725 18.1647 3.72204 17.8695 3.68407 17.1115C3.67901 17.0161 3.70832 16.9221 3.76642 16.8474C3.82452 16.7727 3.90736 16.7225 3.99917 16.7064C6.47061 16.2905 7.58143 13.6886 7.62926 13.5788C7.62926 13.5733 7.63458 13.5679 7.63989 13.5624C7.70189 13.4616 7.74168 13.348 7.7565 13.2298C7.77132 13.1115 7.7608 12.9913 7.72569 12.8777C7.54422 12.4453 6.76976 12.2919 6.44479 12.1548C5.60124 11.8151 5.48355 11.421 5.53366 11.1522C5.57407 11.0362 5.63642 10.9295 5.71714 10.8383C5.79786 10.7471 5.89535 10.6732 6.00401 10.6208C6.11268 10.5684 6.23036 10.5385 6.35031 10.5329C6.47026 10.5273 6.5901 10.5461 6.70295 10.5882C6.96151 10.7274 7.24651 10.8071 7.53815 10.8219C7.66001 10.8258 7.78095 10.799 7.89045 10.744C7.81452 9.4353 7.63989 7.56726 8.09318 6.52107C8.47455 5.62647 9.10413 4.86682 9.90344 4.33682C10.7028 3.80682 11.6364 3.52992 12.5881 3.54064L12.9457 3.53518C13.8988 3.51701 14.8356 3.7901 15.6369 4.31972C16.4383 4.84934 17.068 5.61155 17.4459 6.50939C17.9015 7.55558 17.7238 9.41816 17.6486 10.7323C17.7425 10.7825 17.8465 10.8092 17.9524 10.8102C18.2264 10.7857 18.4931 10.7063 18.7374 10.5765C18.9704 10.4807 19.2304 10.4807 19.4633 10.5765C19.6094 10.6146 19.7407 10.6973 19.8399 10.8138C19.939 10.9303 20.0012 11.0749 20.0183 11.2285C20.0237 11.5845 19.7146 11.8915 19.1004 12.1376C19.0244 12.1703 18.9349 12.1976 18.8384 12.2311C18.4914 12.3464 17.963 12.5162 17.824 12.8613C17.7901 12.9751 17.7801 13.095 17.7948 13.2131C17.8095 13.3311 17.8484 13.4446 17.9091 13.5461C17.9144 13.5515 17.9144 13.557 17.9197 13.5624C17.9675 13.6723 19.0784 16.2733 21.5498 16.6901C21.6082 16.7062 21.6625 16.7353 21.7086 16.7755C21.7548 16.8156 21.7917 16.8658 21.8168 16.9223C21.8418 16.9788 21.8543 17.0403 21.8535 17.1024C21.8526 17.1645 21.8384 17.2256 21.8117 17.2813L21.8133 17.2829Z" fill="white"/>
</svg>
