<svg width="28" height="28" viewBox="0 0 28 28" fill="none" xmlns="http://www.w3.org/2000/svg">
<path d="M12.542 23.3339C12.7741 23.3339 12.9967 23.4261 13.1607 23.5902C13.3248 23.7543 13.417 23.9769 13.417 24.2089C13.417 24.441 13.3248 24.6635 13.1607 24.8276C12.9967 24.9917 12.7741 25.0839 12.542 25.0839C12.31 25.0839 12.0874 24.9917 11.9233 24.8276C11.7592 24.6635 11.667 24.441 11.667 24.2089C11.667 23.9769 11.7592 23.7543 11.9233 23.5902C12.0874 23.4261 12.31 23.3339 12.542 23.3339ZM17.792 23.3339C18.0241 23.3339 18.2467 23.4261 18.4107 23.5902C18.5748 23.7543 18.667 23.9769 18.667 24.2089C18.667 24.441 18.5748 24.6635 18.4107 24.8276C18.2467 24.9917 18.0241 25.0839 17.792 25.0839C17.56 25.0839 17.3374 24.9917 17.1733 24.8276C17.0092 24.6635 16.917 24.441 16.917 24.2089C16.917 23.9769 17.0092 23.7543 17.1733 23.5902C17.3374 23.4261 17.56 23.3339 17.792 23.3339ZM9.91703 22.1672C10.1491 22.1672 10.3717 22.2594 10.5358 22.4235C10.6998 22.5876 10.792 22.8102 10.792 23.0422C10.792 23.2743 10.6998 23.4969 10.5358 23.661C10.3717 23.8251 10.1491 23.9172 9.91703 23.9172C9.68497 23.9172 9.46241 23.8251 9.29831 23.661C9.13422 23.4969 9.04203 23.2743 9.04203 23.0422C9.04203 22.8102 9.13422 22.5876 9.29831 22.4235C9.46241 22.2594 9.68497 22.1672 9.91703 22.1672ZM15.167 22.1672C15.3991 22.1672 15.6217 22.2594 15.7857 22.4235C15.9498 22.5876 16.042 22.8102 16.042 23.0422C16.042 23.2743 15.9498 23.4969 15.7857 23.661C15.6217 23.8251 15.3991 23.9172 15.167 23.9172C14.935 23.9172 14.7124 23.8251 14.5483 23.661C14.3842 23.4969 14.292 23.2743 14.292 23.0422C14.292 22.8102 14.3842 22.5876 14.5483 22.4235C14.7124 22.2594 14.935 22.1672 15.167 22.1672ZM20.417 22.1672C20.6491 22.1672 20.8717 22.2594 21.0358 22.4235C21.1998 22.5876 21.292 22.8102 21.292 23.0422C21.292 23.2743 21.1998 23.4969 21.0358 23.661C20.8717 23.8251 20.6491 23.9172 20.417 23.9172C20.185 23.9172 19.9624 23.8251 19.7983 23.661C19.6342 23.4969 19.542 23.2743 19.542 23.0422C19.542 22.8102 19.6342 22.5876 19.7983 22.4235C19.9624 22.2594 20.185 22.1672 20.417 22.1672ZM15.1694 7.01225C18.8665 7.01225 20.963 9.45875 21.2675 12.4139H21.3609C21.9257 12.4131 22.4852 12.5237 23.0074 12.7391C23.5296 12.9546 24.0042 13.2708 24.4042 13.6697C24.8042 14.0686 25.1217 14.5423 25.3385 15.0639C25.5554 15.5855 25.6674 16.1447 25.6682 16.7096C25.6676 17.2746 25.5557 17.8339 25.3389 18.3556C25.1221 18.8773 24.8046 19.3512 24.4046 19.7502C24.0046 20.1493 23.5299 20.4656 23.0077 20.6811C22.4854 20.8966 21.9258 21.0072 21.3609 21.0064H8.97787C8.41298 21.0072 7.85348 20.8967 7.33131 20.6812C6.80913 20.4658 6.33451 20.1495 5.93454 19.7507C5.53456 19.3518 5.21707 18.878 5.0002 18.3564C4.78332 17.8348 4.6713 17.2756 4.67053 16.7107C4.67114 16.1458 4.78305 15.5864 4.99986 15.0647C5.21667 14.543 5.53414 14.0691 5.93412 13.6701C6.33411 13.2711 6.80879 12.9548 7.33104 12.7392C7.85329 12.5237 8.41289 12.4131 8.97787 12.4139H9.0712C9.37803 9.43891 11.4734 7.01225 15.1694 7.01225ZM15.1694 8.75875C12.7532 8.75875 10.6462 10.6651 10.6462 13.2971C10.6462 13.7136 10.274 14.0414 9.8482 14.0414H9.0432C7.57203 14.0414 6.37853 15.2081 6.37853 16.6501C6.37853 18.0909 7.57203 19.2587 9.0432 19.2587H21.2955C22.7679 19.2587 23.9602 18.0921 23.9602 16.6501C23.9602 15.2092 22.7679 14.0414 21.2955 14.0414H20.4905C20.0647 14.0414 19.6925 13.7147 19.6925 13.2971C19.6925 10.6312 17.5855 8.75875 15.1694 8.75875ZM5.09637 11.8597C5.17739 12.0553 5.18481 12.2735 5.11724 12.4741C5.04967 12.6747 4.91169 12.844 4.72887 12.9506L4.6227 13.0031L3.5412 13.4511C3.33662 13.5345 3.10807 13.5374 2.90143 13.4592C2.69479 13.3811 2.52536 13.2277 2.42715 13.0298C2.32894 12.8319 2.30922 12.6042 2.37196 12.3923C2.43469 12.1805 2.57523 12.0002 2.76537 11.8877L2.87153 11.8341L3.95303 11.3861C4.0592 11.3421 4.173 11.3195 4.28792 11.3195C4.40285 11.3195 4.51664 11.3421 4.62281 11.3861C4.72898 11.4301 4.82545 11.4945 4.9067 11.5758C4.98796 11.6571 5.0524 11.7536 5.09637 11.8597ZM12.6645 6.22125L12.4639 6.28891C11.8571 6.50159 11.2836 6.79934 10.7605 7.17325C10.1988 6.99079 9.59427 6.98741 9.03055 7.16358C8.46682 7.33976 7.97178 7.68677 7.61392 8.15662C7.25606 8.62647 7.05306 9.19592 7.03302 9.78619C7.01297 10.3765 7.17687 10.9584 7.50203 11.4514C6.93299 11.611 6.39416 11.8632 5.9072 12.1981C5.37248 11.279 5.17274 10.2031 5.34199 9.15331C5.51123 8.10356 6.03899 7.14489 6.83545 6.44044C7.63191 5.73598 8.64787 5.32927 9.71043 5.28952C10.773 5.24977 11.8165 5.57944 12.6634 6.22241L12.6645 6.22125ZM3.43153 6.25741L3.55403 6.29825L4.63553 6.74625C4.83868 6.8314 5.00223 6.99005 5.09354 7.1905C5.18485 7.39096 5.1972 7.61847 5.12812 7.82763C5.05903 8.03679 4.91361 8.2122 4.72087 8.31884C4.52813 8.42548 4.30227 8.4555 4.08837 8.40292L3.96703 8.36325L2.88553 7.91525C2.68239 7.83009 2.51883 7.67145 2.42752 7.471C2.33621 7.27054 2.32387 7.04302 2.39295 6.83386C2.46203 6.6247 2.60746 6.4493 2.80019 6.34266C2.99293 6.23602 3.2188 6.20599 3.4327 6.25858L3.43153 6.25741ZM7.88237 2.77375L7.93487 2.87991L8.38287 3.96025C8.46746 4.16501 8.47123 4.39424 8.39342 4.60167C8.3156 4.80911 8.162 4.9793 7.9636 5.07791C7.76521 5.17651 7.53679 5.19619 7.32446 5.13296C7.11212 5.06974 6.93167 4.92832 6.81953 4.73725L6.76587 4.62991L6.31903 3.54958C6.23565 3.345 6.23274 3.11645 6.31088 2.90981C6.38903 2.70317 6.54245 2.53374 6.74034 2.43553C6.93823 2.33732 7.16595 2.31761 7.37778 2.38034C7.58961 2.44307 7.76987 2.58361 7.88237 2.77375ZM12.962 2.40158C13.1557 2.48198 13.3141 2.62927 13.4083 2.81664C13.5026 3.00401 13.5263 3.21898 13.4754 3.42241L13.4345 3.54491L12.9877 4.62525C12.9035 4.82973 12.7451 4.99477 12.5442 5.08717C12.3433 5.17957 12.1149 5.19249 11.9048 5.12331C11.6948 5.05414 11.5188 4.90802 11.4121 4.71432C11.3054 4.52062 11.276 4.29372 11.3299 4.07925L11.3707 3.95558L11.8187 2.87525C11.8627 2.76907 11.9271 2.67258 12.0084 2.59131C12.0896 2.51004 12.1861 2.44557 12.2923 2.40159C12.3984 2.3576 12.5122 2.33496 12.6271 2.33496C12.7421 2.33496 12.8559 2.3576 12.962 2.40158Z" fill="white"/>
</svg>
