<svg width="14" height="14" viewBox="0 0 14 14" fill="none" xmlns="http://www.w3.org/2000/svg">
<path d="M6.4445 1.37979C6.63649 0.873402 7.36306 0.873402 7.55565 1.37979L8.79759 4.82014C8.84092 4.93221 8.91721 5.02851 9.01641 5.09632C9.1156 5.16412 9.23302 5.20025 9.35317 5.19994H12.4052C12.9692 5.19994 13.2152 5.90193 12.7718 6.24572L10.5999 8.19989C10.5026 8.27468 10.4315 8.37837 10.3968 8.49608C10.3621 8.61379 10.3656 8.73947 10.4067 8.85508L11.1999 12.2168C11.3931 12.7568 10.7679 13.2206 10.2951 12.8882L7.34506 11.0162C7.24403 10.9452 7.12355 10.9071 7.00007 10.9071C6.87659 10.9071 6.75612 10.9452 6.65509 11.0162L3.70502 12.8882C3.23284 13.2206 2.60707 12.7562 2.80026 12.2168L3.59342 8.85508C3.63457 8.73947 3.63804 8.61379 3.60333 8.49608C3.56862 8.37837 3.49752 8.27468 3.40023 8.19989L1.22833 6.24572C0.784349 5.90193 1.03154 5.19994 1.59431 5.19994H4.64638C4.76655 5.20034 4.88401 5.16424 4.98321 5.09642C5.08242 5.0286 5.1587 4.93226 5.20195 4.82014L6.4439 1.37979H6.4445Z" stroke="#9D9FA2" stroke-linecap="round" stroke-linejoin="round"/>
</svg>
