<svg width="28" height="28" viewBox="0 0 28 28" fill="none" xmlns="http://www.w3.org/2000/svg">
<path d="M8.49844 4.76901C8.41145 4.55276 8.41319 4.31095 8.50327 4.09598C8.59336 3.88101 8.76453 3.7102 8.97969 3.62057C9.08583 3.5762 9.19976 3.55347 9.31481 3.55371C9.42985 3.55396 9.54368 3.57717 9.64964 3.622C9.75559 3.66683 9.85152 3.73236 9.93181 3.81475C10.0121 3.89715 10.0751 3.99474 10.1172 4.10182L10.9594 6.11432C11.047 6.3292 11.0468 6.56989 10.9589 6.78464C10.8709 6.9994 10.7022 7.17107 10.4891 7.26276C10.3811 7.30562 10.2661 7.32788 10.15 7.32838C9.97789 7.32614 9.81005 7.27441 9.66654 7.17938C9.52302 7.08435 9.40988 6.95003 9.34062 6.79245L8.49844 4.76901ZM2.35156 11.8674L4.36406 12.7096C4.47199 12.7525 4.587 12.7748 4.70312 12.7753C4.90635 12.7768 5.10378 12.7076 5.26152 12.5794C5.41926 12.4513 5.52746 12.2722 5.56757 12.073C5.60768 11.8737 5.57718 11.6667 5.48131 11.4875C5.38544 11.3083 5.23018 11.1681 5.04219 11.0909L3.01875 10.2487C2.80251 10.1617 2.5607 10.1634 2.34572 10.2535C2.13075 10.3436 1.95994 10.5148 1.87031 10.7299C1.82594 10.8361 1.80321 10.95 1.80345 11.0651C1.8037 11.1801 1.82692 11.2939 1.87174 11.3999C1.91657 11.5058 1.9821 11.6018 2.06449 11.6821C2.14689 11.7624 2.24449 11.8254 2.35156 11.8674ZM23.2969 12.7753C23.413 12.7748 23.528 12.7525 23.6359 12.7096L25.6484 11.8674C25.7555 11.8254 25.8531 11.7624 25.9355 11.6821C26.0179 11.6018 26.0834 11.5058 26.1283 11.3999C26.1731 11.2939 26.1963 11.1801 26.1965 11.0651C26.1968 10.95 26.1741 10.8361 26.1297 10.7299C26.0401 10.5148 25.8692 10.3436 25.6543 10.2535C25.4393 10.1634 25.1975 10.1617 24.9812 10.2487L22.9578 11.0909C22.7698 11.1681 22.6146 11.3083 22.5187 11.4875C22.4228 11.6667 22.3923 11.8737 22.4324 12.073C22.4725 12.2722 22.5807 12.4513 22.7385 12.5794C22.8962 12.7076 23.0936 12.7768 23.2969 12.7753ZM17.5109 7.26276C17.6189 7.30562 17.7339 7.32788 17.85 7.32838C18.0221 7.32614 18.1899 7.27441 18.3335 7.17938C18.477 7.08435 18.5901 6.95003 18.6594 6.79245L19.5016 4.76901C19.5885 4.55276 19.5868 4.31095 19.4967 4.09598C19.4066 3.88101 19.2355 3.7102 19.0203 3.62057C18.9142 3.5762 18.8002 3.55347 18.6852 3.55371C18.5702 3.55396 18.4563 3.57717 18.3504 3.622C18.2444 3.66683 18.1485 3.73236 18.0682 3.81475C17.9879 3.89715 17.9249 3.99474 17.8828 4.10182L17.0406 6.11432C16.953 6.3292 16.9532 6.56989 17.0411 6.78464C17.1291 6.9994 17.2978 7.17107 17.5109 7.26276ZM27.125 17.5003C27.125 17.7323 27.0328 17.9549 26.8687 18.119C26.7046 18.2831 26.4821 18.3753 26.25 18.3753H1.75C1.51794 18.3753 1.29538 18.2831 1.13128 18.119C0.967187 17.9549 0.875 17.7323 0.875 17.5003C0.875 17.2682 0.967187 17.0456 1.13128 16.8815C1.29538 16.7174 1.51794 16.6253 1.75 16.6253H6.61719C6.58228 16.3349 6.56403 16.0427 6.5625 15.7503C6.5625 13.7777 7.34609 11.886 8.74089 10.4912C10.1357 9.09635 12.0275 8.31276 14 8.31276C15.9725 8.31276 17.8643 9.09635 19.2591 10.4912C20.6539 11.886 21.4375 13.7777 21.4375 15.7503C21.436 16.0427 21.4177 16.3349 21.3828 16.6253H26.25C26.4821 16.6253 26.7046 16.7174 26.8687 16.8815C27.0328 17.0456 27.125 17.2682 27.125 17.5003ZM8.37812 16.6253H19.6219C19.6659 16.3357 19.6878 16.0432 19.6875 15.7503C19.6875 14.2418 19.0883 12.7952 18.0217 11.7286C16.9551 10.662 15.5084 10.0628 14 10.0628C12.4916 10.0628 11.0449 10.662 9.97833 11.7286C8.91172 12.7952 8.3125 14.2418 8.3125 15.7503C8.3122 16.0432 8.33413 16.3357 8.37812 16.6253ZM22.75 21.0003H5.25C5.01794 21.0003 4.79538 21.0924 4.63128 21.2565C4.46719 21.4206 4.375 21.6432 4.375 21.8753C4.375 22.1073 4.46719 22.3299 4.63128 22.494C4.79538 22.6581 5.01794 22.7503 5.25 22.7503H22.75C22.9821 22.7503 23.2046 22.6581 23.3687 22.494C23.5328 22.3299 23.625 22.1073 23.625 21.8753C23.625 21.6432 23.5328 21.4206 23.3687 21.2565C23.2046 21.0924 22.9821 21.0003 22.75 21.0003Z" fill="#39D38C"/>
</svg>
