<svg width="24" height="24" viewBox="0 0 24 24" fill="none" xmlns="http://www.w3.org/2000/svg">
<path d="M19.83 8.70005L15.3 4.17005C14.35 3.22005 13.04 2.71005 11.7 2.78005L6.69998 3.02005C4.69998 3.11005 3.10998 4.70005 3.00998 6.69005L2.76998 11.69C2.70998 13.03 3.20998 14.34 4.15998 15.29L8.68997 19.82C10.55 21.68 13.57 21.68 15.44 19.82L19.83 15.43C21.7 13.58 21.7 10.56 19.83 8.70005ZM9.49998 12.38C7.91998 12.38 6.61998 11.09 6.61998 9.50005C6.61998 7.91005 7.91998 6.62005 9.49998 6.62005C11.08 6.62005 12.38 7.91005 12.38 9.50005C12.38 11.09 11.08 12.38 9.49998 12.38ZM17.53 13.53L13.53 17.53C13.38 17.68 13.19 17.75 13 17.75C12.81 17.75 12.62 17.68 12.47 17.53C12.18 17.24 12.18 16.76 12.47 16.47L16.47 12.47C16.76 12.18 17.24 12.18 17.53 12.47C17.82 12.76 17.82 13.24 17.53 13.53Z" fill="#9C9C9C"/>
</svg>
