<svg width="20" height="18" viewBox="0 0 20 18" fill="none" xmlns="http://www.w3.org/2000/svg">
<path d="M18.25 0.75H1.75C1.35218 0.75 0.970644 0.908035 0.68934 1.18934C0.408035 1.47064 0.25 1.85218 0.25 2.25V15.75C0.25 16.1478 0.408035 16.5294 0.68934 16.8107C0.970644 17.092 1.35218 17.25 1.75 17.25H3.00625C3.14827 17.2504 3.2874 17.21 3.40708 17.1335C3.52676 17.057 3.62193 16.9478 3.68125 16.8188C4.04822 16.0508 4.62505 15.4023 5.34505 14.9484C6.06506 14.4944 6.89884 14.2535 7.75 14.2535C8.60116 14.2535 9.43494 14.4944 10.1549 14.9484C10.875 15.4023 11.4518 16.0508 11.8187 16.8188C11.8781 16.9478 11.9732 17.057 12.0929 17.1335C12.2126 17.21 12.3517 17.2504 12.4938 17.25H18.25C18.6478 17.25 19.0294 17.092 19.3107 16.8107C19.592 16.5294 19.75 16.1478 19.75 15.75V2.25C19.75 1.85218 19.592 1.47064 19.3107 1.18934C19.0294 0.908035 18.6478 0.75 18.25 0.75ZM7.75 12.75C7.15666 12.75 6.57664 12.5741 6.08329 12.2444C5.58994 11.9148 5.20542 11.4462 4.97836 10.8981C4.7513 10.3499 4.69189 9.74667 4.80764 9.16473C4.9234 8.58279 5.20912 8.04824 5.62868 7.62868C6.04824 7.20912 6.58279 6.9234 7.16473 6.80764C7.74667 6.69189 8.34987 6.7513 8.89805 6.97836C9.44623 7.20542 9.91476 7.58994 10.2444 8.08329C10.5741 8.57664 10.75 9.15666 10.75 9.75C10.7475 10.5449 10.4307 11.3065 9.86859 11.8686C9.30651 12.4307 8.54489 12.7475 7.75 12.75ZM18.25 15.75H12.9437C12.6188 15.1864 12.204 14.6798 11.7156 14.25H16C16.1989 14.25 16.3897 14.171 16.5303 14.0303C16.671 13.8897 16.75 13.6989 16.75 13.5V4.5C16.75 4.30109 16.671 4.11032 16.5303 3.96967C16.3897 3.82902 16.1989 3.75 16 3.75H4C3.80109 3.75 3.61032 3.82902 3.46967 3.96967C3.32902 4.11032 3.25 4.30109 3.25 4.5V13.5C3.25095 13.6655 3.30664 13.8261 3.40839 13.9567C3.51013 14.0873 3.65222 14.1805 3.8125 14.2219C3.31233 14.6585 2.88785 15.1748 2.55625 15.75H1.75V2.25H18.25V15.75Z" fill="#4B4B4B"/>
</svg>
