<svg width="32" height="32" viewBox="0 0 32 32" fill="none" xmlns="http://www.w3.org/2000/svg">
<path d="M15.987 2.66602C8.62699 2.66602 2.66699 8.63935 2.66699 15.9993C2.66699 23.3594 8.62699 29.3327 15.987 29.3327C23.3603 29.3327 29.3337 23.3594 29.3337 15.9993C29.3337 8.63935 23.3603 2.66602 15.987 2.66602ZM21.3337 21.3327C21.2103 21.4563 21.0638 21.5544 20.9025 21.6213C20.7412 21.6882 20.5683 21.7226 20.3937 21.7226C20.219 21.7226 20.0461 21.6882 19.8848 21.6213C19.7235 21.5544 19.577 21.4563 19.4537 21.3327L15.067 16.946C14.941 16.8225 14.8408 16.6753 14.7721 16.5128C14.7035 16.3503 14.6677 16.1758 14.667 15.9993V10.666C14.667 9.93268 15.267 9.33268 16.0003 9.33268C16.7337 9.33268 17.3337 9.93268 17.3337 10.666V15.4527L21.3337 19.4527C21.8537 19.9727 21.8537 20.8127 21.3337 21.3327Z" fill="#8796A0"/>
</svg>
