<svg width="28" height="28" viewBox="0 0 28 28" fill="none" xmlns="http://www.w3.org/2000/svg">
<path d="M14 27C11.4288 27 8.91543 26.2376 6.77759 24.8091C4.63975 23.3806 2.97351 21.3503 1.98957 18.9749C1.00563 16.5994 0.748189 13.9856 1.2498 11.4638C1.7514 8.94208 2.98953 6.6257 4.80762 4.80762C6.6257 2.98953 8.94208 1.7514 11.4638 1.2498C13.9856 0.748189 16.5994 1.00563 18.9749 1.98957C21.3503 2.97351 23.3806 4.63975 24.8091 6.77759C26.2376 8.91543 27 11.4288 27 14C27 17.4478 25.6304 20.7544 23.1924 23.1924C20.7544 25.6304 17.4478 27 14 27ZM14 2.85715C11.7962 2.85715 9.6418 3.51067 7.80936 4.73506C5.97693 5.95945 4.54872 7.69973 3.70535 9.73582C2.86197 11.7719 2.64131 14.0124 3.07126 16.1739C3.5012 18.3354 4.56246 20.3208 6.12081 21.8792C7.67917 23.4375 9.66464 24.4988 11.8261 24.9287C13.9876 25.3587 16.2281 25.138 18.2642 24.2947C20.3003 23.4513 22.0406 22.0231 23.2649 20.1906C24.4893 18.3582 25.1429 16.2039 25.1429 14C25.1429 11.0447 23.9689 8.21051 21.8792 6.12081C19.7895 4.03112 16.9553 2.85715 14 2.85715Z" fill="#E71575"/>
<path d="M18.59 20L13 14.7827V6H15V14.008L20 18.684L18.59 20Z" fill="#E71575"/>
</svg>
