<svg width="18" height="18" viewBox="0 0 18 18" fill="none" xmlns="http://www.w3.org/2000/svg">
<path d="M15.9182 13.518H1.59182V1.93114H15.9182V13.518ZM15.9182 0H1.59182C1.16964 0 0.764757 0.203459 0.466233 0.565618C0.167709 0.927777 0 1.41897 0 1.93114V13.518C0 14.0302 0.167709 14.5214 0.466233 14.8835C0.764757 15.2457 1.16964 15.4491 1.59182 15.4491H5.57136V17.3803H11.9386V15.4491H15.9182C16.3404 15.4491 16.7452 15.2457 17.0438 14.8835C17.3423 14.5214 17.51 14.0302 17.51 13.518V1.93114C17.51 1.41897 17.3423 0.927777 17.0438 0.565618C16.7452 0.203459 16.3404 0 15.9182 0Z" fill="#4A4A4A"/>
</svg>
