<svg width="16" height="15" viewBox="0 0 16 15" fill="none" xmlns="http://www.w3.org/2000/svg">
<path d="M13.4849 0.449097H2.04186C1.62805 0.449214 1.23123 0.606463 0.938617 0.886276C0.646008 1.16609 0.481568 1.54556 0.481445 1.94128L0.481445 12.8839C0.481568 13.2797 0.646008 13.6591 0.938617 13.9389C1.23123 14.2188 1.62805 14.376 2.04186 14.3761H13.4849C13.8988 14.376 14.2956 14.2188 14.5882 13.9389C14.8808 13.6591 15.0452 13.2797 15.0454 12.8839V1.94128C15.0452 1.54556 14.8808 1.16609 14.5882 0.886276C14.2956 0.606463 13.8988 0.449214 13.4849 0.449097ZM11.8954 5.38589C11.9019 5.47432 11.9019 5.56275 11.9019 5.65117C11.9073 6.41439 11.7542 7.17104 11.4513 7.87718C11.1484 8.58332 10.7017 9.22486 10.1374 9.76456C9.573 10.3042 8.90212 10.7313 8.16369 11.021C7.42526 11.3106 6.634 11.4571 5.83588 11.4519C4.67529 11.454 3.53864 11.1363 2.562 10.5367C2.73259 10.5543 2.9041 10.5626 3.07567 10.5614C4.03483 10.5633 4.96678 10.2567 5.72168 9.69089C5.27677 9.68304 4.84555 9.54247 4.48827 9.2888C4.131 9.03514 3.86553 8.68107 3.72897 8.27608C4.04883 8.32882 4.37674 8.31616 4.69111 8.23894C4.20871 8.14493 3.77519 7.89419 3.46413 7.52928C3.15307 7.16437 2.98364 6.70777 2.98459 6.23699V6.21223C3.28001 6.37052 3.61063 6.45918 3.94904 6.47088C3.65608 6.28512 3.41582 6.03282 3.24977 5.73654C3.08373 5.44026 2.99706 5.10925 2.99753 4.77311C2.99541 4.41108 3.09539 4.05521 3.28696 3.74295C3.82222 4.37323 4.49013 4.8888 5.24731 5.25617C6.0045 5.62354 6.83403 5.8345 7.68203 5.87533C7.57553 5.43765 7.62289 4.97861 7.81679 4.56927C8.01069 4.15994 8.3403 3.82316 8.75459 3.61107C9.16888 3.39899 9.64474 3.32344 10.1085 3.39611C10.5722 3.46879 10.9979 3.68564 11.3198 4.01309C11.797 3.9258 12.2546 3.75957 12.6721 3.52188C12.5131 3.99231 12.1802 4.39122 11.7359 4.644C12.1598 4.59859 12.5741 4.49232 12.9648 4.32877C12.6746 4.73736 12.3128 5.09499 11.8954 5.38589Z" fill="white"/>
</svg>
