<svg width="25" height="25" viewBox="0 0 25 25" fill="none" xmlns="http://www.w3.org/2000/svg">
<path d="M22.1905 0.0253906H3.39849C2.71892 0.0255971 2.06724 0.302658 1.58671 0.795667C1.10619 1.28868 0.836139 1.95728 0.835938 2.6545L0.835938 21.9346C0.836139 22.6319 1.10619 23.3005 1.58671 23.7935C2.06724 24.2865 2.71892 24.5635 3.39849 24.5637H22.1905C22.8701 24.5635 23.5218 24.2865 24.0023 23.7935C24.4828 23.3005 24.7529 22.6319 24.7531 21.9346V2.6545C24.7529 1.95728 24.4828 1.28868 24.0023 0.795667C23.5218 0.302658 22.8701 0.0255971 22.1905 0.0253906ZM19.5801 8.72365C19.5908 8.87945 19.5908 9.03525 19.5908 9.19105C19.5998 10.5358 19.3482 11.869 18.8508 13.1131C18.3533 14.3573 17.6199 15.4876 16.6931 16.4385C15.7663 17.3894 14.6645 18.1419 13.4519 18.6523C12.2392 19.1626 10.9398 19.4207 9.62909 19.4115C7.72315 19.4152 5.85652 18.8554 4.25267 17.799C4.53281 17.83 4.81446 17.8446 5.09622 17.8426C6.67137 17.8459 8.20184 17.3057 9.44155 16.3087C8.71092 16.2949 8.00275 16.0472 7.41602 15.6003C6.8293 15.1534 6.39334 14.5295 6.16908 13.8159C6.69436 13.9089 7.23286 13.8866 7.74913 13.7505C6.95692 13.5849 6.24499 13.1431 5.73416 12.5001C5.22334 11.8572 4.94509 11.0527 4.94665 10.2232V10.1796C5.43179 10.4585 5.97475 10.6147 6.53049 10.6353C6.04938 10.308 5.65483 9.86349 5.38214 9.34147C5.10945 8.81945 4.96713 8.23623 4.96791 7.64397C4.96441 7.00611 5.12861 6.37908 5.44321 5.82891C6.32221 6.93942 7.41907 7.84782 8.66254 8.4951C9.90601 9.14238 11.2683 9.51406 12.6609 9.586C12.486 8.81485 12.5638 8.00605 12.8822 7.28483C13.2006 6.56362 13.7419 5.97023 14.4223 5.59656C15.1026 5.22288 15.8841 5.08976 16.6456 5.21781C17.4072 5.34586 18.1063 5.72793 18.6348 6.30487C19.4186 6.15108 20.1701 5.8582 20.8557 5.43941C20.5945 6.26827 20.0479 6.97112 19.3182 7.4165C20.0143 7.33649 20.6947 7.14924 21.3363 6.86108C20.8598 7.58099 20.2656 8.2111 19.5801 8.72365Z" fill="white"/>
</svg>
