<svg width="7" height="8" viewBox="0 0 7 8" fill="none" xmlns="http://www.w3.org/2000/svg">
<path d="M6.72497 3.24155C6.63666 3.03785 6.52867 2.84286 6.40249 2.65923L5.72483 3.10677C5.92013 3.39086 6.05714 3.70939 6.12824 4.04464C6.20069 4.3941 6.20069 4.75424 6.12824 5.1037C6.09274 5.27249 6.04017 5.43742 5.97129 5.59603C5.90434 5.75187 5.82178 5.90084 5.72483 6.04077C5.5311 6.32033 5.28475 6.56126 4.99894 6.75067C4.70886 6.94168 4.38362 7.07575 4.0413 7.14541C3.68435 7.2154 3.31677 7.2154 2.95982 7.14541C2.44608 7.04214 1.97466 6.79348 1.60409 6.43031C1.3593 6.19064 1.16392 5.90713 1.0286 5.59523C0.960326 5.43661 0.908034 5.27185 0.872472 5.1033C0.764577 4.5828 0.818972 4.04259 1.0286 3.55271C1.1634 3.24087 1.3587 2.95755 1.60368 2.71843C1.84855 2.4793 2.13796 2.28829 2.45627 2.1557C2.61772 2.08891 2.78734 2.03732 2.959 2.00292C3.00274 1.99412 3.04729 1.99013 3.09143 1.98333V3.19956L5.13504 1.59978L3.09143 0V1.17504C2.99207 1.1858 2.89321 1.20061 2.7951 1.21943C2.34721 1.30924 1.92179 1.48456 1.54319 1.73536C0.870627 2.17931 0.3765 2.83803 0.145249 3.59895C-0.0860026 4.35987 -0.0400236 5.17576 0.275328 5.90719C0.450892 6.31442 0.70561 6.68442 1.02533 6.99663C1.34463 7.30846 1.72218 7.55734 2.13747 7.72973C2.79034 8.00002 3.51177 8.06962 4.20602 7.92931C4.76174 7.81692 5.28126 7.57418 5.71996 7.22196C6.15865 6.86973 6.5034 6.41855 6.72457 5.90719C6.81448 5.69921 6.88356 5.48284 6.92893 5.26407C7.02369 4.80881 7.02369 4.33953 6.92893 3.88426C6.88236 3.66407 6.81406 3.44882 6.72497 3.24155Z" fill="#545454"/>
</svg>
