<svg width="35" height="35" viewBox="0 0 35 35" fill="none" xmlns="http://www.w3.org/2000/svg">
<path d="M17.5 0C7.83398 0 0 7.83398 0 17.5C0 27.166 7.83398 35 17.5 35C27.166 35 35 27.166 35 17.5C35 7.83398 27.166 0 17.5 0ZM17.5 8.75C20.2187 8.75 22.4219 10.9539 22.4219 13.6719C22.4219 16.3898 20.2207 18.5938 17.5 18.5938C14.782 18.5938 12.5781 16.3898 12.5781 13.6719C12.5781 10.9539 14.7793 8.75 17.5 8.75ZM17.5 30.625C13.8817 30.625 10.6025 29.1532 8.22363 26.7771C9.33105 23.9189 12.0654 21.875 15.3125 21.875H19.6875C22.9373 21.875 25.6717 23.9176 26.7764 26.7771C24.3975 29.1553 21.1162 30.625 17.5 30.625Z" fill="#63DCA4"/>
</svg>
