<svg width="24" height="24" viewBox="0 0 24 24" fill="none" xmlns="http://www.w3.org/2000/svg">
<path d="M15.6 7.19961C15.6 8.15439 15.2207 9.07006 14.5456 9.74519C13.8705 10.4203 12.9548 10.7996 12 10.7996C11.0452 10.7996 10.1295 10.4203 9.45441 9.74519C8.77928 9.07006 8.4 8.15439 8.4 7.19961C8.4 6.24483 8.77928 5.32916 9.45441 4.65403C10.1295 3.97889 11.0452 3.59961 12 3.59961C12.9548 3.59961 13.8705 3.97889 14.5456 4.65403C15.2207 5.32916 15.6 6.24483 15.6 7.19961ZM21.6 9.59961C21.6 10.2361 21.3471 10.8466 20.8971 11.2967C20.447 11.7468 19.8365 11.9996 19.2 11.9996C18.5635 11.9996 17.953 11.7468 17.5029 11.2967C17.0529 10.8466 16.8 10.2361 16.8 9.59961C16.8 8.96309 17.0529 8.35264 17.5029 7.90255C17.953 7.45247 18.5635 7.19961 19.2 7.19961C19.8365 7.19961 20.447 7.45247 20.8971 7.90255C21.3471 8.35264 21.6 8.96309 21.6 9.59961ZM16.8 17.9996C16.8 16.7266 16.2943 15.5057 15.3941 14.6055C14.4939 13.7053 13.273 13.1996 12 13.1996C10.727 13.1996 9.50606 13.7053 8.60589 14.6055C7.70571 15.5057 7.2 16.7266 7.2 17.9996V21.5996H16.8V17.9996ZM7.2 9.59961C7.2 10.2361 6.94714 10.8466 6.49705 11.2967C6.04697 11.7468 5.43652 11.9996 4.8 11.9996C4.16348 11.9996 3.55303 11.7468 3.10294 11.2967C2.65285 10.8466 2.4 10.2361 2.4 9.59961C2.4 8.96309 2.65285 8.35264 3.10294 7.90255C3.55303 7.45247 4.16348 7.19961 4.8 7.19961C5.43652 7.19961 6.04697 7.45247 6.49705 7.90255C6.94714 8.35264 7.2 8.96309 7.2 9.59961ZM19.2 21.5996V17.9996C19.2017 16.7795 18.892 15.5792 18.3 14.5124C18.832 14.3763 19.3881 14.3634 19.9258 14.4749C20.4636 14.5863 20.9687 14.8191 21.4028 15.1555C21.8369 15.4919 22.1884 15.923 22.4305 16.4159C22.6727 16.9088 22.7991 17.4504 22.8 17.9996V21.5996H19.2ZM5.7 14.5124C5.10809 15.5793 4.79832 16.7796 4.8 17.9996V21.5996H1.2V17.9996C1.19977 17.4501 1.32535 16.9077 1.56713 16.4142C1.80891 15.9207 2.16047 15.4891 2.59486 15.1525C3.02925 14.8159 3.53493 14.5832 4.07317 14.4722C4.6114 14.3613 5.1679 14.375 5.7 14.5124Z" fill="#E71575"/>
</svg>
