<svg width="42" height="41" viewBox="0 0 42 41" fill="none" xmlns="http://www.w3.org/2000/svg">
<path d="M21.0952 40C10.1191 40 1.19043 31.2529 1.19043 20.5C1.19043 9.74707 10.1191 1 21.0952 1C32.0713 1 41 9.74707 41 20.5C41 31.2529 32.0713 40 21.0952 40ZM8.58863 34.4648C11.9307 37.3416 16.3082 39.0859 21.0952 39.0859C25.8809 39.0859 30.2597 37.3416 33.6005 34.4648H33.5875C33.5875 28.9538 29.7763 24.1042 24.3181 22.6709C24.1314 22.6227 23.9967 22.4678 23.9746 22.2812C23.9513 22.0958 24.0498 21.9143 24.2183 21.8267C26.3928 20.6879 27.7431 18.4814 27.7431 16.0706C27.7431 12.4651 24.7548 9.53125 21.0822 9.53125C17.4097 9.53125 14.4201 12.4651 14.4201 16.0706C14.4201 18.4814 15.7704 20.6879 17.9449 21.8267C18.1134 21.9143 18.2106 22.0958 18.1885 22.2812C18.1665 22.4665 18.0304 22.6227 17.8464 22.6709C12.4024 24.0991 8.60288 28.9487 8.60288 34.4648H8.58863ZM25.5466 22.0869C30.6173 23.8351 34.159 28.4003 34.4946 33.6447C37.9352 30.2792 40.0669 25.6289 40.0669 20.5C40.0669 10.2511 31.5569 1.91406 21.0952 1.91406C10.6335 1.91406 2.12347 10.2511 2.12347 20.5C2.12347 25.6289 4.25519 30.2792 7.69576 33.6447C8.0301 28.3952 11.5601 23.8325 16.6153 22.0869C14.6637 20.698 13.4858 18.4738 13.4858 16.0706C13.4858 11.9611 16.8926 8.61719 21.0796 8.61719C25.2679 8.61719 28.6748 11.9599 28.6748 16.0706C28.6761 18.4738 27.4981 20.698 25.5466 22.0869Z" fill="#777777" stroke="#777777" stroke-width="2"/>
</svg>
