<svg width="15" height="15" viewBox="0 0 15 15" fill="none" xmlns="http://www.w3.org/2000/svg">
<path d="M7.5 7.96875C5.51875 7.96875 3.90625 6.35625 3.90625 4.375C3.90625 2.39375 5.51875 0.78125 7.5 0.78125C9.48125 0.78125 11.0938 2.39375 11.0938 4.375C11.0938 6.35625 9.48125 7.96875 7.5 7.96875ZM7.5 1.71875C6.0375 1.71875 4.84375 2.9125 4.84375 4.375C4.84375 5.8375 6.0375 7.03125 7.5 7.03125C8.9625 7.03125 10.1562 5.8375 10.1562 4.375C10.1562 2.9125 8.9625 1.71875 7.5 1.71875Z" fill="#4A4A4A"/>
<path d="M12.8688 14.2188C12.6126 14.2188 12.4001 14.0062 12.4001 13.75C12.4001 11.5937 10.2001 9.84375 7.5001 9.84375C4.8001 9.84375 2.6001 11.5937 2.6001 13.75C2.6001 14.0062 2.3876 14.2188 2.13135 14.2188C1.8751 14.2188 1.6626 14.0062 1.6626 13.75C1.6626 11.0813 4.28135 8.90625 7.5001 8.90625C10.7188 8.90625 13.3376 11.0813 13.3376 13.75C13.3376 14.0062 13.1251 14.2188 12.8688 14.2188Z" fill="#4A4A4A"/>
</svg>
