<svg width="32" height="32" viewBox="0 0 32 32" fill="none" xmlns="http://www.w3.org/2000/svg">
<path d="M30.3583 18.3748C30.155 18.5275 29.8993 18.5932 29.6476 18.5574C29.3958 18.5216 29.1685 18.3873 29.0158 18.184C28.4377 17.4071 27.6854 16.7768 26.8193 16.3438C25.9532 15.9108 24.9975 15.6871 24.0292 15.6908C23.7749 15.6908 23.531 15.5898 23.3512 15.41C23.1713 15.2302 23.0703 14.9863 23.0703 14.732C23.0703 14.4777 23.1713 14.2338 23.3512 14.054C23.531 13.8741 23.7749 13.7731 24.0292 13.7731C24.5749 13.773 25.1094 13.6176 25.5701 13.3251C26.0308 13.0326 26.3989 12.6151 26.6312 12.1213C26.8636 11.6275 26.9507 11.0778 26.8823 10.5363C26.814 9.99488 26.593 9.48405 26.2453 9.06347C25.8975 8.64289 25.4372 8.32992 24.9183 8.16109C24.3993 7.99227 23.843 7.97456 23.3144 8.11003C22.7857 8.2455 22.3065 8.52857 21.9327 8.92617C21.5588 9.32378 21.3058 9.81952 21.2032 10.3555C21.1557 10.6054 21.011 10.8261 20.8008 10.9692C20.5905 11.1123 20.3321 11.1661 20.0822 11.1186C19.8324 11.0711 19.6116 10.9264 19.4685 10.7161C19.3254 10.5059 19.2717 10.2475 19.3192 9.99763C19.461 9.25146 19.7782 8.54968 20.2444 7.9501C20.7107 7.35052 21.3127 6.8703 22.001 6.54899C22.6892 6.22769 23.4439 6.0745 24.2029 6.10205C24.962 6.1296 25.7036 6.3371 26.3667 6.70745C27.0299 7.0778 27.5955 7.6004 28.0171 8.2322C28.4386 8.86401 28.7041 9.58693 28.7915 10.3414C28.8789 11.0959 28.7858 11.8604 28.5198 12.5718C28.2539 13.2833 27.8227 13.9214 27.2618 14.4335C28.5659 14.9975 29.6992 15.8935 30.549 17.0321C30.6247 17.1328 30.6798 17.2474 30.7111 17.3694C30.7425 17.4913 30.7495 17.6183 30.7318 17.7429C30.7141 17.8676 30.672 17.9876 30.608 18.096C30.5439 18.2044 30.4591 18.2991 30.3585 18.3748H30.3583ZM23.6404 26.2974C23.6968 26.4108 23.7302 26.5341 23.7387 26.6604C23.7472 26.7868 23.7306 26.9135 23.6898 27.0334C23.6491 27.1532 23.585 27.2638 23.5013 27.3588C23.4176 27.4538 23.3159 27.5312 23.2021 27.5867C23.0883 27.6421 22.9647 27.6745 22.8383 27.682C22.7119 27.6894 22.5853 27.6717 22.4658 27.63C22.3463 27.5882 22.2362 27.5232 22.142 27.4387C22.0477 27.3542 21.9711 27.2519 21.9166 27.1376C21.3655 26.0054 20.5071 25.051 19.4395 24.3834C18.3719 23.7157 17.1381 23.3616 15.8789 23.3616C14.6197 23.3616 13.3859 23.7157 12.3183 24.3834C11.2507 25.051 10.3924 26.0054 9.84126 27.1376C9.72984 27.3662 9.53217 27.5412 9.29174 27.6241C9.05131 27.7069 8.78781 27.6909 8.55921 27.5795C8.3306 27.4681 8.15562 27.2704 8.07276 27.03C7.9899 26.7895 8.00594 26.526 8.11736 26.2974C9.00455 24.4598 10.5169 22.998 12.3837 22.1739C11.4283 21.4431 10.7259 20.4313 10.3755 19.2806C10.025 18.13 10.0439 16.8984 10.4297 15.7591C10.8155 14.6199 11.5486 13.6301 12.5261 12.9291C13.5035 12.2281 14.6761 11.8511 15.8789 11.8511C17.0818 11.8511 18.2543 12.2281 19.2318 12.9291C20.2092 13.6301 20.9424 14.6199 21.3281 15.7591C21.7139 16.8984 21.7329 18.13 21.3824 19.2806C21.0319 20.4313 20.3296 21.4431 19.3742 22.1739C21.2409 22.998 22.7533 24.4598 23.6405 26.2974H23.6404ZM15.8789 21.444C16.6375 21.444 17.379 21.219 18.0098 20.7976C18.6405 20.3761 19.1321 19.7771 19.4224 19.0763C19.7127 18.3755 19.7886 17.6043 19.6406 16.8603C19.4926 16.1163 19.1274 15.4329 18.591 14.8965C18.0546 14.3601 17.3712 13.9948 16.6272 13.8468C15.8832 13.6988 15.112 13.7748 14.4112 14.0651C13.7103 14.3554 13.1113 14.847 12.6899 15.4777C12.2684 16.1084 12.0435 16.85 12.0435 17.6085C12.0446 18.6254 12.4491 19.6003 13.1681 20.3193C13.8872 21.0384 14.8621 21.4428 15.8789 21.444ZM8.68751 14.732C8.68751 14.4777 8.58649 14.2338 8.40667 14.054C8.22685 13.8741 7.98296 13.7731 7.72866 13.7731C7.18293 13.773 6.64849 13.6176 6.18776 13.3251C5.72702 13.0326 5.35899 12.6151 5.12663 12.1213C4.89428 11.6275 4.80718 11.0778 4.87552 10.5364C4.94386 9.99491 5.16481 9.48409 5.51257 9.06351C5.86033 8.64293 6.32056 8.32995 6.83952 8.16111C7.35848 7.99228 7.91476 7.97456 8.44342 8.11001C8.97208 8.24546 9.4513 8.52851 9.82513 8.9261C10.199 9.32369 10.452 9.81941 10.5546 10.3554C10.6046 10.6028 10.7501 10.8205 10.9595 10.9613C11.169 11.1022 11.4255 11.1547 11.6734 11.1076C11.9214 11.0606 12.1408 10.9176 12.284 10.7098C12.4272 10.502 12.4828 10.2461 12.4386 9.99763C12.2967 9.25143 11.9796 8.54961 11.5134 7.94998C11.0471 7.35036 10.4451 6.8701 9.7568 6.54877C9.06856 6.22744 8.31381 6.07424 7.55474 6.10179C6.79568 6.12933 6.05402 6.33684 5.39088 6.70721C4.72773 7.07758 4.16208 7.60022 3.74052 8.23206C3.31895 8.8639 3.05355 9.58686 2.96617 10.3414C2.87879 11.0959 2.97194 11.8604 3.23794 12.5719C3.50394 13.2833 3.93518 13.9214 4.49612 14.4335C3.19198 14.9975 2.05848 15.8936 1.20869 17.0324C1.13306 17.1331 1.07801 17.2477 1.04666 17.3696C1.01532 17.4916 1.0083 17.6185 1.02601 17.7432C1.06179 17.995 1.19611 18.2222 1.39945 18.375C1.60278 18.5277 1.85846 18.5934 2.11024 18.5576C2.36202 18.5219 2.58928 18.3875 2.74202 18.1842C3.32006 17.4073 4.07241 16.777 4.93852 16.3439C5.80463 15.9108 6.76032 15.6871 7.72866 15.6908C7.98296 15.6908 8.22685 15.5898 8.40667 15.41C8.58649 15.2302 8.68751 14.9863 8.68751 14.732Z" fill="#E71575"/>
</svg>
