<svg width="24" height="24" viewBox="0 0 24 24" fill="none" xmlns="http://www.w3.org/2000/svg">
<path d="M10.95 12.7004L9.575 11.3004C9.375 11.1004 9.13767 11.0004 8.863 11.0004C8.58767 11.0004 8.35 11.1004 8.15 11.3004C7.95 11.5004 7.846 11.7377 7.838 12.0124C7.82933 12.2877 7.925 12.5254 8.125 12.7254L10.25 14.8504C10.45 15.0504 10.6833 15.1504 10.95 15.1504C11.2167 15.1504 11.45 15.0504 11.65 14.8504L15.9 10.6004C16.1 10.4004 16.2 10.1627 16.2 9.88739C16.2 9.61272 16.1 9.37539 15.9 9.17539C15.7 8.97539 15.4627 8.87539 15.188 8.87539C14.9127 8.87539 14.675 8.97539 14.475 9.17539L10.95 12.7004ZM12 21.9254H11.75C11.6667 21.9254 11.5917 21.9087 11.525 21.8754C9.34167 21.1921 7.54167 19.8377 6.125 17.8124C4.70833 15.7877 4 13.5504 4 11.1004V6.37539C4 5.95872 4.121 5.58372 4.363 5.25039C4.60433 4.91706 4.91667 4.67539 5.3 4.52539L11.3 2.27539C11.5333 2.19206 11.7667 2.15039 12 2.15039C12.2333 2.15039 12.4667 2.19206 12.7 2.27539L18.7 4.52539C19.0833 4.67539 19.396 4.91706 19.638 5.25039C19.8793 5.58372 20 5.95872 20 6.37539V11.1004C20 13.5504 19.2917 15.7877 17.875 17.8124C16.4583 19.8377 14.6583 21.1921 12.475 21.8754C12.3917 21.9087 12.2333 21.9254 12 21.9254Z" fill="#1875FF"/>
</svg>
