<svg width="24" height="25" viewBox="0 0 24 25" fill="none" xmlns="http://www.w3.org/2000/svg">
<path d="M21.15 6.48641C20.74 6.26641 19.88 6.03641 18.71 6.85641L17.24 7.89641C17.13 4.78641 15.78 3.56641 12.5 3.56641H6.5C3.08 3.56641 1.75 4.89641 1.75 8.31641V16.3164C1.75 18.6164 3 21.0664 6.5 21.0664H12.5C15.78 21.0664 17.13 19.8464 17.24 16.7364L18.71 17.7764C19.33 18.2164 19.87 18.3564 20.3 18.3564C20.67 18.3564 20.96 18.2464 21.15 18.1464C21.56 17.9364 22.25 17.3664 22.25 15.9364V8.69641C22.25 7.26641 21.56 6.69641 21.15 6.48641ZM11 11.6964C9.97 11.6964 9.12 10.8564 9.12 9.81641C9.12 8.77641 9.97 7.93641 11 7.93641C12.03 7.93641 12.88 8.77641 12.88 9.81641C12.88 10.8564 12.03 11.6964 11 11.6964Z" fill="#9C9C9C"/>
</svg>
