<svg width="33" height="31" viewBox="0 0 33 31" fill="none" xmlns="http://www.w3.org/2000/svg">
<path d="M28.9025 24.8045C28.9096 24.7945 28.9204 24.7845 28.9276 24.7745C31.2774 22.1757 32.6909 18.8262 32.6909 15.1665C32.6909 11.5068 31.2774 8.15732 28.9312 5.55849C28.924 5.54848 28.9132 5.54181 28.9061 5.5318C28.8666 5.48843 28.8307 5.4484 28.7913 5.40836C28.7769 5.39168 28.7626 5.37834 28.7482 5.36166L28.6011 5.20486L28.5975 5.20152C28.5437 5.14481 28.4863 5.0881 28.4325 5.03138L28.4289 5.02805C28.3141 4.91462 28.1993 4.80119 28.0809 4.6911L28.0773 4.68776L27.9051 4.52763L27.8944 4.51762C27.8406 4.46758 27.7868 4.42087 27.7329 4.37417C27.715 4.35749 27.6971 4.34081 27.6755 4.32412C27.6397 4.29076 27.6038 4.26074 27.5679 4.23071C27.5572 4.22071 27.5428 4.2107 27.532 4.19735C24.6692 1.72863 20.8342 0.220703 16.6189 0.220703C12.4036 0.220703 8.56852 1.72863 5.70211 4.19735C5.69135 4.20736 5.677 4.21737 5.66624 4.23071C5.63036 4.26074 5.59449 4.2941 5.55861 4.32746C5.54067 4.34414 5.52274 4.36082 5.50121 4.3775C5.4474 4.42421 5.39359 4.47425 5.33977 4.52096L5.32901 4.53096L5.15681 4.6911L5.15322 4.69443C5.03484 4.80453 4.92004 4.91795 4.80524 5.03138L4.80165 5.03472C4.74425 5.09143 4.69044 5.14815 4.63662 5.20486L4.63304 5.2082C4.58281 5.25824 4.53259 5.31161 4.48595 5.36499C4.4716 5.38167 4.45725 5.39502 4.4429 5.4117C4.40344 5.45173 4.36756 5.4951 4.3281 5.53513C4.32092 5.54514 4.31016 5.55182 4.30299 5.56182C1.96035 8.15732 0.546875 11.5068 0.546875 15.1665C0.546875 18.8262 1.96035 22.1757 4.30657 24.7745C4.31375 24.7845 4.32451 24.7945 4.33169 24.8045L4.4429 24.928C4.45725 24.9447 4.4716 24.958 4.48595 24.9747L4.63304 25.1315C4.63304 25.1348 4.63662 25.1348 4.63662 25.1381C4.69044 25.1949 4.74425 25.2516 4.80165 25.305L4.80524 25.3083C4.92004 25.4217 5.03484 25.5351 5.14964 25.6452L5.15322 25.6486C5.21062 25.702 5.26444 25.7553 5.32184 25.8054L5.3326 25.8154C5.45099 25.9255 5.57296 26.0322 5.69494 26.1356C8.56852 28.6044 12.4036 30.1123 16.6189 30.1123C20.8342 30.1123 24.6692 28.6044 27.5356 26.1356C27.6578 26.0315 27.7775 25.9247 27.8944 25.8154L27.9051 25.8054C27.9625 25.752 28.0199 25.702 28.0738 25.6486L28.0773 25.6452C28.1957 25.5351 28.3105 25.4217 28.4217 25.3083L28.4253 25.305C28.4791 25.2482 28.5365 25.1949 28.5904 25.1381C28.5904 25.1348 28.5939 25.1348 28.5939 25.1315C28.6442 25.0814 28.6944 25.0281 28.741 24.9747C28.7554 24.958 28.7697 24.9447 28.7841 24.928C28.8246 24.8878 28.8641 24.8466 28.9025 24.8045ZM29.0496 20.0472C28.5545 21.1348 27.9016 22.1423 27.1051 23.0564C26.2082 22.3356 25.2275 21.7101 24.1813 21.1915C24.5975 19.6269 24.8558 17.9088 24.9239 16.1006H30.072C29.9644 17.4651 29.62 18.7895 29.0496 20.0472ZM30.072 14.2324H24.9239C24.8558 12.4242 24.5975 10.7061 24.1813 9.14147C25.2325 8.62104 26.2118 7.99385 27.1051 7.27659C28.8363 9.25815 29.8719 11.6861 30.072 14.2324ZM21.8674 3.60686C23.2916 4.16733 24.5867 4.94131 25.7275 5.91545C25.0648 6.4402 24.3515 6.90701 23.5966 7.30995C23.0333 5.8087 22.3122 4.50428 21.4728 3.46007C21.6055 3.50678 21.7382 3.55682 21.8674 3.60686ZM18.6171 26.9797C18.2871 27.2199 17.957 27.4034 17.6234 27.5268V21.3383C19.0469 21.4307 20.4467 21.7254 21.7741 22.2124C21.4763 23.0331 21.1319 23.7904 20.7337 24.4743C20.1095 25.5552 19.3777 26.4192 18.6171 26.9797ZM20.7337 5.85874C21.1284 6.54598 21.4763 7.30328 21.7741 8.12062C20.4467 8.60755 19.0469 8.90233 17.6234 8.99469V2.80953C17.9534 2.93297 18.2871 3.11312 18.6171 3.35665C19.3777 3.91378 20.1095 4.77784 20.7337 5.85874ZM17.6234 19.4668V16.1006H22.9149C22.8575 17.5752 22.6602 19.0064 22.3302 20.3642L22.3194 20.4042C20.8139 19.8733 19.2306 19.5572 17.6234 19.4668ZM17.6234 14.2324V10.8662C19.2664 10.7728 20.8449 10.4492 22.3194 9.9288L22.3302 9.96883C22.6602 11.3266 22.8575 12.7545 22.9149 14.2324H17.6234ZM15.6144 16.1006V19.4668C13.9713 19.5602 12.3928 19.8838 10.9183 20.4042L10.9076 20.3642C10.5775 19.0064 10.3802 17.5785 10.3228 16.1006H15.6144ZM10.3228 14.2324C10.3802 12.7578 10.5775 11.3266 10.9076 9.96883L10.9183 9.9288C12.3928 10.4492 13.9677 10.7728 15.6144 10.8662V14.2324H10.3228ZM15.6144 21.3383V27.5235C15.2843 27.4 14.9507 27.2199 14.6206 26.9763C13.8601 26.4192 13.1246 25.5518 12.5004 24.4709C12.1058 23.7837 11.7578 23.0264 11.46 22.209C12.7946 21.722 14.183 21.4317 15.6144 21.3383ZM15.6144 8.99469C14.1909 8.90233 12.791 8.60755 11.4636 8.12062C11.7614 7.29994 12.1058 6.54264 12.504 5.85874C13.1282 4.77784 13.8601 3.91045 14.6242 3.35332C14.9543 3.11311 15.2843 2.92963 15.618 2.80619V8.99469H15.6144ZM11.3704 3.60686C11.5031 3.55682 11.6322 3.50678 11.765 3.46007C10.9255 4.50428 10.2044 5.8087 9.64118 7.30995C8.88781 6.90961 8.1739 6.44256 7.51021 5.91545C8.65104 4.94131 9.94612 4.16733 11.3704 3.60686ZM4.18819 10.2858C4.68326 9.19819 5.33619 8.19068 6.13261 7.27659C7.0259 7.99385 8.00529 8.62104 9.05642 9.14147C8.64027 10.7061 8.38197 12.4242 8.31381 14.2324H3.16575C3.27337 12.8679 3.61777 11.5435 4.18819 10.2858ZM3.16575 16.1006H8.31381C8.38197 17.9088 8.64027 19.6269 9.05642 21.1915C8.01024 21.7101 7.02956 22.3356 6.13261 23.0564C4.40139 21.0748 3.36582 18.6469 3.16575 16.1006ZM11.3704 26.7261C9.94612 26.1657 8.65104 25.3917 7.51021 24.4175C8.1739 23.8904 8.88781 23.4267 9.64118 23.0231C10.2044 24.5243 10.9255 25.8287 11.765 26.8729C11.6322 26.8262 11.4995 26.7762 11.3704 26.7261ZM21.8674 26.7261C21.7346 26.7762 21.6055 26.8262 21.4728 26.8729C22.3122 25.8287 23.0333 24.5243 23.5966 23.0231C24.3499 23.4234 25.0638 23.8904 25.7275 24.4175C24.593 25.3876 23.2872 26.1686 21.8674 26.7261Z" fill="#E71575"/>
</svg>
