<svg width="28" height="28" viewBox="0 0 28 28" fill="none" xmlns="http://www.w3.org/2000/svg">
<g filter="url(#filter0_d_9_2077)">
<path d="M14.1 16.9482L14 17.0572L13.89 16.9482C9.14 12.2507 6 9.14441 6 5.99455C6 3.81471 7.5 2.17984 9.5 2.17984C11.04 2.17984 12.54 3.26975 13.07 4.75204H14.93C15.46 3.26975 16.96 2.17984 18.5 2.17984C20.5 2.17984 22 3.81471 22 5.99455C22 9.14441 18.86 12.2507 14.1 16.9482ZM18.5 0C16.76 0 15.09 0.882834 14 2.26703C12.91 0.882834 11.24 0 9.5 0C6.42 0 4 2.6267 4 5.99455C4 10.1035 7.4 13.4714 12.55 18.5613L14 20L15.45 18.5613C20.6 13.4714 24 10.1035 24 5.99455C24 2.6267 21.58 0 18.5 0Z" fill="white"/>
</g>
<path d="M14.1 16.9482L14 17.0572L13.89 16.9482C9.14 12.2507 6 9.14441 6 5.99455C6 3.81471 7.5 2.17984 9.5 2.17984C11.04 2.17984 12.54 3.26975 13.07 4.75204H14.93C15.46 3.26975 16.96 2.17984 18.5 2.17984C20.5 2.17984 22 3.81471 22 5.99455C22 9.14441 18.86 12.2507 14.1 16.9482ZM18.5 0C16.76 0 15.09 0.882834 14 2.26703C12.91 0.882834 11.24 0 9.5 0C6.42 0 4 2.6267 4 5.99455C4 10.1035 7.4 13.4714 12.55 18.5613L14 20L15.45 18.5613C20.6 13.4714 24 10.1035 24 5.99455C24 2.6267 21.58 0 18.5 0Z" fill="white"/>
<defs>
<filter id="filter0_d_9_2077" x="0" y="0" width="28" height="28" filterUnits="userSpaceOnUse" color-interpolation-filters="sRGB">
<feFlood flood-opacity="0" result="BackgroundImageFix"/>
<feColorMatrix in="SourceAlpha" type="matrix" values="0 0 0 0 0 0 0 0 0 0 0 0 0 0 0 0 0 0 127 0" result="hardAlpha"/>
<feOffset dy="4"/>
<feGaussianBlur stdDeviation="2"/>
<feComposite in2="hardAlpha" operator="out"/>
<feColorMatrix type="matrix" values="0 0 0 0 0 0 0 0 0 0 0 0 0 0 0 0 0 0 0.25 0"/>
<feBlend mode="normal" in2="BackgroundImageFix" result="effect1_dropShadow_9_2077"/>
<feBlend mode="normal" in="SourceGraphic" in2="effect1_dropShadow_9_2077" result="shape"/>
</filter>
</defs>
</svg>
