<svg width="21" height="16" viewBox="0 0 21 16" fill="none" xmlns="http://www.w3.org/2000/svg">
<path d="M10.6127 16L13.8366 11.7333C12.9411 11.0667 11.8217 10.6667 10.6127 10.6667C9.40377 10.6667 8.28436 11.0667 7.38884 11.7333L10.6127 16ZM10.6127 0C6.98585 0 3.6366 1.19111 0.941071 3.2L2.55301 5.33333C4.79182 3.66222 7.58586 2.66667 10.6127 2.66667C13.6396 2.66667 16.4336 3.66222 18.6724 5.33333L20.2844 3.2C17.5889 1.19111 14.2396 0 10.6127 0ZM10.6127 5.33333C8.19481 5.33333 5.96496 6.12444 4.16496 7.46667L5.7769 9.6C7.12018 8.59556 8.79481 8 10.6127 8C12.4306 8 14.1053 8.59556 15.4486 9.6L17.0605 7.46667C15.2605 6.12444 13.0306 5.33333 10.6127 5.33333Z" fill="white"/>
</svg>
