<svg width="14" height="13" viewBox="0 0 14 13" fill="none" xmlns="http://www.w3.org/2000/svg">
<path d="M1.16158 11.3081C0.845171 11.6246 0.830104 12.1896 1.16911 12.521C1.50058 12.8525 2.06559 12.845 2.382 12.5286L6.99249 7.91055L11.6105 12.5286C11.9345 12.8525 12.4919 12.8525 12.8234 12.521C13.1473 12.182 13.1549 11.6321 12.8234 11.3081L8.21292 6.69012L12.8234 2.07963C13.1549 1.75569 13.1549 1.19822 12.8234 0.866742C12.4844 0.542802 11.9345 0.535269 11.6105 0.859209L6.99249 5.47723L2.382 0.859209C2.06559 0.542802 1.49305 0.527736 1.16911 0.866742C0.837637 1.19822 0.845171 1.76323 1.16158 2.07963L5.7796 6.69012L1.16158 11.3081Z" fill="black"/>
</svg>
