<svg width="110" height="49" viewBox="0 0 110 49" fill="none" xmlns="http://www.w3.org/2000/svg">
<path d="M13.9369 23.7648C13.9369 22.3487 14.2296 21.0893 14.8151 19.9864C15.4142 18.8699 16.2584 18.0053 17.3476 17.3926C18.4369 16.7663 19.6895 16.4531 21.1056 16.4531C22.9029 16.4531 24.4142 16.9365 25.6396 17.9032C26.865 18.8563 27.6547 20.1566 28.0088 21.8041H23.6994C23.4407 21.2595 23.0799 20.8442 22.6169 20.5583C22.1676 20.2723 21.6434 20.1294 21.0443 20.1294C20.1184 20.1294 19.3764 20.463 18.8181 21.1301C18.2735 21.7837 18.0012 22.6619 18.0012 23.7648C18.0012 24.8813 18.2735 25.7731 18.8181 26.4403C19.3764 27.0938 20.1184 27.4206 21.0443 27.4206C21.6434 27.4206 22.1676 27.2776 22.6169 26.9917C23.0799 26.7058 23.4407 26.2905 23.6994 25.7459H28.0088C27.6547 27.3934 26.865 28.7005 25.6396 29.6672C24.4142 30.6203 22.9029 31.0968 21.1056 31.0968C19.6895 31.0968 18.4369 30.7905 17.3476 30.1778C16.2584 29.5515 15.4142 28.6869 14.8151 27.584C14.2296 26.4675 13.9369 25.1944 13.9369 23.7648Z" fill="#222222"/>
<path d="M35.2349 31.1377C34.0912 31.1377 33.0632 30.8994 32.1509 30.4229C31.2523 29.9463 30.5443 29.2655 30.0269 28.3805C29.5095 27.4955 29.2508 26.4539 29.2508 25.2557C29.2508 24.0711 29.5095 23.0363 30.0269 22.1513C30.5579 21.2663 31.2727 20.5855 32.1713 20.1089C33.0836 19.6324 34.1116 19.3941 35.2553 19.3941C36.399 19.3941 37.4202 19.6324 38.3188 20.1089C39.2311 20.5855 39.9459 21.2663 40.4633 22.1513C40.9943 23.0363 41.2598 24.0711 41.2598 25.2557C41.2598 26.4403 40.9943 27.4819 40.4633 28.3805C39.9459 29.2655 39.2311 29.9463 38.3188 30.4229C37.4066 30.8994 36.3786 31.1377 35.2349 31.1377ZM35.2349 27.6657C35.7931 27.6657 36.2561 27.4614 36.6237 27.053C37.0049 26.6309 37.1955 26.0318 37.1955 25.2557C37.1955 24.4796 37.0049 23.8873 36.6237 23.4788C36.2561 23.0704 35.7999 22.8661 35.2553 22.8661C34.7107 22.8661 34.2545 23.0704 33.8869 23.4788C33.5193 23.8873 33.3355 24.4796 33.3355 25.2557C33.3355 26.0454 33.5125 26.6445 33.8665 27.053C34.2205 27.4614 34.6766 27.6657 35.2349 27.6657Z" fill="#222222"/>
<path d="M54.6116 19.5371V30.9947H50.5882V29.3608C50.2478 29.8782 49.778 30.3003 49.1789 30.6271C48.5798 30.9403 47.8923 31.0968 47.1162 31.0968C45.7818 31.0968 44.7266 30.6611 43.9505 29.7897C43.188 28.9047 42.8068 27.7065 42.8068 26.1952V19.5371H46.7894V25.6846C46.7894 26.3382 46.9596 26.8555 47.3 27.2368C47.654 27.6044 48.1169 27.7882 48.6888 27.7882C49.2742 27.7882 49.7372 27.6044 50.0776 27.2368C50.418 26.8555 50.5882 26.3382 50.5882 25.6846V19.5371H54.6116Z" fill="#222222"/>
<path d="M64.3853 19.435C65.706 19.435 66.7544 19.8775 67.5305 20.7625C68.3066 21.6339 68.6947 22.8185 68.6947 24.3162V30.9947H64.6916V24.8472C64.6916 24.1937 64.5214 23.6831 64.181 23.3155C63.8406 22.9342 63.3845 22.7436 62.8127 22.7436C62.2136 22.7436 61.7438 22.9342 61.4034 23.3155C61.063 23.6831 60.8928 24.1937 60.8928 24.8472V30.9947H56.8898V19.5371H60.8928V21.171C61.2468 20.6536 61.7234 20.2383 62.3225 19.9251C62.9216 19.5984 63.6092 19.435 64.3853 19.435Z" fill="#222222"/>
<path d="M77.6514 27.584V30.9947H75.9153C72.988 30.9947 71.5243 29.5447 71.5243 26.6445V22.8661H70.115V19.5371H71.5243V16.7595H75.5477V19.5371H77.6309V22.8661H75.5477V26.7058C75.5477 27.0189 75.6158 27.2436 75.752 27.3798C75.9017 27.5159 76.1468 27.584 76.4872 27.584H77.6514Z" fill="#222222"/>
<path d="M83.4904 21.559C83.9398 20.9055 84.4844 20.3881 85.1243 20.0068C85.7643 19.6256 86.4519 19.435 87.1871 19.435V23.7035H86.0638C85.1924 23.7035 84.5457 23.8737 84.1236 24.2141C83.7015 24.5545 83.4904 25.1468 83.4904 25.9909V30.9947H79.4874V19.5371H83.4904V21.559Z" fill="#222222"/>
<path d="M100.958 19.5371L93.6872 36.4478H89.337L92.0738 30.5046L87.3763 19.5371H91.8287L94.2387 26.0318L96.567 19.5371H100.958Z" fill="#222222"/>
<path fill-rule="evenodd" clip-rule="evenodd" d="M2.47595 14.2252C6.95954 12.3614 7.00057 12.3711 7.16563 15.3386C7.29202 17.6096 7.14535 18.1224 5.99415 19.4321L4.67837 20.9294L8.2343 20.8974C10.1901 20.88 11.7902 20.7016 11.7902 20.5019C11.7902 20.3022 11.2597 19.7811 10.6112 19.3444C9.57461 18.6464 9.43219 18.2058 9.43219 15.6978C9.43219 12.3488 9.55716 12.2989 13.6536 14.0095C15.1868 14.6498 16.5393 15.0735 16.6587 14.9508C17.2958 14.296 16.0951 12.8505 13.2876 10.8918L10.1396 8.69644L10.2589 5.55978C10.3542 3.0557 10.1924 2.17931 9.45435 1.2118L8.53047 -7.76385e-06L7.4585 1.09401C6.5266 2.04456 6.40068 2.61556 6.49642 5.45653L6.6063 8.72504L3.30315 11.0551C1.13846 12.5815 -4.07276e-07 13.707 -3.80494e-07 14.3197C-3.40661e-07 15.231 0.0622519 15.2286 2.47595 14.2252Z" fill="#222222"/>
<path fill-rule="evenodd" clip-rule="evenodd" d="M6.19888 34.0163V19.9248H9.7411V34.0163C9.7411 39.2739 13.9133 43.5828 19.1681 43.7523L23.5959 43.8951C29.096 44.0726 33.6511 39.6621 33.6511 34.1591V30.1087H37.1933V34.1591C37.1933 41.6631 30.9818 47.6775 23.4817 47.4355L19.0539 47.2927C11.8882 47.0615 6.19888 41.1857 6.19888 34.0163Z" fill="#222222"/>
<path d="M54.9792 48.3555C54.3251 48.3555 53.5916 48.2229 52.7784 47.9578C51.9653 47.6926 51.1257 47.3744 50.2595 47.0032C49.411 46.632 48.5802 46.2785 47.7671 45.9426C47.3252 46.4199 46.8479 46.7911 46.3353 47.0563C45.8227 47.3214 45.2747 47.454 44.6914 47.454C44.0727 47.454 43.5424 47.3126 43.1005 47.0298C42.6409 46.7646 42.2962 46.4376 42.0664 46.0487C41.819 45.6598 41.6952 45.3063 41.6952 44.9881C41.6952 44.6346 41.8543 44.3252 42.1725 44.0601C42.4907 43.7949 43.0563 43.6624 43.8694 43.6624C44.3467 43.6624 44.8682 43.7154 45.4338 43.8215C46.0171 43.9098 46.6093 44.0336 47.2103 44.1927C47.6169 43.4856 47.9881 42.6548 48.3239 41.7003C48.6775 40.7457 49.0222 39.747 49.358 38.7041C49.6939 37.6435 50.0297 36.6094 50.3656 35.6019C49.4818 35.3014 48.8012 34.886 48.3239 34.3557C47.8467 33.8077 47.608 33.2597 47.608 32.7117C47.608 32.3582 47.6964 32.0135 47.8732 31.6777C48.0499 31.3241 48.3063 31.0325 48.6421 30.8027C48.978 30.5552 49.3757 30.4315 49.8353 30.4315C49.6055 30.7143 49.4552 31.0325 49.3845 31.386C49.3315 31.7395 49.305 32.0223 49.305 32.2345C49.305 32.8178 49.4376 33.3127 49.7027 33.7193C49.9679 34.1259 50.2949 34.444 50.6838 34.6738C51.0196 33.6663 51.3731 32.7029 51.7444 31.7837C52.1332 30.8469 52.5575 30.0249 53.0171 29.3178C53.4943 28.5931 54.0158 28.0186 54.5814 27.5944C55.1648 27.1701 55.8188 26.958 56.5435 26.958C56.9501 26.958 57.3743 27.0464 57.8163 27.2232C58.2758 27.3822 58.6647 27.6651 58.9829 28.0716C59.3188 28.4782 59.4867 29.0615 59.4867 29.8216C59.4867 30.4226 59.3541 31.0678 59.089 31.7572C58.8415 32.4466 58.4438 33.1095 57.8958 33.7458C57.3478 34.3645 56.6408 34.886 55.7746 35.3102C54.9261 35.7167 53.8921 35.9377 52.6724 35.9731C52.637 35.9731 52.5928 35.9731 52.5398 35.9731C52.5044 35.9731 52.4691 35.9731 52.4337 35.9731C52.0979 36.9983 51.7444 38.0324 51.3731 39.0753C51.0019 40.1182 50.6042 41.1169 50.18 42.0715C49.7557 43.026 49.2961 43.8745 48.8012 44.6169C49.4906 44.8113 50.2507 45.0323 51.0815 45.2798C51.93 45.5272 52.7696 45.7394 53.6004 45.9161C54.4489 46.0752 55.1913 46.1548 55.8276 46.1548C56.2519 46.1548 56.6408 46.1106 56.9943 46.0222C57.3655 45.9161 57.7544 45.7659 58.1609 45.5714C57.8074 46.5613 57.3655 47.2684 56.8352 47.6926C56.3226 48.1345 55.7039 48.3555 54.9792 48.3555ZM44.4263 46.4729C44.8858 46.4729 45.2571 46.3669 45.5399 46.1548C45.8227 45.9603 46.1055 45.7129 46.3884 45.4124C45.8404 45.2179 45.3278 45.0588 44.8505 44.9351C44.3732 44.7937 43.9578 44.723 43.6043 44.723C43.2684 44.723 43.0298 44.7848 42.8884 44.9086C42.7293 45.0323 42.6498 45.1826 42.6498 45.3593C42.6498 45.6421 42.8265 45.8985 43.1801 46.1283C43.5336 46.358 43.949 46.4729 44.4263 46.4729ZM52.7254 35.0981C53.5032 35.045 54.1926 34.7976 54.7936 34.3557C55.3946 33.9137 55.9072 33.3834 56.3314 32.7648C56.7557 32.1461 57.0738 31.5186 57.286 30.8822C57.5158 30.2282 57.6306 29.6625 57.6306 29.1853C57.6306 28.7257 57.5423 28.4163 57.3655 28.2572C57.1887 28.0805 56.9855 27.9921 56.7557 27.9921C56.243 27.9921 55.7569 28.3191 55.2973 28.9731C54.8378 29.6272 54.3958 30.4933 53.9716 31.5716C53.565 32.6322 53.1496 33.8077 52.7254 35.0981Z" fill="#E71575"/>
<path d="M60.9889 46.8972C60.1935 46.8972 59.6455 46.632 59.345 46.1017C59.0622 45.5891 58.9208 45.0235 58.9208 44.4048C58.9208 43.8391 59.0091 43.2646 59.1859 42.6813C59.3627 42.0803 59.6013 41.5235 59.9018 41.0109C60.22 40.4983 60.5647 40.0917 60.9359 39.7912C61.3248 39.473 61.7137 39.3139 62.1025 39.3139C62.2263 39.3139 62.3677 39.3404 62.5268 39.3935C62.7036 39.4288 62.8273 39.4907 62.898 39.5791C62.6859 39.8442 62.4649 40.1712 62.2351 40.5601C62.023 40.949 61.8197 41.3644 61.6253 41.8063C61.4485 42.2306 61.3071 42.6636 61.201 43.1056C61.095 43.5475 61.042 43.954 61.042 44.3252C61.042 44.6788 61.1038 44.9704 61.2276 45.2002C61.369 45.43 61.6076 45.5449 61.9435 45.5449C62.2793 45.5449 62.677 45.3593 63.1366 44.9881C63.6139 44.5992 64.0646 44.1573 64.4889 43.6624C63.9232 43.1498 63.5167 42.5929 63.2692 41.9919C63.0217 41.3733 62.898 40.6308 62.898 39.7647C62.898 39.3935 62.9864 38.9692 63.1631 38.492C63.3576 38.0147 63.6581 37.5993 64.0646 37.2458C64.4889 36.8922 65.0545 36.7155 65.7616 36.7155C66.5217 36.7155 67.052 36.9276 67.3525 37.3518C67.6707 37.7761 67.8298 38.2799 67.8298 38.8632C67.8298 39.5172 67.653 40.2508 67.2995 41.0639C66.9636 41.877 66.557 42.646 66.0798 43.3707C66.2919 43.4768 66.5394 43.5298 66.8222 43.5298C67.0873 43.5298 67.4055 43.4679 67.7767 43.3442C68.1479 43.2205 68.5103 43.0172 68.8638 42.7343C69.2174 42.4338 69.5002 42.0361 69.7123 41.5412L70.1896 41.8859C69.8007 42.7874 69.2792 43.4502 68.6252 43.8745C67.9888 44.281 67.3613 44.4843 66.7426 44.4843C66.5129 44.4843 66.2831 44.4667 66.0533 44.4313C65.8235 44.3783 65.6113 44.3164 65.4169 44.2457C64.8159 44.9528 64.1265 45.5714 63.3487 46.1017C62.571 46.632 61.7844 46.8972 60.9889 46.8972ZM65.1783 42.8139C65.6025 42.1952 65.9649 41.5323 66.2654 40.8253C66.5659 40.1182 66.7161 39.4642 66.7161 38.8632C66.7161 38.4566 66.6543 38.165 66.5305 37.9882C66.4068 37.7937 66.2212 37.6965 65.9737 37.6965C65.6379 37.6965 65.2932 37.9352 64.9396 38.4124C64.5861 38.8897 64.4093 39.4907 64.4093 40.2154C64.4093 40.5866 64.4712 41.0374 64.5949 41.5677C64.7364 42.098 64.9308 42.5134 65.1783 42.8139Z" fill="#E71575"/>
<path d="M77.5095 47.0563C76.9616 47.0563 76.4843 46.8795 76.0777 46.526C75.6712 46.1724 75.3442 45.7305 75.0967 45.2002C74.8492 44.6699 74.6636 44.1308 74.5399 43.5828C74.4161 43.0172 74.3543 42.5311 74.3543 42.1245C74.6017 42.0715 74.9111 41.9919 75.2823 41.8859C75.6535 41.7798 76.0335 41.6384 76.4224 41.4616C76.8113 41.2672 77.1295 41.0374 77.377 40.7722C77.6421 40.4894 77.7747 40.1536 77.7747 39.7647C77.7747 39.4465 77.6686 39.1902 77.4565 38.9958C77.2621 38.8013 76.9792 38.7041 76.608 38.7041C76.1131 38.7041 75.6447 38.872 75.2027 39.2079C74.7608 39.5261 74.3454 39.9503 73.9565 40.4806C73.5853 41.0109 73.2406 41.5854 72.9225 42.2041C72.622 42.8227 72.348 43.4237 72.1005 44.0071C71.8707 44.5904 71.6763 45.0942 71.5172 45.5184C71.3227 46.0487 71.1371 46.4022 70.9604 46.579C70.7836 46.7734 70.5273 46.8707 70.1914 46.8707C70.0677 46.8707 69.9175 46.8353 69.7407 46.7646C69.5816 46.6939 69.4402 46.5171 69.3165 46.2343C69.2104 45.9515 69.1574 45.5007 69.1574 44.8821C69.1574 43.8038 69.3076 42.6195 69.6081 41.3291C69.9086 40.0387 70.3063 38.7306 70.8013 37.4049C71.3139 36.0614 71.8707 34.7799 72.4717 33.5602C73.0727 32.3405 73.6826 31.2446 74.3012 30.2724C74.9199 29.3002 75.4944 28.5312 76.0247 27.9656C76.5727 27.3999 77.0234 27.1171 77.377 27.1171C77.6775 27.1171 77.9249 27.3027 78.1194 27.6739C78.3315 28.0274 78.4376 28.487 78.4376 29.0527C78.4376 29.6537 78.305 30.3254 78.0398 31.0678C77.7747 31.7925 77.3946 32.535 76.8997 33.2951C76.4224 34.0375 75.8479 34.7445 75.1762 35.4162C74.5045 36.088 73.7621 36.6624 72.949 37.1397C72.454 38.2887 72.074 39.4288 71.8088 40.5601C71.5437 41.6738 71.3758 42.6636 71.3051 43.5298C71.6232 42.8051 71.9856 42.0626 72.3922 41.3025C72.7987 40.5425 73.2495 39.8354 73.7444 39.1814C74.2394 38.5096 74.7697 37.9705 75.3353 37.564C75.9186 37.1574 76.5373 36.9541 77.1914 36.9541C77.8984 36.9541 78.5171 37.2016 79.0474 37.6965C79.5777 38.1915 79.8429 38.8101 79.8429 39.5526C79.8429 40.0829 79.7014 40.5425 79.4186 40.9313C79.1358 41.3202 78.7823 41.6472 78.358 41.9124C77.9515 42.1599 77.5361 42.3455 77.1118 42.4692C76.6876 42.5929 76.3252 42.6636 76.0247 42.6813C76.0777 42.9111 76.1484 43.2028 76.2368 43.5563C76.3429 43.9098 76.4755 44.2545 76.6346 44.5904C76.7936 44.9262 76.9969 45.2091 77.2444 45.4389C77.4919 45.6687 77.7835 45.7836 78.1194 45.7836C78.5613 45.7836 79.0121 45.5803 79.4716 45.1737C79.9489 44.7672 80.4085 44.228 80.8504 43.5563C81.31 42.8846 81.7166 42.1422 82.0701 41.3291L82.4413 41.7798C82.1408 42.6636 81.7254 43.5121 81.1951 44.3252C80.6825 45.1384 80.108 45.7924 79.4716 46.2873C78.8353 46.8 78.1813 47.0563 77.5095 47.0563ZM73.7179 35.3367C74.1952 34.9125 74.699 34.391 75.2293 33.7723C75.7596 33.136 76.2103 32.4643 76.5815 31.7572C76.9704 31.0325 77.1737 30.3431 77.1914 29.689C77.1914 29.6714 77.1914 29.6625 77.1914 29.6625C77.1914 29.6448 77.1914 29.6272 77.1914 29.6095C77.0146 29.6802 76.7318 29.9895 76.3429 30.5375C75.9717 31.0678 75.5563 31.7484 75.0967 32.5792C74.6371 33.41 74.1775 34.3291 73.7179 35.3367Z" fill="#E71575"/>
<path d="M82.8367 47.2949C82.2534 47.2949 81.7496 47.1005 81.3254 46.7116C80.8835 46.3227 80.6625 45.7394 80.6625 44.9616C80.6625 44.3429 80.8039 43.6712 81.0868 42.9465C81.3696 42.2217 81.7585 41.5058 82.2534 40.7988C82.7484 40.0917 83.314 39.4553 83.9504 38.8897C84.5867 38.3064 85.2673 37.8379 85.992 37.4844C86.7168 37.1309 87.4415 36.9541 88.1662 36.9541C88.9263 36.9541 89.5715 37.1486 90.1018 37.5374C90.6321 37.9263 90.8973 38.4389 90.8973 39.0753C90.8973 39.5526 90.7293 39.8973 90.3935 40.1094C90.0576 40.3215 89.6599 40.3834 89.2003 40.295C89.2357 40.1359 89.2622 39.9768 89.2799 39.8177C89.3152 39.6586 89.3329 39.4907 89.3329 39.3139C89.3329 38.9604 89.2622 38.6422 89.1208 38.3594C88.9794 38.0766 88.6789 37.9352 88.2193 37.9352C87.7243 37.9352 87.2205 38.1031 86.7079 38.4389C86.1953 38.7748 85.7004 39.2167 85.2231 39.7647C84.7635 40.295 84.3481 40.8871 83.9769 41.5412C83.6057 42.1775 83.314 42.8051 83.1019 43.4237C82.8898 44.0424 82.7837 44.5992 82.7837 45.0942C82.7837 45.6598 82.987 45.9426 83.3936 45.9426C83.8001 45.9426 84.2509 45.7482 84.7458 45.3593C85.2408 44.9528 85.7357 44.449 86.2306 43.848C86.7433 43.247 87.2294 42.6371 87.689 42.0184C88.1486 41.3821 88.5463 40.843 88.8821 40.401C88.9352 40.3127 89.0059 40.2685 89.0943 40.2685C89.165 40.2861 89.2975 40.3303 89.492 40.401C89.7041 40.4541 89.8985 40.5425 90.0753 40.6662C90.2521 40.7899 90.3405 40.949 90.3405 41.1435C90.3405 41.3202 90.2609 41.55 90.1018 41.8328C89.9604 42.098 89.7836 42.3985 89.5715 42.7343C89.3771 43.0525 89.2003 43.3795 89.0412 43.7154C88.8998 44.0336 88.8291 44.3429 88.8291 44.6434C88.8291 44.8732 88.891 45.0942 89.0147 45.3063C89.1384 45.5007 89.3417 45.598 89.6246 45.598C90.0488 45.598 90.641 45.2886 91.401 44.6699C92.1788 44.0336 92.9654 42.9641 93.7609 41.4616L94.2647 41.9654C93.8404 42.92 93.3278 43.7684 92.7268 44.5108C92.1435 45.2356 91.5248 45.8012 90.8707 46.2078C90.2167 46.632 89.5538 46.8442 88.8821 46.8442C88.1574 46.8442 87.6183 46.6144 87.2647 46.1548C86.9112 45.6952 86.7168 45.2002 86.6814 44.6699C86.6814 44.6346 86.6814 44.6081 86.6814 44.5904C86.6814 44.5727 86.6814 44.555 86.6814 44.5374C85.9743 45.3858 85.3203 46.0575 84.7193 46.5525C84.136 47.0474 83.5085 47.2949 82.8367 47.2949Z" fill="#E71575"/>
<path d="M95.4137 46.8442C94.5829 46.8442 93.9996 46.5702 93.6637 46.0222C93.3455 45.4565 93.1864 44.7937 93.1864 44.0336C93.1864 43.1674 93.3455 42.151 93.6637 40.9844C93.9819 39.8177 94.3973 38.598 94.9099 37.3253C95.4402 36.0349 96.0147 34.7799 96.6334 33.5602C97.2697 32.3228 97.9061 31.2092 98.5425 30.2193C99.1788 29.2294 99.7621 28.4428 100.292 27.8595C100.84 27.2585 101.282 26.958 101.618 26.958C101.848 26.958 102.042 27.0817 102.202 27.3292C102.361 27.559 102.484 27.8418 102.573 28.1777C102.679 28.4959 102.732 28.7964 102.732 29.0792C102.732 29.5565 102.608 30.184 102.361 30.9618C102.131 31.7218 101.795 32.5615 101.353 33.4807C100.929 34.3998 100.416 35.3455 99.8152 36.3178C99.2318 37.2723 98.5778 38.1826 97.8531 39.0488C97.146 39.9149 96.3859 40.6662 95.5728 41.3025C95.5021 41.7445 95.4314 42.1864 95.3607 42.6283C95.3076 43.0525 95.2811 43.4414 95.2811 43.7949C95.2811 44.4313 95.3872 44.8997 95.5993 45.2002C95.8114 45.4831 96.0854 45.6245 96.4213 45.6245C96.8632 45.6245 97.3139 45.4212 97.7735 45.0146C98.2508 44.5904 98.7015 44.0601 99.1258 43.4237C99.5677 42.7697 99.9477 42.098 100.266 41.4086L100.902 41.7533C100.142 43.3265 99.2937 44.5727 98.3568 45.4919C97.42 46.3934 96.4389 46.8442 95.4137 46.8442ZM96.0501 39.6586C96.6511 39.0046 97.2167 38.2975 97.747 37.5374C98.295 36.7597 98.7899 35.9731 99.2318 35.1776C99.6914 34.3822 100.089 33.6132 100.425 32.8708C100.761 32.1284 101.017 31.4655 101.194 30.8822C101.388 30.2812 101.494 29.8039 101.512 29.4504C101.512 29.4327 101.512 29.4239 101.512 29.4239C101.512 29.4062 101.512 29.3885 101.512 29.3709C101.371 29.3709 101.141 29.5741 100.823 29.9807C100.522 30.3696 100.16 30.9087 99.7356 31.5981C99.3114 32.2875 98.8695 33.0741 98.4099 33.9579C97.968 34.8418 97.5349 35.7786 97.1106 36.7685C96.7041 37.7407 96.3506 38.7041 96.0501 39.6586Z" fill="#E71575"/>
<path d="M102.735 47.401C101.851 47.401 101.135 47.2154 100.587 46.8442C100.057 46.4906 99.6769 46.0399 99.4471 45.4919C99.2173 44.9262 99.1024 44.3518 99.1024 43.7684C99.1024 43.2558 99.1731 42.8581 99.3145 42.5753C99.4559 42.2924 99.6327 42.0892 99.8448 41.9654C100.057 41.824 100.251 41.7179 100.428 41.6472C100.623 41.5765 100.764 41.497 100.852 41.4086C101.294 40.949 101.745 40.4187 102.205 39.8177C102.682 39.199 103.088 38.5185 103.424 37.7761V37.5109C103.424 36.8039 103.539 36.3089 103.769 36.0261C104.016 35.7256 104.299 35.5753 104.617 35.5753C104.83 35.5753 104.98 35.6284 105.068 35.7344C105.174 35.8405 105.236 35.9642 105.254 36.1056C105.254 36.2117 105.227 36.3354 105.174 36.4768C105.139 36.6183 105.121 36.8127 105.121 37.0602C105.121 37.5905 105.245 38.2003 105.492 38.8897C105.758 39.5614 106.014 40.2773 106.261 41.0374C106.527 41.7975 106.659 42.5753 106.659 43.3707C106.659 43.5828 106.65 43.7773 106.633 43.954C106.615 44.1308 106.588 44.2987 106.553 44.4578C107.101 44.3164 107.64 44.0159 108.17 43.5563C108.701 43.079 109.205 42.3808 109.682 41.4616L110 41.7003C109.664 42.7078 109.178 43.521 108.542 44.1396C107.905 44.7406 107.163 45.1118 106.314 45.2533C106.032 45.978 105.563 46.5171 104.909 46.8707C104.273 47.2242 103.548 47.401 102.735 47.401ZM102.549 46.2343C102.903 46.2343 103.23 46.1459 103.53 45.9692C103.831 45.7924 104.069 45.5361 104.246 45.2002C103.522 45.0411 102.867 44.7583 102.284 44.3518C101.701 43.9452 101.25 43.5298 100.932 43.1056C100.684 43.1586 100.561 43.3972 100.561 43.8215C100.561 44.4048 100.729 44.9528 101.064 45.4654C101.4 45.978 101.895 46.2343 102.549 46.2343ZM104.458 44.4048C104.494 44.281 104.511 44.1396 104.511 43.9805C104.529 43.8038 104.538 43.6712 104.538 43.5828C104.52 42.7874 104.414 42.0008 104.22 41.223C104.025 40.4452 103.831 39.6498 103.636 38.8367C103.318 39.3846 102.947 39.9768 102.523 40.6132C102.099 41.2495 101.701 41.7621 101.33 42.151C101.612 42.6283 102.028 43.079 102.576 43.5033C103.124 43.9275 103.751 44.228 104.458 44.4048Z" fill="#E71575"/>
</svg>
