<svg width="45" height="34" viewBox="0 0 45 34" fill="none" xmlns="http://www.w3.org/2000/svg">
<path d="M43.7456 12.1599L34.9253 3.33958L32.8204 1.23621C32.0687 0.486147 31.0501 0.0649057 29.9882 0.0649057C28.9262 0.0649057 27.9077 0.486147 27.1559 1.23621L22.3875 6.00319C22.2018 5.65609 21.9662 5.33809 21.6883 5.05934L17.8015 1.17251C17.0501 0.421736 16.0314 0 14.9692 0C13.907 0 12.8883 0.421736 12.137 1.17251L1.17131 12.1396C0.421242 12.8914 0 13.9099 0 14.9719C0 16.0338 0.421242 17.0524 1.17131 17.8041L5.05669 21.6909C5.80843 22.441 6.82701 22.8623 7.88894 22.8623C8.95088 22.8623 9.96945 22.441 10.7212 21.6909L21.6883 10.7238C21.7505 10.6616 21.8084 10.5979 21.8664 10.5328L29.1594 3.23825C29.3797 3.01929 29.6776 2.89637 29.9882 2.89637C30.2987 2.89637 30.5967 3.01929 30.8169 3.23825L32.9261 5.34741L34.711 7.12798C34.9287 7.34804 35.0507 7.64505 35.0507 7.95456C35.0507 8.26407 34.9287 8.5611 34.711 8.78116L23.6238 19.867C23.4039 20.0866 23.1058 20.21 22.795 20.21C22.4842 20.21 22.1861 20.0866 21.9662 19.867L18.8466 16.7372L16.8431 18.7407L19.9671 21.8647C20.7188 22.6147 21.7374 23.036 22.7993 23.036C23.8613 23.036 24.8799 22.6147 25.6316 21.8647L36.7102 10.7861C36.9912 10.5057 37.2283 10.1846 37.4137 9.83356L41.745 14.1634C41.9639 14.3836 42.0868 14.6816 42.0868 14.9921C42.0868 15.3027 41.9639 15.6007 41.745 15.8209L37.7264 19.8395C37.5063 20.0592 37.2079 20.1827 36.8969 20.1827C36.5859 20.1827 36.2875 20.0592 36.0674 19.8395L33.2344 17.0065L31.231 19.01L34.0654 21.843C34.8169 22.5934 35.8356 23.0149 36.8976 23.0149C37.9597 23.0149 38.9783 22.5934 39.7299 21.843L43.7456 17.8244C44.4949 17.0723 44.9157 16.0538 44.9157 14.9921C44.9157 13.9304 44.4949 12.912 43.7456 12.1599ZM8.71336 19.6875C8.49312 19.9064 8.19517 20.0293 7.8846 20.0293C7.57404 20.0293 7.27608 19.9064 7.05584 19.6875L3.17046 15.8006C2.95079 15.5808 2.82739 15.2827 2.82739 14.9719C2.82739 14.6611 2.95079 14.363 3.17046 14.1431L14.1361 3.176C14.356 2.95633 14.6541 2.83293 14.9649 2.83293C15.2757 2.83293 15.5738 2.95633 15.7936 3.176L19.6805 7.06285C19.882 7.26496 20.0029 7.53366 20.0205 7.81855C20.0381 8.10344 19.9512 8.38496 19.776 8.61034L16.157 12.2294L8.71336 19.6875Z" fill="url(#paint0_linear_436_1334)"/>
<path d="M29.7893 26.3984H15.1322C14.447 26.3984 13.8916 26.9539 13.8916 27.639V28.0357C13.8916 28.7208 14.447 29.2763 15.1322 29.2763H29.7893C30.4744 29.2763 31.0299 28.7208 31.0299 28.0357V27.639C31.0299 26.9539 30.4744 26.3984 29.7893 26.3984Z" fill="url(#paint1_linear_436_1334)"/>
<path d="M27.6264 31.1221H17.2963C16.6111 31.1221 16.0557 31.6775 16.0557 32.3627V32.7593C16.0557 33.4445 16.6111 33.9999 17.2963 33.9999H27.6264C28.3116 33.9999 28.867 33.4445 28.867 32.7593V32.3627C28.867 31.6775 28.3116 31.1221 27.6264 31.1221Z" fill="url(#paint2_linear_436_1334)"/>
<defs>
<linearGradient id="paint0_linear_436_1334" x1="14.6949" y1="-0.702154" x2="32.8422" y2="35.9456" gradientUnits="userSpaceOnUse">
<stop stop-color="#F4C51D"/>
<stop offset="0.27" stop-color="#F052A0"/>
<stop offset="0.59" stop-color="#1EDEEB"/>
<stop offset="1" stop-color="#8DE971"/>
</linearGradient>
<linearGradient id="paint1_linear_436_1334" x1="14.4663" y1="33.2514" x2="32.7786" y2="20.8512" gradientUnits="userSpaceOnUse">
<stop stop-color="#F4C51D"/>
<stop offset="0.27" stop-color="#F052A0"/>
<stop offset="0.59" stop-color="#1EDEEB"/>
<stop offset="1" stop-color="#8DE971"/>
</linearGradient>
<linearGradient id="paint2_linear_436_1334" x1="16.6593" y1="36.4898" x2="34.9716" y2="24.0896" gradientUnits="userSpaceOnUse">
<stop stop-color="#F4C51D"/>
<stop offset="0.27" stop-color="#F052A0"/>
<stop offset="0.59" stop-color="#1EDEEB"/>
<stop offset="1" stop-color="#8DE971"/>
</linearGradient>
</defs>
</svg>
