<svg width="190" height="34" viewBox="0 0 190 34" fill="none" xmlns="http://www.w3.org/2000/svg">
<path d="M66.1675 21.283H63.6312V12.1298L61.2282 12.1747V21.283H58.679V12.1298L56.2759 12.1747V21.283H53.7166V9.99168H56.2759V10.4057L58.0536 10.1162C58.6484 10.0158 59.2499 9.95971 59.853 9.94824C60.4407 9.94824 60.8214 10.1162 60.9922 10.452C61.6186 10.3555 62.2459 10.2547 62.8741 10.1495C63.5019 10.0358 64.1372 9.96853 64.7749 9.94824C65.7062 9.94824 66.1718 10.4067 66.1718 11.3235L66.1675 21.283Z" fill="#131319"/>
<path d="M75.1383 19.8857C75.1383 20.8179 74.6558 21.2836 73.6907 21.2826H69.277C68.3119 21.2826 67.8293 20.817 67.8293 19.8857V11.3911C67.8293 10.4598 68.3119 9.99414 69.277 9.99414H73.6907C74.6558 9.99414 75.1383 10.4598 75.1383 11.3911V15.5385L74.4348 16.2478H70.2888V19.4108H72.6977V17.5289H75.1441L75.1383 19.8857ZM72.6919 14.5773V11.8717H70.2888V14.5773H72.6919Z" fill="#131319"/>
<path d="M84.367 21.283H81.796V12.1298L79.393 12.1747V21.283H76.8336V9.99166H79.393V10.4057C79.9894 10.3092 80.582 10.216 81.1707 10.1263C81.7649 10.02 82.3665 9.96004 82.97 9.94678C83.9004 9.94678 84.366 10.4052 84.367 11.322V21.283Z" fill="#131319"/>
<path d="M90.9129 21.2828H88.0741C87.1274 21.2828 86.654 20.8171 86.654 19.8858V12.1744H85.4481V9.99432H86.654V6.93262H89.2003V9.99432H90.8434V12.1744H89.2003V19.1041H90.91L90.9129 21.2828Z" fill="#131319"/>
<path d="M99.6232 19.8857C99.6232 20.8179 99.1499 21.2836 98.2031 21.2826H93.6214C92.6564 21.2826 92.1738 20.817 92.1738 19.8857V11.3911C92.1738 10.4598 92.6564 9.99414 93.6214 9.99414H98.2031C99.1499 9.99414 99.6232 10.4598 99.6232 11.3911V19.8857ZM97.1189 19.1619V12.1322H94.6869V19.1619H97.1189Z" fill="#131319"/>
<path d="M108.419 14.7123H105.883V12.1298L103.856 12.1747V21.283H101.297V9.99168H103.856V10.4057L105.433 10.1162C105.958 10.0153 106.49 9.95911 107.025 9.94824C107.957 9.94824 108.423 10.4067 108.422 11.3235L108.419 14.7123Z" fill="#131319"/>
<path d="M117.139 19.8857C117.139 20.8179 116.666 21.2836 115.719 21.2826H111.138C110.172 21.2826 109.69 20.817 109.69 19.8857V11.3911C109.69 10.4598 110.172 9.99414 111.138 9.99414H115.719C116.666 9.99414 117.139 10.4598 117.139 11.3911V19.8857ZM114.635 19.1619V12.1322H112.217V19.1619H114.635Z" fill="#131319"/>
<path d="M126.128 19.8857C126.128 20.8179 125.654 21.2836 124.707 21.2826H120.27C119.305 21.2826 118.823 20.817 118.823 19.8857V11.3911C118.823 10.4598 119.305 9.99414 120.27 9.99414H124.707C125.654 9.99414 126.128 10.4598 126.128 11.3911V14.0764H123.635V12.1322H121.337V19.1619H123.629V17.0049H126.122L126.128 19.8857Z" fill="#131319"/>
<path d="M135.098 19.8857C135.098 20.8179 134.616 21.2836 133.651 21.2826H129.235C128.27 21.2826 127.788 20.817 127.788 19.8857V11.3911C127.788 10.4598 128.27 9.99414 129.235 9.99414H133.651C134.616 9.99414 135.098 10.4598 135.098 11.3911V15.5385L134.395 16.242H130.247V19.4051H132.65V17.5232H135.098V19.8857ZM132.65 14.5773V11.8717H130.247V14.5773H132.65Z" fill="#131319"/>
<path d="M144.065 21.2826H141.617V20.8917L139.88 21.1596C139.305 21.2551 138.725 21.3112 138.143 21.3275C137.212 21.3275 136.747 20.8695 136.746 19.9537V15.8845C136.746 14.9532 137.228 14.4875 138.193 14.4875H141.647V11.8949H139.199V13.5046H136.883V11.3911C136.883 10.4598 137.366 9.99414 138.331 9.99414H142.656C143.602 9.99414 144.075 10.4598 144.075 11.3911L144.065 21.2826ZM141.64 19.256V16.2275H139.192V19.3457L141.64 19.256Z" fill="#131319"/>
<path d="M153.274 21.283H150.705V12.1298L148.302 12.1747V21.283H145.743V9.99166H148.302V10.4057C148.897 10.3087 149.49 10.216 150.078 10.1263C150.672 10.0201 151.274 9.96011 151.878 9.94678C152.81 9.94678 153.275 10.4052 153.274 11.322V21.283Z" fill="#131319"/>
<path d="M157.396 21.2828H154.881V18.5786H157.396V21.2828Z" fill="#131319"/>
<path d="M166.3 19.8857C166.3 20.8179 165.827 21.2836 164.88 21.2826H160.443C159.478 21.2826 158.996 20.817 158.996 19.8857V11.3911C158.996 10.4598 159.478 9.99414 160.443 9.99414H164.88C165.827 9.99414 166.3 10.4598 166.3 11.3911V14.0764H163.807V12.1322H161.516V19.1619H163.807V17.0049H166.3V19.8857Z" fill="#131319"/>
<path d="M175.416 19.8857C175.416 20.8179 174.943 21.2836 173.997 21.2826H169.414C168.449 21.2826 167.966 20.817 167.966 19.8857V11.3911C167.966 10.4598 168.449 9.99414 169.414 9.99414H173.997C174.943 9.99414 175.416 10.4598 175.416 11.3911V19.8857ZM172.913 19.1619V12.1322H170.487V19.1619H172.913Z" fill="#131319"/>
<path d="M189.55 21.283H187.014V12.1298L184.611 12.1747V21.283H182.062V12.1298L179.66 12.1747V21.283H177.099V9.99168H179.66V10.4057L181.436 10.1162C182.031 10.0159 182.633 9.95977 183.236 9.94824C183.825 9.94824 184.204 10.1162 184.377 10.452C185.002 10.3555 185.629 10.2547 186.258 10.1495C186.886 10.0357 187.52 9.96848 188.158 9.94824C189.09 9.94824 189.556 10.4067 189.555 11.3235L189.55 21.283Z" fill="#131319"/>
<path d="M43.7456 12.1599L34.9253 3.33958L32.8204 1.23621C32.0687 0.486147 31.0501 0.0649057 29.9882 0.0649057C28.9262 0.0649057 27.9077 0.486147 27.1559 1.23621L22.3875 6.00319C22.2018 5.65609 21.9662 5.33809 21.6883 5.05934L17.8015 1.17251C17.0501 0.421736 16.0314 0 14.9692 0C13.907 0 12.8883 0.421736 12.137 1.17251L1.17131 12.1396C0.421242 12.8914 0 13.9099 0 14.9719C0 16.0338 0.421242 17.0524 1.17131 17.8041L5.05669 21.6909C5.80843 22.441 6.82701 22.8623 7.88894 22.8623C8.95088 22.8623 9.96945 22.441 10.7212 21.6909L21.6883 10.7238C21.7505 10.6616 21.8084 10.5979 21.8664 10.5328L29.1594 3.23825C29.3797 3.01929 29.6776 2.89637 29.9882 2.89637C30.2987 2.89637 30.5967 3.01929 30.8169 3.23825L32.9261 5.34741L34.711 7.12798C34.9287 7.34804 35.0507 7.64505 35.0507 7.95456C35.0507 8.26407 34.9287 8.5611 34.711 8.78116L23.6238 19.867C23.4039 20.0866 23.1058 20.21 22.795 20.21C22.4842 20.21 22.1861 20.0866 21.9662 19.867L18.8466 16.7372L16.8431 18.7407L19.9671 21.8647C20.7188 22.6147 21.7374 23.036 22.7993 23.036C23.8613 23.036 24.8799 22.6147 25.6316 21.8647L36.7102 10.7861C36.9912 10.5057 37.2283 10.1846 37.4137 9.83356L41.745 14.1634C41.9639 14.3836 42.0868 14.6816 42.0868 14.9921C42.0868 15.3027 41.9639 15.6007 41.745 15.8209L37.7264 19.8395C37.5063 20.0592 37.2079 20.1827 36.8969 20.1827C36.5859 20.1827 36.2875 20.0592 36.0674 19.8395L33.2344 17.0065L31.231 19.01L34.0654 21.843C34.8169 22.5934 35.8356 23.0149 36.8976 23.0149C37.9597 23.0149 38.9783 22.5934 39.7299 21.843L43.7456 17.8244C44.4949 17.0723 44.9157 16.0538 44.9157 14.9921C44.9157 13.9304 44.4949 12.912 43.7456 12.1599ZM8.71336 19.6875C8.49312 19.9064 8.19517 20.0293 7.8846 20.0293C7.57404 20.0293 7.27608 19.9064 7.05584 19.6875L3.17046 15.8006C2.95079 15.5808 2.82739 15.2827 2.82739 14.9719C2.82739 14.6611 2.95079 14.363 3.17046 14.1431L14.1361 3.176C14.356 2.95633 14.6541 2.83293 14.9649 2.83293C15.2757 2.83293 15.5738 2.95633 15.7936 3.176L19.6805 7.06285C19.882 7.26496 20.0029 7.53366 20.0205 7.81855C20.0381 8.10344 19.9512 8.38496 19.776 8.61034L16.157 12.2294L8.71336 19.6875Z" fill="url(#paint0_linear_436_1316)"/>
<path d="M29.7893 26.3984H15.1322C14.447 26.3984 13.8916 26.9539 13.8916 27.639V28.0357C13.8916 28.7208 14.447 29.2763 15.1322 29.2763H29.7893C30.4744 29.2763 31.0299 28.7208 31.0299 28.0357V27.639C31.0299 26.9539 30.4744 26.3984 29.7893 26.3984Z" fill="url(#paint1_linear_436_1316)"/>
<path d="M27.6264 31.1221H17.2963C16.6111 31.1221 16.0557 31.6775 16.0557 32.3627V32.7593C16.0557 33.4445 16.6111 33.9999 17.2963 33.9999H27.6264C28.3116 33.9999 28.867 33.4445 28.867 32.7593V32.3627C28.867 31.6775 28.3116 31.1221 27.6264 31.1221Z" fill="url(#paint2_linear_436_1316)"/>
<defs>
<linearGradient id="paint0_linear_436_1316" x1="14.6949" y1="-0.702154" x2="32.8422" y2="35.9456" gradientUnits="userSpaceOnUse">
<stop stop-color="#F4C51D"/>
<stop offset="0.27" stop-color="#F052A0"/>
<stop offset="0.59" stop-color="#1EDEEB"/>
<stop offset="1" stop-color="#8DE971"/>
</linearGradient>
<linearGradient id="paint1_linear_436_1316" x1="14.4663" y1="33.2514" x2="32.7786" y2="20.8512" gradientUnits="userSpaceOnUse">
<stop stop-color="#F4C51D"/>
<stop offset="0.27" stop-color="#F052A0"/>
<stop offset="0.59" stop-color="#1EDEEB"/>
<stop offset="1" stop-color="#8DE971"/>
</linearGradient>
<linearGradient id="paint2_linear_436_1316" x1="16.6593" y1="36.4898" x2="34.9716" y2="24.0896" gradientUnits="userSpaceOnUse">
<stop stop-color="#F4C51D"/>
<stop offset="0.27" stop-color="#F052A0"/>
<stop offset="0.59" stop-color="#1EDEEB"/>
<stop offset="1" stop-color="#8DE971"/>
</linearGradient>
</defs>
</svg>
