<svg width="9" height="9" viewBox="0 0 9 9" fill="none" xmlns="http://www.w3.org/2000/svg">
<path fill-rule="evenodd" clip-rule="evenodd" d="M8.58497 0.0127185C8.56226 0.0214405 8.26049 0.19192 7.91437 0.391558C7.56826 0.591208 7.14307 0.836325 6.9695 0.936285C6.70892 1.08635 6.10882 1.43243 5.57758 1.739C5.51869 1.77299 5.06223 2.03623 4.56322 2.32399C4.06421 2.61174 3.36177 3.01693 3.00224 3.22442C2.64271 3.4319 2.28515 3.63806 2.20766 3.68255C2.07981 3.75597 1.82584 3.90244 0.979164 4.39101C0.821093 4.48222 0.562523 4.63105 0.404576 4.72173C0.235291 4.81893 0.100224 4.90421 0.0755978 4.92946C0.0184332 4.98809 -0.00559576 5.06456 0.00108772 5.16661C0.00727529 5.2612 0.0351363 5.32269 0.0959976 5.37605C0.144123 5.41825 0.133247 5.41324 0.511433 5.56751C0.666404 5.63073 0.975782 5.75743 1.19894 5.84907C1.4221 5.9407 1.66047 6.03843 1.72866 6.06625C1.79685 6.09406 1.92721 6.1473 2.01835 6.18454L2.18407 6.25226L2.83547 5.68887C3.19375 5.379 3.55535 5.06616 3.63903 4.99366C3.72271 4.92115 3.89008 4.77654 4.01096 4.67232C4.13184 4.56809 4.28653 4.43413 4.35471 4.37462C4.4229 4.31512 4.6307 4.13503 4.81648 3.97442C5.00226 3.81382 5.38568 3.48237 5.66853 3.23788C5.95137 2.99338 6.48058 2.53579 6.84454 2.22103C7.20852 1.90626 7.50814 1.65057 7.51041 1.65282C7.51266 1.65508 7.45782 1.72583 7.38852 1.81004C7.31923 1.89427 7.08756 2.17769 6.8737 2.43988C6.10449 3.38293 5.36181 4.29279 4.0439 5.90663C3.88536 6.10078 3.63303 6.41003 3.48319 6.59383L3.21075 6.92802V7.82206C3.21075 8.85357 3.20501 8.79235 3.31173 8.89958C3.40548 8.99377 3.50903 9.02109 3.63211 8.9841C3.66127 8.97535 3.7024 8.95502 3.72351 8.93894C3.74462 8.92286 3.8499 8.80216 3.95748 8.67071C4.63433 7.84358 4.99711 7.40777 5.00762 7.40916C5.01867 7.41063 5.34057 7.54145 6.33271 7.94765C7.16081 8.28668 7.31976 8.34913 7.36978 8.35504C7.48859 8.36909 7.64558 8.27685 7.68952 8.16718C7.69944 8.14241 7.99961 6.37115 8.35656 4.23104C8.84989 1.27333 9.00422 0.3258 8.99991 0.281076C8.98963 0.17416 8.92324 0.0812454 8.81919 0.028193C8.76069 -0.00163067 8.64268 -0.00942984 8.58497 0.0127185Z" fill="#808080"/>
</svg>
